<svg id="Calque_1" data-name="Calque 1" xmlns="http://www.w3.org/2000/svg" viewBox="0 0 1500 1500"><path d="M390.8,1298.53c3.79-.9,6.92-3.06,10.18-5,7.74-4.7,12.76-12.55,20.21-17.41,7.66-5,12.67-12.47,19.05-18.65l-.84-.67a5.82,5.82,0,0,0,4.51-5.53c.18-2.76-1.26-4.56-3-6.51-3.89-4.35-3.72-4.5-.26-9.29,3-4.19,3.73-7.27,2.4-10.31a72.72,72.72,0,0,0-3-6.94c-2.51-4.41-5.23-8.69-7.91-13A13,13,0,0,1,430,1198c.12-8.83.08-17.68.48-26.5.3-6.86,4.51-11.59,9.71-15.54,2.24-1.71,8.91-1.21,10.65.74,5.88,6.62,12,13,17.59,19.91,2.29,2.85,3.5,6.66,4.82,10.18,2.08,5.59-.33,8.94-6.7,9.9-2.48.38-4.9,1.09-7.35,1.64a10.14,10.14,0,0,0-.54-3.37c-.21-.4-2.47-.3-2.52-.11-.73,3,.63,3.9,3.82,2.65-4,3.87-5,8.7-4.27,13.94.35,2.51,1.61,4.88,1.94,7.39,1.2,8.94,7,13,15.09,14.89,4.53,1.07,6.76-1.21,5.29-6.2s-1.92-9.91-.07-14.92a44,44,0,0,0,2.11-7.35c1.2-6.57,5-11.59,9.37-16.27a9,9,0,0,0,2.52-7c-.7-13.42,4.88-24.81,11.91-35.62a108.42,108.42,0,0,1,9.21-12.21c15.13-17.26,29.51-35.17,46-51.25,14.61-14.27,28-29.7,41.08-45.37a223.26,223.26,0,0,0,34.27-55c2-4.68,4.09-9.33,6.28-13.93,6.66-14,15.46-26.37,28.21-35.59a155.49,155.49,0,0,0,20-17.78c8-8.21,15.8-16.64,24.73-23.94s15.38-17.11,25.45-23.05c7.18-7.21,15-13.85,19.9-23l-.24.23c.88-.54,1.8-1,2.64-1.64,2-1.41,2.81-3.12,2.13-4.92-.77-2-2.54-2.85-5-2.56l-1.32.92c2.13-1.3,4.64-2.23,6.33-4,7-7.27,14-14.6,20.68-22.25C806.6,785.3,830.57,761,853,735.2a57.83,57.83,0,0,1,5.57-5l-.69-1.14c3.07,3.91,6.28,2.59,9.51.23l-1.23.9a14.16,14.16,0,0,0,8.85-8.76l-1.21,1.17c4.68-1.24,7.44-4.42,8.92-8.88l-.27.8c3.93-.69,6.82-3.18,9.54-5.8,5.43-5.24,11.24-10.11,14.95-17,1.64-3,1.73-5-1.42-5.92-.82-.25-2.11,1-3.19,1.61h.2c-1-2.33-2.06-4.66-3-7a14.49,14.49,0,0,1-.18-11.19c8.19-19.47,21.25-34.68,40.2-44.5,3.33-1.72,8.08-.62,9.82,2.57.59,1.11.62,2.52,1.22,3.62,2.48,4.59,5.73,5.39,8.48,2.15,7.44-8.74,15.09-17.32,22.23-26.3,5.57-7,11.39-13.72,17.59-20.19a350.23,350.23,0,0,0,52.08-70.71c16.32-28.88,34.34-56.79,53.19-84.12a109.05,109.05,0,0,1,23.39-25.12c4-3.1,7.81-6.55,11.63-9.93,6.79-6,5.23-18.06-3-22.75a22,22,0,0,0-7-2.71c-6.59-1.11-12.67.17-17.39,5.33-2.16,2.36-4.18,2.51-6.85.87a260,260,0,0,1-25.13-17.34,47.51,47.51,0,0,1-15.2-21.6,60.43,60.43,0,0,1-1.32-37.61c1.69-6.19,8.29-9.85,14.88-8.17,1.23.32,2.5.54,3.71.92,2.44.76,4.88,1.51,7.26,2.43,11.11,4.26,22.51,4,34,2.29a48.58,48.58,0,0,0,7.5-1.5c11.07-3.51,22.49-4.47,34-5.13,10.45-.59,19.91-4.69,28.68-10a176.79,176.79,0,0,0,33.13-25.87c17.25-17.09,33.27-35.32,49.71-53.16,1.64-1.78,4.15-2.83,6.39-4,1-.49,2.72-.84,3.28-.32.82.74,1,2.29,1.21,3.53a8.84,8.84,0,0,1-.13,3.77c-6.17,19.6-7.53,40.09-11,60.19-1.28,7.51-1.21,15.27-1.44,22.92-.47,15.32-.67,30.65-1.05,46-.4,16-6.84,29.69-16.61,41.95A126.89,126.89,0,0,1,1240.51,393c-8.67,7.53-17.27,15.2-25.24,23.45a30.84,30.84,0,0,0-8.38,20.91,116.68,116.68,0,0,0,.54,15.3c1.17,11.43,2.78,22.82,3.94,34.25.39,3.76-.33,7.63-.09,11.42.3,4.64-7.19,7.46-11.86,5.45-7.16-3.08-12.65-8.55-18.9-12.91-2.37-1.64-4.55-1.93-7-.16-6.22,4.44-12.08,9.52-18.73,13.17-13.61,7.5-25.16,17.42-36,28.29-31.58,31.63-63.36,63.08-93.67,96-27.7,30-55.54,60-83.23,90-19.91,21.6-39.5,43.5-57.07,67.08-6.59,8.85-5.46,11.75-.52,20.95,1.81,3.37,4.2,6.4,6.19,9.68s3.86,6.55,5.6,9.92a14.57,14.57,0,0,1,.81,3.73l.82-.6c-2.47.51-4.95,1.49-7.41,1.44a53.59,53.59,0,0,1-18.75-3.51c-3.56-1.4-7.14-2.76-10.79-3.91a6.22,6.22,0,0,0-3.64.19c-2.49.85-2.87,3-.9,5.68,14.88,20.43,15,20.28,34.19,41.24,12.09,13.24,24.81,25.82,37.55,38.41a254.41,254.41,0,0,0,22.93,20.33c27.15,21.05,28.33,22.52,47.28,49.7a45.62,45.62,0,0,1,3.87,6.62c2.78,6,7.28,10.35,12.22,14.52,7.82,6.6,15.28,13.62,23.11,20.21a145.6,145.6,0,0,1,25.49,28.52c5.84,8.39,11.87,16.66,17.71,25.05a113.54,113.54,0,0,0,17.93,19.92c4.78,4.25,9.53,8.54,14.45,12.62,1.93,1.6,4.35,2.59,6.47,4,2.92,1.9,5,1.32,6.13-2a9.25,9.25,0,0,0,.45-3.58c-.4-5.24-4-9.37-5.18-14.3-.59-2.39-.31-5-.42-7.5l-.83.73a7.08,7.08,0,0,1,7,.56c5.23,3.6,9,8.55,12.86,13.48,2.4,3.08,5.71,5.13,9.6,4.73,9-.92,17.26,2.25,25.73,4.23,3.68.85,6.7,3.14,9.81,5.26,8.48,5.76,13.93,14.24,20.08,22.06,2.93,3.73,6.39,2.84,10,2.11a23.27,23.27,0,0,0,3.51-1.31l-.72-1.15c3.16,4.77,3.34,9.62-.65,13.83-3.49,3.68-7.56,6.81-11.36,10.2-1.91,1.69-4.27,3.11-5.61,5.18a60.62,60.62,0,0,0-5,10.21c-1,2.41,3.17,9.16,5.39,9.16,2.55,0,5.09-.09,7.63-.26,14.36-1,18.1-3.26,24-15.08a57.06,57.06,0,0,0,4.33-10.62c2.67-9.88,4.86-19.88,7.51-29.76.77-2.88,3-4.27,5.09-3.69,2.66.75,4,2.91,4.43,5.75,2.18,14,2,28.08.7,42.08-1.62,16.65-5.38,32.84-13.91,47.52a54.07,54.07,0,0,0-6.17,14c-.92,3.72-1.65,7.48-.51,11.31a62.25,62.25,0,0,0,2.18,7.35c2.07,4.67,4.37,9.24,6.7,13.78,16.37,31.86,30.59,64.7,44.58,97.64a5.46,5.46,0,0,1-1.94,6.88c-.62.45-2.3-.12-3.26-.65-2.22-1.21-4.71-2.3-6.36-4.11-6.9-7.55-13.61-15.28-20.25-23-11.71-13.69-24.6-26.11-39.78-35.87-25.85-16.63-50.45-35-74.45-54.14a27.31,27.31,0,0,0-14-5.85,67.85,67.85,0,0,0-7.65-.65c-14.4-.07-27.64-4.9-40.71-10.11a46.34,46.34,0,0,1-16.06-10.22c-.77-.79-1-2.39-1-3.63a4.43,4.43,0,0,1,4.49-4.54c5.12-.32,10.21-.4,15-2.61a30.94,30.94,0,0,0,2.69,2.31,11,11,0,0,0,2.31,1q-1.68-2.17-5.75-2.56a9.61,9.61,0,0,0-.44-7.27,33.85,33.85,0,0,1-3.68-10.65c-1.39-8.81.19-12.27,7.57-14.37,4.86-1.38,9.82-2.36,13.64-6,5.43-4.59,5.43-4.59.36-9.29a17,17,0,0,0-4.67-9.93c3.3,1.8,6.44,3.83,10.43,4.1,6.29.42,12.58,1,18.55,3.39,13.3,5.31,27.21,4.87,41.13,4.12,8-.43,16.9-7.89,19.26-16a11.76,11.76,0,0,0,0-7.44,24.92,24.92,0,0,0-1.4-3.43c-.59-1.11-1.18-2.75-2.12-3-2.32-.71-5.16-1.67-7.22-.94-10.69,3.8-21.1,8.45-32.27,10.76-3.77.77-7.5-.4-11-1.91a18.51,18.51,0,0,1-3.37-1.74,440.51,440.51,0,0,1-47-38.3c-10.1-9.57-19.86-19.5-29.71-29.32s-19.61-19.73-29.45-29.56c-1.76-1.75-4.19-2.26-6.93-1.88,1.24-2.51.78-4.67-1.67-5.92-.47-.25-2.65,1.27-2.57,1.74.43,2.7,2.33,3.79,5.09,3.38a18.13,18.13,0,0,0,2.78,10.8c12.82,18.78,25.92,37.37,40.68,54.71,11.47,13.47,22.94,26.92,34.27,40.5,1.56,1.87,2.31,4.41,3.43,6.64-.26,1.12-.53,2.24-.78,3.36-1.28,5.48-1.27,5.56,5.37,5.11l-.18,11c-2.56-.12-5.12-.43-7.66-.3-2.75.13-5.23-.36-7-2.43-25.24-28.8-51.41-56.74-77.6-84.67-14-14.92-26.84-30.82-39.39-47s-25.63-31.82-39.37-47c-21.45-23.66-42.09-48-61-73.82a640.38,640.38,0,0,0-43.72-53.27c-1.58-1.74-4.18-3.54-6.31-3.54s-4.54,2.06-6.74,3.34a17,17,0,0,0-3,2.34,335.2,335.2,0,0,0-36.12,39.56c-11.65,15.2-23.69,30.12-35.93,44.85q-41.66,50.09-82.32,101c-20.74,25.93-43.2,50.44-65.55,75-17.19,18.89-34.15,38-51.07,57.14a127.4,127.4,0,0,0-9.1,12.25A11.08,11.08,0,0,0,525,1211c2.61,5.8,6.17,11.16,9,16.87,1.1,2.2,1.39,4.83,1.91,7.29.71,3.32-2.27,8.09-5.59,8.79-3.73.78-7.52,1.29-11.29,2-6.83,1.19-7.82,2.3-5.18,6.21,2.14,3.17,4.9,6.07,6.36,9.52a17.35,17.35,0,0,1-.17,14.83,14.06,14.06,0,0,1-4.88,5.58,44.65,44.65,0,0,1-18,6.06c-10.15,1.13-20.37,1.65-30.54,2.56a53.34,53.34,0,0,0-14.79,3.7,165.72,165.72,0,0,0-39.75,22.75,648.81,648.81,0,0,0-49.57,42.21c-8.39,7.81-16.3,16.19-26,22.59-3.11,2.06-4.86,1.85-5.69-1.77a10.64,10.64,0,0,1,0-3.65,15.64,15.64,0,0,1,1-3.65c2.43-5.9,4.69-11.89,7.46-17.64,8.3-17.26,16.48-34.56,21.92-53,6.48-9.9,7.43-21.66,10.62-32.62,11.35-39,11.14-39,11-79.06-.06-17.89-.2-35.77,1.68-53.59.53-5.09,1.6-10,4.27-14.56,1.83-3.09,6.83-4.69,9.59-2.47,1.94,1.56,4.56,3,5.38,5.11,4.19,10.7,7.93,21.56,9.33,33.08a21.87,21.87,0,0,1-1.78,11.13l.9-1c-2-1.52-4.3-2.79-6-4.6-2.18-2.29-4.13-2.74-6-.33a5.52,5.52,0,0,0-.55,3.7,99.4,99.4,0,0,0,23.43,51.52c2,2.31,2.12,4.74.48,6.83a8.06,8.06,0,0,1-2.79,2.18c-2.46,1.16-4.7.4-6.58-2q.78,4.66-1.48.91l2.8,0a25,25,0,0,1-10.26,10.53c-6.69,3.64-7.28,4.77-10.16,10.53-2.24,4.49-4.39,9-6.58,13.53l.89,1c-1.1.46-2.88.65-3.17,1.42-2.93,7.58-5.51,15.28-8.94,22.67-.44,1-.1,2.37.16,3.51a19.53,19.53,0,0,0,5.22,9l-.69-1,4.73,4.29,4.54-4.45Zm136-163c3.33-4,7.67-5.59,12.8-5.2l4.5-11,1.78-.35-1.41,1.33c1.73,6.13,1.42,6.87-4.11,9.9-5,1.82-9.18,5.41-14.54,6.38,3.27,0,3.39.55.37,1.57C526.37,1137.32,526.57,1136.44,526.78,1135.57Zm30.78-40.77c4.41.83,8.29-1.11,12.3-2.38l5.19-10.34,10.8-4.4,4.48-11.44,1.35-.57-.42,1.42q-2.43,5.43-4.85,10.86a52.51,52.51,0,0,0-6.87,0c-2.41.3-3.54,2.23-3.47,5.07-4.56,1.75-6.5,5-5.47,9.81-5.09-1-9.59.76-14,3,.71.51,1.41,1,2.11,1.55C556.67,1098.35,556.29,1097.52,557.56,1094.8ZM660.45,966c-1.58,1.93-3.71,3.62-4.67,5.82-3.51,8-7.12,16.1-9,24.76-.27,1.23-.53,2.45-.89,3.65-.8,2.72-.13,5.07,2.44,6.49.77.43,2.36-.11,3.32-.65,10.39-5.81,16.54-15.11,20.73-25.85a17.76,17.76,0,0,0,.86-7.41,69.46,69.46,0,0,0-1.66-11.19c-.6-2.53-2.81-3.61-5.52-3a6.62,6.62,0,0,0-5.22,4.69c-.31,1.09.36,2.45.59,3.69Zm305.08,1.12a12.42,12.42,0,0,0-3.36-6.56,69,69,0,0,0-25.27-16.05,28.35,28.35,0,0,0-14.89-1c-3.61.64-6.23,5.42-4.49,8.35,7.25,12.19,17.81,21.05,29.28,28.91,2,1.34,4.66,1.71,7.08,2.22,4.57,1,8.61-1.5,11.67-7.07a21.45,21.45,0,0,0,1.69-2.92C968.1,970.9,967.46,968.91,965.53,967.16Zm203.76,288.89c3.89.13,7.74.93,10.5,3.68,10,9.93,20.57,18.93,33,25.66,3,1.62,5,1.42,6-1.44a5.37,5.37,0,0,0,0-3.58,38.48,38.48,0,0,0-17.86-19,16.14,16.14,0,0,0-3.49-1.54c-3.75-.91-7-2.82-10.41-4.55-6.12-3.13-12.22-2.47-18,1.18,1.07-2.28,2.51-4.46,3.16-6.85,2.08-7.62,1.39-15-3-21.73a90.85,90.85,0,0,0-33.34-30.16c-3.62-2-7.3-1.06-10.79.53-1.11.51-2.7,1.48-2.81,2.38a21.35,21.35,0,0,0,.34,7.26c.59,2.53,2.62,4.2,4.63,5.85,13.69,11.21,27.73,22,39.45,35.41C1168.2,1250.87,1168.45,1253.72,1169.29,1256.05Zm-3.83-894.85c0,11.13-.14,15,0,18.78a40.14,40.14,0,0,0,1.14,7.56,23.77,23.77,0,0,0,5.12,10.13c2,2.26,4.12,3.15,6.25,2.31,1.13-.45,2.64-1.19,3-2.17,8.88-24,19.23-47.26,33.84-68.44,3.62-5.25,7.12-10.6,10.42-16.05a163.17,163.17,0,0,0,15.37-34.9c1.07-3.33-.94-9.28-3.51-9.91a10.15,10.15,0,0,0-7.42,1,12.91,12.91,0,0,0-3.27,1.92c-8.87,9.13-18,18-27,27.06a211,211,0,0,0-19.76,23.37c-7.6,10.41-12.76,22.08-14,35.15C1165.4,360.85,1165.23,364.68,1165.46,361.2Zm-31.15-14.11c2.53.35,5.06.75,7.59,1,5.06.58,6.93-.31,9.56-4.41.69-1.07,1.35-2.16,2.07-3.22,5.31-7.84,3.11-17.09-4.45-23.92a36.32,36.32,0,0,0-13.14-7.66c-5.2-1.7-10.1-.36-14.53,2.51a24.53,24.53,0,0,0-5.73,5,88,88,0,0,1-22.78,20.22c-1.05,2.25-2.58,4.42-3,6.79a22.35,22.35,0,0,0,.4,7.58c.74,4.23,4.09,5.72,7.56,3,8.55-6.74,18.34-8.5,28.83-7.74C1129.23,346.47,1131.77,346.82,1134.31,347.09ZM904.51,901.71c-9.08-8.62-17.49-19.42-29.22-26.79a28.85,28.85,0,0,0-3.22-1.89,13.09,13.09,0,0,0-3.45-1.15,6.57,6.57,0,0,0-3.45.16c-2.84,1.24-3.41,3.45-2.08,6.29,4.9,10.44,14.56,16.77,21.72,25.27,5.38,3,10.79,6,17.17,6,.85,0,2-1.58,2.44-2.66S904.51,904.47,904.51,901.71Zm275.66,289.67c-3.52-1.86-6.87-3.6-10.2-5.39-2.57-1.39-5.08-1.38-7,.65-1.26,1.31-.53,3.58,1.65,5.83a168.1,168.1,0,0,1,19.11,23.53,28.73,28.73,0,0,0,5.23,5.46,8.25,8.25,0,0,0,3.39,1.24c2.63.63,4.45-.71,4.87-4,.49-3.75.74-7.55.93-11.33.29-5.7-2.54-9.43-7.66-11.62Z"/><path d="M781.39,692.45a7.64,7.64,0,0,1,7,.85c3.13,2,6.2,3.53,10.33,2.35,3.61-1,7.34.49,11,1.46,10.69,2.87,19.66-.9,27.62-7.63,7.6-6.43,14.84-13.29,22.39-19.79,1.81-1.57,4.44-1.64,7-1.18l-.67-.73c.46,2.64.36,5.23-1,7.34a65.2,65.2,0,0,1-6.69,9.25c-15.5,16.91-30.84,33.94-45.06,52a114.66,114.66,0,0,1-10.16,11.41c-15.58,15.11-29.55,31.65-43.69,48.06-5,5.77-10.74,10.85-16,16.37a12.56,12.56,0,0,1-6.42,3.9c-9,2-15.48,8.57-23.1,13.07l1,.84a18,18,0,0,1,2.24-11c4-6.54,8.32-12.88,12.44-19.35,3.83-6,3.49-10.68-1.4-17.65-4.41-6.28-9.1-12.35-13.43-18.68a12.57,12.57,0,0,1-1.64-10.89l-.59.58c2.59-.32,5.06,0,6.91,1.45,7.66,6.15,15.09,12.58,22.85,18.58,3,2.34,6.74,2.28,10.26.51l-.7,2,.07-1.08a17.93,17.93,0,0,0,0-7.51l-.7-1.06c1.18.46,2.33,1,3.54,1.37a16.24,16.24,0,0,0,14.37-2.05,23.36,23.36,0,0,0,3-2.24,56.36,56.36,0,0,0,5.32-5.39c4.27-5.24,5.32-7.58,1.33-13.48-7.09-10.48-9-10.75-21.33-3.63a25,25,0,0,1-3.27,1.9c-3.64,1.41-7.09,1.47-10.67-.73-6.53-4-12.66-8.29-16.6-15.12-2.56-4.42-6.45-7.62-10.56-10.49-1-.68-2.4-.7-3.63-1a30.61,30.61,0,0,0-7.65-15.62,15.28,15.28,0,0,0-8.22-8.27c-1.15-7.69-5.65-13.89-9.15-20.53C676.15,657.18,664.38,644,651,632.31a88.55,88.55,0,0,0-12.46-8.54c-2.11-1.26-4.67-1.8-7.06-2.57-2.73-.88-5.15-.16-6.59,2.38-.52.9-.2,2.5.16,3.64,1.94,6.1,5.43,11.34,9.44,16.25,9.59,11.75,19.8,23,28.09,35.77a236.28,236.28,0,0,0,18.13,24.27,216,216,0,0,1,21.73,31,19.22,19.22,0,0,1,2.41,10.9l.83-.93a10.48,10.48,0,0,1-6.61-3.19c-4.28-4.63-8.66-9.18-12.74-14Q663.07,699.81,640,672.2a164.31,164.31,0,0,0-42.91-36.81c-4.36-2.56-8.71-5.15-12.81-8.07-8.25-5.89-16-12.42-22.39-20.31-11.16-13.68-22.31-27.38-31.31-42.64a14.78,14.78,0,0,1-1-3.63l-1,.77c0-3.08.1-6.15.14-9.23l.58.9-8.52-8.5.84.84q-4.24-4.28-8.51-8.53l.92.66c-3-.2-6.05-1-9.06.07l.86-.86a16.85,16.85,0,0,1-10.59-2.32c-3.15-1.91-6.13-4.12-9.16-6.25a6.92,6.92,0,0,1-2.84-6.31l-.68.87,0-9,.65,1c-2-4.37-5.5-6.74-10.06-7.69-2.16-.44-4.37-.64-6.56-.94l1.17,1c.7-2.72.16-5-1.83-6.63-2.86-2.33-5.83-4.54-8.75-6.8l.91.94c2.77-2.61,6.39-4.27,8.52-7.61-1.4-3.49-3-6.93-4.13-10.49a29.07,29.07,0,0,1-1.44-7.37,6.23,6.23,0,0,1,3.23-6.16c8.48-4.32,8.3-4.34,10-9,2.41-6.69.53-12.55-3.14-18a70.15,70.15,0,0,0-7.15-9c-9.62-10.31-17.87-21.66-25.74-33.32-1.89-2.82-1.56-5.46,1.43-10.18-3,1.13-3.73.43-2-2a12.74,12.74,0,0,1,2.22,1.05l-1.27,1.87c-2.7.41-5.41.28-7-1.45-13.62-15-25.84-31-35.52-48.81Q378,301.09,360,267.76c-8.94-16.64-17-33.75-26.86-49.9l-.73.56c6.35-4.1,11.92-2.58,17,2.33,1.84,1.76,3.76,3.45,5.49,5.31,3.47,3.73,6.85,7.54,10.24,11.34,21.18,23.81,43.77,46.24,66.8,68.23,5.53,5.27,11.06,10.55,16.78,15.61,10.5,9.3,21.47,17.94,34,24.42,6.78,3.5,13.23,7.61,19.89,11.36,9.58,5.39,14.61,14,16.8,24.35,1.57,7.46,2.57,15.05,3.6,22.62a20.2,20.2,0,0,1-.17,7.6c-3.94,15.08-2.17,30.39-2,45.61,0,3.77,2.27,7.18,4.71,10.21,1.92,2.4,4,3.34,6.23,2.28,1-.48,2.41-1.33,2.61-2.24,1.61-7.52,7.22-13.45,8.13-21.28.47-4.09-.94-7.92-4.48-9.22-7-2.57-6.94-2.6-6.37-6.73.18-1.26.32-2.53.56-3.78,1.16-5.95,4.7-10.06,9.25-10.69,3.78-.52,7.57-1.37,11.36-1.36,10.39,0,19.82-4.51,29.88-6a17.59,17.59,0,0,1,16.89,6.45c1.69,2,3.17,4,3.55,6.62.74,5,1.89,10.05,1.93,15.09.1,12.73-.37,25.46-.51,38.19a39.38,39.38,0,0,0,6.46,21.63,235.15,235.15,0,0,0,28.06,36.16q13.05,14,26.27,27.74a435.13,435.13,0,0,1,36.6,44,13.23,13.23,0,0,1,2.37,10.75l1.17-1.07a13.09,13.09,0,0,1-6.52-3.67c-10.72-10.91-22.15-21.1-32.88-32-11.62-11.78-22-24.78-33-37.21-3.37-3.83-6.88-7.54-10.32-11.31a49,49,0,0,0-15.2-11.42,37.19,37.19,0,0,1-12.26-8.79c-8.55-9.54-16.38-19.51-22-31.16a67.42,67.42,0,0,0-6.1-9.67c-.63-.89-2-1.31-3.09-1.78-2.73-1.18-4.44,0-5.06,3.41-.23,1.24-.52,2.48-.65,3.73a44.62,44.62,0,0,0,6.75,29.18c8.87,14.45,11.33,18.31,22.45,30.71,2.73,3,6.46,1.73,8.25-3,2.72-7.1,3.92-8.35,6.38-7a10.24,10.24,0,0,1,4.68,5.76c.43,1.2,1.56,2.4,1.45,3.5-.79,8.17,2.91,14.82,7,21.28a98.59,98.59,0,0,0,8.85,12.44c17.78,20,35.27,40.3,54,59.43a81.75,81.75,0,0,0,8.71,7.46,14.11,14.11,0,0,0,10.65,3c.78,6.41,1.45,7.07,7.77,7.59.65,6.53,1.46,7.32,7.69,7.62,1.07,6.73,1.7,7.34,7.84,7.73-1.36,2.53-1.14,5,1.21,6.53s4.06.21,4.78-2.89c.27-1.21.39-2.45.59-3.67l8.85,1.15-1.36-1c1.59,4.3,3.92,7.86,8.85,8.82l1.19-.8L743.12,676l1-1-4.4,4.45c1.41,1.55,2.81,3.11,4.21,4.66l-1-.75,9,0-.78.64a7.75,7.75,0,0,1,6.54,2.73c6.53,7.56,10.55,17,18,23.84a4.94,4.94,0,0,0,3.51.9A4.26,4.26,0,0,0,782,709.8a6.18,6.18,0,0,0,.93-3.36c0-5-1.52-9.88-.57-14.9ZM567.44,544.75c-1.31,8.63,3.35,14.34,9.46,19.34.92-.88,2.21-1.61,2.65-2.69a4.72,4.72,0,0,0-.2-3.61c-2.42-4.36-4.61-9-8.91-11.9-.93-.62-2.49-.32-3.76-.44.4-2.63.33-5.25-.95-7.4-2.61-4.37-5.46-8.58-8.27-12.83-5.68-8.6-12.47-16.1-21.15-21.83a56.88,56.88,0,0,1-9-7.07c-10.08-10.15-17.18-22.08-20.51-36.1a17.88,17.88,0,0,1-.49-3.78,93.22,93.22,0,0,1,0-11.46c1.92-17.9.35-35.66-1.8-53.42-.63-5.25-3-9.66-6.06-13.79-2.28-3.07-4.63-6.1-8-8.06-11-6.36-22.17-12.58-33.1-19.12a53.07,53.07,0,0,1-14.4-12.43c-9.53-12-19.29-23.72-29-35.54a21.33,21.33,0,0,0-9.47-6.2c-.57-.21-2,.92-2.48,1.75a4.56,4.56,0,0,0-.73,3.35c3,8.55,9.44,15,13.79,22.71S423.31,340,427.4,348c1.17,2.27,2,4.77,3.43,6.83s3.15,4.18,5.27,5.32c11.5,6.19,19.11,16.79,28.74,25.08,5.75,4.95,10.66,11,15.43,16.94a58.47,58.47,0,0,1,8,13c3.57,8.21,6.21,16.67,2.87,25.87a31.14,31.14,0,0,0-1.9,11.21c.25,8.91.93,17.86,3.34,26.51a87.13,87.13,0,0,0,4.12,10.68,20.58,20.58,0,0,0,7.09,8.84q7.8,5.49,16,10.4c5.48,3.26,11.37,5.83,16.71,9.28,6.41,4.14,12.66,8.59,17.06,15.14,2.79,4.16,5.72,8.33,10.17,11C564.73,544.65,566.18,544.53,567.44,544.75Zm4.72-108.22a31.85,31.85,0,0,0-2.17-2.61c-1.94,1.33-3.74,2.87-5.59,4.35-2.89,2.31-2.61,4.11,1,5a6.58,6.58,0,0,0,6.8-6.69Z"/><path d="M298.71,676c-.53-2.57-.6-5.15.59-7.28,2.43-4.38,5-8.71,7.82-12.83,14.93-21.73,31.65-42,49-61.91,2.17-2.49,7.94-1.54,9.45,1.63a19.65,19.65,0,0,1,1,3.62l1.19-1c-3.22,1.9-6.3,3.92-6.9,8.07a138.1,138.1,0,0,0-.23,33.63c.29,2.85,4.62,6.8,7.7,7.1a35.52,35.52,0,0,0,18.18-3.2c.34-2.35.67-4.7,1-7.05-3.74-6.5-7.67-12.91-11.14-19.55-1.76-3.38-1.47-7.25-.69-11l-.7.93a9.9,9.9,0,0,1,6.69,3.15q30.56,34.26,61.05,68.57c3.38,3.81,6.54,7.84,9.56,11.94,12.83,17.48,26,34.65,40.65,50.7,2.08,2.28,1.91,8.11-.2,10.55-5,5.79-9.67,11.87-14.95,17.39-26.45,27.66-51.2,56.86-76.77,85.32-7.65,8.52-14.25,18-21.57,26.81-3.23,3.9-6.77,7.57-11.34,10.11-2.84,1.59-8,1.46-10.64-.71-1-.82-2.33-1.27-3.07-2.23q-7.05-9.06-13.88-18.28c-13.62-18.51-27.88-36.47-44-52.92A350.28,350.28,0,0,1,266.33,783c-8.43-11.27-18.14-21.37-28.2-31.16-3.84-3.74-2.77-8.84,2.57-12.6a16.31,16.31,0,0,1,3.55-1.4l-.63-1.07c2.71,4.22,5.37,8.47,8.15,12.64,1.4,2.08,8.13,3.34,10.5,2.2a45.16,45.16,0,0,0,17.17-14.22,6.28,6.28,0,0,0,1.26-3.51,5.06,5.06,0,0,0-1.46-3c-4.75-5-6.62-10.47-3.52-17l-.9.9,8.84-8.75-1.08,1.2a14.69,14.69,0,0,0,3.23-1.9c6.3-6.28,11.13-13.45,13-22.31l-1,1.17,4.78-4.31L298,675.24Zm65.61,93.12a19.94,19.94,0,0,0-.71-3.74,31.75,31.75,0,0,0-14.86-16.82,16.55,16.55,0,0,0-11.1-1.44c-5.25.94-9.42,4.15-13.11,7.57a13.73,13.73,0,0,0-4,10.47,39.08,39.08,0,0,0,7.21,21.48c2.22,3.07,5.33,5.33,9.65,5,10.95-.93,19-6.5,25.2-15.26A10.16,10.16,0,0,0,364.32,769.15Zm77.94-42.88c-1.3.8-2.64,1.15-2.87,1.86a4.74,4.74,0,0,0,.31,3.45,4.69,4.69,0,0,0,6.18,2.35c.61-.23,1.36-1.89,1.13-2.2C445.54,729.77,443.81,728,442.26,726.27Zm-99-45.79c.85-2.57.2-4.71-2.23-5.83-.51-.24-2.08,1-2.66,1.87-1.66,2.49-1,4.59,1.9,5.43C341,682.18,342.22,681,343.23,680.48Zm81.1,119,1.87-2.89-2.67-.54Z"/><path d="M808.93,1122.38c29.37,0,58.74-.07,88.1,0,6.37,0,12.72.7,19.08,1.1,2,.12,7,6.43,6.86,8.55-.1,1.22.44,2.54.18,3.7-3.39,15.07-3.84,30.39-3.81,45.72.06,31.92.4,63.83.47,95.75,0,7.64-.49,15.29-.84,22.92-.21,4.51-5.81,9.45-10.38,9.31-3.82-.12-7.65-.12-11.45-.37a1483.66,1483.66,0,0,0-157-1.45c-10.15.42-20.29,1.69-30.38,3-4.58.61-9.27-5.82-8.95-10.24.1-1.26-.1-2.55,0-3.81,3-30.58,2.88-61.18,1.09-91.83-.81-14-.85-28.06-1.21-42.1-.08-3,5.27-7.27,8-6.48,6.15,1.72,12.28,3.49,18.42,5.22a64.23,64.23,0,0,0,22.71,2.09c17.81-1.39,35.69-2,53.52-3.22,12.72-.84,25.42-2,38.11-3.2,1.06-.09,2-1.15,3.05-1.76-1.12-.6-2.21-1.62-3.39-1.73-7.61-.72-15.24-1.47-22.88-1.75-8.93-.33-17.89-.53-26.81-.2-27,1-53.5-2.66-79.75-8.48a26.3,26.3,0,0,1-15.84-9.86,5.64,5.64,0,0,1-.36-7,5.38,5.38,0,0,1,2.52-2.22,28.72,28.72,0,0,1,7.43-1.52c11.49-.34,23-.5,34.46-.64,7.67-.09,15.33,0,23,0h46Zm46,141.31a30.82,30.82,0,0,0,1.21-3c1.65-5.68,1.19-6.4-5.4-8.68,1-4.14-1.19-7.19-3.41-10.27-2.45-3.41-3-7.4-.38-10.51,7.34-8.86,14.84-17.59,21.23-27.17s14.81-17.59,20.2-27.83a5,5,0,0,0,.48-3.5c-1-3-3.29-3.58-6.13-1.75a145,145,0,0,0-24.14,18.81c-11.81,11.68-23.68,23.3-35.43,35-3.66,3.64-5.91,8.25-8.26,12.82a44.78,44.78,0,0,1-6.43,9.41c-5.11,5.64-10.65,10.88-15.87,16.42-.79.84-.84,2.38-1.24,3.6l-1.52,1.61-1.1-1.51,1.79.53c4.73-1.81,9.82-2.39,14.27-5.25a162.44,162.44,0,0,1,16.75-9.14c4.6-2.24,9.52-3.59,14.77-2.7,5,.84,10,1.84,15.14.73a9.13,9.13,0,0,0,1.43,6.13,41.68,41.68,0,0,1,2.31,6c.84-2.49,2.45-3,4.43-1.13a2.84,2.84,0,0,1-.21,2.78C857.45,1266.82,855.83,1266.21,854.94,1263.69Zm-55.67-44.14c1,2.86.61,3.31-1.31,1.36l2.22-.15c-2.21-1.17-4.81-1.92-6.55-3.57-5.52-5.23-10.64-10.88-16.08-16.21a100.26,100.26,0,0,0-8.7-7.35c-1-.74-2.48-1.52-3.49-1.26-2.77.72-3.35,2.8-2.26,5.62,1.82,4.74,3.15,9.7,5.32,14.27,2.29,4.84,6.55,7.4,11.92,8.28C786.76,1221.6,793,1220.11,799.27,1219.55Z"/><path d="M1173.3,707c2.21-.91,4.38-2,6.65-2.7,5.49-1.75,8.47-5.81,6.34-10.18-3.29-6.76-5.06-13.53-3.45-21l-1.42-.75c1.95,3.35,4.81,5.81,7.84,8.13,4,3,6.56,2,8.14-3.25,1-3.2.39-7.19,4.51-8.77,2.28,1.07,4.51,2.26,6.85,3.18,4.93,2,8.11.85,9-3.06.84-3.71,1.63-7.43,2.28-11.17.58-3.38,2-4.79,4.34-3.68a6.28,6.28,0,0,1,2.28,2.61c.63,1.09.86,2.39,1.42,3.52,2.52,5.06,2.62,5.3,8.2,3,2.5-1,4.74-1.36,7.2.11l.59-.82c.57,2.62,1.77,5,4.1,6,6.39,2.6,9.81,6.76,10,14,.11,4.65,2.32,6.08,7.17,6.54,1.24.12,2.7-.28,3.7.25a6,6,0,0,1,2.17,2.94c5.64,12.83,5.71,13,19.24,11,2.95-.44,5.19-.53,6.35,2.27.32.78-.81,2.22-1.36,3.3-1.82,3.55-5.61,4.86-8.39,7.32a5.79,5.79,0,0,0-1.76,6.59,7.24,7.24,0,0,0,5.15,4.84,24.47,24.47,0,0,0,3.65.86,36.45,36.45,0,0,0,14.89-.49l-.86.38c.27,6.71-5,7.91-9.63,9.94a4.8,4.8,0,0,0-2.59,2.45,4.31,4.31,0,0,0,.86,3.52c1.84,2,3.82,4.23,3.1,6.35-1.18,3.46-3.89,6.43-2.1,10.49,1.06,2.41.15,4.55-1.14,7-2.68,5.13-2.49,5.24,1.69,9.68a48.41,48.41,0,0,0,5.31,5.31c.86.67,2.44.43,3.69.6l-.79-1.35c-8.54.25-17,1.41-25.61,0-3.25-.55-4.93,1.61-6.41,7.2l-.42-.91c-2.33.89-4.63,2.47-7,2.54-8.38.26-10.14,5.55-10.82,12.46-.56,5.71-.89,5.68-6.73,7-4.88,1.12-6.52,2.71-7,7.11-.28,2.52-.18,5.08-.46,7.59-.52,4.69-2.29,5-7.21,1.4-3.85-2.84-3.86-2.85-8.63,1.8-3.63,3.54-6.72,3.7-8.93-.2-4.51-7.95-10.44-14.52-18.59-18.46-6-2.88-9.76-8-14.48-12.07-2.7-2.35-3.52-7.12-7.29-8-3.59-.8-7.54.17-11.33.09-3.41-.07-4.82-1.72-3.75-4.24,1.47-3.45,3.16-6.9.73-10.47-1.69-2.47-1.13-4.11,1.06-6.49,3.65-4,4.31-9,3.4-14.22a20.41,20.41,0,0,0-2.25-7.2c-2.81-4.53-3-9.47-3.48-14.51-.62-7-.76-7,7.15-10.19,5.18-2.1,5.15-2.1,5.25-8.5,0-2.49.26-5,.4-7.46Z"/><path d="M728.33,299.66a13,13,0,0,1,10.34,3.78,68.78,68.78,0,0,1,7.71,8.48c6.1,8.18,11.85,16.62,18,24.8,4.78,6.41,11.39,9.93,19.26,11.37,4.22.76,11.16-3.48,11.83-7.26,1.35-7.61,1-15.26,1-22.9-.14-17.88-.53-35.77,1.61-53.58A42.12,42.12,0,0,1,799.8,257c.34-1.05,1.14-2.63,1.91-2.75a6.69,6.69,0,0,1,6.53,2.91,14.1,14.1,0,0,1,3,6.91c2.95,22.83,5.1,45.68,2.95,68.72a6.35,6.35,0,0,0,.7,3.72,6.16,6.16,0,0,0,6.42,1.53c8.69-5.58,14.28-14.5,22.27-20.87,5-4,9.64-8.33,15.46-11.17,2.82-1.37,5.14-1.57,6.47.63a6.39,6.39,0,0,1-.5,7.07q-6.53,9.44-13.37,18.65a154.09,154.09,0,0,0-14.39,22.58c-1.12,2.23-1.49,4.82-2.28,7.23-1,2.91,0,4.9,2.76,6.37a36.32,36.32,0,0,0,14.61,4c15.28,1.09,30.58,1.9,45.85,3.11,2.3.18,4.48,1.89,6.71,2.89-.51,1.17-.68,2.86-1.58,3.43a68.82,68.82,0,0,1-24.44,9.91c-12.52,2.37-25.22,3.9-37.33,8.15-2.85,1-3.58,2.87-2.52,6a26.26,26.26,0,0,0,6,9.58c7.85,8.38,16,16.53,23.81,24.91a30.16,30.16,0,0,1,4.15,6.38,8.41,8.41,0,0,1,.49,7.28c-1.11,2.81-3.27,3.21-6.18,1.53-11.06-6.38-21.86-13.14-32.23-20.59a25.59,25.59,0,0,0-6.79-3.3c-2.87-.95-5.12,0-6.45,2.18a12.15,12.15,0,0,0-1.75,3.34,402.24,402.24,0,0,0-8.52,49c-.13,1.16-1,3-1.86,3.18-2.22.41-4.37-1-5.66-3.36A24.88,24.88,0,0,1,801.2,479c-1.38-7.52-2.63-15.08-3.53-22.68s-1.28-15.25-2-22.88a6.34,6.34,0,0,0-4.16-5.66c-2.49-1.08-5-1.11-7.06.93-11.86,11.56-20.94,25.73-33.91,36.27-2.49.36-5.35.25-6.63-1.66a13.26,13.26,0,0,1-1.81-7.29c.28-14,.89-28.07,1.25-42.11.1-3.81-.24-7.64-.45-11.45-.32-5.68-5.86-13.08-11-14.49-7.37-2-14.86-3.65-22.16-5.9a15.08,15.08,0,0,1-8.54-7.22c-.45-.79-.7-2.46-.27-2.85a11.87,11.87,0,0,1,7.06-2.63c12.87-1.05,25-5,37-9.43,4.35-1.62,6.5-8.29,4.07-12.91s-4.72-9-7.13-13.52c-4.24-7.87-8.64-15.65-12.72-23.6-1.79-3.5-1.5-7.35-.22-11.07Zm43.83,93.46c1.26-.09,2.52-.2,3.78-.26,4-.22,5.82-2.29,7-7.68a6.87,6.87,0,0,0-2-7c-3-2.72-7.82-3.44-10.46-1.51a107.36,107.36,0,0,0-8.82,7.24,5.43,5.43,0,0,0-1.48,3.46c-.11,2.1,1.59,3.79,4.51,4.54C767.08,392.5,769.64,392.72,772.16,393.12Z"/><path d="M1020.53,491.84a13.31,13.31,0,0,1,2.19-10.78c9.07-12.27,18.36-24.36,27.44-36.61,3.78-5.11,7.18-10.49,10.86-15.67,4.81-6.79,5.89-13.83,1.84-21.37-3-5.59-6.28-11.06-8.9-16.84-3.73-8.25-5.21-17-3.44-26a5.49,5.49,0,0,1,1.82-3.28c2-1.31,4.48-1,6.51.84a74.25,74.25,0,0,1,8,8.16,93.76,93.76,0,0,0,25.75,22.36,15.47,15.47,0,0,1,5.23,5.43c2.07,3.35,3.29,6.86,1.72,10.64a57.76,57.76,0,0,1-5.06,10.21c-10.64,15.88-23.32,30.13-35.94,44.42-10.42,7.41-18.45,17.43-28.13,25.62a11.18,11.18,0,0,1-10.62,2.11Z"/><path d="M517.43,1072c3.36,6.27,2.22,12-1.84,17.55-12,16.25-25,31.64-38.19,46.93a51.9,51.9,0,0,1-5.64,5c-5.22,4.57-15.54,4.1-21-.63-4.88-4.24-7.84-9.8-11.22-15.09-1.55-2.44-.85-8.58,1.3-10.54,2.82-2.56,5.86-4.74,10-4.23,3.84.48,7,2.46,10.32,4.27,6.27,3.42,12.19.85,18-1.82a13.06,13.06,0,0,0,3.1-2.13,278.47,278.47,0,0,0,33.81-35.54,35.08,35.08,0,0,0,2-3.21Z"/><path d="M567.12,1021.46c-.55-2.58-.6-5.17.66-7.26,2.6-4.28,5.1-8.72,8.34-12.49,18.84-21.88,36.23-44.92,54.25-67.46a9.75,9.75,0,0,1,6.35-3.53l-1.07-1.07c.57,9.41-4.95,16.92-7.88,25.24-16.06,23-32.66,45.55-53.74,64.34a9.22,9.22,0,0,1-7,2.1Z"/><path d="M896.85,829.5a10.81,10.81,0,0,1,6.49,2.93,338.85,338.85,0,0,1,38,44.55c1.23,1.75.84,4.65,1.2,7l1.24-1.15a13.34,13.34,0,0,1-3.17-1.78c-13.51-14-27-28-40.38-42.06-2.58-2.72-3.25-6.35-2.54-10.11Z"/><path d="M950.74,891.23c2.64-.3,5.09.09,6.87,1.71a64.66,64.66,0,0,1,7.82,7.88c9.14,11.71,18.64,23.1,28.67,34.06a11,11,0,0,1,2.35,10.3l1-.95a14.86,14.86,0,0,1-9.54-4.9q-15-16.2-29.81-32.57a47.88,47.88,0,0,1-4.51-5.82,14,14,0,0,1-2.21-10.42Z"/><path d="M920.81,607.16c-.78-2.49-1.15-5.13.18-7,10.58-15,21.75-29.47,36.55-40.67l-.92-1c3.18,4.5,2.7,9,0,13.52a47.75,47.75,0,0,1-4.22,5.95,254.24,254.24,0,0,1-25.6,26.19,10.17,10.17,0,0,1-6.71,2.3Z"/><path d="M1066,1014.07a10.44,10.44,0,0,1,6.46,3,177.37,177.37,0,0,1,23.16,28.35c1.17,1.8.71,4.66,1,7l.66-.61a8.29,8.29,0,0,1-6.69-2.35,247,247,0,0,1-23.17-29c-1.37-2-1.33-4.57-.79-7.14Z"/><path d="M1009.53,496.05c2.85,5,2.34,9.77-1.3,13.95-5.83,6.7-12.13,13-17.87,19.78-2.41,2.85-3.89,6.48-5.8,9.76l1,.54c-1.77-6.38-.91-12.19,3.52-17.36,3.23-3.76,6.27-7.68,9.41-11.52q5.88-7.18,11.79-14.35Z"/><path d="M1035.5,983c2.49-.45,4.94-.37,6.77,1a93.53,93.53,0,0,1,21.8,23.36c1.23,1.84,1.32,4.45,1.93,6.7l.63-.78a9.59,9.59,0,0,1-7.07-.58,67.53,67.53,0,0,1-22-19.29,13.14,13.14,0,0,1-2.06-10.44Z"/><path d="M559,1028.69c.65,2.55.69,5.1-.71,7.06-3.58,5-7.27,9.91-11.18,14.65a39.81,39.81,0,0,0-7.21,12.77l.37.4c-.74-2.31-1.59-4.6-2.19-7a8.78,8.78,0,0,1,1.31-7.11,112.12,112.12,0,0,1,13.72-17.28,10.51,10.51,0,0,1,6.54-2.86S559,1028.69,559,1028.69Z"/><path d="M648.09,904.2c1,3.34,2,7.09.55,10.09-3,6.1-6.45,12.13-13,15.36l1.07,1.07a26.94,26.94,0,0,1,4.82-13.51c2.68-4,5-8.34,7.41-12.52Z"/><path d="M268,714.59c.12-9.29,5.23-15.86,11.88-21.53.88-.75,2.22-1,3.34-1.44l-.79-1c.14,2.21.72,4.5.32,6.61a29.72,29.72,0,0,0-.12,9.91l1.08-1.2c-4.15,1.7-6.74,5-8.84,8.75l.9-.9-8.58,0Z"/><path d="M885.58,635.08c.33,5,.32,9.87-2.28,14.5-2.44,4.35-4.41,9-6.58,13.47l.85.94c-1.69-5.9-1.23-11.33,3-16.19a25,25,0,0,0,3.6-5.85,64,64,0,0,0,2.32-6.53Z"/><path d="M728.06,638a10.5,10.5,0,0,1,5.71,4c4.41,5.79,7.76,12.2,11.19,18.56l-.79-.61a15.71,15.71,0,0,0-8.91.12l1.37,1c-1.59-6.9-2.28-7.51-8.85-7.84,2-5.34.12-10.94,1.1-16.35Z"/><path d="M1104.39,1060.1c1.22.37,2.67.44,3.62,1.17a35,35,0,0,1,11.71,14.64,9.31,9.31,0,0,1-.18,7.35l.82-.72c-1.13-.23-2.42-.18-3.36-.73a26.52,26.52,0,0,1-12.26-15.76c-.6-2,.18-4.44.33-6.68Z"/><path d="M244.25,737.84c3.35-4.4,6.64-8.86,10.08-13.19,1.34-1.7,3.45-2.37,5.84-2.4l-.73-.74c.32,2.35.7,4.69.95,7,.33,3.15-2.79,7-6.1,7.47-3.53.48-7.11.52-10.67.75Z"/><path d="M662.09,900.12c0-3.26-.45-6.57,0-9.74s1.09-6.43.55-9.71l-.55.23c0,2.11-.58,4.52.22,6.27,2.07,4.49,1.11,8.31-1.38,12.11Z"/><path d="M447.87,510.48c-1.67-1.59-3.35-3.17-5-4.78s-2.11-3.72-.47-5.38c.64-.65,2.31-.71,3.37-.46,2.84.68,4,2.39,3.4,4.63s-1.43,4.44-2.15,6.66Z"/><path d="M467.44,514.12a16,16,0,0,1-9.82-1.32,27.56,27.56,0,0,0-9.75-2.32l-.85.67c6.47-3.48,13.5-4,20.65-3.86l-1.17-1a14.87,14.87,0,0,1,.29,8.71Z"/><path d="M483.17,522a19.73,19.73,0,0,1-9.92-.61,8.42,8.42,0,0,1-5.81-7.25l-.65.84c5.44-1.44,10.88-.62,16.33-.08l-.65-1,0,9Z"/><path d="M1309,727.54c.89.51,1.85,1.55,2.65,1.43,3-.46,2.86-1.24-.47-1.59a11.32,11.32,0,0,0-3,.54Z"/><path d="M411.35,1169.2q3.4-2.27,5.17.11c-.58.28-1.32.94-1.69.77a14.59,14.59,0,0,1-2.58-1.89Z"/><path d="M440.24,1257.43c-.81,0-2.2-.38-2.34-.09-.95,1.87-.33,1.74,1.5-.58Z"/><path d="M388.59,1261c.67.35,1.34.7,2,1.06q.51-3.49-1.11-.07Z"/><path d="M382.75,1298.59c3-5.89,3-5.94,5.95-2.48l2.1,2.42.53-1.12-9.27.16Z"/><path d="M333.17,217.86q.45-4.53,2.13-4.73c-.07,1,.17,2.11-.28,2.86a12.25,12.25,0,0,1-2.58,2.43Z"/><path d="M729,298.88c-2.95,1-4.35.25-4-2.34,0-.11,2-.35,2.24,0a10.77,10.77,0,0,1,1.09,3.09Z"/><path d="M457.09,493.86l1.81-1.57c-1.83-.68-2.12.16-.9,2.51Z"/><path d="M1019.8,491.07c-1.58,8.29-2.43,8.77-10.27,5l.72.8c1.53-1.38,3-2.79,4.59-4.11a5.72,5.72,0,0,1,5.69-.9Z"/><path d="M513.53,544.77c-4.6-.65-7.57-2.92-7.77-7.91l-.86.86,9.06-.07L513,537l-.3,8.82Z"/><path d="M984.56,539.54c-4,.92-5.91,4.57-8.94,6.76l1.09,1c0-1.2-.26-2.5.12-3.56a5.71,5.71,0,0,1,5.13-3.79,23.82,23.82,0,0,1,3.57.16Z"/><path d="M521.08,552.41c-4.5-.58-6.76-3.37-7.54-7.64l-.8,1,8.81-.29-.84-.84-.33,8.81Z"/><path d="M975.62,546.3c-1.31,1.49-2.56,3-3.93,4.46a6.31,6.31,0,0,1-5.39,1.76l.87.91c1.06-6.27,2.34-6.95,9.54-6.16Z"/><path d="M529.53,560.74a12.61,12.61,0,0,1-8.45-8.33l-.7,1.08,8.85-.31-.58-.9c0,3.08-.09,6.15-.14,9.23Z"/><path d="M957.54,559.47c2-3.91,4.7-6.78,9.63-6l-.87-.91c-2.11,8.45-2.23,8.56-9.68,5.94Z"/><path d="M366.48,599.26c4.93.41,7.37,3.45,8.41,8l.71-.93c-2.38.2-4.38-.45-5.44-2.28a54.49,54.49,0,0,1-2.49-5.75Z"/><path d="M913.29,614.8a14.93,14.93,0,0,1,0-3.41,7.55,7.55,0,0,1,1.46-2.86c1.4-1.78,3.48-2.19,6-1.38l-.7-.73c-1.13,6.3-1.5,6.66-7.72,7.51C912.38,613.94,913.29,614.8,913.29,614.8Z"/><path d="M704.49,615.09q3.74-1.11,6,1.37a7.29,7.29,0,0,1,1.83,6.16l1-1c-4.49-.62-6.82-3.43-7.74-7.65Z"/><path d="M907,623.24c-.44-6.38.27-7.31,6.33-8.44,0,0-.9-.86-.9-.87.13,4.51-2.26,7.12-6.35,8.46Z"/><path d="M712.35,622.62a5.49,5.49,0,0,1,5.85,1.47,7.47,7.47,0,0,1,1.92,6l1-.8c-6-.48-6.38-.89-7.69-7.58Z"/><path d="M897,628.42c2.18-3.93,5.59-5.5,10-5.18l-.92-.85c-2.29,3.73-5.24,6.08-9.95,4.8Z"/><path d="M720.12,630.05c4.8.46,7.1,3.45,7.94,7.91l.82-1.06c-6.15-.44-6.76-1-7.79-7.65Z"/><path d="M886.51,635.42c4.46-.9,7.36-4.11,10.47-7l-.9-1.23c-1.69,5.34-2.49,6.3-6.78,7.53a20.67,20.67,0,0,1-3.72.36Z"/><path d="M1243.47,663c.43-.73,1.39-1.9,1.2-2.12-1.52-1.82-1.81-1.31-.61,1.3Z"/><path d="M745,660.56c-2.24.37-3.64,1.69-3.55,4s1.6,3.47,3.9,3.58l-1.18.8a15.64,15.64,0,0,0,0-8.94Z"/><path d="M876.72,663.05c-1.64,1.23-3.28,2.45-4.91,3.69a6.38,6.38,0,0,1-5.71,1l.67.73c2.09-8.06,2.92-8.47,10.8-4.52Z"/><path d="M1182.84,673.1l-2.77.39q3,3.25,1.35-1.14Z"/><path d="M291.09,683.78a14.23,14.23,0,0,1,.38-3.24c1.27-3.53,2.36-4.14,7.23-4.51,0,0-.69-.79-.69-.79-.06,3-.11,5.93-.17,8.9l1-1.17a15.61,15.61,0,0,1-8.65,0Z"/><path d="M743.12,676c5,.42,8,2.75,8.1,8.09l.78-.64a17.72,17.72,0,0,1-9,0l1,.75c.07-3,.13-6.07.19-9.11Z"/><path d="M283.17,691.62c.58-4.7,2.9-7.63,7.92-7.84l-.92-.83c-.67,6.95-1.6,8.06-7.79,7.71Z"/><path d="M782.35,691.54l-2.91-1.82q2.12-2.62,1.95,2.73Z"/><path d="M886.74,688c5.17-2.54,10.45-2.36,15.78-.59h-.2c-2.06,0-4.19-.33-6.17.09a18.51,18.51,0,0,1-9.12-.43Z"/><polygon points="887.03 687.1 887.98 690.22 886.75 688.03 887.03 687.1"/><path d="M1174.09,706.23c-2.55.88-4.44.11-5.14-2.46-.11-.4,1.7-2,2.36-1.84,2.81.63,3.43,2.51,2,5Z"/><path d="M874.88,714.16c2.6-1.54,5.07-.36,7.56.36l.27-.8-9-.05Z"/><path d="M260.17,722.25a15.21,15.21,0,0,1,.09-3.45A7.48,7.48,0,0,1,261.8,716c1.47-1.77,3.59-2.17,6.14-1.36l-.8-.78c.89,2.6.48,4.73-1.24,6.37a6.21,6.21,0,0,1-6.46,1.33Z"/><path d="M867.15,722l7.73-7.85-1.19-.49q0,4.46.1,8.93l1.21-1.17-9.07-.12Z"/><path d="M858.56,730.2a22.17,22.17,0,0,1,8.59-8.19l-1.22-.7c.07,3,.15,5.92.22,8.88l1.23-.9-9.51-.23Z"/><path d="M713.21,752.37a12.2,12.2,0,0,1-3.36,0,5.68,5.68,0,0,1-4-4.56,20.71,20.71,0,0,1-.2-3.36l-.83.93c6.33.27,7.19,1.11,7.78,7.56Z"/><path d="M1307.28,783.28l-2.36-.29q2.1,3.71,1.57-1.06Z"/><polygon points="1274.47 789.09 1274.87 791.15 1274.05 788.18 1274.47 789.09"/><path d="M714,829.14c-2.68,2.32-4.07,6.06-7.85,7.16l.9.79a6.19,6.19,0,0,1,4.48-5.64c1.19-.42,2.33-1,3.5-1.47Z"/><path d="M706.12,836.3c-3.84,1.85-8,3.09-10.71,6.8l-.9,1.24c4.91-1.14,8.12-5.2,12.51-7.25Z"/><path d="M759,845.26c2.56-6,2.06-8-1.77-8l1.32-.92a18.53,18.53,0,0,0,.21,9.12Z"/><path d="M695.41,843.1l-.16,2.84c2.77-1.42,2.53-2-.74-1.6Z"/><path d="M686.18,869.22c.22-.69.66-2,.62-2-2.25-.88-2.84-.21-1.71,1.88Z"/><path d="M685.09,869.11a9.11,9.11,0,0,0-5.71,1.29c-1.73,1-3.62,1.69-5.44,2.51l.76,1.18a9.58,9.58,0,0,1,2.46-2c3-1.08,6-1.92,9-2.86Z"/><path d="M662.68,880.67c5.39.34,9-2.65,12-6.58l-.76-1.18c-2.67,4.54-7.26,6.23-11.81,8Z"/><path d="M942.52,884c6.09-.84,7.1.22,8.22,7.23l.66-.71c-2.35.34-4.38-.19-5.4-2a40.64,40.64,0,0,1-2.24-5.68Z"/><path d="M661,899.28a17.07,17.07,0,0,1-12.88,4.92l.86.49c4.08-2.39,8.14-4.85,13.14-4.57Z"/><path d="M996.45,945.18c6.52,0,7.74,1.26,7.65,7.7l1.07-1q-6.82-.84-7.7-7.66Z"/><path d="M1004.1,952.88c6.57,0,7.77,1.19,7.82,7.63l.91-.88c-4.73-.42-7-3.25-7.66-7.74Z"/><path d="M1011.92,960.51c2.56-.94,4.69-.59,6.37,1.06a6.13,6.13,0,0,1,1.54,6.37l.66-.64c-6.08-.63-6.54-1.09-7.66-7.67Z"/><path d="M1019.83,967.94c6.52-.11,7.8,1.15,7.75,7.62l.62-.61c-6.31-.29-7.18-1.15-7.71-7.65Z"/><path d="M1027.58,975.56c6.41-.13,7.56,1,7.92,7.44l0,0c-6.3-.57-7.16-1.51-7.32-8Z"/><path d="M567,1021.33a6.5,6.5,0,0,1-1.7,6.31c-1.66,1.64-3.75,2-6.29,1.06,0,0,.63.66.64.66A6.72,6.72,0,0,1,561,1023q2.25-2.6,6.1-1.59Z"/><path d="M1096.62,1052.42a5.6,5.6,0,0,1,5.88,1.62,7.69,7.69,0,0,1,1.89,6l.68-.72c-2.57,1-4.71.62-6.2-1.18a7.33,7.33,0,0,1-1.54-2.88,15.7,15.7,0,0,1,0-3.5Z"/><path d="M529.54,1067.87c2.21-7.34,2.81-7.58,10.73-4.3l-.37-.4a50.32,50.32,0,0,0-5.53,2.38,8.9,8.9,0,0,1-5.73,1.38Z"/><path d="M528.64,1066.93c-3.06,7.46-3.15,7.54-11.21,5.1l.63.56c1.83-1.09,3.68-2.14,5.47-3.29a9,9,0,0,1,6-1.43Z"/><path d="M1218.08,1134.39c2.08-2.09,4.23-2.71,6.15-1.41.27.18-.24,2.58-.89,2.88-2.55,1.19-4.63.13-6-2.62Z"/><path d="M966.44,966.76l.06,9.56Z"/><path d="M661.44,967l-1.7.78q3.36,1.25.71-1.77Z"/><polygon points="698.55 627.95 696.52 627.24 697.53 628.92 698.55 627.95"/><path d="M705.94,637.89a17.33,17.33,0,0,0-8.76-.1q.69-4.92,1.37-9.84l-1,1A20.65,20.65,0,0,1,705.94,637.89Z"/><path d="M713.58,645.61l-8.74-.08c0-2.9,0-5.79,0-8.69A11.15,11.15,0,0,1,713.58,645.61Z"/><path d="M721.29,653.24l-8.8,0q0-4.37,0-8.73C717.25,645.53,719.84,648.81,721.29,653.24Z"/><path d="M728.76,652.33c0,2.89.09,5.79.13,8.69l-8.7-.13q0-4.32-.07-8.65Z"/><path d="M697,698.36l8.87-.24q-.15,8.4-.31,16.79a20.39,20.39,0,0,1-6.2-9.33C698.54,703.19,697.81,700.77,697,698.36Z"/><path d="M698,690.32v9.25c-1.34-1.54-3.73-3.08-3.72-4.6S696.61,691.87,698,690.32Z"/><path d="M704.62,713.89l9.06-.07L709.22,719Z"/><path d="M721,736.17q-4-.2-3.48-2.69c.64.24,1.6.31,1.83.76a11.09,11.09,0,0,1,.63,2.88Z"/><path d="M719.93,737.12c5.47,2.81,5.64,3.18,4.78,10.25l1-.27c-2.43-3.27-4.59-6.67-4.78-10.93Z"/><path d="M724.71,747.37l3.28-.84-2.26.57Z"/><path d="M752,766.89l-1.82-1.49q-.57,4.46,1.12.43Z"/></svg>