<svg id="Calque_1" data-name="Calque 1" xmlns="http://www.w3.org/2000/svg" viewBox="0 0 1500 1500"><path d="M695,478.13c3.41,13.62,9.61,26.42,11.91,40.38a29.45,29.45,0,0,0,2.42,7.25,74.88,74.88,0,0,0,5.3,10.17c7.72,11.71,11.62,25.67,21.53,36.08,1.81,1.9,8.51,2.49,10.56.39a11.93,11.93,0,0,0,2.15-2.73A9.62,9.62,0,0,0,750,566c1.2-21.73.75-43.47.38-65.2a126.93,126.93,0,0,0-3-26.64c-2.33-10-3-20.21-3.47-30.45-1.25-25.57-1.67-51.13.89-76.65.77-7.65,2.37-15.14,6.54-21.79a6.93,6.93,0,0,1,2.75-2.6c.45-.2,2,.91,2.31,1.71,5.82,15.69,8.48,24,10.16,36.69,3.88,29.18,10.85,57.81,15.13,86.92.37,2.52.52,5.23,1.56,7.49,7.76,16.82,7.28,34.85,8,52.71a8.38,8.38,0,0,0,1,3.65,2.81,2.81,0,0,0,2.26,1.28,4.74,4.74,0,0,0,3-1.89,30.29,30.29,0,0,0,2.81-7.09c2.09-8.69,3.68-17.51,6-26.14,3.31-12.39,6.29-24.74,6.24-37.7a53.89,53.89,0,0,1,2.06-15.16,181.45,181.45,0,0,0,6.59-41.57,123.57,123.57,0,0,1,4.52-26.38c4.39-16,7.88-32.27,11-48.61a4.86,4.86,0,0,1,2.44-2.71c1.83-1,3.63.3,4.61,3.43a33.72,33.72,0,0,1,1.56,7.49c1.7,23,2.28,45.94.65,69-2.09,29.33-3.55,58.71-5.45,88.06a111.1,111.1,0,0,0,1.95,26.7c1.16,6.54,4.35,11.9,8.77,16.67.87.93,1.68,1.93,2.51,2.9a14.67,14.67,0,0,0-10.44-.73,7.12,7.12,0,0,0-3,1.89,6.19,6.19,0,0,0-1.17,6.38c.37,1.07,1.09,2.54,2,2.82a5,5,0,0,0,6.17-2.13c1.89-3,3.63-6.16,5.43-9.24a45.36,45.36,0,0,0,4.65-14.49c.88-5,1.86-10.08,4.3-14.62a45.84,45.84,0,0,0,5.13-14.32,217.78,217.78,0,0,1,12.12-44.2c1.39-3.54,2.1-7.34,3.13-11,3.13-11.16,7-21.82,17.57-28.41,5.59-7,10.68-14.32,13.06-23.07a55.49,55.49,0,0,1,7.89-17.29,4.42,4.42,0,0,1,3.21-1.8c1.88.12,2.95,2.25,2.89,5.32-.25,11.57-4.6,22.48-5.51,34s-4.6,22.42-7.43,33.55c-4.09,16.06-7.52,32.27-13.76,47.72a44.7,44.7,0,0,0-2.43,11.18,92.21,92.21,0,0,1-5.87,22.11c-2.31,6-3.15,12.67-1,18.75,2.33,6.6,1.18,12.43-1.14,18.47-1.06,2.78-.08,4.78,2.93,5.2,1,.13,2.33-1,3.23-1.88a19.21,19.21,0,0,0,2.1-3.13c1.44-2.1,3.58-4,4.24-6.29,5-17.23,16.38-31.75,20.43-49.33a305.84,305.84,0,0,1,33.34-60c12.51-17.68,24.85-35.49,39.46-51.58,4.27-4.71,7.74-10.12,11.76-15.06,1.53-1.88,4.06-2,6.83-1.09l-.93-.76c-.55,5.06-.39,10.31-1.75,15.14-8.26,29.49-18,58.44-32.76,85.46-8.56,15.64-16.2,31.78-25.23,47.18a274.83,274.83,0,0,0-15.35,30.77c-1.48,3.46-3.82,6.55-5.77,9.81-.85,2.32-1.72,4.63-2.52,7a16.15,16.15,0,0,0-.88,3.53c-.12,1.21-.34,2.8.29,3.59.51.64,2.29.65,3.35.36,2-.55,3.2-2.54,3.31-5.4.16-3.94-1.86-7-4.46-9.67,2.81,2.45,5.84,5.07,9.73,4.39,6.55-1.16,7.77,4.43,10.84,7.73-2.63-1.78-4.87-1.36-6.07,1.51-.28.67,1.14,2.94,1.64,2.89,2.91-.28,4.12-2.22,3.69-5.21a11.7,11.7,0,0,0,6.56-3.44c4.55-4.54,7.44-10.32,11.35-15.27q17.78-22.49,36.36-44.3a311.82,311.82,0,0,1,35.23-35c9.72-8.23,19.51-16.37,29.24-24.57a135.23,135.23,0,0,0,19-18.79l-1.3.87c1.49,5,2.14,10.1-.67,14.82Q1065,486.6,1043.2,522.69a75.87,75.87,0,0,1-6.43,9.51c-15.49,18.67-29.4,38.66-46.6,55.94-10,10-17.48,22-24.19,34.36-1.16,2.15-1.32,4.87-1.78,7.36-.73,3.91,2.33,7.19,6.69,7.49,2.55.17,5.26.22,7.28-1.35,8.09-6.25,16-12.72,24-19.14s17.35-10.84,24.25-18.68c2.47-2.8,6-4.67,9-7,16.34-12.24,31.82-25.66,49.26-36.41q11.41-7,23.06-13.71c2.19-1.26,4.66-2.78,7-2.83,12.1-.26,21.73-6.91,32.11-11.69.65-.3,2.38.68,2.91,1.5a4.42,4.42,0,0,1,0,3.24,7.61,7.61,0,0,1-1.88,3.26c-15.05,13.82-29.91,27.87-45.32,41.28-13.48,11.73-27.55,22.8-41.47,34-9,7.23-17.88,14.53-25.73,23a94.89,94.89,0,0,1-24.19,18.63c-4.42,2.44-7.37,7-12.45,8.65a49.47,49.47,0,0,0-6.78,3.33c.79,2.36,1.41,4.78,2.41,7a38,38,0,0,0,3.73,6.69,7,7,0,0,0,6.52,2.89c1.26-.11,2.75-.09,3.69-.75,10.53-7.38,23.27-10.68,33.74-18,8.47-5.93,17.64-10.2,27.18-13.9,4.76-1.85,9.75-3.3,14.2-5.74,14.7-8.06,30.9-12.05,46.58-17.32,13.31-4.46,27.29-6.58,41.19-8.67a4.84,4.84,0,0,1,3.55,1.21c1.36,1.33.85,3.64-1.27,5.91-6.21,6.64-15.34,9.12-21.94,15.25s-15.14,9.51-23,13.73-16.34,7.2-24.57,10.7c-11.75,5-23.55,9.88-35.26,14.94-15.27,6.6-30,14.1-43.22,24.44-2.94,2.31-6.74,3.56-8.86,6.9a10.25,10.25,0,0,0-1.32,3.49c-.57,3,3.82,8.22,6.57,8.07,1.28-.08,2.61.3,3.83,0,22.53-4.56,45.5-6.65,67.83-12.26,22.86-2.63,45.13-8.93,68.11-10.89,7.62-.65,15.12-2.55,22.68-3.81a197,197,0,0,1,41.86-2,3.11,3.11,0,0,1,2.33,1.84c.15,1.16-.18,3-1,3.57a78.15,78.15,0,0,1-20.53,9.8c-19.62,5.66-38.58,13.5-58.62,17.78-19,7.88-39.28,11.24-58.69,17.65a34.53,34.53,0,0,1-7.44,1.81c-15.29,1.43-29.71,7.31-45,8.81-2.81.27-4.61,2.54-4.39,4.3.12,1,1.59,2.12,2.7,2.55a120.19,120.19,0,0,0,37.23,8.16c11.49.64,23,1.19,34.47,1.75,5.11.24,10.38-.34,15.3.73,25.07,5.42,51,4.28,76,9.89,13.71,3.07,28,1.53,41.73,4.84,1,.23,1.71,1.23,2.55,1.87-.8,1-1.4,2.41-2.44,2.92-8.11,4-17,5.45-25.78,6.54-13.94,1.72-28,2.62-42,3.71-12.74,1-25.09,4.67-38,4.75A341.55,341.55,0,0,0,1100.2,807c-7.53.81-15.19,1.48-22.14,5.35-2.06,1.15-5,.92-7.49,1.08-3.21.22-5.07,1.31-4.69,3.45a4.09,4.09,0,0,0,2.4,2.52c3.61,1.27,7.56,1.74,10.94,3.41,4.57,2.24,8.88,4.84,13.9,6.21,28.37,7.71,56.1,17.43,84,26.55,14.56,4.75,29,9.84,43.81,13.82a4,4,0,0,1,3,5.35c-.31.88-2.12,1.74-3.26,1.75-23,.33-46-.8-68.94-1.47a51.42,51.42,0,0,1-15-2.91c-3.62-1.22-7.24-2.79-11-3.27-19-2.45-37.45-8.32-56.74-9-6.47-.24-12.44-2.74-18.55-4.58a46.35,46.35,0,0,0-15.16-1.82c-2.89.1-5.16,1.48-5.61,3.49a6.66,6.66,0,0,0,2.55,6.74,11.17,11.17,0,0,0,3,2.27c4.82,1.7,9.72,3.14,14.56,4.76,3.63,1.22,7.48,2.12,10.77,4,20,11.32,41.66,19.36,61.63,30.84,17.78,10.23,35,21.07,49.51,35.77a32.32,32.32,0,0,0,13.13,7.66l-.78-.8c-3.21,2-6.33,4-10.36,4.37-10.34.81-20.34-.24-29.9-4.45a398.39,398.39,0,0,0-39.23-14.91c-23.64-12.38-49-21.49-71.08-36.88-3.09-2.15-6.74-3.53-10.22-5.06-1.1-.49-2.5-.3-3.76-.44-2.58-.28-5.49.3-6.55,2.72-.87,2-.45,4.91.34,7.07,1.33,3.64,4.4,6.21,7.28,8.69a148.81,148.81,0,0,0,11.92,9.52c33.63,23.41,63.49,51,90.76,81.49,5.07,5.68,11,10.62,14.37,17.65a3.3,3.3,0,0,1-.23,3,3.88,3.88,0,0,1-3.17,1c-3.76-.94-6.84-3.22-10-5.42-6.26-4.38-12.62-8.6-19-12.8a44.48,44.48,0,0,0-17.54-7.09,29,29,0,0,1-13.7-6.36c-5-4-10-7.82-15.1-11.7-7.07-5.43-13.87-11.27-21.3-16.16-12.81-8.44-24.2-18.59-36.07-28.18-2.57-2.08-5-1.63-6.34,1.17a4,4,0,0,0,.56,3.32,62.84,62.84,0,0,0,6.77,9.12A276.32,276.32,0,0,1,1042.17,999c7.83,13.1,17.86,24.81,25,38.39,1.78,3.39,3.89,6.63,5.3,10.15,1,2.5.17,5.07-1.19,7.14-1.47,2.25-3.63,2.64-6.51,1.37-4.69-2.06-9.2-4.42-12.73-8.21-4.33-4.65-9.06-9.06-12.68-14.24-10.93-15.64-23.24-30.31-33.14-46.68-1.76-2.9-4.32-3.61-9.94-3.34a13.73,13.73,0,0,0-.65-10.12,38.68,38.68,0,0,0-8-11.41c-1.62-1.52-3.88-2-6.39-1.83.72-2.67,0-4.79-2.4-5.23-2.12-.39-3.35,1.33-2.5,3.54s3,2.55,5.47,1c-1.45,3.33-1.86,6.88.2,9.88a74.5,74.5,0,0,0,8.91,10.66c1.5,1.48,4.06,1.89,6.14,2.79a13.61,13.61,0,0,0-.17,3.8c1.77,7.37,3.57,14.75,5.61,22.06a50.17,50.17,0,0,0,4,10.66c5.54,10,11.33,19.89,17.21,29.71s11.77,19.6,16.08,30.23a5.85,5.85,0,0,1,0,3.54c-1.1,3.65-2.83,3.71-5.31.61-1.56-2-3.9-3.32-5.35-5.35-11.1-15.52-22.88-30.53-34-46-9.64-13.38-18.48-27.49-30.46-39.08a7.69,7.69,0,0,0-6.93-1.83c1.91-2.06,2.06-4.24.25-6.37-.74-.87-1.94-2.23-2.65-2.08-2.87.62-3.77,2.68-2.6,5.41s3.16,3.37,5.84,2.33c.29,2.49-.18,5.44,1,7.4,7.25,12,14.54,24.08,22.44,35.69,11.54,17,22.13,34.39,30.88,53,2.18,4.61,5,8.93,7.41,13.43s7,7.69,7.12,13.26a5,5,0,0,1-1.27,3.34,3.25,3.25,0,0,1-3,.52c-6.87-3.6-12.41-9-17.31-14.75-13.31-15.51-26.13-31.37-37.25-48.66-13.12-20.41-26.62-40.6-41-60.16-.61-.83-2.38-1.17-3.59-1.12-2.15.08-3.79,1.83-4.42,4.68a6.31,6.31,0,0,0,.55,3.76c23.58,49.76,40.91,101.94,59.18,153.75a29.9,29.9,0,0,1,1.92,7.4c.81,10.3,5.35,19.74,6.65,29.89.38,3-.91,5.12-2.94,5.26-1,.08-2.4-1-3.17-1.93a91.2,91.2,0,0,1-6.89-9.18c-4.09-6.49-7.64-13.33-11.9-19.7-16.39-24.56-28.5-51.4-41.58-77.73a62.65,62.65,0,0,1-4-10.77,55,55,0,0,0-10.73-20.11c-1.69-2-2-4.51-2.33-7.16-1.27-12-7.58-21.52-15.28-30.27a5.26,5.26,0,0,0-3.5-1.39c-2-.09-3.63,1.69-4.07,4.74-.74,5.13-.68,10.53,1.65,15.06,4.24,8.24,4.83,17.1,6,25.93.48,3.64,1.85,5.19,7,8.19,5.41,3.14,5.8,3.28,4,8.82-2.84,8.86-3.32,17.74-.1,26.35,5.85,15.65,9.65,31.81,13,48.1,5.24,25.35,5.26,25.84,6.35,53.23.15,3.83.17,7.68.09,11.51-.07,3.52-1.66,4.93-4.29,3.9a5.58,5.58,0,0,1-2.79-2.13c-6.07-11.18-19.22-39.48-22.69-48.58-8.21-21.51-13.76-43.88-21.33-65.61a44.15,44.15,0,0,1-1.85-11.32c-.63-9-1.66-17.84-6.13-25.9-1.69-10.26-7.81-18.86-10.78-28.64a4.66,4.66,0,0,0-2.44-2.34c-2.43-1.1-3.89.3-4.25,3.8-1.73,16.63-.74,33.24.78,49.81.46,5,2.1,10,3.19,15,.81,3.74,1.86,7.45,2.36,11.24.67,5,1.56,10.15.4,15.26-4,17.63-4.15,35.5-3.36,53.44s1.49,35.78,2.22,53.68c.14,3.57-.94,5.18-2.82,4.24a5.57,5.57,0,0,1-2.43-2.66c-2.9-7.11-5.9-14.22-6.38-22-1.64-26.9-8.08-53.08-11.93-79.65a63,63,0,0,0-7-21.72,2.5,2.5,0,0,0-2.36-.71,5.47,5.47,0,0,0-2.68,2.55c-2.49,7.41-1.82,15.17-2.23,22.81-.26,4.76-1.92,5.58-7.4,3-2.67-1.26-4.4-.9-5.49,2.38a47.17,47.17,0,0,0-2.42,18.93c1.32,15.39-.42,30.68-1.26,46-.29,5.08-2.7,9.8-5.92,13.86-.66.81-2.11,1-3.2,1.47a20.5,20.5,0,0,1-1.29-3.61c-2.93-17.77-1.43-35.75-2.59-53.6-.3-4.65-1.88-6.5-6.84-7a35,35,0,0,1-3.71-.34,6,6,0,0,1-5-5.13c-3.61-24.06-4.41-48.36-5.81-72.6-.66-11.56.89-23,3.55-34.25a66,66,0,0,0,1.77-22.84c-.35-3.08-1.07-5.34-2.56-5.38-.63,0-1.5,1.9-1.94,3.06a30.34,30.34,0,0,0-.75,3.75c-.92,3.72-1.41,7.64-3,11.1-3.68,8.29-6.13,16.76-6.09,25.91a44,44,0,0,1-2.36,15.1c-3.9,10.87-6.22,22.11-8.81,33.33s-6,22.23-8.24,33.49c-3.3,16.34-8.74,32-13.63,47.91-1.11,3.6-3.26,6.92-5.17,10.23a5.71,5.71,0,0,1-2.94,1.86c-2.62.92-4.17-.48-4.46-3.94-1.09-12.82-.84-25.68,1.85-38.21,4.56-21.23,7.51-42.79,13.94-63.65a330.39,330.39,0,0,0,12.29-60c.35-3.07-.9-5.29-2.83-5.55a7.68,7.68,0,0,0-6.84,2.9,29.15,29.15,0,0,0-2.53,2.82,60.75,60.75,0,0,0-4,6.54c-2.89,5.71-5.88,11.38-8.34,17.28-3.43,8.27-6.86,16.43-12.22,23.77-3,4.07-4.76,9-6.95,13.62-2.75,5.77-5.46,11.57-8,17.42a106.65,106.65,0,0,1-18.48,29c-6.85,7.58-13.06,15.72-19.55,23.61-2.12,2.57-5.12,3-10.25,1.44l-.9.85c1.36-2.11,3.2-4.06,4-6.36,1.59-4.79,2.59-9.77,3.84-14.67,2.19-8.58,4.2-17.2,7.8-25.37a39.08,39.08,0,0,0,3.49-10.8c2.17-17.75,9.13-34,14.69-50.79,1.15-3.47.63-7.49.88-11.25l-.91.26c4.54-1.62,6.91-5,7.62-9.62.33-2.15.44-4.33.65-6.5l4.16-4.52-2-.61q-.55,3.12-1.12,6.23l-9.32-1.81,1.15.62c-1-2.34-1.87-4.72-3-7-1.64-3.41-6.93-3.81-9.15-.92a175,175,0,0,0-12.44,19,218.49,218.49,0,0,1-37.09,47.9c-5.45,5.28-10.66,10.8-16.12,16.07-1.79,1.73-4.34,2.22-7,2.12l-1.23-1.22a31.6,31.6,0,0,1,1.44-15.08c2.3-7.3,4.91-14.5,7.48-21.71,4.71-13.24,12-25.38,16.51-38.73a48.29,48.29,0,0,1,5.39-10.12c7.61-11.87,13.16-24.74,18.66-37.66,1.28-3,.89-5.1-2.23-6.26a6.12,6.12,0,0,0-3.76-.14,29.26,29.26,0,0,0-6.92,3,64.69,64.69,0,0,0-16.52,15.81c-12.23,16.42-26.35,31.19-40.17,46.22A10.55,10.55,0,0,1,551,1059.4l.76.76c-1.6-5.13-.54-10,1.75-14.6a64.62,64.62,0,0,1,5.75-9.78c13.57-18.25,27-36.57,39.26-55.76,4.07-6.41,10.66-10.78,14-17.73,1.22-2.55,1-5-1.23-6.86-.8-.65-2.56-.64-3.69-.3-3.68,1.1-6.61,3.52-9.49,6s-6.24,3.44-10.15,1.65c-2.43-1.1-5-.29-7.26,1a57.86,57.86,0,0,0-12.11,9c-20.8,20.48-44.12,37.82-68.1,54.3-3.18,2.19-7,2.43-10.86,1.51l.71.71c-.56-2.66-.48-5.28,1-7.32,11.2-15.65,25.74-28.35,38.22-42.88,2.46-2.86,5.91-4.87,8.85-7.32,3.92-3.28,8.14-6.3,11.64-10,10.62-11.18,22.43-20.93,34.58-30.34,3-2.34,5.57-5.26,8.36-7.89,3.22-3,4.11-7.34,2.08-10.22-1.44-2-3.08-4-5.66-4.76-4.94-1.4-10-2.17-15.06-.36-19.31,6.89-38,15.08-55.52,25.87-15.33,9.44-32,15.86-49.11,21.32A94.36,94.36,0,0,1,451,959.68c-6.36.68-12.68,1.49-18.83,3.47-3,1-5.16,0-5.12-2a5.73,5.73,0,0,1,1.88-3.25c6.35-6.38,14.7-10,21.66-15.6,16.94-13.69,35.37-25.23,54.2-36.16C517,899.1,529,891.94,542.5,887.42c6-2,11.62-5.43,16.8-9.08,5.36-3.79,12-4.43,17.3-8.08,2.93-2,4.14-7.41,1.68-9.81-2.82-2.74-6.25-5.48-10-4.43-9.94,2.83-20,3.64-30.21,4A56,56,0,0,0,523,862.65c-9.76,3.15-19.83,5-29.68,7.69-12.4,3.36-24.82,6.11-37.62,7.16a26.73,26.73,0,0,0-3.81.38c-23.93,5.65-48.21,4.77-72.49,3.85-1,0-2.64-.73-2.84-1.43-.84-3,.55-4.88,3.32-6.08,3.5-1.52,6.73-3.69,10.3-5C417.74,859.15,446,850.46,477.71,841c11-3.29,22.77-4.09,33-9.88,5-1,10-2.05,15.07-2.81,5.23-.78,9.64-3.12,13.81-6.18a89.87,89.87,0,0,1,9.53-6.43c2.81-1.55,3.9-3.35,2.75-6.36a5.76,5.76,0,0,0-5.44-4.09c-9,.25-17.88,1-26.81,1.57-15.38,1-30.76.8-45.87-2.29-17.64-3.6-35.45-4.92-53.36-5.72-7.67-.34-15.35-.57-23-1.12-14.06-1-28-2.85-41.55-7-1.05-.32-1.92-1.5-2.7-2.43-1.72-2.07-.66-3.73,3.08-4,26.8-1.81,53.58-3.76,80.24-7.21,15.25-2,30.64-1.61,46-1.48,8.95.07,17.91.12,26.87,0,6.39-.11,12.79-.41,19.16-.91,14-1.12,28.12-.21,42.08-2.08a4.6,4.6,0,0,0,2.64-2c1.73-2.53,1.48-5.21-1-6.92-6.3-4.28-13.09-8-20.33-10-12.3-3.33-24.06-8.88-37.05-9.55-13.56-3.69-27.17-7.2-40.67-11.12-9.82-2.85-19.38-6.61-29.25-9.25-8.63-2.32-17.23-4.66-25.79-7.25-14.65-4.44-29.36-8.93-44.6-11.25a33,33,0,0,1-13.95-6.06,5.5,5.5,0,0,1-2.1-3.11c-.35-1.7,1.58-3.09,4.83-2.88,16.59,1.07,33.16,2.37,49.75,3.53,15.32,1.07,30.67,1.86,45.48,6.5,30.48,4.32,59.73,13.84,89.44,21.36A122.77,122.77,0,0,0,574.52,728c3.91.12,7.29-1.87,9.78-5,5.48-6.89,4.24-15.84-2.67-19.68-2.23-1.24-4.32-2.77-6.63-3.82-23.27-10.57-46.62-20.93-70.46-30.2-25-9.74-48.83-22.23-72.63-34.62-3.35-1.74-6.29-4.31-9.28-6.66-.72-.56-1.5-2.31-1.23-2.62a6.38,6.38,0,0,1,3.24-1.92,7.52,7.52,0,0,1,3.78.32c15.76,5.15,31.18,11.34,47.22,15.67,16.29,7.31,34,11.32,49.15,21.27,8.75,2.15,17.21,4.94,24.34,10.77,13.56,7.18,27.36,13.85,42,18.47,2.32.73,5.08-.07,7.57.31,5.21.8,11-9.57,8.11-14.56-1.27-2.18-2.2-4.68-3.89-6.48-5.23-5.61-10.65-11.14-17.49-14.82a151.77,151.77,0,0,1-34.19-24.47A58.72,58.72,0,0,0,539,620.73c-10.17-5.59-18.54-13.63-28.12-19.92-18.33-12-34.1-26.88-49.34-42.42a5.36,5.36,0,0,1-1.17-3.24,16.11,16.11,0,0,1,.61-3.77l-.81.86,11.13,2.55c15.61,11.15,32.5,20.37,47.8,32,12.2,9.28,26.37,15.72,37.94,26,17.35,11,31.64,25.89,48.4,37.61,3.13,2.19,6.39,4.22,10.22,4.82a6.58,6.58,0,0,0,7.13-7,28.54,28.54,0,0,0-2.57-7c-9.88-18-22-34.43-34.7-50.49-9.5-12-19.44-23.76-29.31-35.5a505.6,505.6,0,0,1-50.67-72.07c-1.27-2.19-2-4.7-3.12-7-1.27-2.57-.65-4.71,2.33-6.06a7.08,7.08,0,0,1,3.75-.07,9.42,9.42,0,0,1,3.49,1.21c7.57,4.89,14,11.16,20.34,17.46,19,19,37.67,38.31,56.48,57.48,9.88,10.08,18.47,21.23,26.8,32.56,6.05,8.23,11.25,17,14.09,27.05,1.71,6.08,5,11.73,7.71,17.5.52,1.09,1.74,1.84,2.6,2.78,2.32,2.52,8,3.31,10.49,1.63,8.56-5.65,16-12.57,23.06-20,1.81-1.9,2.68-8.28,1.7-10.92a43.45,43.45,0,0,0-7.6-13.23c-7.47-8.73-15.58-17-22.61-26-6.25-8.05-10.67-17.56-17.2-25.33-8.4-10-12.83-22.07-19.54-32.9a26.61,26.61,0,0,1-2.57-7.2c-.66-2.46-.84-5.05-1.49-7.52-2-7.4-4.29-14.72-6.07-22.17s-8.24-13-9-21c-3.37-6.88-6.87-13.57-6.66-21.73.09-3.6-1.67-7.49-3.4-10.84-3.08-6-3.57-12.14-2.62-18.59l-1-1c4.64,7.66,10.54,14.34,16.49,21A271.14,271.14,0,0,1,619.19,447c10.21,16.13,19.54,32.76,29.34,49.13,3.26,5.44,5.91,11.26,8.75,16.94s5.36,11.55,8.41,17.12c8.56,15.63,16.58,31.49,21.94,48.57a19.73,19.73,0,0,0,1.78,3.36c2.68,4.87,7,7.21,12.34,7.58s9.64-3.49,10.91-8.46c1.31-5.14.47-10.15-.53-15.1a67,67,0,0,0-3.58-10.83c-5.1-13-11.86-25.36-16.1-38.72-3.85-12.11-7-24.48-11.21-36.45-5.12-14.44-8.53-29.32-12.51-44.05a87.07,87.07,0,0,1-3-26.46c.4-8.89.8-17.77,1.31-26.65.07-1.22.53-3.17,1.3-3.45,2.8-1,5.06,0,6.17,2.41,4.28,9.27,10.63,17.4,15,26.5s6.65,19.21,10.6,28.56c5,11.73,8.39,24,13.13,35.78,4.29,10.64,7.53,21.59,11.1,32.46,2.38,7.24,4.71,14.55,9.6,20.66q1.15,5.55,2.32,11.1l.87-.69c-6,.65-7.23.12-9.84-2.75a64,64,0,0,1-14-26.39c-2.39-8.6-7.16-16.06-9.81-24.46-.91-2.91-3.64-3.83-9.44-3.87,3.46-4.51,4.07-6.44,2.29-8.54a3,3,0,0,0-2.67-.79,2.74,2.74,0,0,0-1,2.49A59.43,59.43,0,0,0,695,478.13ZM883.7,673.67l-2.1.89,3-1.36A22.41,22.41,0,0,0,882.47,687c.89,5.12,3.39,8.56,8.64,9.66a60.36,60.36,0,0,0-.93,6.51c-.14,3.26,1.38,4.3,3.79,2.62.56-.39.69-2.28.24-3a46.43,46.43,0,0,0-4.08-5.16c-.6-3.52-1.3-7-1.78-10.56C887.71,682.22,886.49,677.68,883.7,673.67Zm-15,15.25a9,9,0,0,0-2.18,6.14c0,2.67.91,4.49,2.81,4.8a2.79,2.79,0,0,0,2.26-1.46,5.81,5.81,0,0,0-.07-3.25,9.7,9.7,0,0,0-3.82-5.41c-.58-4.88-.94-9.81-1.82-14.64-.69-3.76-3.25-6.49-6.42-8.55-.93-.6-2.4-1.56-3-1.23-2.58,1.37-3.22,3.66-2.21,6.28,1.78,4.57,3.53,9.16,5.37,13.71C860.8,688.34,863.69,689.43,868.68,688.92Zm-77-16.82a32.44,32.44,0,0,1-12.36-8.65c-3.36-3.78-5.51-8.57-9.71-11.64-2.06-1.5-4.48-2.83-7-2.43-3.71.6-7.27,2.69-11,2.86-9.46.43-16.84,4.56-23.76,10.68-8.59,7.61-16.67,15.69-24.68,23.88-12.7,13-21.45,28.36-27.44,45.38s-9.94,34.2-9.43,52.29c.18,6.36.22,12.73.68,19.07a58.93,58.93,0,0,0,1.92,11.26c4.77,17.45,12.76,33.24,25.09,46.6a100.67,100.67,0,0,0,13.89,13c11.28,8.32,23.28,15.55,36.47,20.54a45.57,45.57,0,0,0,11,2.9c7.58.8,15.22,1.24,22.84,1.37a11.34,11.34,0,0,0,7-2.3,10.12,10.12,0,0,0,3.46-6.47c.45-10.16.36-20.34.43-30.51.07-8.91,0-17.81,1.5-26.65a42.34,42.34,0,0,1,5-14.3c3.31-5.76,8-9.89,14.72-11,6.27-1,12.63-1.49,18.93-2.33,5.41-.73,11.36-7,12.46-12.94.23-1.25.53-2.49.72-3.74a65.88,65.88,0,0,0-.18-22.8c-2.24-11.23-4.85-22.38-7.38-33.55-.88-3.88,0-7.53,1.05-11.19l-.76.78c2.46-.57,5-1.69,7.38-1.57,4.67.23,6.77-2.7,8.15-6.13,2.43-6,2.22-12.28.5-18.59-2.68-9.8-7.38-18.79-10.87-28.26-1.15-3.11-5.65-5.23-9.47-4-2.57.84-5,2-6.88,1.14-3.84-1.82-3.63-6.31-5.5-9.46a4.2,4.2,0,0,0-3.12-1.44,3.3,3.3,0,0,0-2.65,1.44c-4.15,10-2.47,19.81,1.55,29.34,1.26,3,1.88,4.94.13,5.37-1,.24-2.57-.56-3.37-1.39-6.15-6.33-13.26-11.57-19.65-17.62-.67-2.72.56-4.52,2.07-6.59,2.32-3.18,1.21-4.69-2-3.21-.43.19,0,2.3,0,3.52C791.54,667.23,791.6,669.67,791.66,672.1ZM767.42,512.9c.37,6.93.72,17.08,1.52,27.19a33.37,33.37,0,0,0,4.57,14.41c1.45,2.47,3.65,3.58,5.47,2.71.88-.42,1.56-2.18,1.56-3.34.1-11.41.25-22.83-.1-34.23a80.83,80.83,0,0,0-2.23-15c-1.64-7.4-3.63-14.73-5.71-22-.27-.93-2-1.46-3-2.17-.6.91-1.53,1.75-1.74,2.75C765.83,492,768.15,500.84,767.42,512.9Zm29,570.21c0,7.61-.09,15.23.06,22.84a33.11,33.11,0,0,0,1.15,7.45c.27,1.09,1.31,2.78,2,2.78,1,0,2.81-1,3-2,3.57-13.51,6.51-27.15,6.82-41.19a86.07,86.07,0,0,0-.71-11.33,9.26,9.26,0,0,0-3.68-6.47,4.76,4.76,0,0,0-3.5-.48,3.7,3.7,0,0,0-2.36,2C796.19,1065.3,797,1074.26,796.39,1083.11Zm-97-93c0-1.19.4-2.57-.11-3.38a5.92,5.92,0,0,0-3-1.83c-2.84-1-4.72-.07-4.86,2.6,0,.93.93,2.17,1.77,2.86C695.37,992.14,697.54,991.94,699.4,990.09Zm-12.82,23.73c1-.55,2.25-.89,2.81-1.72.37-.55-.31-1.8-.52-2.73-1,.45-2.48.64-2.94,1.42S686.32,1012.78,686.58,1013.82Zm220.83-315.5c.28,1.15.27,2.53.93,3.37s2.35,1.61,2.89,1.27c2.3-1.41,2.32-3.63.24-5.89a16.88,16.88,0,0,0-2.76-2C908.28,696.16,907.85,697.24,907.41,698.32Zm-89-169.65a6.45,6.45,0,0,0-1.69-6.21,10.66,10.66,0,0,0-2.26,2.35,7,7,0,0,0-.54,3.26c.08,3,1.29,4.37,3.08,3.38C817.73,531,818.12,529.68,818.38,528.67Z"/><path d="M1013.75,377.77a6.71,6.71,0,0,1-1.39-6.58c.82-3.28,2.42-4.17,4.8-2.08.64.56.65,2.22.45,3.28a5.61,5.61,0,0,1-4.79,4.62Z"/><path d="M736.27,537a5.8,5.8,0,0,1,5.1,4.93c.19,1.15.19,2.88-.49,3.53-2.49,2.36-4.16,1.46-5.09-2.09-.68-2.64-.46-4.93,1.35-7.06Z"/><path d="M461,551.38a14.63,14.63,0,0,1-10.54-.24c-3.33-1.45-6.58-3.06-9.87-4.6l.87,1.34c2.31-.39,4.61-.81,6.93-1.16,5.14-.78,9,1.2,11.8,5.52Z"/><path d="M667,1060.44c-.27-2.35-1.78-3.89-3-5.66-3.13-4.5-2.6-5.7,3.29-10.29l-1.15-.62c-.8,5.61-1.45,11.22,0,16.83Z"/><path d="M1089,1100.91c-1-2.2-1.68-4.67-3.12-6.54a13.72,13.72,0,0,1-2.42-13.58l-1,1a13.3,13.3,0,0,1,4.4,8.38c.42,3.23.8,6.46,1.2,9.69Z"/><path d="M633.27,1178.83l-.15,2.58q3.39.09-.75-1.73Z"/><path d="M576.52,390.24l-2.26-.92q.12,3.84,1.22-.05Z"/><path d="M1088.58,434.73c0,.7-.07,1.41-.11,2.12,2-1.49,1.65-1.9-1.19-1.25Z"/><path d="M440.6,546.54h2.45c-1.37-2.33-1.9-1.89-1.58,1.34Z"/><polygon points="1184.85 948.87 1183.31 950.32 1184.07 948.07 1184.85 948.87"/><path d="M489.64,1028.61c.41,3.34-.68,4.71-3.2,3.86-.14,0,0-2.19.47-2.48.95-.56,2.27-.48,3.44-.67Z"/><path d="M551,1059.4c.73,3.37-.31,4.71-3,3.75-.2-.08-.12-2.37.37-2.62.94-.5,2.26-.29,3.42-.37Z"/><path d="M1074.32,1074q-3.79.43-3.76-2c.62.11,1.53,0,1.8.38a11.06,11.06,0,0,1,1,2.63Z"/><path d="M1083.42,1080.79c-7.9,1.93-8.08,1.81-9.1-6.77l-.94,1c4.77-.07,7.31,2.82,9,6.79Z"/><path d="M1088,1099.87l2.48,1c-.57-3.19-1.08-3.18-1.55,0Z"/><path d="M582.52,1121.65c.35,2.56-.41,4.73-2.62,5.51-2,.72-3.56-.7-3.35-3.14s2.08-3.57,4.75-3.58Z"/><path d="M835.94,721.47c-2.75,1.51-4.68.76-5.13-2.31-.1-.71,1.63-2.5,2.13-2.36,2.84.76,3.53,2.78,2.24,5.45Z"/></svg>