<svg id="Calque_1" data-name="Calque 1" xmlns="http://www.w3.org/2000/svg" viewBox="0 0 1500 1500"><path d="M1006.6,300.57c2.51-.89,5.13-1.16,7.27.14a198.67,198.67,0,0,1,32.77,24.91,275.35,275.35,0,0,0,35.2,28,12.51,12.51,0,0,1,4.82,5.51l1.11-.8-4.11,4.7,4,4.73-1-1.28c1.38,4.46,4.53,7.14,8.74,8.77l-1.15-1,8.78,8.82-1-1.14a17.53,17.53,0,0,0,8.72,8.79l-1.18-1.1c2.29,3.58,5.5,6.24,8.81,8.8l-.91-1.18,1,8.67c-.74,2.69-1.86,2.77-3.19.16-.06-.13,1.22-1,1.87-1.45l9,1.42.16-.25c2.19,7.44,6.63,12.81,14.18,15.29l-.29-.84a16,16,0,0,0,1.86,3.17c.83.87,2.11,2,3.06,1.9,2.83-.33,4.3-2.31,4.48-5.18l-.19.39c5.35,11.64,14.75,20.87,19.5,32.9a19.12,19.12,0,0,0,4.37,6.15c7.25,7.29,12.78,15.87,18.43,24.36,1.41,2.12,2.16,4.73,3.74,6.69,14.6,18.14,23.56,39.43,33.72,60.05a123.94,123.94,0,0,1,9.23,25.18c2.43,9.94,5.53,19.65,8.32,29.47,2.44,8.56,3.86,17.43,6.46,26,1.48,4.86,2,10,2.8,15.07.63,3.78.47,7.83,1.78,11.34,7,18.64,6.12,37.65,3.38,56.84,3,6.94,7.31,13.36,7.36,21.42,0,5.09,1.57,10.22,1.25,15.26-1.24,19.22,1.27,38.36.94,57.53s-1.16,38.35-1.56,57.53c-.27,12.78,0,25.57-.3,38.35a26.73,26.73,0,0,1-4.92,14.31c-1.43,2.12-2.89,4.22-4.33,6.33,1.17-3.59,2.4-7.16,3.48-10.79a14.57,14.57,0,0,0,.4-3.75c.1-3.54-1.47-4.95-4.32-3.64-.68.31-1.13,2.09-1,3.09.73,4.85,3.48,9.48,1.5,14.61-.15,2.51-1,5.27-.31,7.49a63.53,63.53,0,0,1,3.45,22.34c-.39,10.1,1,20.27-1,30.31.81,9.06-1.78,17.48-4.74,25.86-.84,2.38-1,5-1.86,7.35a23.27,23.27,0,0,1-6.59,9.12c-.55-3.67-1.63-7.35-1.57-11,.24-12.38,1-24.75,1.28-37.13.06-2.37-.86-4.8-1.59-7.12-.32-1-1.31-1.77-2-2.65a13.29,13.29,0,0,0-1.87,3.21c-3.09,12.13-1.21,24.7-3.16,36.94a21.25,21.25,0,0,1-4.58,10c-1.53,1.94-3.21,3.78-4.83,5.66a8,8,0,0,1,.14-6.54c1.67-3.28,1.39-4.27-1.06-3.09.48,1,1,2,1.44,3a6.52,6.52,0,0,1-.89,6.37c.82.87,2.14,1.63,2.39,2.65.86,3.48,1.22,7.08,2,10.56a4.46,4.46,0,0,0,2.21,2.5c.49.25,2-.43,2.33-1.06,2.76-5.14,3.73-11.65,10.68-13.46a51.25,51.25,0,0,0,0,7.64c1.14,7.83-.51,15.28-3.09,22.51-3,8.39-7.21,16.29-8.68,25.26-1.44,8.79-6.83,16.39-7.59,25.57-.63,7.66-4.08,14.81-7.5,21.57-8.61,17.07-17.13,34.18-25.26,51.49a41.8,41.8,0,0,1-5.84,9.83c-5.1,5.79-8.11,12.93-12.89,18.85-1.52,1.88-4.24,2.74-6.32,4.2s-4.63,2.7-5.91,4.71c-11.78,18.42-27.29,33.67-42.15,49.39-10.49,11.11-22.18,21.08-33.38,31.52-13.1,12.2-26.89,23.5-42.5,32.41-20.72,15.36-44.25,25-68.14,34.07-22.66,8.61-45.3,17.14-68.77,23.34-3.66,1-7,2.93-10.59,4.33a44.89,44.89,0,0,1-14.78,3.51,62.1,62.1,0,0,0-15.1,2.05c-18.68,5.56-37.75,5.63-56.93,5-3-.09-5.37-1.18-5.48-3.57s2-3.9,5-4.3a15.36,15.36,0,0,0,7-2.6c2.4-1.66-.81-3.91-7.51-4.76a38.94,38.94,0,0,1-11-2.67c-2.36-1-4.6,0-6.87,1.69-4.12,3-8.24,5.73-10.44,10.68-1.73,3.88-5.63,4.85-9.48,5.13a99.06,99.06,0,0,1-11.43.19c-8.92-.36-17.82-1.13-26.74-1.34-9.54-.22-17.28-3.77-23.25-11.19,5,4,10.66,6.46,17.27,6.27,5-.14,10-.1,15-.23a19,19,0,0,0,3.7-.7c3.21-.74,4.77-2.23,3.85-4a7.52,7.52,0,0,0-6-4,88,88,0,0,0-33.45,3.34c-1.11,2.3-2.65,4.09-4.78,4.41a33.4,33.4,0,0,1-17.11-1.87c-2.05-.79-3.41-2.72-4.37-5,3.65-.62,7.33-1.12,10.94-1.91,1.09-.24,2.69-1.14,2.87-2,.46-2.17-1.25-3.49-4.21-3.68a9.54,9.54,0,0,0-6.79,2.09c-2,1.64-2.64,3.86-1.8,6.59-2.46-.51-5-1.59-7.38-1.44-15.62.94-30-3.37-43.76-10.15-10.17-5-21-8.63-30.47-15a7.88,7.88,0,0,1-3.3-6.28l-1,1.06c8.55-2.21,8.56-2.2,15.94-8.8,3.35-.75,6.71-1.46,10-2.26,2.33-.56,3.73-2.21,4.26-4.78l8.62-8.63,13.82.75-.82-.52c1.34,4.77,1,7-1.76,9.49-1.76,1.59-3.78,2.88-5.68,4.31l.68,2.13-1-3.14a56.44,56.44,0,0,0,17.85,2.43c1.15,5,4.25,7.54,9.48,7.5,2.25,0,4.52.29,6.77.45,2.06,5.65,3,6.6,7.15,7.48,9.3,2,10.17,1.64,14-7.13l3.2-1.27c4.41-1.76,8-4.47,10-8.88,1-2.08,2-4.13,3-6.19,5.45,1.73,10.82,4.29,16.73,1.76l6.3,2.46c-3.74,3.33-7.63,6.51-11.19,10a32.37,32.37,0,0,0-7.67,12.62c-.88,2.55.61,4.58,2.64,6.54,2.48,2.41,4.33,2.6,6.15-.13a31.56,31.56,0,0,1,1.94-3.17c3.3-3.88,5.81-3.8,8.21,1,1.5,3,2.64,4.6,4.92,3a7.66,7.66,0,0,0,3.28-6.4c-.14-3.71-1-7.4-1.6-11.1l1.87-1-.92,1.92a13.38,13.38,0,0,1-6.59-3.58c-1.94-1.91-3.07-4.07-2.75-6.45.16-1.19,1.08-2.27,1.65-3.4-3.14-.42-4.68-1.84-4.92-4.24-.3-3,1.15-4.14,4.6-4.19,12.05-.18,12-.18,29.2,6.1,2.38.88,5,1.13,7.43,1.88,5.26,1.61,8.41,5.34,10.41,10.35a4.23,4.23,0,0,0,2.95,2.12c1.84.21,3.28-1.7,3.61-4.83.62-5.9,4-9,9.59-10.06,2.5-.46,5.14-1.13,7.6-.81,9.07,1.15,17.72.36,26-3.81,3.52-1.76,7.58-1.5,11.23-.36a20.35,20.35,0,0,0,11.25.37c5-1.22,9.87-2.66,14.81-4,6.44-5.24,13.91-5.47,21.7-4.75a25.67,25.67,0,0,0,14.84-3c7.8-4.38,15.68-8.57,23.79-12.34s16.28-7.41,24.34-11.28a121.87,121.87,0,0,0,13.52-7.26c19.28-12.54,39.28-24,58-37.36,9.35-6.69,18.32-13.94,28.69-19.14a21.53,21.53,0,0,0,6-4.72c10.35-11.32,20.92-22.48,30.72-34.27,6.52-7.84,11.72-16.78,18.71-24.29s11.24-17.06,17.22-25.33q10.1-14,20.5-27.68c.67-.89,2.27-1.08,3.44-1.6,3.94-1.76,5.06-5.48,6.28-9.12,5.64-.43,9.21-4.41,11.7-8.52,4.56-7.51,7.85-15.78,12.15-23.47,5.06-9,7-18.78,8-28.88,1.22-.13,2.57,0,3.61-.45a7.28,7.28,0,0,0,4-5.86c.47-3-.6-4.86-3.4-4.9a4.29,4.29,0,0,0-2.93,1.92c-2.12,3.2-3.14,6.6-.36,10-2.8-.48-5.38-.13-6.69,1.8-4.95,7.25-10.23,14.25-12.61,23-1.63,6-4.45,11.76-7.08,17.46-1,2.11-3.58,2.89-6.35,3q1.17-7.38,2.33-14.75c6.25-12.24,6.83-26.49,13.8-38.53,4.39-7.59,6.5-16.14,9.12-24.46,1.54-4.89,4.81-8.63,8.47-12.07a17.53,17.53,0,0,1,.93,3.4c.13,1.88,0,3.79,0,5.68-.32-.66-.65-1.32-1-2a6.1,6.1,0,0,1,.57-6.71,25.33,25.33,0,0,1-2-14.87c3-18.84,6.24-37.63,9-56.49.85-5.78,4.44-8.78,8.82-11.51-2.69-3.06,1-6,.22-9-2.5,3,.81,6.38-.5,9.49-7.84-5.73-10.67-13.61-10-23,.67-10,1.4-20.11,1.81-30.17.35-8.73,1.17-17.47-.3-26.23-.4-2.39.91-5.05.58-7.48-.84-6.2-2.19-12.34-3.3-18.52s-2.5-12.35-3.15-18.59a38.6,38.6,0,0,1,.77-11.22c1-4.93,2.52-9.74,3.82-14.6,7-5,8.77-11.45,5.52-19.29a4.55,4.55,0,0,0-2.41-2.48c-1.67-.5-2.72,1.3-3.19,4.44a40.8,40.8,0,0,0,1,18.25c-5-4.2-8-9.52-8.45-16-.49-7.42-.56-14.87-.58-22.31a24.41,24.41,0,0,0-2.14-10.85c-3.4-6.88-4.2-14.08-4.68-21.6-.64-10,.67-19.69,3-29.41.85-3.6-1.16-7.17-3.78-10l.84.9c-.48-2.48-1-4.95-1.4-7.45a63.89,63.89,0,0,1-.82-7.54c-.22-7.2-4.08-11.55-10.65-13.87-2.27-4.55-4.69-9-6.75-13.6a28.77,28.77,0,0,1-1.14-22.1,43.88,43.88,0,0,0,1.94-7.3c.58-3.37-.95-4.71-4.14-4.57-6.07.28-6,.17-8.11-4.38-4.15-9.16-7.67-18.67-13.11-27.17-3.46-5.42-4.35-12-7.87-17.14-4.24-6.26-7.93-12.88-12.3-19-3.82-5.36-5.32-11.36-6.85-17.48,3.27-2.29,6.37-4.75,8.31-8.37a26.67,26.67,0,0,1,13.86,1.63c3.54-1.89,7.23-.47,10.83-.32.92,0,1.77,1.58,2.66,2.43l2.61-.41c.33-3,.81-3.06,1.44-.27l-2.56-.7c-1.59-3.94-3-8-7-10.31-.85-.5-1.3-1.68-1.94-2.55l2.82-13.06,2.07-.87-.91,2.08-11.28,2-.69-2.54,1.93,1.46a12.25,12.25,0,0,1,6.27,10.51c4.62,3.66,6.56,8.76,7.76,14.28L1138.1,499a38.79,38.79,0,0,0-13.19-9.08c-.76-3.41-1.4-6.85-2.31-10.22-.63-2.31-2.42-3.81-4.82-4.68-.58-4.71-2.6-8-8-7.85a6.81,6.81,0,0,0-1.68-6.17q-2.31-2.47-6.05-1.33c-.61-4.58-3.37-7.08-7.76-8-2.75-11.79-11.13-19.69-19.26-27.73a6.83,6.83,0,0,0-3.46-1.32c-2.51-.46-5-.72-7.57-1.06a20.11,20.11,0,0,0-7.75-7.67,33.49,33.49,0,0,0-8.23-8.56q-1.8-4.51-3.59-9c4.65-1.64,9.16-3.86,14.3-3.39-5.08-3.9-5.6-6.34-2-10a16.71,16.71,0,0,1,2.65-1.85c-1.94,2.16-4.12,3-6.54,2.41s-4-2.35-4.56-5.25c-4.47-3.3-7.87-7.18-7.3-13.25q-2.91,3.61-1-.94c.43.67.85,1.35,1.28,2a28.49,28.49,0,0,1,3.07,1.95c2.93,2.42,4.46,5.46,3.83,9.36,4.25.86,8.79,1,12.12,4.38a36,36,0,0,1-2.14,12.11c-1.67,2-3.74,3.26-6.17,3.12a67.76,67.76,0,0,1-7-1.16l-12,2.62c-1-6.2-1.25-6.47-7.71-7.85q0-4.19,0-8.37c1-.63,2.24-1.05,2.9-1.93,1.22-1.61.41-3.52-1.94-5.34-2.75-1.3-5.48-2-8.16.19-3.64,1.56-5.7,4.65-7.55,7.92-3.56-1.15-7.15-2.22-10.67-3.49a10,10,0,0,1-5.35-5c3.58-1.41,7.41-2.93,7.75-7.32.37-4.68-3.73-5.89-7.1-7.43-2.47-3.83-5-4.43-7.46,0-4.11,1.07-6.91,3.49-7.93,7.72-5.58-4.78-10.75-10-18.09-12.45-3.43-1.13-6.46-3.54-9.58-5.51a8.31,8.31,0,0,1-3.59-6.08,59.53,59.53,0,0,0,7-.52c3-.57,4.15-2.11,3-3.73a4.9,4.9,0,0,0-2.8-1.85,64.78,64.78,0,0,0-6.85-.58,6.11,6.11,0,0,0-3.83-5.91,25.55,25.55,0,0,0-11.14-1.76,19.81,19.81,0,0,0-2.22-2.52c-5.57-4.54-8.39-3.94-13.28,2.72-3.79-.46-7.79-.3-11.33-1.49-16.87-5.63-34.19-9.62-51.23-14.57a46.2,46.2,0,0,1-10.42-4.61c-5.79-3.4-12-3.95-18.4-3.38-2.59.23-5.35.1-7.2-1.7-3.28-3.21-5.59-3.6-9.37-.18-5,4.5-11.28,6.12-17.58,2.38-6.82-4-12-1.87-16.52,3.53l-11-3.42c-1.31-2.49-2-2.86-1.49-1.25.09.3,1.59.18,2.44.26a18.72,18.72,0,0,1-16.94,6.86A23.6,23.6,0,0,0,738,313.6a91.07,91.07,0,0,0-10.28,5c-5.85,3.17-11.59,4.52-18.16,1.62-3.53-1.56-7.44-.47-10.48,2.31-3.85,3.51-8.33,5.35-13.42,6.69-7.38,1.95-14.23,5.44-19.57,11.29A13.82,13.82,0,0,1,656,344.92a16.6,16.6,0,0,0-13.13,6.63c-2.43,3.17-5,5.23-9.32,5.53-6.36.46-11.43,4.95-17.63,6.54-5,1.27-7.73,6.49-10.91,10.36a57.48,57.48,0,0,1-11.14,10.25c-7.24,5.21-14.45,10.3-20.53,17a180.92,180.92,0,0,1-19.4,18.45c-13.94,11.42-26.3,24.06-35.1,40A76.48,76.48,0,0,1,510,472.18c-10.86,12.72-19,27.07-26.54,41.9s-15.14,29.44-22.67,44.18a40.84,40.84,0,0,0-3,7c-6.07,20.85-14.22,40.93-22.18,61.08-3.78,16.08-10.38,31.54-10.05,48.52.12,6.46-2.35,12.48-4.94,18.35s-4,12.11-2.77,18.6a13.27,13.27,0,0,1-.73,7.49c-2.79,7.12-5.73,14.23-4.78,22.17-1.59,20.35-2.89,40.71-2.77,61.13,0,6.54-2,12.53-4.67,18.38-2.38-.7-4.77-1.37-7.14-2.09a11.41,11.41,0,0,1-7.59-7.61c-2.36-7.12-3.34-14.53-1.54-21.94.62-2.56,1.14-4.86-.33-7.17-.6-.95-1.46-2.21-2.35-2.35s-2.61,1.07-2.63,1.73c-.41,12.42-1,24.85-.69,37.25.13,4.71-.52,9.87,2.11,14.26.5.83,2.52,1.62,3.28,1.26a43.75,43.75,0,0,0,14.75-11c.75-.87.8-2.33,1.18-3.51,3.74,9.46,6.48,19,5.54,29.45a249.09,249.09,0,0,0,.14,41.6q1.2,15.09,1.63,30.25c.18,6.6-2.66,12.26-7.29,16.88a28.7,28.7,0,0,1-6,4.4,46.68,46.68,0,0,1-14.21,5c6.46-10,7.54-20.68,4.08-31.89a3.89,3.89,0,0,0-2.59-1.93,3.44,3.44,0,0,0-4.44,3.87c.93,9.82,2.38,19.58,3.63,29.36-2.27,8.9-2.23,8.92.6,9.9,3.84,1.34,7.23.13,10.49-1.89a24.17,24.17,0,0,1,3.28-1.78,9.74,9.74,0,0,1,10.49,1.69c3.71,3.39,7,6.8,6.5,12.61-.3,3.66.76,7.43,1.06,11.16a22.44,22.44,0,0,1-2.16,10.93c-1,2.27-1.61,4.71-2.39,7.08-3.72,1.52-6.93,3.53-7.69,7.92a16,16,0,0,0-8.31,8.44c-5.92.36-11,2.44-15,7a16.81,16.81,0,0,0-3,1.5c-.86.66-2.19,1.77-2.07,2.49.42,2.68,2.34,3.73,5,3.26,0,2.8,0,5.6,0,8.4-2.5-.94-4.4-.45-5.35,1.64-.85,1.87,0,3.59,2.25,4.67a12,12,0,0,0,3.16.6,7.23,7.23,0,0,1-.82,6.82c-1.68,2.46-2,4.62-.5,5.76a5.89,5.89,0,0,0,6.69.29,65.44,65.44,0,0,0,8.52-6.41c1.8-1.58,1.81-4,.61-6.46,3.41,1.33,7.12,2.1,10.36.48,6.57-3.31,11.48-8.29,12.78-16a12.12,12.12,0,0,1,5.13,9.35c.22,3.67-.25,7.63,1.84,10.75,2,3,6,4.39,6.81,8.36.74,3.6.67,7.39,2.53,10.72l-1.55.55.59-1.54a68.57,68.57,0,0,1,3.35,6.11,11.47,11.47,0,0,1-.24,10c-1,2-2.77,3.68-4.2,5.5-.12,2.37-1.37,4.17-2.55,6.14-1.89,3.13-.83,4.43,2.16,2.91.49-.25.21-2.13.17-3.26-.08-2.26-.24-4.51-.37-6.76,3.6,1.4,7,3.32,9,6.64a92.85,92.85,0,0,1,7.07,13.51,76,76,0,0,0,14.29,22.3,31.22,31.22,0,0,1,5.54,9.89c2.22,5.92,3,12.41,7.46,17.37a166.69,166.69,0,0,0,33.29,46.26c3.62,3.57,7,7.43,10.37,11.22,9.69,10.82,15.35,23.27,15.25,38-2.32-1-4.63-2-7-3-1.16-.47-2.36-.88-3.55-1.27-3.22-1.07-7.84,1.07-9.18,4.33-1.09,2.65.18,4.51,1.89,6.8,3.74,5,8.44,9.45,10.37,15.68a38,38,0,0,1-20.31-7.84c-5.82-4.5-11.86-8.73-17.94-12.88-3.2-2.18-6.82-2.13-10.4-.77a9.36,9.36,0,0,0,1.2-2.93,3.88,3.88,0,0,0-1.25-2.07c-1.65.78-1.26,2.24,1.06,4.17.46,4.85,1.78,9.67.44,14.58l.86-.77c-1.92,4-5.38,6.53-8.92,8.94l.61-1.11c-3.63-1.61-5.94-4.67-8.45-7.55A273.06,273.06,0,0,1,437.47,1228c-17.33-28.42-32.25-58-42.9-89.73-3.64-10.85-7.3-21.69-13-31.84a60.16,60.16,0,0,1-7.34-21.73c-1.76-14-6.53-27.36-9.7-41.06-2.89-12.47-6.38-24.74-6-37.72a20.27,20.27,0,0,0-1.17-7.49c-4.52-12.19-5.19-25-6.31-37.72,1.19-7.78-2.54-15.06-2.24-22.77.26-6.39.4-12.8.18-19.19a63.14,63.14,0,0,0-1.68-11.32c-2-8.86-1.44-17.79-.86-26.7.24-3.76,2-7.47,2-11.18,0-2.25-2.38-4.41-3.43-6.72a6.8,6.8,0,0,1-.44-3.63c.76-5.05,1.74-10.06,2.53-15.11a8.73,8.73,0,0,0-.07-3.81c-2.38-7.42,2.64-15.17-1.08-22.54a11.14,11.14,0,0,1-.59-3.71c-1.07-10.27,3.34-20.08,2.41-30.39a101.4,101.4,0,0,1,.86-26.78,139.8,139.8,0,0,0,1.85-22.93c.17-15.39,1.17-30.68,5.18-45.65.66-2.45.87-5,1.3-7.55,1.74-10.1.52-20.52,3.23-30.49a234.89,234.89,0,0,0,6.29-30c1-7.51,3.72-14.82,6-22.12a100.06,100.06,0,0,1,4.42-10.57c.51-1.16,1.44-2.17,1.83-3.36,4-12.15,7.23-24.58,11.94-36.43s10.56-23.25,14-35.63a60.45,60.45,0,0,1,4.46-10.55c6.84-13.73,15-26.76,21.2-40.85,2-4.65,5-8.94,7.84-13.17a675.2,675.2,0,0,1,67.11-83.73,131,131,0,0,1,14-13c21.13-16.57,42.28-33.12,63.75-49.25a230.88,230.88,0,0,1,46.45-26.63c17.61-7.72,35.8-13.65,53.82-20.16a36.71,36.71,0,0,1,11.28-1.89,29.44,29.44,0,0,0,11.16-2.14c8.33-3.7,17-5.15,26.12-5.37s17.88-.78,26.8-1.43a25.14,25.14,0,0,0,14.11-5.27c3.12-2.48,6.82-3.05,10.74-2.56,10.15,1.27,20.3,2.58,30.46,3.7,14,1.54,28,2.91,42,4.38a47.85,47.85,0,0,1,7.61,1c19.77,5.39,40.21,7.53,60.09,12.39,10,2.44,19.77,5.2,29,9.84a99.59,99.59,0,0,0,14.19,5.84c12.35,4,22.93,11.18,33.64,18.13,3.29,2.13,5.15,5.56,6.59,9.16-6-.49-12.07-.95-17.14-4.83-2.2-.67-4.49-2.07-6.57-1.82s-4.39,1.4-6.78,1.17l-6.35,5.08c-.3-1.05-.56-2.13-.93-3.16-2.26-6.48-7-7.69-13.06-6.17-.87-6.4-2.19-8.75-5.22-9a9.68,9.68,0,0,0-7.09,2.16,5.86,5.86,0,0,0-2,6.88c-3.71-.83-7.45-1.79-11.25-1-3.06.67-4.31,2.52-3.25,4.64a4.25,4.25,0,0,0,2.8,2c3.77.43,7.57.51,11.36.73a13,13,0,0,0,1.39,3.41c2.6,3.2,6.3,4.19,9.58,2.66a6.32,6.32,0,0,0,3.65-5.92l15.08,1.33a26.62,26.62,0,0,1,3.89,12.37q-3.54,1.11-1.29-1.76l1.45,1.56c-2-5.47-1.26-10.81.68-16.11a22.88,22.88,0,0,0,14.8.27c.21,1.09.45,2.18.63,3.28.74,4.75,2.49,6.08,6,4.63C1000.45,301.79,1003,299,1006.6,300.57ZM1123.68,1234l2.07-1.52c.44.79,1.31,1.65,1.19,2.34a2.58,2.58,0,0,1-1.88,1.73c-.79,0-1.57-1-2.36-1.51q5-.12.41,1.66ZM742.46,296.21c-2,2.32-2.38,2.06-1.22-.81l2,1.78c1.44,2.3.84,2.82-1.69,1.37A13.87,13.87,0,0,1,742.46,296.21ZM450.23,1211.32c-.17-2.16-.43-4.32-.49-6.48-.06-2.51,1.28-4.1,3.76-4.76-7.62.51-15.26.76-22.84,1.75a45.42,45.42,0,0,0,1.5-16.24c2.25-.53,3.9-1.91,4.14-4.21s1-4,3.19-5c-1.95,2.87-3,2.63-3.13-.75l2.89.46-6.59,10.41c-.3,3.09-.82,6.18-.82,9.27,0,2.08-.12,4-1.38,5.89l22.54-2.18a33.57,33.57,0,0,1-3,12l-1.12,1.54Zm19.49-11.84c1.64-2.42,2.31-2.63,1.55-.82-.16.36-1.56.19-2.38.27l1-2Zm-47.63-46-.54,3.21.75-2.48q-3.46,3.73-3.11-1.36Zm-27.22-81.15c1.36-4.6,4.69-7,9.13-8.25l1.8-.78-1.16,1.54c-2.8,3.82-5.59,7.66-10.82,8.33,2.9,1.13,2.78,1.58-.37,1.37Zm615-749.74c-.22-1.1-.13-2.92-.71-3.17-1.78-.77-1.35.23,1.66,2.17l2.19,11.24c-3,.53-6.42.45-5.66,5.22.12.74-1.18,1.69-1.83,2.55,5.85-1,11.46,1.2,17.23,1.25q2.19,3.87-2.11,2.39c.29-.81.59-1.62.88-2.42-1.09.24-2.18.46-3.27.74-4.45,1.15-8.76,1.18-12.68-1.68a33.91,33.91,0,0,1,7.58-9.07C1010.52,329.35,1012.08,325.33,1009.91,322.64ZM567.17,345.91a28.79,28.79,0,0,0-9.18,8c-5.83-.59-6.7.11-7.8,6.26-2.5-1-4.6-.64-6.28,1a6,6,0,0,0-1.53,6.25c-6.3.88-6.72,1.29-7.79,7.65-4.84-.47-7.3,2.53-9.2,6.34l-1.27.79.35-1.69a6.5,6.5,0,0,0,6.68-.15c2.05-1.32,2.92-3.37,2.64-6.11,6.1-.55,6.57-1,7.79-7.64,6.26-.15,7.06-.88,7.84-7.21,4.29-.12,6.55-2.74,7.89-6.46,3.32-3.1,6.36-6.56,10.78-8.21-2.85.16-3.05-.28-.58-1.32C567.4,344.22,567.28,345.06,567.17,345.91ZM363.6,887.45c1.1-3.81,2.27-7.59,5.37-10.37-1.28,2.28-2.17,2.17-2.65-.36h2.21a34.8,34.8,0,0,1-3.84,11.7c-2.87.46-4.44,2.05-4.14,4.72.05.43,2.61,1.23,3,.83C365.61,892,365.47,889.67,363.6,887.45ZM493.31,441.51l-.88,1.58.21-2a23.33,23.33,0,0,0,14,.27c-.4,2.31-1.16,4.62-1.13,6.92.06,3.13,1.5,4.34,3,3.11a4.14,4.14,0,0,0,1.34-3,62.36,62.36,0,0,0-1.06-6.87c2.39,1.4,4.66,1.55,6.76.41a7.41,7.41,0,0,0,3.84-5.8c3.85-3,5.8-6.69,4.29-11.7-.65-2.16-1.12-4.38-1.68-6.57,1,0,2.06,0,3.09,0,4.88,0,7.24-2.71,8-7.24,3.93,1.23,7.43,0,10.43-2.35a78.24,78.24,0,0,0,15.37-16.4c2-2.76,1.86-4.83-1.15-6.2a4.3,4.3,0,0,0-3.5.13c-9.89,6.15-17,14.51-20.35,25.88-3.42,2.8-6.56,6.12-11.46,6.17-.41,6.45-3.7,12.59-2,19.25-5-1.3-8.18,1.35-10.72,5.23a2.62,2.62,0,0,1-4-.24c-2-1-4-2.77-6.06-2.87S495.42,440.7,493.31,441.51Zm702.29,69.06q-1.26,3.77-1.15-.07l2.12,1.05c-1.06,6.94.46,13.4,3.64,19.56a23,23,0,0,1,1.87,3c2.12,4.72,5.53,7.19,10.86,6.52a55.29,55.29,0,0,0-2,6.92c-.52,3.38,1,4.81,3.7,3.61.57-.25.9-2.23.57-3.13a61,61,0,0,0-3.2-6.49,32.26,32.26,0,0,1-1.77-2.91c-2.11-4.48-5.4-7.06-10.54-6.81a21.67,21.67,0,0,0-2.19-18C1196.93,512.69,1196.26,511.63,1195.6,510.57Zm-756.22,13c1.09-.36,2.16-.76,3.26-1.09,5.1-1.53,6.9-5.33,7.07-10.26a9.28,9.28,0,0,1,5.5,2.78l2.14-1.06-3.07.41c2.31-5.5,2.94-11.35,3.52-17.21l3.58-.32,2.9,2.12a8.09,8.09,0,0,0,5.69,4.17c2.43.44,5.22.2,6.65-1.85,5.61-8.06,10.92-16.34,16.19-24.63,1.65-2.6,1-4.82-1.35-6.2a6.93,6.93,0,0,0-6.79,0q-6.68,3.12-13.34,6.27c1.51-6.83-.8-13.25-2.14-19.77q4.19-1.14,2,1.28l-1-2.24c.79,3.81-1.34,7-2.07,10.53s0,5,4,9.34a87.44,87.44,0,0,1-.2,10.12,15,15,0,0,1-4.17,9c-1.6,1.58-3,3.4-4.45,5.1.22-2.25.55-4.51.63-6.77.1-2.86-.87-4.65-2.38-4.33a3.54,3.54,0,0,0-2,2.44,58,58,0,0,0-.66,6.74c-6.42,1.84-7.31,2.74-7.91,8.49-.23,2.19-.18,4.4-.25,6.61a6.3,6.3,0,0,0-5.92,2.54c-1.95,2.74-3.79,5.55-5.68,8.34,2.26,5.35,1.91,10.7,0,16a17.94,17.94,0,0,1-1.28,10c-1.92,4.82-.29,8.91,2.3,12.82,1.25,1.89,2.77,3.6,4.17,5.4-1.15-.27-3.05-1.08-3.32-.72-1.68,2.35-.71,2.37,2.43-.28,5.66-4.81,7.84-11.87,11.55-17.94.58-1,.45-2.34.75-3.5.69-2.77-3.14-7.72-5.91-7.67a29,29,0,0,0-10.44,2.16ZM795.08,257c3.76.29,4.8-.15,3-.34-1-.11-2.13.92-3.2,1.44l-.07,1.72ZM1138,1207.7c7.51-2.19,9-4,7.82-9.83-.49-2.47-1-4.95-1.51-7.42.65-.94,1.13-2.32,2-2.65.61-.23,2.6,1.1,2.54,1.55-.44,3.39-2.13,3.83-4.61,1.39.68,3.28,1.09,6.46-.6,9.68-1.56,3-3,6-5.67,8.15C1138.7,1208.3,1137.81,1208,1138,1207.7Zm-10.2-17.25c.64-1,1.3-2,1.92-3,3.35-5.47,4-11.09.92-16.91,6.7,3.21,8.3,3.85,10.25-5.09,1.24-.29,2.92-.17,3.64-1q7.7-8.27,15-16.89c.65-.77,1-2.77.47-3.42-1.84-2.34-4.25-2.27-6.69-.32-6.12,4.85-10.47,10.89-12.21,18.59-.26,1.15.29,2.5.47,3.75-2.27-1.08-4.28-1-5.77.51s-2.79,3.24-4.17,4.87c-4.56,5.59-5.31,11.75-2.7,18.4l-3.07-.22Zm60.07-49.66q-2.22,3.72-1.19-.48l2.07,1.45c.64.66,1.5,1.23,1.8,2,.13.32-1.12,1.69-1.4,1.59C1186.73,1144.53,1186.34,1142.9,1187.84,1140.79ZM1187,558.16q4,.8.41,2.43c.1-.64.2-1.28.29-1.92q-5.12-1.06-1.24-3.54ZM1155.37,554c.44-2.62.85-2.7,1.21-.24l-2.28-.72a23,23,0,0,1-.11-3.51c.47-4,0-4.63-1.58-1.86A10.35,10.35,0,0,1,1155.37,554ZM908.18,278q1.67-3.46.58-5.59c-.23.5-.71,1-.65,1.49A23.4,23.4,0,0,0,909,277c3.26,1.36,6.21,3.58,9.87,3.83a6.18,6.18,0,0,0,3.39-.62,3.21,3.21,0,0,0,1.37-2.49,3,3,0,0,0-1.72-2.2C917,274.14,912.73,277,908.18,278Zm-57-20.25a52.87,52.87,0,0,0-6.13-2.6c-3.17-.94-4.23.32-2.53,3,.41.63,2.12.79,3.13.6a64.06,64.06,0,0,0,6.33-1.79,6.3,6.3,0,0,0,1.77,6.55c3.7,3.34,9.32,2.68,12.51-1.43,1.71-2.18,2.13-4.45.73-6.57s-3.5-2.67-6.11-2.27C857.18,253.75,854.21,255.85,851.14,257.71Zm74.93,1084.93c-3.36-1.77-6.62-3.77-10.1-5.23a5.11,5.11,0,0,0-6.46,2.07,5,5,0,0,0,.57,6.68c4.56,4.49,12.28,2.21,15-4.49,2.65,1.09,4.9.52,6.17-2,.23-.47-1.52-2.7-2-2.59C926.6,1337.76,925.56,1339.81,926.07,1342.64Zm-563.34-556c6.16-1.24,7.94-2.51,7.71-6-1-15.19.11-30.39-.12-45.57,0-.69-1.79-1.34-2.75-2-1.24,3.58-2.26,7.27-3.78,10.73-2.13,4.82-1.42,10-2.24,14.95a9.41,9.41,0,0,0,1.89,7.12c4.29,5.72,3.73,11.77,1.58,18-.42,1.2-.91,2.37-1.37,3.55a20.7,20.7,0,0,0-.63,2.89c0,.36.52.77.8,1.16Q365.2,789.29,362.73,786.67ZM408.09,638a62.78,62.78,0,0,0,7.41-1.15c3.83-1.06,7-3.61,8.09-7.27,4.25-14.5,11-28.05,15.7-42.34.2-.6-1.18-1.93-2.05-2.64a5.29,5.29,0,0,0-6.77-.21c-3,2.37-4.39,6.06-5.09,9.76s-.83,7.44-1.22,11.17c-4.12,6.49-5.66,13.86-7.61,21.17a19.3,19.3,0,0,1-8.82,11.8c.51,1,1.38,2,1.45,3a34.07,34.07,0,0,1-.49,5.39C409.64,643.77,406.73,641.05,408.09,638Zm843.34,130.38c5.11.08,7.48-3,9.52-6.15s2.24-7.11,2.5-10.89c.18-2.7-.15-6-2.38-6.69-2.42-.79-4.31,1.72-4.58,4.68-.49,5.31-4.13,9-6.62,13.3C1248.3,765.38,1249.43,767.6,1251.43,768.41Zm.07,82.85a51.93,51.93,0,0,0,6.94-1.65c2.76-1,3.45-3.23,1.82-5.59a3.62,3.62,0,0,0-3-1.21,53.06,53.06,0,0,0-6.72,2.26c-3,1.07-3.94,2.95-2.24,5.22C1248.81,851,1250.39,851,1251.5,851.26Zm-889.18-17.1a17.28,17.28,0,0,0,3.74-1.22,9.66,9.66,0,0,0,4.12-5.93c.85-2.92.1-5.06-2.74-5.84-1-.27-2.4.47-3.4,1.09-3.41,2.12-5.05,6-3.93,9.35C360.45,832.63,361.61,833.38,362.32,834.16ZM887.05,269.88c3.13-.76,4.13-2.67,2.55-5.46a4.78,4.78,0,0,0-2.9-2c-2.92-.65-4.83.67-4.65,3.43S884.21,270,887.05,269.88Zm123.22,1025.33c-.39-1.06-.52-2.73-1.23-3-.91-.39-2.43.06-3.45.6-2.5,1.34-3.7,3.52-3.05,6,.18.72,2,1.63,2.84,1.46C1007.89,1299.72,1009.48,1297.82,1010.27,1295.21Zm213.94-207.54a52.15,52.15,0,0,0,3.34-5.71,3.06,3.06,0,0,0-.64-2.85c-2-1.37-3.88-.59-5.16,1.88a6.24,6.24,0,0,0,0,6.37C1222,1087.8,1223.35,1087.58,1224.21,1087.67ZM371,1002.11a17.25,17.25,0,0,0,3.6-.05,7.66,7.66,0,0,0,5.46-4.31,5.71,5.71,0,0,0,.71-3.41,4.41,4.41,0,0,0-2.15-2.64c-3.69-1.74-10,3.23-9.85,7.78C368.79,1000.38,370.24,1001.25,371,1002.11Zm8.45-357.25c-.43-2.28-.68-4.61-1.33-6.83-.84-2.85-2.92.9-3.73,6.9-.36,2.71.26,4.69,2.32,6A6,6,0,0,0,379.45,644.86ZM389,879.25c.09-2.74-1.05-5.68-3.52-5.79s-3.64,2.76-4.1,5.45c-.94,5.5.22,9.47,3,9.51C387,888.46,388.79,884.83,389,879.25Zm465.9-602c-1,.42-2.71.63-2.92,1.3-.79,2.47.47,4.27,3.17,4.85a4.46,4.46,0,0,0,3.15-.32c2.19-1.59,2.09-3.53-.2-5A10.46,10.46,0,0,0,854.87,277.23ZM388.11,745.45c-.63-.92-1.17-2.53-1.89-2.61-2.56-.31-3.69,1.44-3,4.45.24,1,1.05,2.58,1.69,2.62C387.41,750.08,388.48,748.36,388.11,745.45Zm824.94,68.45a7.4,7.4,0,0,0,.55,6.91,10.6,10.6,0,0,0,1.8-2.91,7.12,7.12,0,0,0-.29-3.56C1215,814,1213.76,814,1213.05,813.9Zm-545.5,563.54,3-.53-2.33-.68ZM399.76,686.17c.88-.56,2.24-.94,2.53-1.72a3.82,3.82,0,0,0-.42-3.3c-1.93-2-3.52-1.17-3.75,2.18C398.06,684.23,399.18,685.22,399.76,686.17Zm852.78,107,2.7,1.41.29-2.42ZM1230.3,588.24l-2.36-.19,1,3.06ZM368.4,672.82l.89,2.52.9-2.53Zm-6.75,273.85c.8.85,1.45,2.08,2.43,2.47a4.29,4.29,0,0,0,5.93-2.31c.19-.41-1.27-2.09-2.24-2.44C365.25,943.47,363.14,944.42,361.65,946.67ZM433.8,1114l-2.75,1.36,2.78,1.26Zm11.4,18.73c-.33,1-1,2.09-.87,3s1.11,1.89,1.72,2.83c.74-.83,1.83-1.55,2.13-2.52a4.18,4.18,0,0,0-.56-3.06C447.35,1132.53,446,1132.76,445.2,1132.69ZM734.44,277.34l-2.5,1.54c.52.72.93,1.95,1.57,2.09,2.73.57,4.16-.48,3.56-2.52C736.9,277.87,735.36,277.7,734.44,277.34ZM384.51,856.51l1.46-2.24-2.44-.25ZM362,922.59l-1.39,1.9,2.09.35Zm7.09,37.49-2.36,1.84c.64.76,1.22,2.07,1.94,2.14s1.55-1.07,2.34-1.69ZM908,317.35l-1.78-1.3-.35,1.85Z"/><path d="M588.44,1349.51c-5.14.9-10.17.75-14.77-2.06-14.14-8.62-28.2-17.35-41.6-27.15s-27.37-18.7-40.84-28.35a70.81,70.81,0,0,1-18.5-19.06l-.61,1.11c2.36-3.59,4.92-7,8.92-8.94l-.86.77c2.36.55,5,.59,7,1.77a132,132,0,0,1,12.13,8.56c6.88,5.23,13.24,11.13,20.76,15.58,5,2.94,9,1.79,11.42-4.08.92-2.3,1.56-4.7,2.33-7.06,4.82-1.33,9.43.3,14.11.93,2.68.37,4.69-.56,5.38-2.86a4.34,4.34,0,0,0-.63-3.37c-2.82-3.83-6-7.38-8.72-11.29-1.3-1.89-1.77-4.35-2.62-6.55,4.77-2.52,9.57-2.92,13.27,1.49a80,80,0,0,0,16.51,14.72c10.22,7,20.71,13.46,32.07,18.48,4.81,2.12,7.36,6.34,8.49,11.41a30.56,30.56,0,0,1-8.44,8.63,34.39,34.39,0,0,1-7.24-.37l-4.31-5.09q-.63,3.38-1.25,6.73a11,11,0,0,0-7.38-.49c-.82.26-2,1.47-1.92,2.2.14,3.35,1,3.1,8.35-2.64l7.5-1.9a44.65,44.65,0,0,1-5.11,13.65c-1.78,3.15-2.88,6.7-4.28,10.07A14.2,14.2,0,0,1,589,1337a5.45,5.45,0,0,1-1.43,5.61c0,2.61.1,5.21.14,7.82Z"/><path d="M1081.72,247.83c-1.49,2-3.64,2.56-6.2,2.19-3.39-.5-4.5-2-2.47-3.09s4.46-1.13,6.74-1.22C1080.44,245.69,1081.85,247.66,1081.72,247.83Z"/><path d="M604.07,1357.13c-3.4-.05-6.81.08-10.18-.22-2.94-.26-4.07-2.06-5.45-7.4l-.72.9a52.58,52.58,0,0,1,16.5-1l-1.17,8.76Z"/><path d="M1140.46,421.11c2.9-1.34,6-.35,8.92-.56l.19-.39-9.4.11Z"/><path d="M1125.73,398.31c-1.26,3.1-.84,7.5.55,7.51l-.15.25c0-3,0-6,.08-8.94Z"/><path d="M1118.16,390.57l7.56,7.74.49-1.18-8.78.14.92,1.18.24-9Z"/><path d="M1110.12,383l8,7.59.43-1.11-9.06.19,1.18,1.1.12-9Z"/><path d="M1102.37,375.19c4.05,1.14,6.23,4.13,7.74,7.79l.72-1.2L1102,382l1,1.14q.08-4.5.14-9Z"/><path d="M1094.74,367.54c4.11,1,6.84,3.35,7.63,7.65l.78-1.07-8.92.16,1.15,1c0-2.95.09-5.91.14-8.86Z"/><path d="M1086.66,359.16c3.9,1.62,7,4,8.08,8.38l.78-1.12-8.88.09,1,1.28c0-3.15,0-6.29.08-9.43Z"/><path d="M464.33,1292.59c-.86.67-1.79,2-2.57,1.86s-1.43-1.51-2.14-2.36c.87-.67,1.8-1.94,2.58-1.86S463.63,1291.75,464.33,1292.59Z"/><path d="M718.79,797.12c-1.58-3.47-3.73-6.8-4.59-10.44-1.16-4.92-1.25-10.08-1.94-15.11-.52-3.79-3.73-6.87-3.37-10.82.47-5.23-2.43-10-2.24-14.87.41-10.28-2.62-20.29-1.95-30.44s-.82-20.36-.3-30.55c.45-8.88-.68-18,.74-26.64,1.63-10,3.32-20,6.2-29.76,1.11-3.75,2.43-7.14,5.43-9.78a14.52,14.52,0,0,0,2.2-3.11,19,19,0,0,0,3.41-10.72c0-4.17,1.81-6.93,5.73-8.62a18.79,18.79,0,0,0,6.26-4.12c7.83-8.38,15.28-17.14,25.1-23.41,3.32-2.12,5.08-5.64,7.16-8.83a59.49,59.49,0,0,1,19-18.49c10.83-6.68,20.78-14.72,31.71-21.33,9.88-6,19.91-11.42,31.16-14.27A28.58,28.58,0,0,0,858.82,501c7.22-5.43,14.78-9.93,23.95-11.29,2.43-.36,4.8-1.73,7-3,7.65-4.58,15.32-9.18,22.76-14.1a29.22,29.22,0,0,0,10.18-11.19c2.87-5.66,6.13-11.12,8.73-16.9a13.91,13.91,0,0,0,.69-7.48c-1.64-10.3-5.79-19.38-13.37-26.88a66.05,66.05,0,0,0-12.09-9.25c-4-2.47-5.61-9.16-12.23-7.18-1.89,3.17-.58,6.93-1.87,10.21-3.77-3.18-7.71-6.2-11.29-9.59-5.52-5.24-14.57-2.88-19.54-9.3-.49-.64-2.15-.44-3.28-.53-2.85-.22-4.95,1.31-4.66,4.34.35,3.54,2.2,6.94,2.47,10.48.36,4.86-.27,9.8-.26,14.7,0,3.92,2.31,6.86,4.73,9.68l-2.12-1.17,1,2c2.6-2.6,4.84-5.77,7.87-7.69a172.6,172.6,0,0,0,17.78-13.08c1.76-1.46,4.42-1.19,7-.45,3.22.66,4.66,2.73,3.16,5.62-1.13,2.16-3.31,3.78-5,5.64-4.61,5-6.43,10.4-3.51,17.22,1.51,3.54.14,7.51-2.31,10.57-1.74,2.17-4.31,2.16-7.07,2a18.28,18.28,0,0,0-10.87,3c-7.45,4.86-14.37,10.49-22.21,14.81a30.59,30.59,0,0,0-9,7c-7.44,9.15-18.21,13.7-27.26,20.6a69.5,69.5,0,0,1-9.4,6.48,33,33,0,0,1-25.91,2.32,17.76,17.76,0,0,1-6.43-3.92c-4.68-4.26-9.1-8.81-13.62-13.25-7.35-2.63-12.92-7.94-19.08-12.41-1.9-1.38-4.74-1.81-7.2-2a16.63,16.63,0,0,1-10.13-4.73c-6.43-6.14-12.63-12.51-18.89-18.84a6.5,6.5,0,0,1-1.56-7c1.51-5.05,3.24-6.71,7.49-7.33,5.13-.74,10.15-.81,14.86,1.69a22.82,22.82,0,0,0,14.65,2.46c6.72-1,7.59.55,6.81,9-1.61,1.78-3.59,3.36-4.74,5.4a4.12,4.12,0,0,0,1.47,5.86,3.81,3.81,0,0,0,3.21.35,5.27,5.27,0,0,0,2-3c1.1-3.65.67-4.72-3.09-9.45,5.23,1.86,8.08,1.69,10.55-.35a37.06,37.06,0,0,0,11.37-15c.4-1,.1-3-.65-3.64-2.16-1.73-3.81-3.61-3.48-6.18.27-2,2.52-3.08,5.23-4.19,8-3.26,11.63-9.48,11.56-18,0-3.83.06-7.67-.23-11.48s-1.86-7.34-5.68-9.17c-2.29-1.1-4.57-2.44-7-3-7.54-1.7-15.42-2.26-22.81-.55-13.91,3.22-26.5,9.33-34.82,21.77a29.08,29.08,0,0,1-4.92,5.8c-2.6,2.28-8,.86-9.06-2.73a67.91,67.91,0,0,1-1.89-7.36A12.57,12.57,0,0,1,690,376.9a57.34,57.34,0,0,1,28.57-18.44A313.94,313.94,0,0,1,752.18,351c19.09-3.16,38.21-1.64,57.21,1.37a38.58,38.58,0,0,1,7.25,2.42c2.39.9,4.63,2.34,7.09,2.87,7.47,1.59,15.11,2.5,22.51,4.37,6.14,1.55,11.86,4.77,18.4,4.87,7.9.13,14.85,3.06,21.7,6.72s13.85,6.55,20.63,10.1a54.9,54.9,0,0,1,9.44,6.45A284.65,284.65,0,0,1,949,422.53a44.37,44.37,0,0,1,9.42,16.52c1.09,3.7,1.68,7.37.31,11.17-1.72,4.8-3.48,9.61-4.88,14.51a15.85,15.85,0,0,1-6.64,8.88c-7.26,5.14-13.88,11.11-21.66,15.58-16.6,9.53-33,19.41-49.47,29.16-4.38,2.6-9.16,4.62-12.68,8.49-.85.93-1.54,2-2.31,3q-2.52,3.38,2.77,4.75a20,20,0,0,1,9.91,5.41c4.36,4.65,9.31,9,12.48,14.42,3.87,6.57,9.46,12.16,11.92,19.48,2.1,6.28,6.79,10.72,10.26,16,4.21,6.4,8.67,12.63,12.7,19.14,2,3.23,3.21,6.93,4.91,10.36,1.55,3.15,6.05,3.52,9.88,1.51,3.57-1.88,6-4.79,8.22-7.86,3.67-5.21,6.9-10.72,10.24-16.15s6.49-11,9.93-16.37a29.3,29.3,0,0,1,8-8.11c7.55-5.3,12.58-12.51,15.86-21.09,1.82-4.77,4.09-9.36,6.06-14.07,3.54-8.47,4.85-17.12,2.48-26.2a19.31,19.31,0,0,1-.45-7.6A10.85,10.85,0,0,1,1003,495c4.1-1.88,6.28-1.58,9.72,2.71,2.43,3,4.82,5.88,8.62,7.15,9.69,3.21,19.4,6.36,29,9.72,1,.33,1.8,1.86,2.06,3,.21.92-.23,2.68-.91,3a194.77,194.77,0,0,0-22.72,13.8c-5.66,3.88-8.62,9.23-10.51,15.43a51.3,51.3,0,0,0-1.43,7.51c-1.27,8.79,2.83,14.94,11.36,17a33.61,33.61,0,0,0,3.79.2c3.14.37,4.84,1.7,4.16,3.52a4.12,4.12,0,0,1-2.91,2.19c-8.9.67-17.75,1.7-26.75,1.47-9.18-.22-17.38,1.92-22,11.71A19.6,19.6,0,0,1,970,604.83c-4.17,2.92-8.62,5.51-12.46,8.82-6,5.12-9.15,12.13-11.84,19.39-1.79,4.83-1.49,6.4,2.86,9.76,5.82,4.48,5.86,7.23.23,11a25.62,25.62,0,0,1-3.46,1.66q.93,2.16,1.84,4.32c-.73-1.66-1.47-3.33-2.2-5a59.74,59.74,0,0,0,4.74,6,17.52,17.52,0,0,1,5.54,13.6c-.35,10.12-1.15,20.24-1.08,30.36a31.49,31.49,0,0,1-2.09,11c-1.66,4.76-3,9.62-4.71,14.36a4.46,4.46,0,0,1-2.58,2.67,6.41,6.41,0,0,1-6.44-2.51c-2.93-4.11-6.24-8.15-8.17-12.73-3-7.05-8.18-12.74-11.21-19.63a118.66,118.66,0,0,0-13.26-23c-1.17-1.59-9.33-1-10.76.8-1.57,2-3.49,3.71-4.88,5.8-4.92,7.4-9.54,15-14.57,22.32A66.55,66.55,0,0,0,867,720.71c-3.15,9.6-8,18.72-8,29.23a16.74,16.74,0,0,1-1.94,7.31c-4.13,8.11-5.12,16.7-5.87,25.7-2.19,26.58-3.61,53.17-4.56,79.83-.58,16.56-.51,33,1.34,49.45.57,5,.86,10.12,1.22,15.19,1.54,22.12,9.09,42,22,59.94a13.33,13.33,0,0,0,5.7,4.81c2.35,1,4.92,1.51,7.09,2.76s3.86,3.12,5.77,4.72l-.91-1.1a194.14,194.14,0,0,0-15.69,59c-2.09,19.09-6.83,37.69-9.18,56.73-1.56,12.64-6.66,24.61-8.61,37.28-.56,3.7-2.47,7.22-4,10.73-4,9.42-8.28,18.76-14.58,26.88-8.58,11.08-15.63,23.39-26.33,32.78-3.84,3.37-8,6.52-11.23,10.4-9.22,11-21.62,17.77-33.48,25.11a44,44,0,0,1-25.73,6.3,18.88,18.88,0,0,1-10.75-3.54c-4-3.13-7.86-6.52-11.68-9.9-1.9-1.68-4-3.34-5.27-5.47-5.7-10-12-19.63-15.55-30.69a40.65,40.65,0,0,1-1.84-7.42,14.9,14.9,0,0,1,2.67-10.82,31.17,31.17,0,0,1,15.4-10.91,78,78,0,0,1,30.17-4.29c6.36.43,12.71,1.63,19.08.43a26.26,26.26,0,0,0,7.31-2.15,50.88,50.88,0,0,0,24.88-28,452.74,452.74,0,0,0,17.42-58.72,98,98,0,0,1,7.4-21.63,188,188,0,0,0,8.6-21.25c2.84-8.38,7.87-16,11.41-24.18a9.46,9.46,0,0,0-1.69-10.66c-.88-.92-1.64-1.94-2.51-2.86a137.7,137.7,0,0,1-34.31-63.17c-2.45-9.91-5.94-19.45-6.18-29.88-.14-6.33-1.58-12.66-2.68-18.95-1.32-7.58.73-15.19-.85-22.89-1.25-6.12-.49-12.66-.59-19-.12-7.63.35-15.33-.46-22.88-.71-6.64,1.44-12.6,2.48-18.85-2.89-10.38,2-20.17,2.27-30.3.3-10.88,5.36-19.62,12.22-27.4a212.24,212.24,0,0,0,14.15-18c4.4-6.26,9.31-12.11,13.16-18.8s9.17-12.19,15.12-17.15c7.85-6.53,15.41-13.42,23.31-19.9s16-12.52,23.9-18.9a4.09,4.09,0,0,0,1.21-3.32c-1.13-6.24,1.11-12.81-1.43-18.82-3-7-4.37-14.78-9.83-20.55-2.68-2.84-5-6-5.41-9.82-.49-5.28-2.91-9.71-5-14.33s-2.66-9.79-6.12-13.87c-6.57-7.73-10.54-17.62-19.4-23.43-4.29-2.82-6.94-7.58-11.72-9.7a4.08,4.08,0,0,0-3.24.57,38.77,38.77,0,0,0-6,4.63c-7.35,7.1-14,15.07-22,21.32C792.12,590.45,782,606.5,773.38,623.7c-4.54,9.08-9.21,18.27-10.49,28.63a41.35,41.35,0,0,1-1.5,7.5c-3.53,11.11-4.4,22.57-4.15,34.09.28,12.8-1,25.53-1,38.28s-2.59,25.33-4,38c-1.07,9.51-4.5,17.05-12.89,22.14-2.12,1.28-3.68,3.5-5.49,5.29l.85-.77a21.38,21.38,0,0,1-16.65,0Zm84.67-354.06c.17,1.26.78,2.68.41,3.76-.83,2.42-3,3.82-5.2,5.21-3,1.84-3.19,4-.72,5.44a8.29,8.29,0,0,0,7.23.37c5-1.8,8.45-5.63,11.5-9.6,1.61-2.08.66-5.06-1.17-7a3.09,3.09,0,0,0-2.8-.17c-3.4,1.57-6.44,4.12-10.57,3.32.3-5.22,3.38-9.38,5.25-14,2.87-7.1,4.35-14.54,3.1-22.15a4.85,4.85,0,0,0-5.31-3.92c-8,1.19-17.64,9.82-18.84,16.57a11.5,11.5,0,0,0-.33,3.76,71.52,71.52,0,0,0,2.25,11,17,17,0,0,0,4,6c.64.67,2.42.22,3.67.37C798.47,442.36,801,442.73,803.46,443.06Zm26.4-59.71c-5.66,1.1-9.74,4.78-10.14,9.62-.21,2.42-.45,5.35.67,7.27,3.25,5.58,5.09,11.54,6.62,17.71.29,1.14,1.24,2.77,2.15,3,1.83.42,3.78-1.26,4.41-4.13,1.62-7.42,3.17-14.87,4.16-22.38.5-3.81-1.45-7.34-4.27-10C832.65,383.65,831.08,383.68,829.86,383.35Z"/><path d="M733.81,797.61c3.8.27,7.64.31,11.4.89s7.29,4.09,7.74,7.29c.35,2.52,1.23,5,1.4,7.51a1534.73,1534.73,0,0,1,1.42,180c-.61,11.59-4,22.62-5,34.06-.79,9.41-5.67,16.83-10.95,24s-11.89,13.37-18.84,19a52,52,0,0,1-16.85,8.93c-8.48,2.71-17.19,4.73-26,7.11-3.48-1.31-6.93-3.08-10.6-3.9-11.7-2.61-20.73-9.61-29.28-17.34s-14.6-17.68-18.81-28.52a26.13,26.13,0,0,1-1.79-7.42,94.6,94.6,0,0,1,.59-22.93c.64-3.74,1.64-7.39,4.67-10.2,5.6-5.21,11-10.65,16.54-15.92,3.52-3.34,8.59-4.66,10.13-2.61a7.75,7.75,0,0,1,1.2,7.2,54,54,0,0,0-3,18.79,41.68,41.68,0,0,0,.67,7.59,31.06,31.06,0,0,0,2.64,7.13,53.84,53.84,0,0,0,4.17,6.39c7.48,10.58,17.26,14.46,30,10.74,3.84-1.13,7.26-2.86,9.61-5.8,4.84-6,8.43-12.78,8.84-20.8.32-6.37-.29-13,1.29-19,4.59-17.58,4.23-35.43,4.29-53.3,0-12.77.56-25.56,0-38.31-1-24.27.89-48.48.73-72.73,0-6.3,1.5-12.63,2.57-18.91.67-3.93,3.44-6.7,6.19-9.38l-.78-.32c2.5.69,4.28,2.94,6.43,3.73,3.94,1.44,6.4-3.41,10.22-3.69Z"/><path d="M889.8,999.65c-.15-2.47-1-5.2-.29-7.35,2.09-6,5.23-11.56,7.28-17.53,1.73-5,4.71-8.83,8.35-12.44a24.72,24.72,0,0,0,5.61-9.8c1.4-4-.39-7.54-4.44-7.93-3.79-.36-7.58-.68-11.37-1-4.2-.37-6.72-3.16-8.87-6.32a34.11,34.11,0,0,1-5.55-25.38c.59-3.76,1.57-7.45,2.25-11.19.93-5.21,3.67-9.32,7.39-12.93,1.82-1.76,3.52-3.66,5.27-5.49l-.86.83c4.27-2.35,8.16-5,9.28-10.23,1.51-7,5.63-13.3,5.92-20.66l-.06,1.12c10.64-4.32,21.76-7,32.78-10.12,3.66-1,6.1-4.43,6.52-8.49.4-3.77.32-7.59.56-11.38.39-6.07,5.64-8.94,10.43-5.73,3.18,2.15,6.72,4.65,5.68,8.82-1.58,6.33-1.43,12.56-.88,18.88a25.79,25.79,0,0,1-3,14.69,41.85,41.85,0,0,0-5,14.33,27.44,27.44,0,0,0,.74,11.29c2.15,7.42,6.55,13.75,9.8,20.63,1.69,3.57,1.83,7.48-.67,10.76-5.39,7-10.85,14.05-16.61,20.79a97,97,0,0,0-12.87,18.75c-1.7,3.32-4.42,6.17-7,9a108.1,108.1,0,0,1-8.17,8c-5.65,5.09-11.15,10.39-17.19,15-5,3.81-10.68,6.72-16.05,10Z"/><path d="M540.32,680.87c.7,2.45,1,5.12,2.16,7.3,4.28,7.9,6.94,16.4,10.08,24.75,2.1,5.59-.13,9.84-2.62,14.28a12.51,12.51,0,0,1-2.36,3,60.43,60.43,0,0,0-11.81,15,42.27,42.27,0,0,1-12.81,14c-7.48,5.24-12.9,12.14-17.48,20-1.89,3.24-5.1,5.68-7.61,8.56a33,33,0,0,0-8.05,21,10.24,10.24,0,0,0,2,7.2c1.3,1.56,8.05-.44,10.24-3.08a71.24,71.24,0,0,0,4.2-6.31c2.32-3.47,6.48-4.51,9.5-2.25s5.86,4.89,9,7.06a20.43,20.43,0,0,0,10.62,4c3.13.15,4.83,1.66,4.45,4.88-.49,4.18,1.32,7.48,3.74,10.43,9.77,11.93,21.31,21.94,33.69,31.05,2.14,1.58.83,9-1.78,10.1-4.69,2-9.41,4-14.06,5.92-5.37-4.22-7-10.78-10.93-15.72a90,90,0,0,0-7.93-8.18c-2.64-2.58-7.68-.81-8.89,3-1.93,6.07-3.68,12.2-5.77,18.21-1,2.74-3.15,4.08-5.39,3.36-.81-.26-1.53-2.17-1.54-3.34-.07-8.87-1.05-17.82,2.11-26.47,1.43-3.9-.26-7.33-2.26-10.66-2.67-4.44-5.74-8.35-10.7-10.47-5.21-2.24-10-1.17-14.39,1.85a19.28,19.28,0,0,0-7.14,8.79c-2.28,5.95-4.22,12-6.11,18.12-1.51,4.89-2.73,9.86-5.51,14.24-3.41,5.39-4.39,12.05-8.73,16.9-.64.72-2.44.53-3.71.55a5.2,5.2,0,0,1-5.46-4,15.1,15.1,0,0,1,2-11c2.68-4.33,6.07-8.22,8.73-12.56a19.4,19.4,0,0,0,2.22-7.21,20.91,20.91,0,0,0-1.6-11.18c-2.29-5.45-7.67-6.15-12.36-7.91a5.87,5.87,0,0,1-3.24-8.73c.61-1.12,1-2.36,1.63-3.46,3.79-6.63,10.56-11.29,12.75-18.93,1.82-6.33,6.63-10.75,9.77-16.22a16.34,16.34,0,0,0,1.5-11.12,37,37,0,0,0-5.51-14.17c-2.82-4.25-6.16-8.16-8.81-12.51-1.92-3.17-4.72-6.44-3.5-10.5.55-1.84,3.33-2.61,6-3.58a8.29,8.29,0,0,0,5.45-9c-1.65-15.33.45-30.53,1.15-45.77.1-2.35,2.71-4,4.94-5.22,3-1.72,5.37-1.16,5.9,2,2.07,12.44,2.27,26.5.28,34-1.3,4.91-3.45,9.58-4.82,14.47-1.8,6.41,3.61,16.37,9.54,19.14,7.11,3.33,14.88,3.45,22.32,5.14a5.75,5.75,0,0,0,3.67-.88c11.33-6.59,20.32-15.19,24-28.3a11,11,0,0,0-.17-7.54,33.54,33.54,0,0,0-3.49-6.7c-3.4-4.57-3.23-9.46-1.76-14.47a21.82,21.82,0,0,1,6-9.59Z"/><path d="M1003.28,981.55c1.6-6.07,2.27-12.38,5.1-18.13,1.45-2.93,6.77-4.56,9.81-2.46a24.66,24.66,0,0,1,5.58,4.82,19.84,19.84,0,0,1,3.38,6.73c3.71,13.59,11.52,25.17,18,37.42,3.89,7.42,10.48,10.58,18.6,10.91a34.48,34.48,0,0,0,7.54-.18c3.77-.7,7.08-2.24,8.48-6.42.8-2.37,1.61-5.26,3.39-6.7,8.89-7.22,15.18-16.91,23.8-24.33a23.45,23.45,0,0,1,3.24-2l-1-1c2.78,2.64,5.28,5.68,8.4,7.82a31.45,31.45,0,0,1,11.68,14.83c2.32,6,4.56,11.89,7.29,17.69,3.65,7.76,2.06,11.52-5.56,15.39-4.86,2.47-7.9,2.6-10.52.28-1.91-1.7-3.55-3.72-5.55-5.28a35.77,35.77,0,0,0-6.47-4c-4.66-2.26-9.56-3.83-14.76-2.15-6.22,2-12.42,2-18.89,1.43-5.25-.49-9.89,2.08-13.46,6.09-2.55,2.86-4.79,6-7.45,8.74-2.31,2.38-2.71,4.34-.65,6.48A8.39,8.39,0,0,0,1060,1050c3.84-.16,7.67-.34,11.51-.42,3.65-.07,6.29,3.19,6.38,7.75.11,5.49-1.42,8.53-5.26,8.74a73.31,73.31,0,0,0-15,2.69,53.35,53.35,0,0,1-18.87,2.1c-7.65-.68-15.26-.69-22.53-3.71-3.52-1.45-7.35-2.14-11-3.17-1-2.71-.07-4.43,2.68-5.69,4-1.85,4.74-5.18,4-9.3-1.59-8.79-2.55-17.72-4.56-26.4-1.46-6.31,1.53-9.4,6.13-12.32.77-.5,1.34-2.78.87-3.51-2.93-4.54-3.87-8.7-1.06-14,2.22-4.16.31-7.62-3.76-9.42-2.33-1-4.77-1.84-7.16-2.75Z"/><path d="M586.48,613.7c2.51.24,5,.34,7.52.74,5.23.84,6.6.08,8.35-4.6s2.54-9.89,5.95-13.93c8.23-3,10-10.9,13.47-17.58a12.36,12.36,0,0,1,2.45-2.92c1.8-1.79,3.47-3.83,5.57-5.18,5.5-3.55,9.31-8.38,12.72-13.9s9.34-8.4,14.67-11.85c2.65-1.72,4.71-1.46,6.61,1.2a52.87,52.87,0,0,0,4.6,6.07c7.13,7.46,4.74,16.55,4.41,25.27a5.68,5.68,0,0,1-1.74,3.34c-3.59,3.61-7.7,6.75-10.94,10.64-8.15,9.76-16,19.79-23.82,29.79-3.93,5-7.21,10.58-11.54,15.19-10.74,11.46-15.4,26.22-22.42,39.7-1.19,2.29-3.64,3.22-6.39,2s-4.67-.93-7.14-.27c-5.53,1.47-7.89.2-7.62-4.47.62-10.46-5.54-19.62-5.1-29.92,0-1,.62-2.55,1.37-2.87a4.5,4.5,0,0,1,3.36.53c2.22,1.22,4.27,2.74,6.38,4.14a15.74,15.74,0,0,0,2.45,2.68,6.93,6.93,0,0,0,9.65-1.69c1.7-2.32,1.41-4.57-.76-6a3.45,3.45,0,0,0-3-.1c-3.08,1.89-6,4-9,6.11a137.92,137.92,0,0,0,1-32.86Z"/><path d="M645.47,1266.59c-4-.72-10.29-1.56-16.44-3a54.42,54.42,0,0,1-31.24-20.4,110.25,110.25,0,0,1-14.85-26.5c-2.43-6.15-2.13-12.47-.07-18.64,1.2-3.61,2.9-7.18,6.18-9.38,6.3-4.24,12.7-8.36,19.23-12.24,2.21-1.31,5.16-1.52,7-.31,2.23,1.44,2.67,4.15,2.74,6.74a15.66,15.66,0,0,1-1.67,7.31,45.69,45.69,0,0,0-4.22,14.56c-.73,6.45-.35,12.7,2.88,18.48a119.5,119.5,0,0,0,7.82,13,13.94,13.94,0,0,0,13.15,6,37.23,37.23,0,0,1,3.81-.18c7.19,0,11.77-4.17,15.07-9.87,1.89-3.25,2.81-7,4.54-10.41a45.81,45.81,0,0,1,4.42-6.14c2-2.68,8.11-2.49,9.87.15a24,24,0,0,1,3,21.81,171.16,171.16,0,0,1-9,21c-2.38,4.78-6.81,7.29-12.26,7.62C652.89,1266.28,650.35,1266.37,645.47,1266.59Z"/><path d="M645.41,477.82c2.24,12.83-.58,19.72-5.35,25.94-.53.69-2.48.71-3.59.4a4,4,0,0,1-2.42-2.29c-6.32-23.74-6.8-25.89-8.11-44.54a97.38,97.38,0,0,0-4-22.34c-2.8-9,1-17,12.15-19.17a6.08,6.08,0,0,1,3.71.56,5.12,5.12,0,0,1,1.87,2.67c1.38,3.66.56,7.48.63,11.24.23,12.65.38,25.33,5.28,37.32C647.59,472.52,645.38,477.62,645.41,477.82Z"/><path d="M1048,859.3c-3.5-.47-7-1.1-10.5-1.37-7.07-.54-14.16-.9-21.24-1.33l-.86,1.24c0-3-1.12-4.93-3.57-5.77-5-1.74-8.6-4.69-10-10.15-.58-2.38-2-4.55-3.09-6.81-1.87-4-1.49-6.22,1.81-10.07,1.61-1.88,3.26-4,5.37-5.12,5.5-2.83,11.27-5.13,16.93-7.65.74,3.45.88,7.18,2.37,10.27,1.63,3.4,5.36,5.06,8.75,6.7,1.13.54,2.26,1.09,3.34,1.72a27.07,27.07,0,0,1,3.11,2.12,19.29,19.29,0,0,1,7.64,16.3c-.13,3.74-.89,7.46-1.36,11.19Z"/><path d="M518.2,563.53a24.81,24.81,0,0,0,0-3.76c-.95-6.46,2-12.36,2.63-18.59s-.91-12.62,1.52-18.67c.93-2.29,3.08-3.45,5.94-3.14a6.2,6.2,0,0,1,3.35,1.66c5.82,5.57,8.14,12.69,7.5,20.47a135.41,135.41,0,0,1-3.3,18.56c-.85,3.74-3.31,6.62-6.46,8.92a13.82,13.82,0,0,1-6.76,2.73C518.93,572.14,518,570.61,518.2,563.53Z"/><path d="M1046.79,860.57c6.84-2.48,13.12-5.76,18.39-11,3.37-3.37,7.52-6,11.32-8.89l-.61-.41c-.24,2.41,0,5-.83,7.19-1.72,4.56-3.27,9.5-6.24,13.2-5.73,7.16-7.16,15.3-7.7,23.92-.16,2.56-1.67,4.36-3.55,6.17a20.22,20.22,0,0,1-16.6,6l.7.84c.53-2.32.56-4.91,1.66-6.92,4.78-8.75,5.51-18.22,5.52-27.86a15.82,15.82,0,0,0-.81-3.5Z"/><path d="M561.23,1099.84c-4.13.83-5.74,4.46-8.15,7.24a9,9,0,0,1-10.53,1.93c-6.95-3.2-14.17-6-17.47-13.88-1-2.44-3.25-3.83-5.41-5.27-3.17-2.1-6.11-4.56-9.1-6.93s-2.1-7.46,1.41-9.75a10.17,10.17,0,0,1,10.67.36c6.52,4.45,10.58,11,15.16,17.12,1.55,2.08,3.27,3.94,5.86,4.65,6.11,1.69,11.78,5,18.32,5.11Z"/><path d="M1110.72,466.41c1,6.74,1.75,7.5,8,7.65l-8.13,24.26c-1.79-1.62-3.89-3-5.3-4.91-7.26-9.78-14.48-19.58-22.36-28.88-3.28-3.87-4.36-8.59-3.9-13.64l16.36.08c.49,4.67,3.59,6.78,7.74,7.85C1103.68,465.14,1104.38,465.84,1110.72,466.41Z"/><path d="M741.32,405.68c-8.83,0-12.63.1-16.41,0-6.37-.19-8.75-3.85-6.64-10.13a8.06,8.06,0,0,1,9.05-5c4.91,1.1,9.75,2.55,14.67,3.61a6,6,0,0,0,6.47-2.57c1.59-2.67,3.46-4.25,6.2-2.77,1.84,1,2.19,3.77,2.1,6.51-.17,5-2.15,8.18-5.54,8.77C746.27,404.91,741.31,405.68,741.32,405.68Z"/><path d="M564.51,1066.13c1.25,2.18,2.54,4.33,3.75,6.53,2.16,3.93,1.92,4.64-2.83,9-2.78,2.54-5.57,5.06-8.36,7.59l.72-.77c-2.37.1-4.73.37-7.09.27-3-.12-7.56-4.26-7.57-6.67a132.83,132.83,0,0,1,.35-14.4c.24-2.22,1.64-4.43,2.95-6.35.52-.77,2.21-.74,3.38-1,2.33-.6,4.67-1.18,7-1.77l-.3-.88c1.82,4.18,4.6,7.39,9,9Z"/><path d="M515.12,1114c-.46,5.4-1.83,8.61-5.37,10.65-2.52,1.46-4.72,1.14-6.46-1.44-5-7.47-6.2-16.11-7.23-24.75-.14-1.14.49-2.36.66-3.56.49-3.37,2.24-4.28,5.47-3.25,6.42,2.06,10.64,6.23,12,12.78A67.1,67.1,0,0,1,515.12,1114Z"/><path d="M680,1358.19a18.36,18.36,0,0,0-15.82-7.83c2.12-4.91,6-7.29,11.21-7.43a34.17,34.17,0,0,1,7.23.21c7.68,1.44,14.18-1.08,20.57-5a9,9,0,0,1,10.19.25c2,1.37,4.05,2.64,6.08,4-3.91,3.22-7.83,6.42-11.72,9.65a13,13,0,0,0-4.1,6.27Z"/><path d="M1136.35,869.63c3.33,5.92,2.2,11.49-2.39,16.73-1.61,1.84-2.62,4.22-4.25,6-.54.61-2.22.57-3.25.31a4.9,4.9,0,0,1-3.92-5.27c.27-4.93,4.21-8.82,3.61-14.25-.54-4.91.17-10,.55-15a3.86,3.86,0,0,1,1.83-2.77c2.55-1.1,4.74,0,5.52,2.82C1135,861.89,1135.56,865.62,1136.35,869.63Z"/><path d="M1049.18,404.8a17.31,17.31,0,0,0,7.69,8,17.57,17.57,0,0,0,7.76,7.66c2.06,4.49,4.17,8.95,6.18,13.46a19,19,0,0,1,1.57,10.79c-7.81-4.68-12.28-12.55-17.9-19.23-5.76-6.85-12.61-12.18-19.68-17.41-1-.71-1.42-2.07-2.11-3.12Z"/><path d="M1104.52,837.23c-1-7-.3-8.5,5.94-11,4.52-1.79,8.61-4.65,13.68-5.12,3.62-.33,8.33,1.55,9.28,4.42,1.15,3.49,2.57,6.94,3.16,10.53.4,2.45-1.61,4.38-4.33,4.51-2.36.11-5.19.12-7.07-1-6.77-4.18-14-3.79-21.36-3.06Z"/><path d="M483.81,628.65c0-8.19-.2-14.22.09-20.23a4.54,4.54,0,0,1,4.71-4.38c2.45-.07,4.17,1.43,4.78,4.05a12.75,12.75,0,0,1-1.69,10.35C489.7,621.4,487.34,624.12,483.81,628.65Z"/><path d="M1061.5,580.82c-1.18-1-2.38-1.46-2.85-2.36-1.84-3.5-2.29-7.37-.24-10.76,4.62-7.62,13.91-11.3,23.12-9.38a4.91,4.91,0,0,1,4.17,5.58,3.86,3.86,0,0,1-2.57,2.58,22.24,22.24,0,0,0-13,7.22C1067.6,576.42,1064.37,578.5,1061.5,580.82Z"/><path d="M796.27,735.09c-.13-3.83-.44-7.66-.35-11.48.18-8,2.88-15.1,8.72-20.63,2-1.91,4.72-1.39,6.67.39s3,4.33,1.86,6.68c-1.67,3.41-4.19,6.35-5.29,10.14s-3.67,6.67-6.61,9.18c-1.94,1.65-4,3.11-6.08,4.66Z"/><path d="M585.23,775.21c-4-9.53-4.86-19.68-5.76-29.81-.29-3.31,1-4.93,3.58-4.28a5.24,5.24,0,0,1,2.83,2.1c2.89,4.33,3.78,9.35,4.66,14.36a11.3,11.3,0,0,1-.86,7.41c-1.78,3.36-3.72,6.64-5.59,10Z"/><path d="M537.07,1170.42c-.86.76-1.59,1.83-2.6,2.22a6.4,6.4,0,0,1-6.65-1,27.53,27.53,0,0,1-9.58-19.13c-.24-2.71.75-5,3.22-6.11.51-.24,2.42,1.18,2.73,2.14,1.94,6,6.08,10.49,9.77,15.35C535.39,1165.77,536.06,1168.23,537.07,1170.42Z"/><path d="M603.87,1335.13a8.94,8.94,0,0,1,2.17-6.76c2.34-2.81,4.77-5.59,5.62-9.31l-.93.89c3.18-2.68,6.73-5,8.79-8.79l-.94,1c5.39-.54,10.79-1.41,16.17.1l-.89-.89a12.78,12.78,0,0,1-2.35,6.65c-1.94,3-3.62,6.18-5.41,9.28l1-1c-3.88,2.06-7.58,4.29-8.85,8.93l1.13-1.13c-5.48.23-10.95,1.12-16.43,0Z"/><path d="M542.36,788.62c3.17-4.54,5.11-5.79,8.44-5.84a24.7,24.7,0,0,1,17,6.1c1.83,1.57,3.29,4.19,2.36,6.39s-3.8,3-6.2,3.34a20,20,0,0,1-14-3.6c-3.05-2.06-5.58-4.88-8.34-7.36Z"/><path d="M591.4,488.82c.79.76,1.94,1.38,2.35,2.33,3,7,4,14.05.29,21.11-.54,1-1.85,2.66-2.46,2.52a6.11,6.11,0,0,1-4.48-4.92c-1.49-6.3,1.25-12,2.68-17.88A14.72,14.72,0,0,1,591.4,488.82Z"/><path d="M1013.77,1221.73a5.15,5.15,0,0,1-6.69,1.23c-2.61-1.31-4-3.67-2.71-6s4.06-2.33,6.71-1.25C1014,1216.94,1014.86,1218.94,1013.77,1221.73Z"/><path d="M1060.15,1204.61a5.16,5.16,0,0,1-4.58,4.5c-4,.67-7.06-1.21-9.63-4.09-2.12-2.37-2.3-4.4-.31-5.77a6.43,6.43,0,0,1,3.28-1.24C1056.06,1197.84,1060.47,1200.5,1060.15,1204.61Z"/><path d="M1075.56,735.26a6.58,6.58,0,0,1,4.06-5.41c3.39-1.62,6.21.45,7.27,5.13a10.08,10.08,0,0,1-.74,6.88c-1.34,2.76-3.33,3.48-6.06,2.09C1076.59,742.17,1075.1,739.29,1075.56,735.26Z"/><path d="M541.57,682.07c2.28-5.76,1.79-12.53,6.31-17.47,1.92-2.11,4.08-3.15,5.84-2.28.89.44,1.55,2.11,1.62,3.27A39.31,39.31,0,0,1,555,673c-.55,4.29-2.88,6.63-7.25,7.31-2.45.38-5,.37-7.46.54Z"/><path d="M395.58,1011.74c3.69-1.58,6.58-4,7.9-7.9h8.37q3.9,12.1,7.82,24.2c-4.45-2-8.89-4-13.36-5.95a22,22,0,0,0-10.66-1.83Z"/><path d="M592.44,827.38c-1.19,2.24-3.13,3.19-5.61,2.29q-9.12-3.34-5.1-14.59c.33-.93,1.42-2.22,2.15-2.22a4.29,4.29,0,0,1,3,1.76,92.21,92.21,0,0,1,5.51,9.21C592.84,824.75,592.44,826.13,592.44,827.38Z"/><path d="M642.39,1334.83l-8,8-16-.86.92.83a13.32,13.32,0,0,1,.13-8.64l-1.13,1.13a22.18,22.18,0,0,0,8.85-8.93l-1,1c5.76-.48,11.52-.9,17,1.76l-.82-1A53.69,53.69,0,0,0,642.39,1334.83Z"/><path d="M1110.16,981.25a12.51,12.51,0,0,1,4-10.11c2.09-1.82,4.67-1.23,6.17,1a4.86,4.86,0,0,1-.84,6.49c-2.63,2.6-4.52,2.79-10.32,1.58Z"/><path d="M587.51,613l-9.91-3.75-.93,1c3.47-1.72,4.37-5.27,6.09-8.31,2.21-3.93,6.34-5.75,8.12-3.84,1.55,1.66,1.63,3.88.58,6.35-.92,2.15-1.75,4.36-2.8,6.45a17.31,17.31,0,0,1-2.18,2.78Z"/><path d="M987.05,358.74h8.61q0,8.28-.1,16.57c-6.1-1.57-10.87-5.76-16.43-8.39C983.92,366.28,986.31,363.31,987.05,358.74Z"/><path d="M607.35,840.09c.6.84,1.58,1.63,1.72,2.54.46,3.1-.82,5.13-3.47,5.28-.81,0-2.46-1.45-2.44-2.19A6,6,0,0,1,607.35,840.09Z"/><path d="M1103.82,836.49c-8.65,6.15-18.12,6.27-27.93,3.75l.61.41c4.6-1.43,9.16-3,13.81-4.24a24.3,24.3,0,0,1,14.21.82Z"/><path d="M1041,896.74a18.35,18.35,0,0,1-2.46,10.6l1.19.92c-2.67-3-6.38-3.72-10-4.43-2.63-.51-5.33-2.1-4.89-4.43s3.54-3.33,6.09-3.74a17.31,17.31,0,0,1,10.82,1.92Z"/><path d="M458.27,930.76a10.92,10.92,0,0,1-1.06,3.21c-.63.87-2.09,2.12-2.64,1.89-2.36-1-3.12-3.05-3.11-5.62s1-4.62,3.65-5.08c.65-.11,1.81,1.35,2.34,2.31A12.4,12.4,0,0,1,458.27,930.76Z"/><path d="M1055.52,1137.67l8.36-3.43-.33.28a55.34,55.34,0,0,0,2.9,6.18c1.22,2,3.41,2.7,6,2.66l1.38-1a8.5,8.5,0,0,0-6.42,1.82c-4.55,3.12-8.11,1.86-10.07-4.18-.36-1.1-.79-2.17-1.19-3.26Z"/><path d="M605.14,789.58c.91,3,1.6,3.93,1.59,2.72a15.92,15.92,0,0,0-.64-3.14Z"/><path d="M566.63,700.43c-.75.8-1.36,1.93-2.29,2.34-2.66,1.15-4.56.12-4.9-2.78a3.26,3.26,0,0,1,1.85-2.58C563.76,696.83,565.6,698.07,566.63,700.43Z"/><path d="M1044.31,608.51c-2.33-1.34-4.06-1.37-4.16,0a2.84,2.84,0,0,0,1.83,2.11c.73.13,1.68-.84,2.53-1.32Z"/><path d="M675.69,524.14c2.21,1.6,4.6,1.8,7.26,1.44.68-.09,2.34,1.7,2.33,2.62,0,4.21-2,4.85-4.14,1.19-1.28-2.23-2.15-4.54-4.57-5.79Z"/><polygon points="1099.27 924.82 1099.85 927.51 1098 927.16 1099.27 924.82"/><path d="M933.68,546.72c.39-.92,1.17-1.89,1.08-2.77a3.43,3.43,0,0,0-1.7-2.36c-.72-.34-2.36-.19-2.72.34-1.56,2.28-.7,3.68,2.13,3.9Z"/><path d="M699.94,545.66c-.79-.39-2.21-.7-2.26-1.16a10.21,10.21,0,0,1,.72-3.3c.81.37,2.27.69,2.31,1.14A10.24,10.24,0,0,1,699.94,545.66Z"/><path d="M562.53,820.55l-1.91.77a10.85,10.85,0,0,1-.65-2.79c0-.25,1.27-.48,1.95-.73C562.12,818.72,562.33,819.64,562.53,820.55Z"/><path d="M895.43,882.28c-.68-.78-1.38-1.54-2-2.34s-1.86-2.18-1.71-2.35c1.35-1.6,2.28-.69,2.52,2.44.08,1,.23,2.06.35,3.08Z"/><path d="M667.18,772.1l-2-2.22c-.68.64-2,1.35-1.9,1.91a3.37,3.37,0,0,0,1.74,2.43c.82.29,2-.41,3-.68Z"/><path d="M1063.42,770.15c.29-.73.55-2,.89-2.06a8.21,8.21,0,0,1,2.76.73c-.3.72-.56,2-.89,2A8.36,8.36,0,0,1,1063.42,770.15Z"/><path d="M933,335.8l16.5,0c0,2.92.09,5.85.13,8.77a93.82,93.82,0,0,1-10.08-1.71C936.12,341.9,934,339.28,933,335.8Z"/><path d="M917.6,328.11l16.68,0a17.08,17.08,0,0,0,0,8.78c-3.38-.62-6.79-1.06-10.11-1.9A8.71,8.71,0,0,1,917.6,328.11Z"/><polygon points="469.22 1023.09 468.41 1020.45 470.52 1020.75 469.22 1023.09"/><path d="M949.3,1022.9c-.73.62-1.46,1.77-2.18,1.75-2.6-.05-3.44-1.61-2.06-3.85.3-.48,2-.56,2.73-.2S948.81,1022.1,949.3,1022.9Z"/><path d="M752,324.76c-1.58,2.08-3.61,3-6,2.31-.89-.27-2.24-1.93-2-2.41,1-2.47,3.13-3.23,5.57-2.12A10.78,10.78,0,0,1,752,324.76Z"/><path d="M1021.73,1115.23c3,.14,4-1.22,2.76-3.87a3.75,3.75,0,0,0-2.58-1.63,3.36,3.36,0,0,0-2.8.92c-1.54,2.38-.62,3.92,2.3,4.31Z"/><path d="M1164.41,1095.6l.15,16.92c-3.07.21-5.09-1-5.8-3.67a8.18,8.18,0,0,1-.19-3.61C1159.38,1101.37,1161.79,1098.41,1164.41,1095.6Z"/><path d="M1045.25,1108.13c.54,3.32.94,6.67,1.67,9.95a19.77,19.77,0,0,1-.11,10l1-.75a9.53,9.53,0,0,1-3.8-8.83c.4-3.39,1.19-6.73,1.81-10.09Z"/><path d="M682.89,1329.93c1-.38,2.23-1.31,3.05-1,3.24,1,3.49,2.89.63,4.5a3.63,3.63,0,0,1-3.21-.58C682.8,1332.36,683,1330.92,682.89,1329.93Z"/><path d="M676.57,523.6a60.49,60.49,0,0,1-1.62-6.77,2.93,2.93,0,0,1,1.46-2.46,3.25,3.25,0,0,1,2.79,1,3.47,3.47,0,0,1,.53,3.06,51.68,51.68,0,0,1-4,5.7Z"/><path d="M932.47,545.83l2.79.19q-2.31-4.17-1.58.7Z"/><path d="M1044.51,609.27l-.93-3.24c.25.82.49,1.65.73,2.48Z"/><path d="M1025.17,397.19l8.83,0c0,2.94,0,5.88,0,8.82C1029.1,405,1025.82,402.41,1025.17,397.19Z"/><path d="M1071.22,443.22a7.24,7.24,0,0,1,6.89,2,8,8,0,0,1,2.17,6.93c-2.72.35-5-.3-6.26-2.37A51.66,51.66,0,0,1,1071.22,443.22Z"/><path d="M577.6,609.22l0,2.74c2.36-.62,2-1.19-1-1.69Z"/><path d="M1017.52,389.55l8.82,0,.06,8.93C1021.64,397.28,1018.62,394.38,1017.52,389.55Z"/><path d="M1187.59,666l.84.9Z"/><path d="M1009.8,381.88l8.93,0-.06,8.87C1014.3,389.19,1010.78,386.81,1009.8,381.88Z"/><path d="M792.34,746.9c.07-2.21,0-4.43.25-6.61a7.28,7.28,0,0,1,3.68-5.2L795.19,734l-3.45,13.46Z"/><path d="M557.34,750.37l1.71-2.81q2.52,2.51-2.75,2Z"/><polygon points="791.74 747.49 790.12 746.12 792.34 746.9 791.74 747.49"/><polygon points="556.3 749.51 556.33 752.24 557.34 750.37 556.3 749.51"/><path d="M458.42,766.33l-2-1c.23.79.45,1.59.68,2.38l2.41-1.06Z"/><path d="M459.52,766.7l-1.46,1.49q4.5-.45.36-1.86Z"/><path d="M594.58,781c-1.36-1.4-2.72-2.8-4.1-4.19a6,6,0,0,0-5.25-1.62l-1.14-.27a6.52,6.52,0,0,0,3.94,4.22c1.9.73,3.75,1.6,5.62,2.4Z"/><path d="M668,773.54l-2.32-.3q1.92,3.59,1.52-1.14Z"/><path d="M606.09,789.16c-2.54-4.54-6.83-6.61-11.51-8.14l-.93.54c2.15,5.09,6.59,6.88,11.49,8Z"/><path d="M532.91,796.73l9.45-8.11-.75-1a18.17,18.17,0,0,1-7.76,8.36Z"/><path d="M533.85,796l-1.61,1.55c2.45,1.1,2.68.82.67-.83Z"/><polygon points="909.77 852.22 910.12 850.78 909.71 853.34 909.77 852.22"/><path d="M1016.3,856.6c-.09.77-.19,1.54-.28,2.31,2.23-.92,2-1.28-.58-1.07Z"/><path d="M1038.51,907.34l2.73.09q-1.66-3.58-1.54.83Z"/><path d="M1002.29,980.6c.6,3.3-.34,4.79-2.78,4.3-.07,0-.12-2.13.35-2.44a10.9,10.9,0,0,1,3.42-.91Z"/><path d="M411.15,1005.25q0-4.71.05-9.42C413.76,1000.4,413.63,1005.25,411.15,1005.25Z"/><path d="M556.82,1058.5c2.6-1.17,5.25-1.86,8.06-.72l.84-.26-9.2.1Z"/><path d="M564.88,1057.78c2,5.27,1.81,8.35-.37,8.35l1,.44.18-9Z"/><path d="M557.07,1089.24c1.06-.12,2.25-.6,3.15-.28,2.24.79,2.95,2.51,2.42,4.67s-.95,4.14-1.41,6.21l.76.58a17.37,17.37,0,0,1-4.2-12Z"/><path d="M703.63,1114.78c.67-.76,1.81-1.49,1.85-2.29a2.86,2.86,0,0,0-1.77-2.13c-.65-.18-1.61.74-2.44,1.17l1.68,2.11Z"/><path d="M1036.1,1113.54l9.15-5.41.54.24-10.45,4.74Z"/><path d="M703,1113.64l1.4,1.68c.52-.68,1.59-1.82,1.48-2-2-2.27-2.74-1.75-2.2,1.41Z"/><path d="M939.48,1119.22a16.5,16.5,0,0,0,2.45.88c1.41-2.63.86-3.24-1.46-1.73Z"/><path d="M1021.41,1115l14.69-1.42-.76-.43a26,26,0,0,1-10.8,0c-.76-.15-1.86,1.39-2.81,2.15Z"/><path d="M940.47,1118.37c-2.09,1.9-1.83,2.59.79,2.05l-1.78-1.2Z"/><path d="M1046.81,1128c4.77,1.52,7.14,5.21,8.71,9.63l.59-.93-8.33-9.45Z"/><path d="M1063.88,1134.24a19.88,19.88,0,0,0,2.19,2c3.34,2.26,4.22,2.15,7.85-.73l-1.48-1.14-8.89.13Z"/><path d="M1073.92,1135.54c-2.8-.79-4.78.25-4.83,3.15s1.9,4,4.7,3.67l-1.38,1a16.43,16.43,0,0,0,0-9Z"/><polygon points="966.39 1166.11 965.98 1164.21 965.42 1166.93 966.39 1166.11"/><path d="M965.42,1166.93l-1.47-1.21c0,2.19.81,2.32,2.44.39Z"/><path d="M542.71,1258.62c-4.26-1.8-7.92-4.21-9-9.12C538.72,1250.52,541.72,1253.57,542.71,1258.62Z"/><path d="M910,1284c.2-.88.76-2.44.55-2.56-2.65-1.44-3.35-.77-1.94,1.76Z"/><path d="M908.58,1283.22l2.55-.16c-1.46-2.13-1.84-1.81-1.16,1Z"/><path d="M611.53,1312.14c-.31-3-.63-6-.95-9,5.06.91,7.73,3.92,8,9.06l.94-1h-8.84Z"/><path d="M634.75,1312.31c-.69-3.18.25-4.56,2.78-3.94.1,0,.1,2.09-.35,2.35a10.38,10.38,0,0,1-3.32.7Z"/><polygon points="650.3 1319.2 651.63 1317.51 649.4 1318.29 650.3 1319.2"/><path d="M643.06,1329.11a10.43,10.43,0,0,1,7.24-9.91l-.9-.91c-.81,4.43-4,7.13-7.16,9.83Z"/><path d="M665.78,1326.55l-.78-.82Z"/><path d="M665,1325.73,654.92,1334l.82.52,10-7.92Z"/><path d="M1118.53,497.06c0,2.94,0,5.88-.07,8.82-2.45-.08-4.51-.92-5.71-2.8s-2.08-3.92-3.1-5.89A14.71,14.71,0,0,1,1118.53,497.06Z"/><path d="M526,1272.53c4.53,1.51,8,4.11,9.08,9.08C530.13,1280.52,527.53,1277.07,526,1272.53Z"/><path d="M380.31,1027.89a15,15,0,0,0-.22-8.71l16.58.09a15.56,15.56,0,0,0,.09,8.74C391.28,1027.5,385.8,1026.48,380.31,1027.89Z"/><path d="M380.1,1043.33a12.08,12.08,0,0,0,.23-8.58l16.41-.14q-.12,4.28-.26,8.56C391,1042,385.56,1043.23,380.1,1043.33Z"/><path d="M395.74,1035.85q0-4.53,0-9.07c2.14.48,4.46,1.4,4.94,3.29C401.63,1033.8,398.09,1034.49,395.74,1035.85Z"/><path d="M1126.17,498.09l-9,0a11.11,11.11,0,0,1,8.91-8.94C1126.14,492.15,1126.15,495.12,1126.17,498.09Z"/><path d="M957.23,289.74c0,2.88,0,5.76,0,8.65-5.47-1.06-10.92-.66-16.38.06,0-2.92,0-5.85,0-8.77Z"/><path d="M603,1350.53a14.37,14.37,0,0,1,.85-8.66l-.76.84a24.37,24.37,0,0,1,16.21.07l-.92-.83c.36,2.87.71,5.74,1.07,8.61Z"/><path d="M1017.63,374.14l8.81,0q-.06,4.39-.11,8.79l-8.67,0Z"/><path d="M587.62,1342.87a17.27,17.27,0,0,1,0-8.8c5.45-.17,10.91-.55,16.24,1l-.88-.93a15.06,15.06,0,0,1,.09,8.52l.76-.84C598.53,1343.74,593.05,1343,587.62,1342.87Z"/><path d="M602.82,1311.08a14.61,14.61,0,0,1,8.72,1.06l-.86-1a14.93,14.93,0,0,1,.05,8.78l.93-.89C606.65,1318.69,603.12,1316.68,602.82,1311.08Z"/></svg>