<svg id="Calque_1" data-name="Calque 1" xmlns="http://www.w3.org/2000/svg" viewBox="0 0 1500 1500"><path d="M507.34,597.62c-.64-4,.82-7.39,3.26-10.44A70.17,70.17,0,0,1,531,570.08c15.53-8.74,31.3-17.17,47.51-24.54,12.74-5.8,26.31-9.73,40.58-10.08,10.19-.25,20.39-.77,30.58-.55,19.1.42,38.17,1.58,57.18,3.62a6.69,6.69,0,0,1-.19,1.72,107.46,107.46,0,0,1-11.27,1.43c-14,.52-28,.72-42,1.29-8.93.36-17.76,1.4-26.19,4.84a55.33,55.33,0,0,1-11,3.26c-14.31,2.64-25.94,10.26-36.81,19.34-2.91,2.43-5.41,5.34-8.24,7.86-2,1.82-4.45,1.59-6.84-.3-3.75-.11-7.27-1.2-10.88-2.15-7.93-2.08-14.7.53-19.85,6.71-2.07,2.49-1.33,4.84,1,5.72,6.21,2.3,12.11,2,17.36-2.44,3.82-3.2,7.67-6.3,12.47-7.94-.54,2.45-.56,5.18-1.71,7.29-2.42,4.44-5.55,8.48-8.2,12.8a36.8,36.8,0,0,0-5.22,25.42c2.19,15.27,7.78,29.39,13.58,43.46,2.41,5.85,5.35,11.51,8.32,17.11,13.06,24.66,26,49.43,41,73s29.51,47.44,49.12,67.62c1.74,1.79,4.22,2.22,7,1.74,1.33,4.4,4.23,6.89,8.85,7.3,1.61,2.37,1.31,3-.92,1.81l1.92-.81-10.69-7.35c1.34-2.12,2.32-4.62,4.09-6.31,9.15-8.75,18.64-17.15,27.74-26,8.2-7.93,15.94-16.34,24.1-24.31A70.56,70.56,0,0,1,742,757.55c5.69-2.76,11.46-5.57,16.59-9.21S768,740,772.79,735.81c3.78-3.32,7.81-3,8.68.68s1.18,7.57,2.52,11.06a10,10,0,0,0,8.35,6.67c2.51.33,5,1.09,7.5,1.15,20.27.54,40.55,1.61,60.79-.7,5-.58,6.13-.56,9.56,4.44,4.11,6,9.39,8,16.13,7.55,3.8-.23,7.62-.28,11.38-.81,17.76-2.53,35.42.08,53.1,1a17.87,17.87,0,0,1,7.14,2.35c4.47,2.4,8.71,5.2,13.08,7.77a106.85,106.85,0,0,1,21.32,15.77c4.47,4.43,9.62,8.18,14.47,12.23l-.83-1c1.33,0,1.29,4.88-.2,8.69l.17-.46A13.7,13.7,0,0,1,995.74,810c-6.78-5-13.32-10.29-20.16-15.19-4.93-3.52-10.41-6-16.67-6.12l1.5,1.23c.39-2.74-.23-5.17-2.31-6.62-3-2.11-6.26-4-9.49-5.81a7,7,0,0,0-7.11-.34c-1.54.89-1,3.19.94,5.66a7.63,7.63,0,0,1,1.54,7l.76-.85c-3.79.27-7.71.35-11-1.64-12.09-7.36-25.67-9.83-39.26-12.07-7.42-1.23-15-1.56-22.53-2.06a78.38,78.38,0,0,1-18.48-3.44,33.91,33.91,0,0,0-14.9-1.27c-7.48,1-14.91,2-22.52,1.41-8.8-.71-17.58.16-26.34,1.13q-11.25,1.26-22.55,2c-2.45.16-5-.53-7.45-.83.49,2.87-.68,5.1-3.53,5.15-3.07.05-4.13-2.13-3.14-5.09-6.09,3.59-12.56,6.59-17.75,11.6-2.55,2.47-5.22,4.81-8,7.07a19.48,19.48,0,0,1-9.65,4c3.41-.31,3.83.37,1.27,2.06l-.54-3c3.24.45,6.48.88,9.71,1.36s6.45,1,9.67,1.53c-.9,2.12-1.33,4.65-2.77,6.3-7.74,8.85-16,17.11-26.23,23.24l-2.39.26,3.28.06a65.12,65.12,0,0,0-11.29,15.36,20.91,20.91,0,0,0-1.66,14.79c2.33,10,6.88,19.2,10.59,28.69,11.79,30.16,29.92,56.12,53,78.75a113.43,113.43,0,0,0,21.13,16.36c5.45,3.27,11,6.49,16.68,9.28,8,3.91,16.63,6.65,24.14,11.27s16.12,7.55,23.81,12.07c3.25,1.92,7.24,2.32,11.12,2,1.26-.1,2.49-.56,3.75-.67,22.84-2,45.78-2,68.67-3,2.26-.1,4.79,1.53,6.89,2.84,5.16,3.23,9.62,1.87,13.82-1.66,3.07-2.59,6.17-3.89,10.22-2.14,2.3,1,4.9,1.3,7.36,1.92l-1-1c-1.4,3.68-4.22,6.18-7,8.86s-5.84,5.22-9.64,5.73c-10.19,1.37-19.91,4.51-29.83,6.95s-20.33,2.81-30.19,5.41c-11.33,3-22.67,3.45-34.21,3.46-10.32,0-20.4-.87-30.29-4-3.6-1.15-7.56-1.08-11.34-1.71a40.07,40.07,0,0,1-14.38-5.11,35.38,35.38,0,0,0-14.41-4.72c-7.87-1-14.67-4.54-20.63-9.5-15.74-13.09-31.44-26.23-45.23-41.47-5.15-5.7-10.59-11.12-15.93-16.64a497.19,497.19,0,0,0-36.36-34.15c-15-12.74-19.55-18-35.9-39.44-5.42-7.09-11.18-13.91-19-18.7a54.24,54.24,0,0,1-14.2-12.77c-4.74-6-9.57-12-15.42-17-3.87-3.34-7.86-6.59-11.42-10.25a45,45,0,0,1-6.86-9.14c-2.46-4.42-4.07-9.31-6.47-13.77-1.83-3.38-3.73-6.67-4.5-10.47-.25-1.25-.3-2.54-.45-3.81l-1,.69,8.05-2.57c1.68,1.82,3.38,3.63,5,5.48a10,10,0,0,1,2.51,6.77c.54-3.2,1.06-3.23,1.56-.07l-2.54-.94c-5.24-1.49-6.93-5.4-7.07-10.37l-7.34-7.16.9.63c-3.13.17-6.41-2.74-9.38.47l.73-1.19c-1.93-3.2-3.7-6.51-5.82-9.58a52.3,52.3,0,0,1-8.65-20.57l-1.12.66a80.29,80.29,0,0,0,19.15-4.33c-2.21,5.22-1.66,9.64,3.68,12.65a15,15,0,0,0,2,2.95,220.2,220.2,0,0,0,21.64,18.24l7.55,9.1c2.65-2,5.47-1.37,8.31-.52-.18-2.73-.36-5.45-.55-8.18l-8-7.83.82-2.78,2.9-.06a8.92,8.92,0,0,1-2.83-6.45A17.61,17.61,0,0,1,586.45,754c-4.84-1.12-9.68-1.81-14.52-.05.91-4.72,0-9.2-1.69-13.59-6.48-.73-12.37-4.31-19.07-4-1-3.37-3.21-5.82-6.58-6.41-3.18-.55-6.52-.21-9.79-.26-.21-1.26-.11-2.68-.69-3.74a7.09,7.09,0,0,0-6.07-3.51,12.72,12.72,0,0,0-7.32,1.67l-7.63-12.19a15,15,0,0,1-1.16-10.11,13.38,13.38,0,0,1,13,5.6c6.2-1,11,1.57,14.94,6.1.69.79.71,2.16,1,3.27,7-.15,13.17,2.77,19.56,5q3.06-2.91.8,1l-1.19-2c-1.29-1.8-2.23-4.1-3.94-5.31-3-2.1-6.59-1.74-9.91-.81-2.17.62-4.12,2-6.17,3-3.64-.75-5.91-2.73-6.08-6.65l-9.56-3.91c-2.18-3.58-4.71-6.57-9.46-6.55-.93,0-1.87-.85-2.8-1.31-.49-3.2,0-3.62,1.55-1.29l-2.41-.07,2.54,2.56L511.27,703c4.39-.14,6.16,1,6.28,4,.09,2.24-1.18,3.6-3.65,4.06a19.38,19.38,0,0,1,6.84,12.24L536,728.59c4.18,5.09,9.93,6.42,16.1,6.77,3.95,4.69,5.14,5.51,8.2,5.22,3.49-.33,7-.78,10.46-1.18A16.64,16.64,0,0,0,573.16,753c4.22,1.54,8.47,2.63,12.87.67q0,8.76.08,17.52c-6.81-3.2-13.64-6.36-20.43-9.59a18.93,18.93,0,0,0-14.54-.88,7.82,7.82,0,0,0-.34-6.57c-1.07-2-2.12-4.09-3.18-6.13l-18.36-5.32,1,.66c-.92-.87-1.69-2.08-2.79-2.57-10.94-4.84-18.37-13.5-24.21-23.39s-13-18.72-20.55-27.2c-2.48-2.76-5.84-4.83-9-6.86-4.26-2.7-10.37-1-13.48,3.16a62.19,62.19,0,0,0-10.88,24.12c-.84,3.71-1.19,7.55-2.2,11.21a27.49,27.49,0,0,1-7.7,12.85c-5.56,5.3-11.29,10.31-18.14,13.79-7.18,3.65-11.66,9.43-14.89,16.63-2.07,4.6-5.22,8.7-7.35,13.27-1.53,3.29-2.75,4.47-4.57,2.56a5.94,5.94,0,0,1-1.4-3.26c-.89-7.68-3.86-11.83-12.27-7.86-.43.2-2.17-1.32-2.57-2.32-3-7.48-2.83-14.74,2-21.54a8.58,8.58,0,0,1,8.85-2.66c2.08.48,4,1.67,6,2.54a25.27,25.27,0,0,0,1.71-13.93c.36-2.11.71-4.23,1.07-6.34l5.81-1.65,4.95,4.55c2.37-3,4.09-6.66,8.4-7.43l5.88-8.69c2.71-1.82,3-2.62,1.14-1.88-.34.14-.05,1.86-.06,2.85a21.09,21.09,0,0,0-3.09.6c-2.15.74-3.53,2.17-3.7,4.14a9.16,9.16,0,0,0,.8,3c-1,4.38-5.73,4.38-8.21,7-3.61,2.77-7.87,4-12.18,5.07-.69,2-1.38,4.06-2.08,6.08a8.54,8.54,0,0,0,.24,6.22l-16.3,0c.74-2.42,1.18-5,2.26-7.26,3.82-8,7.82-15.95,11.85-23.86a68.81,68.81,0,0,1,10.92-15.56c6.05-6.52,12.34-12.84,18.17-19.55a94.57,94.57,0,0,1,20-17.55A65.63,65.63,0,0,0,461.32,643a83.23,83.23,0,0,1,6.78-9.2c5.13-5.69,10.9-11,18.23-13.34,8.94-2.87,15.55-8.29,21-15.56,0,0-.56.78-.56.78-2.3-.6-3.3-2.1-3.35-4.48s.94-3.92,3.34-4.42Zm152.9,293.76q2.13-4.12,1.23.58l-1.89-1.66c-1.73-2.53-1.14-3.08,1.69-1.46A17.14,17.14,0,0,1,660.24,891.38Zm7.4-14.62q-.25-4.75,1.53-.53l-2.69-.39c-1.7-2.91-.93-3.65,2.16-2A16.42,16.42,0,0,1,667.64,876.76ZM637.24,860q3.16-2.73.73,1l-1.05-2-.26-1.42Zm-31.07-30.2q2.42-4,1.26.62l-2-1.66a52.93,52.93,0,0,1-5.26-4.63c-1.54-1.74-1.56-4.11-.66-6.59-2.24-.25-4.49-.46-6.72-.76a6.14,6.14,0,0,1-4.86-4l.81-1.81.16,2.54c7.29-5.61,8.5-5.25,10.51,3.15C602.74,820.44,605.62,824.5,606.17,829.76Zm15.29-7.27c.55-2.92,1-2.93,1.33,0l-2.33-1c-4.54-1.64-7.32-4.64-7.56-9.64l-.9-1.65,1.54,1C617,814.38,620.61,817.47,621.46,822.49ZM498.26,665.8l8.69,9.52c.78,2.43,2.39,4,4.84,4.09a2.94,2.94,0,0,0,2.34-1.4c.9-2.4-.87-2.8-7.94-1.69a23.57,23.57,0,0,0-8.93-9.69c-.25-2.82-2-4.55-4.51-3.44-2.31,1-4.09,1.59-6.2-.22,3.27,2-.42,5,1,7.23.67-2.53-4.09-4.16-1.2-7.07Zm29,3.38q2.28-3.91,1.62-.32l-2.59-.6a19.5,19.5,0,0,0-.14-11.3,23,23,0,0,1-.86-11.25c-4.87,1.1-9.34-1.12-14-1.58a5.27,5.27,0,0,0-3.39.92,3.36,3.36,0,0,0-.77,2.74,3.32,3.32,0,0,0,1.59,2.33c6.56,2.53,11.23-2,16.45-4.56-.09,3.42,0,6.86-.3,10.27A29.21,29.21,0,0,0,527.28,669.18ZM484,643.84c-2.74-1.83-4.91-1.33-6.17,1.65a5.84,5.84,0,0,0-.32,3.63c.32,1.09,1.31,2.52,2.24,2.73s2.1-1,2.94-1.81c2.11-2.06,2.25-4.41.62-6.86,2.89,1,5.28.37,5.94-2.24.6-2.33-1.19-3.83-3.66-3.06S482.58,641,484,643.84Zm33.69-27.51c1.67-2.91,3.57-3.14,5.33-.44.22.35-1,2.37-1.6,2.38-1.05,0-2.12-.89-3.19-1.41a13.8,13.8,0,0,1,.12,3.67c-1,4.2-.15,4.92,2.89,2.25Q519.48,619.56,517.71,616.33Zm-81.26,64.79c3.78.3,7.59.73,11.19-.86.95-.42,2.45-1.62,2.33-2.12-.8-3.21-2.82-4-5.71-3a17,17,0,0,0-8.85,6.76l1.78,1.06Q433.37,683.74,436.45,681.12Z"/><path d="M1282.63,944.76a28.47,28.47,0,0,1-3.27-1.9,7.37,7.37,0,0,1-3.06-6.65c.11-1.18,1-2.3,1.49-3.45a67.13,67.13,0,0,1-.28-7.22c.07-1.15,1-2.23,1.45-3.4,2.37-6.66.06-12-4.79-16.61.74-7-2.78-13.25-4-19.92-4.73-5.4-9.52-10.75-14.16-16.23a63.92,63.92,0,0,1-4-5.91c-.18,3-.64,3.06-1.4.21l2.48.76a28.78,28.78,0,0,0,5.19,17.07c3.35,4.8,4.41,5.35,12.26,3.67-1.16,3.13-2.7,6.08-2.48,9.67.3,4.94,2.15,8.43,7.19,9.74q1.17,14.32,2.33,28.65c-3.75-3.38-7.37-6.79-9.92-11.31q-15.81-28.06-32-55.94a73.24,73.24,0,0,0-11.45-15c-4.38-4.38-9.18-3.9-12,1.75-1.13,2.23-1.33,5.12-2.87,6.91s-4.3,2.54-6.42,3.91a5.77,5.77,0,0,0-2.21,2.42,14.25,14.25,0,0,0-.49,3.74l1.14.8a15.65,15.65,0,0,0,6.44-13c.15-7.65-.66-15.12-4.13-22.1-5.63-11.32-11.15-22.69-16.87-34-1.79-3.52-2.19-7.27-2.44-11a22.54,22.54,0,0,0-3.59-10.65c-2.67-4.29-5.69-8.37-8.73-12.4-4.57-6.05-9.36-11.9-13.34-18.42a237.83,237.83,0,0,0-22.06-30.81,29.7,29.7,0,0,1-7-13.3l-1.27.6c2.38-.65,4.9-1,7.11-2,3-1.4,4.59-7.48,2.67-9.65-2.47-2.79-5.12-5.44-7.6-8.23-6.84-7.71-11.23-16.45-11.41-27a3.92,3.92,0,0,0-2-2.81c-1.74-.82-3,.8-3.3,4.08-.63,7.4,2,15-1.07,22.26l.86-.84a7.14,7.14,0,0,1-6.43-3.17c-2.21-3.06-4.34-6.62-8.43-7-5.07-.54-10.36-.16-14.57,3a32.86,32.86,0,0,1-13.66,6.22c-6.14,1.22-10.2-.18-12.68-5.25a168.92,168.92,0,0,0-17.65-29.26,54.39,54.39,0,0,1-9-16.66,18.88,18.88,0,0,0-3.49-6.64,313.29,313.29,0,0,1-22.83-30.35c-3.54-5.48-8.58-9-14.15-12.33-9.75-5.75-20.19-10.42-28.94-17.77-.87-.73-1-2.29-1.52-3.46l-1,.94c2.49-.38,5-1.1,7.48-1.09,6.75,0,12.17-2.66,16.72-7.45l-.56,1a41.43,41.43,0,0,1,15.1.24c6.19,1.23,12.3,3,18.54,3.77a12.33,12.33,0,0,0,10.21-4.1c4.26-4.56,6.22-11.1,12.07-14.34a6.83,6.83,0,0,1,7,.3,8.75,8.75,0,0,1,2.84,2.45q8.57,12.5,17,25.12a66.58,66.58,0,0,0,12.81,13.86,465.57,465.57,0,0,0,48.73,36.14c4.3,2.76,8.15,5.46,13.45,5.91,7.72.66,14,5.6,21.36,7.67a5,5,0,0,1,2.92,2.24c.71,1.56-1,2.84-4.22,3.46-5,1-10,1.62-14.83,3-9.19,2.65-15.67,15.16-13.39,24.45a39.13,39.13,0,0,0,17.34,24.05,152.93,152.93,0,0,0,27.08,13.55,10.23,10.23,0,0,1,5.17,5.25l.9-.91-5.55,4.51a9.21,9.21,0,0,1,5.31,4.58l-.77-.94q3.94,5.38,7.88,10.78c0-3.14.51-3.29,1.49-.43l-2.61-.51,1.83-9.9-.76.79a12.76,12.76,0,0,1,3.64-.57,21.06,21.06,0,0,1,16.91,12.44,30.37,30.37,0,0,1,3.09,1.89c5,3.94,4.93,6.68-.42,10.9q2.33-3.95,1.18.62l-1.88-1.67a26.29,26.29,0,0,1-1.43-12.64c9.19,4.08,17.49,9.31,23.52,17.65a8.77,8.77,0,0,1-.05,10.32,27.73,27.73,0,0,1-4.76,5.43c-.78.67-2.39.39-3.62.54,3,.71,3,1.23,0,1.56.32-.85.65-1.7,1-2.56a17.76,17.76,0,0,1,10.39,3.71c5.82,4.75,11.43,9.63,18.6,12.51a25.48,25.48,0,0,1,9,6.55,287.32,287.32,0,0,0,20.92,21.53A182.31,182.31,0,0,1,1328.11,858l-1.49,1.84q3,.23.45-2.5c4.35,7.32,4.2,15.33,3.64,23.42a6.18,6.18,0,0,0,3.12,5.83l-.88-.28c5.88,6.86,8.66,15.55,13.52,23,2,3.11,3,7.06,3.78,10.76,2.77,12.51,3.1,25.31,4,38,.17,2.29-1.19,5-2.56,7.05-3.74,5.62-5.26,11.63-3.62,18.14,1.9,7.52,2,15.15,2.12,22.8a17.94,17.94,0,0,1-5.88,13.56,14.51,14.51,0,0,0-9-5.87c-3.34-.78-5.08.2-4.68,3.29.06.51,2.16.86,3.36,1.09a26.5,26.5,0,0,0,3.68.35c2.46.16,4.92.28,7.38.41a40.89,40.89,0,0,0-4.65,18.15c-.24,5-.1,10.09,0,15.13.43,18.92.6,37.82-1.48,56.69a132.05,132.05,0,0,0,.6,30.19c1.33,11.27,1.75,22.59.06,33.9-.42,2.86-1.66,4.81-4.44,5.61-2.39.68-4.8,1.25-7.2,1.86l1.14,1.18c-1.07-4.92-4.28-7.69-9-9l1.3,1.28c-1.71-4.36-4.24-7.89-9.1-9.12l1.47,1.33c-.34-1.13-.38-2.49-1.06-3.36-5.91-7.65-12.67-13.91-23.35-13.11l1.41,1.16c-1-2-1.67-4.38-3.18-5.9-2.43-2.44-5.48-4.26-8.19-6.45-3.8-3.07-8.23-4-13-4.12l1.44,1c-1.61-1.44-3.11-3.84-4.88-4.06-2-.25-3.62,2.08-4.65,4.11l.87-1.14a10.51,10.51,0,0,1-3.7-6.49c-.34-2.72.85-5,3.35-5.65s5.23-1,7.47-.29c13.24,4.29,26.33,9.07,39.57,13.37,2.79.9,5-.83,5.92-3.31a11.94,11.94,0,0,0,1.24-3.55c.38-10.16.75-20.32.89-30.49.22-16.54.24-33.1,2.89-49.48,2.08-12.84-3.3-22.08-13.11-29.51a11.44,11.44,0,0,1-2.79-2.41,7.37,7.37,0,0,1-1.22-3.58c-.19-3.78-.21-7.57-.19-11.36a64.88,64.88,0,0,0-8.15-32.93c-1.25-2.21-2.4-4.5-3.81-6.59-3.75-5.55-4.59-11.73-4.28-18.21-1.52-2.12-1.29-2.51.62-1.06C1284,942.85,1283.08,944.08,1282.63,944.76ZM1074.56,629.58q3-3,.93.92l-1.57-1.88c-1.55-2-1.08-2.42,1.31-1.23A12.89,12.89,0,0,1,1074.56,629.58ZM1051,574.66c2.4-.91,2.67-.47.73,1.2,0,0-1.06-1.1-1.63-1.69l-.81-1.73Q1052.69,571.38,1051,574.66ZM1036.1,589.5c-5.89,2.89-7.42,5.33-4.62,7.4a2.84,2.84,0,0,0,2.73,0c1.73-1.84,2.06-4.27,1.41-6.91q.6-3.48,2.25-.55Zm304.1,353.68c-.7.75-1.73,1.39-2,2.28a5.78,5.78,0,0,0,1.4,6c.71-.77,1.73-1.42,2.07-2.33A5.46,5.46,0,0,0,1340.2,943.18Zm-13.57,19.44a11,11,0,0,0-.39-3.34c-.3-.69-1.85-1.61-2-1.46a4.91,4.91,0,0,0-1.4,6.08c.3.69,1.42,1,2.16,1.53ZM1011.44,572.25c3.35-.36,3.6-1.42.57-2.77-.61-.28-1.72.57-2.6.9Zm319.45,348.27,1.31,3,1-3.05Zm-15.12,6.56,1.13,2.94,1-3Z"/><path d="M538.06,888.83c5.49-8.41,10.87-16.89,16.51-25.19A46.21,46.21,0,0,1,565,852.81c1.82-1.39,8.11-.79,10.55,1.27,2.08,1.74,3.56,4,3,6.62a49,49,0,0,1-3.4,10.64c-2.6,5.7-5.76,11.15-8.49,16.79-1.78,3.66-.7,7.08,3.18,9.6,6.11,4,6.58,5,3.08,8.06-7.61,6.59-11.12,16.83-20.08,22.12q-4.1.39-1-2.14c.28.72.55,1.44.82,2.16-1.28,6.49-4.91,11.9-9.25,16.44-10.53,11-20.91,22.29-34.33,30.12-5,2.93-5.65,6.79-3.28,13.22,1.32,3.58,2.82,7.1,4.24,10.65l-15.39.76q-1.8-4.47,2.42-1.93l-1.63,2.4c4.36-4.58,6.17-5.1,11-2.93a14.35,14.35,0,0,1,2.6,1.93,67.69,67.69,0,0,1,3.21,6.58,28.28,28.28,0,0,0,5.55,9.52l-2.35-1.3,1.54,1.46c7.29,10.46,14,21.3,21.37,31.71a68.87,68.87,0,0,1,11.24,24,7.27,7.27,0,0,1-.64,6.4c-.09.15,1.08,1.44,1.42,1.35,2.25-.64,1.91-2.63-1.42-8.47,3.39,5.29,8.13,9.48,11.1,15.25,7,13.52,13.5,27.18,18.64,41.5,2.56,7.16,5.18,14.3,8,21.36A204.45,204.45,0,0,1,601,1222.24c.05,5-1,10.06-1.73,15-.4,2.57-2.09,4.54-3.84,6.44-4.31,4.69-9,4.13-11.17-1.86-1.73-4.86-3.48-9.16-9.06-11.1-3.92-1.37-3.71-2-5.14-9.15.9-2.23,1.83-4.45,2.7-6.7,1.12-2.88.58-4.87-1.67-5.47-.29-.07-1.3,1.58-1.57,2.54a12.85,12.85,0,0,0,1.3,10.45c-5.82.87-8.55,4.54-9,10.14-.31,3.79-.69,7.6-.65,11.4.1,7.61.12,15.25.82,22.82.72,7.72-.25,15.18-1.71,22.68-1.53,7.93.7,15,5,21.62,2.93,4.53,6.68,7.26,12.13,7.89,12.36,1.43,12.29,1.66,16.17,12.13,2.35,6.33,4.37,7.68,11.19,5.28,5.42-1.91,9.76-1.12,13.92,2.35a22.3,22.3,0,0,1,2.49,2.88l1-.37c-3.6,5.44-3.6,5.44.09,9.79l-.94-.29c-1.92,1.61-3.63,3.62-5.8,4.76-6.76,3.54-13.91,5.84-21.71,5.34-5.63,3-12.62.82-18,4.7-.35-2.6-1.76-4.21-4.25-4.39-.41,0-1.46,1.85-1.3,2a5.57,5.57,0,0,0,6.17,1.63c-2.25,2.9-4.42,5.88-6.8,8.69a8.43,8.43,0,0,1-10.2,1.51c-3.14-1.93-6.25-3.93-9.25-6.06a24.33,24.33,0,0,0-13.7-4.84c-2.46-.07-4.91-.46-7.36-.74-3.93-.44-6.47-3.16-9.35-5.46a8.76,8.76,0,0,1-2-10.08c1.08-2.13,2.82-3.92,4.27-5.86-.5,2.73.57,4.61,3.28,5,.51.08,2-2.11,1.83-2.49-1.35-2.28-3.5-2.73-5.94-1.64,1.17-3.69-1.1-6.39-2.55-9.4-1.57-3.26,1.18-6.53,4.9-5.92a11.31,11.31,0,0,1,3,1.5c3.23,1.74,6.44,3.53,9.71,5.21,2.36,1.21,4.71.91,7.2.08s4.91-1.79,5.72-4.08c.42-1.2-2.07-2.18-5.17-2-6.15.41-12.29.87-18.43,1.32,1.57-5,5.08-8.72,8.31-12.64,7.63-9.24,10.92-20.22,11.11-31.9.21-12.72-.48-25.47-1.06-38.19a57.42,57.42,0,0,0-2-11.26c-1.55-6.18-3.84-12.2-5-18.44-4-21.47-11.72-41.64-20.59-61.45-1.56-3.48-2.78-7.13-4.41-10.58-6.52-13.83-13.44-27.46-21.06-40.72-12.76-14.25-22.1-31.09-35.05-45.29-18.07-19.81-37.34-38.34-56.59-56.93a85.27,85.27,0,0,0-18.48-13.47c-8.94-4.88-17.79-9.94-26.64-15-3.3-1.89-6.51-3.95-9.73-6-5.33-3.37-8.16-11.16-6.18-16.67,3-8.39,6.18-16.69,12.08-23.62,3.53-4.15,3.09-6-.86-9.38a14.73,14.73,0,0,0-6.61-3.67l-.87.83c3.14-1.61,6.3-3.19,9.42-4.85a6,6,0,0,0,3.5-5.7,23.43,23.43,0,0,1,5.5-16.33l-.38.36c.74,5.18,3.39,8.45,8.9,8.84l-1-1.24c-1.37,4.91,0,9.48,1.69,14,1.26,3.44,4.8,4.88,8.79,3.5,3.8-1.32,5.85-5.49,4-8.62s-4-5.94-6-8.9l-.42,1.18c2.35.9,4.68,1.86,7.06,2.68,6.05,2.06,11.67,5,16,9.72,19.67,21.55,42.73,39,66.75,55.24,4.35,2.94,7,7,9.81,11.18A4.61,4.61,0,0,0,482,977.8c7.95-4.51,13.78-10.84,16.72-19.63,2.39-7.16,4.54-14.41,7.24-21.45,2.24-5.83,7.6-10,9-16.39l-1.05.47,9-9-1.28,1c4.95-.8,7.4-4.15,8.73-8.61l-.89,1.21c2.34-3.41,4.86-6.65,8.55-8.75l-.72.84c.59-1.13,1.13-2.28,1.77-3.38,1.43-2.47.75-4.41-2.13-5.84Zm37.48,447.82q-3.3-3.7,1.47-3.55c-.29.82-.57,1.65-.85,2.48l-1.61,1.83c-.13-.81-.27-1.61-.4-2.41ZM468.22,1053.39c-.12-3.24.4-3.4,1.58-.46l-2.68-.48-7.1.9-3.51-6.3c1.42-2,2.83-3.91,4.25-5.87q-3.48,1.9-2.28-1.8l2,.67c.76.76,1.51,1.54,2.3,2.27C466,1045.31,468.46,1048.69,468.22,1053.39ZM430,1014.08q2.87-3.63,1,.91l-1.35-2c-5.26-1.72-7.85-5.19-7.17-10.84-2.5-2.84-6.23-3.68-9.24-5.7q.48-4,1-8l16-2.38c8.21,1.72,8.21,1.72,7.76,10.06q4.51,1.63-.14,2.5c.37-.66.75-1.31,1.13-2-2.58-.3-4.75-1.33-5.94-3.4a61.68,61.68,0,0,1-2.86-6.49c-4.14-2.09-7.95-4.56-10.79-8.39-3.41-4.61-6.68-9.42-12.11-12l-1.2-8.89c-.26-.77-.87-1.63-.71-2.31a36.52,36.52,0,0,1,1.72-4.68c-3.17-4.4-5.62-1.53-8.13.81-8.64-.33-14.29-4.93-17.83-12.53a6.43,6.43,0,0,1-6.74.47c-3.56-1.63-4.8-.72-3.1,2.17.25.42,2.26,0,3.39-.32,2.28-.63,4.52-1.45,6.78-2.19-.93,8.56,4,13.49,10.87,16.91,2.11,1,4.64,1.25,7,1.84,1.55,4.34,4.73,6.76,9.12,7.77-1.54,5.42-.91,11-1.15,16.49l-8.08-.64c-1.74-4.85-5.21-6.49-10.13-5.57-2.16.41-4.33.71-6.49,1.06-.79-2.13-1.57-4.27-2.37-6.39a8.71,8.71,0,0,0-4.5-4.81c.05-5.71-2.84-9.36-8-11.23-1.09-.39-2.77-.56-3.62,0-2.47,1.64-2.62,4-.7,6.48,3.36,4.29,7.19,5.39,13.19,3.87a10.84,10.84,0,0,0,2.71,5.84c1.42,1.67,2.63,3.51,3.93,5.28,3.28,1.7,6.53,3.48,9.86,5.08a7.37,7.37,0,0,0,7.05-.55c-.49,4.9.17,6.48,3.55,7.81a13.55,13.55,0,0,0,3.35.39c1,3.76,2.78,6.75,7.19,7,2.63,2.13,3.6,6.66,8.32,5.79.85.65,1.69,1.31,2.56,1.94C428.82,1005.92,430.81,1009.37,430,1014.08Zm13.75-41.33c2.33-1.57,2.88-1,1.44,1.71a13.61,13.61,0,0,1-2.47-.82q4.56,1-.1,1.42C443,974.29,443.4,973.52,443.77,972.75Zm93.77,175.61q-2.58,3.69-1.09-.78l1.7,1.84a15.43,15.43,0,0,1,1.81,2.34c.14.26-.62,1.38-.74,1.35C536.76,1152.35,536.21,1150.73,537.54,1148.36Zm-25-100.06c-.84.11-2.12-.08-2.43.38a4.81,4.81,0,0,0,.56,6.29,5.43,5.43,0,0,0,6.19,1.49C518.4,1055.78,516,1051.31,512.56,1048.3ZM395,928.63c0-.84-1.06-2.45-1.7-2.47a5.92,5.92,0,0,0-5.56,3.08,2.78,2.78,0,0,0,.1,2.61,4.39,4.39,0,0,0,7.16-3.22Zm170.65,242.63a12.64,12.64,0,0,0-.08-3.08c-.12-.43-1.1-.63-1.69-.93a11.23,11.23,0,0,0-.71,2.88,13,13,0,0,0,.77,3Zm-16.35,6.39c-.64.85-1.87,1.74-1.82,2.55.26,4.08,1.52,4.31,2.86.56C550.61,1180,549.66,1178.7,549.28,1177.65Z"/><path d="M1169.77,977.34c-8.5,12.25-18.42,23.33-28.61,34.14-3.33,3.54-7.14,6.92-12.36,7.72l.7,1c-5.21-7.2-5.84-7.18-9,0l.6-1.33a20.53,20.53,0,0,1,0,9.45l-.94-.72c-.49,1.17-.68,2.68-1.53,3.47-6.53,6.12-15,9.37-22.09,14.72-6,4.54-13.13,7.71-16.23,15.5-.84,2.12-3.59,3.53-5.56,5.14a227.11,227.11,0,0,1-31.66,21.35c-10,5.63-19.95,11.34-29.5,17.65-5.45,3.61-11.39,5.57-17.37,7.69a15.09,15.09,0,0,0-6.21,4.29c-3.38,3.66-3.51,7.69,0,9,7.16,2.62,14.38,5.12,21.38,8.12a37.9,37.9,0,0,1,9.66,6,296.49,296.49,0,0,1,34.65,35.6c4.79,5.79,9.52,12,10.7,20l1-.66a15.45,15.45,0,0,0,0,9.44l-.76-1.23c1.63,4.18,4.29,7.33,8.69,8.76l-.3-.22c3,9.8,8.79,17.73,16.6,24.32,6.62,5.59,13.11,11.35,19.55,17.15.84.75,1,2.25,1.48,3.4l.91-.31c-1.7,0-1.81,5.6,0,9.57l-1-.46,9.09,15.68-.89-.81c6.4,5.15,13.23,9.8,18.63,16.1l-3,.66,2.14-.15c5.18,3.94,8.22,9.52,11.16,15.07,2.36,4.47,4.16,9.23,6.19,13.86,4.44,10.15,3.52,19.68-3.2,28.61-1.63,2.16-3.42,4.41-5.71,4.29-6.42-.33-12.47,1.91-18.75,2.15a29.28,29.28,0,0,1-14.63-3.37c-4.89-2.51-7.67-6.32-7.76-11.89a37.33,37.33,0,0,1,.35-3.79l-1,.5a9.12,9.12,0,0,1,8.27,1.62q2.07-4,1.12.57l-1.71-1.66c-3.36-2.41-5.31-5.94-7.39-9.36l.84.54a95.23,95.23,0,0,1-23.76-33c-1.93-4.47-6-7.93-6.91-13l-1,.87c1.78,0,1.89-4.39.09-9.2l.87.91c-3.14-1.82-6.27-2.67-9.31.19l.84-1c-6.85-4.33-8.18-7.54-6.05-14.65q-3-3.45,1.13-.9l-2.13,1.3c-1.26-.23-2.76-.09-3.71-.74a20.77,20.77,0,0,1-5.51-4.85c-16.58-24.21-36.22-46-54.86-68.5-6.53-7.9-13.58-15.16-22.22-20.78-3.22-2.1-5.38-5.29-7.76-8.29s-6-4.73-9.65-5.79c-6.11-1.76-12.27-3.58-18.75-2.68-15.17,2.11-30.46,2.1-45.73,2.54a65.25,65.25,0,0,0-6-2.91c-.37-.14-1.8,1-1.78,1.58.08,2.37,3.29,2.53,8.52.47-2.14,1.33-4.37,2.54-6.4,4-3.2,2.32-6.81,3.06-10.64,3.32-5.15.34-9.94-1.54-14.9-2.32-4.26-.67-7.94.26-9.48,4-2,4.94-6,8-9.13,11.91-3.51,4.38-8.16,5.4-13.53,4.49-3.73-.64-7.53-.85-11.27-1.42-1.1-.17-2.71-.65-3.06-1.44-1.25-2.8.27-4.1,3.42-5.17,6.62-2.23,6.54-2.47,4.74-5.82-6.1-.31-12.41-.8-18.72-.87a14.89,14.89,0,0,0-10.49,3.65c-4.43,4.23-8.91,3.22-13.87,1.6-2.66-.87-4.84-2-5.33-4.85-1.36-7.65-7.08-13.17-9.63-20.22l.2.28c4.8-5.27,10.7-6.5,17.17-4,7.14,2.76,14.26,5.35,22.07,4.92,10.21-.56,20.27,1.34,30.41,1.65,5.07.16,10.15-.07,15.22-.27,5.58-.22,9.32-3.23,11.73-8.12.56-1.14,1.25-2.22,1.88-3.32,4.33,2.79,8.94,5.11,14.17,5a150.86,150.86,0,0,0,15.15-1.22c1.06-.11,2.92-1.18,2.88-1.69-.22-3.09-2.23-4.08-5.18-4.56-9.15-1.52-17.58,2.35-26.42,3.06-4.89,5.37-11,4.78-17.23,3.48a4.67,4.67,0,0,1-3-2.05c-.35-.72.33-2.49,1.1-3.06a33.61,33.61,0,0,1,6.33-3.56,25.88,25.88,0,0,0,8.91-6.61l-1.18,1,22.57-1.52c13.12-4.53,26.88-6,40.42-8.58,4.86-.93,9.07-4.24,14.24-4.55,2.66-.16,5.3.13,7,2.09,1.43,1.64,1,4.21-.09,6.76-.5,1.15-1,2.3-1.43,3.49-1.52,4.22,0,7.56,3.63,8.72a32,32,0,0,0,22.12-.69c2.21-.88,4.07-2.75,5.93-4.35,2.76-2.37,2.6-7.69-.23-10s-6.06-4.45-9-6.82-5-5.59-4.71-9.58c.16-2.52,2-4.26,4.21-5.79s2.8-4,1.74-6.76l1,1c9.68-5.49,19.44-10.66,28-18.09,13.12-11.37,27.1-21.73,40.81-32.4,1.9-1.48,4.35-2.26,6.55-3.36l2.26-1.35-3.1,1c12.39-10.85,24.67-21.82,37.21-32.49a279.3,279.3,0,0,0,27.56-26.17,281.22,281.22,0,0,1,32.91-31.55,157.9,157.9,0,0,0,21.46-21.49,50.81,50.81,0,0,1,11.6-9.67,7.68,7.68,0,0,1,7.24-.6c1-.57,2.09-1.76,2.89-1.59,4.22.94,8.74-.69,12.75,1.61q-3.87-3.08,1-3c-.13.93-.26,1.87-.4,2.8l-16.84-.05c2-8.46,7.83-14.53,13.23-20.84,1.47-1.72,3.77-2.37,6.32-2.47,1-2.73,1.39-2.64,1.24.25l-2.11-1.28,4.74-19.92-1.14-.8c5.13,5.63,8.24,12.44,11.1,19.35a17.48,17.48,0,0,1,1.36,7.3c-.42,8.7-.77,17.44-1.93,26.05a112.44,112.44,0,0,1-9.35,32.15,57,57,0,0,1-10.56,15.32c-2.75,2.89-5.85,4.32-9.67,2.45a8,8,0,0,0-7.13,0c-2.81,1.16-4.08,2.83-3.46,5.86Zm-140.91,237.17c.38-3.25.91-3.29,1.59-.1l-2.55-.92-1.36-2.06c.78-.38,1.65-1.17,2.31-1a2.51,2.51,0,0,1,1.57,1.91C1030.38,1213.07,1029.42,1213.78,1028.86,1214.51Zm-15.22-61.39q.71-5,1.64,0l-2.55-1c-.49-.71-1-1.41-1.49-2.12.8-.4,1.72-1.25,2.37-1.08a2.68,2.68,0,0,1,1.69,2C1015.27,1151.64,1014.24,1152.37,1013.64,1153.12ZM1175.11,941.6l3.72-4.69-1.67,0a5.92,5.92,0,0,1-2.33,5.44c.52,2.4,0,2.63-1.54.66Z"/><path d="M1252.63,490.36c1.92,1.39,4.16,2.49,5.69,4.22,3.15,3.56,5.91,7.46,8.82,11.22l-.79-.86,8.58,8.6-.93-1,8.62,8.64-1-.81c3.08,2.05,6.15,2.34,9.2-.08l-.79,1a12.9,12.9,0,0,1,7,2.71,203.17,203.17,0,0,1,32.37,32.45,66,66,0,0,1,14.21,30.94c1.66,10.06,1.44,20.41,4.55,30.23,2.74,8.68.49,17.85,2.75,26.56,1.31,5,1.09,10.13.43,15.2-.84,6.41-.12,12.7.66,19.06s2,12.83,1.21,19c-2,16.58,0,33.1-.36,49.63a5.92,5.92,0,0,1-1.4,3.51,4.67,4.67,0,0,1-3,1.17c-1.09.07-2.81-.08-3.22-.76-2.67-4.35-5.52-8.68-7.42-13.37a132.26,132.26,0,0,0-19.53-32.76c-6.4-8-11.31-17-16.45-25.79-3.85-6.61-7.92-13.09-11.7-19.74-2.68-4.71-6.83-7.33-11.63-9.3a26.19,26.19,0,0,1-3.33-2c1.82-4.48,4.92-8.29,2.88-14-5.13-14.53-11.45-28.36-20.36-41-42.44-60.16-34.27-52.4-92.07-89.4-7.52-4.81-15.27-9.26-22.91-13.88-5.46-3.29-11-6.48-16.38-9.9-32.79-20.79-60-47.5-82.29-79.12-13.25-18.75-26-37.87-38.92-56.86-3.63-5.33-5.63-11.37-7.58-17.47-2.31-7.2-6.74-9-14.87-5.78-4,1.61-7.36,1.24-10.3-1.53-1.81-1.72-3-4.06-4.54-6.11l-1,1c2.79-3.22,5.22-6.81,9-9l-.78,1c5.57-.38,8.24-3.25,8.92-8.92.8-6.81,2.4-7.85,5.87-5.18,2.86,2.21,5.81,4.3,8.53,6.66s5.23,5,7.83,7.52l-.73-.75c1.5,4.64,3.25,9.23,4.41,14,.55,2.26,0,4.8-.06,7.21,1.18.43,2.79.5,3.47,1.33,3.17,3.94,5.38,8.29,4,13.63a6.4,6.4,0,0,1,5.42,3.12,23.18,23.18,0,0,1,3.88,9c4,2.58,8.12,4.66,13.1,3.85-.08,3.73-.3,7.46-.19,11.18.07,2.56,1.69,4.43,4.2,5.63,2.66,4.62,6.94,6.06,11.93,6.09l.05,2.5-1.12-1.92c-4-1.76-7.42-4.93-11.94-5.68.94-6.2-1.64-11.56-4-17-3.8-3.43-8-5.54-13.23-3.73-1.43-3.69-.48-8.72-5.93-10.19-.87-.23-1.41-1.66-2.11-2.54.41-3.42.83-6.85,1.24-10.27l-8.75-5c1.52-7.08,1.74-14.42,4.19-21.32l-.64.66c2.73-.33,5.21.13,7,1.86,2.72,2.64,5.65,5.22,7.73,8.32,9.17,13.67,18.81,27.06,25.63,42.17,1.54,3.42,4,6.41,6.11,9.6l-.78-1c2.13,3.65,4.27,7.29,8.72,8.6l-1-1.18c.92,3.66,1.77,7.34,2.78,11,.7,2.52,2.62,4,5.41,4.55a12.5,12.5,0,0,0,1.23,3.3c.33.46,1.53.3,2.33.42q.25-3.35-4.52-2.76.76-8.21,1.51-16.42l-.58,1.25c0-3.09,0-6.17,0-9.26l.78,1.09c-1.12-8.76-.51-17.83-4.86-26-2.69-11.05-5.41-22.1-7-33.38a9.84,9.84,0,0,1,.51-3.69c.78-2.88,2.63-4.37,5.36-4.38,1.15,0,2.58-.18,3.41.4,3.19,2.23,5.17,5.52,6.64,9,2.44,5.89,1.6,12.59,4.47,18.39,2.27,4.59,3.3,9.52,4.4,14.49,1.64,7.41,3.82,14.71,5.86,22a46.42,46.42,0,0,0,6.19,13.8c2.12,3.14,3.87,6.53,5.7,9.86a83.58,83.58,0,0,0,16.23,21c4.62,4.33,9.28,8.62,14.14,12.68,6.81,5.69,13.87,11.08,20.73,16.71a230.94,230.94,0,0,0,58.38,35.22c8.18,3.39,15.64,8.5,24.43,10.4,5.15,1.11,8.82,4.86,13.23,7.29a11.26,11.26,0,0,0-10.78,4.75,24.73,24.73,0,0,1,2.3,2.74c2.3,3.74,2.09,5-1.32,9.45.12-3.31.67-3.45,1.65-.4l-2.73-.55.13-12.37C1246.84,495.15,1249.87,493.07,1252.63,490.36Zm-163.77-58.42c-1.48-4.75-5.17-7.7-8.72-10.78-.67-1-1.35-1.93-2-2.92a6.19,6.19,0,0,1-.19-6.76c-1,.34-2,.67-3.06,1-4.51,1.53-8.24.95-10.39-3.86q-.42-5,1.73-1.44l-2.6.36,15.37,4.12c1,.68,2.27,1.16,2.8,2.09a5.8,5.8,0,0,1-.65,6.69c4.1,2.45,6.38,6.26,8,10.6,2.47,2.44,5.51,4.47,6,8.33,3.81,1.06,6.66,3.72,9.8,5.91,6.37,7.23,14.1,12.93,21.65,18.81,2.86,2.23,6.51,2.83,10.2,2.56a8.83,8.83,0,0,0,3.26,6.18c8.71,6.72,18.38,11.81,28.23,16.61,6.56,3.19,12.77,6.88,17.53,12.58,3.42.48,6.88.79,10.26,1.47s6.84,1.11,10.28.13a10,10,0,0,0,1.33,6.47c1.11,2,2,4,3,6.07,2.14-.06,4.4-.6,6.39-.09,4.35,1.11,8.57.74,12.85-.07,2.76,4.69,5.57,9.36,6.27,14.91q.72-4.81,1.53,0l-2.46-1c-3.84-3.69-5.9-8-4.91-13.48-4.52.25-9-.17-13.53,1.23-1.88.58-4.29-.56-6.45-.92a51.54,51.54,0,0,0-.06-7.25c-.36-2.48-2.31-4.05-5-4.84-1.87-2.81-4-5.42-7.63-5.75-3.32-.3-6.66-.33-9.54,1.88-.88.68-1.87,1.23-2.81,1.84a18.08,18.08,0,0,0,1.19-3.6c.39-3.62,1.27-7-3-9.73-12.84-8.12-26.93-13.77-40.19-21-2-1.09-4.91-.5-7.39-.69.06-2.56-.39-5-2.11-6.41-6.48-5.23-13-10.48-19.79-15.22-3-2.09-6.76-1.26-10,.51.62-2.91-.08-5.05-2.25-6.15a8.38,8.38,0,0,0-3.41-.95,17.53,17.53,0,0,0-3.67.59c2.63-7,2.63-7,.17-14l2.36,1.61-1.42-1.27Z"/><path d="M315,608.21a10.65,10.65,0,0,0-4.71-5.78c-3.21-1.7-6.3-4.59-10.31-1.4-6,4.76-12,9.52-18.19,14-2.23,1.61-4.86,1.13-7.21.3a6.14,6.14,0,0,1-4.51-5.61c-.13-1.26-.54-2.49-.62-3.74-.18-2.55-.31-5.11-.31-7.66,0-16.61-.34-33.24.25-49.83a682.18,682.18,0,0,0-1-72.78A225.39,225.39,0,0,1,270.82,426c2.09-13.88,4.63-27.69,6.46-41.63.83-6.25,3.41-12.26,4.71-18.48a7.16,7.16,0,0,0-2.62-6.72c-4-3.14-8.62-5.52-12.49-8.8-5.23-4.43-6.83-10.6-6.11-17.26a23.24,23.24,0,0,1,2.06-7.34c6.08-12.95,14.59-24,26.59-32a21.21,21.21,0,0,1,6.8-3.37c9.93-2.22,19.68-5.25,30-5.57a102.13,102.13,0,0,0,30.12-5.19c16.22-5.58,32.72-4.71,49.29-2.87a19.48,19.48,0,0,1,7.12,2.49c3.32,1.88,6.35,4.26,9.53,6.39a7,7,0,0,0,7.06.77c3.51-1.5,7-3.28,10.62-4.3,8.83-2.47,17.64-2.52,26.21,1.33,3.47,1.56,6.86,3.71,10.51,4.39,11.51,2.17,21.69,7.54,32,12.59a87,87,0,0,1,21.8,15.48c2.77,2.66,5.13,5.78,8.11,8.15,12.15,9.68,21.52,21.5,29.4,34.88,10.4,17.64,23.8,33.17,36.51,49.16,2.44,3.07,3.21,6.89,3.36,10.77,0,1.26-.15,2.52-.21,3.78-.2,4.23-3.24,7.93-7.24,6-8.1-3.94-16.24-7.23-25.45-7.61-10.2-.43-20.39-1.32-30.57-2.19-5.18-.44-9.84-2.53-14.22-5.3a81.34,81.34,0,0,1-24.51-23.87c-4.25-6.38-8.74-12.62-12.61-19.22-6.52-11.12-15.84-20-23.47-30.24-1.48-2-3.73-3.43-5.66-5.08a108.5,108.5,0,0,0-29.21-18.1c-14.67-6-29.76-7.17-44.93-2.06a206.51,206.51,0,0,0-21.32,8.55c-6.93,3.24-13.28,7.83-20.37,10.58s-14.74,4.09-21.8,7.12c-3.5,1.5-7,3-10.5,4.47a7.43,7.43,0,0,0-4.48,5.89c-.45,2.49-1.29,4.93-1.6,7.43a602.08,602.08,0,0,0-2.17,122.42,92.82,92.82,0,0,1,.37,15.27c-1.73,20.43-.55,40.86-.52,61.29a127.1,127.1,0,0,0,3.7,30.36c1.53,6.15,1.93,12.59,2.84,18.9Z"/><path d="M157,1405.06c0-6-.19-14.92.07-23.86a120.2,120.2,0,0,1,1.58-19.08,167.37,167.37,0,0,0,2.36-42,388.06,388.06,0,0,1-.13-46c.49-8.92.15-17.89.23-26.84.13-14.07-.06-28.15.53-42.2,1.67-39.62,1.52-79.28,2.23-118.91.21-11.51.07-23-.26-34.53-.76-26.84-1.45-53.69-2.71-80.51-1.07-23-.44-46,.55-69,.61-14.07.78-28.08-.66-42.14-.91-8.88-.88-17.87-1-26.81-.11-7.67,0-15.35.28-23,1.43-44.77,0-89.51-.87-134.26-.44-23-1-46-2.06-69-1.16-24.25-.66-48.58-.65-72.88a140.61,140.61,0,0,1,1.39-19.11,169.39,169.39,0,0,0,.3-42.09A261.84,261.84,0,0,1,157,426.81c.88-14-.29-28.09-.58-42.15-.2-10.22-1.06-20.48-.52-30.66.95-17.92.26-35.79.06-53.69-.23-20.45-1.21-40.92.38-61.37.1-1.27.19-2.55.36-3.82.57-4.13,2.75-4.91,3.43-1.71,1.33,6.29,2.59,12.48,5.76,18.15a31.61,31.61,0,0,1,3.82,14.67q.44,13.41.94,26.82a99.9,99.9,0,0,1-3.11,30.41c-1,3.7-1.89,7.45-3.1,11.08-3.4,10.1-2.67,20.08.17,30.17,2.42,8.62,4.51,17.33,6.6,26a74.13,74.13,0,0,1,2,11.31c1.83,22.93,4.39,45.84,2.25,68.92a309.67,309.67,0,0,0-.63,38.3c.58,17.88.26,35.81-.17,53.71-1.13,47.31-2,94.62-.36,141.94.09,2.55.2,5.11.12,7.67-1.76,53.7,1.61,107.41-.36,161.11a92.08,92.08,0,0,0,.05,11.51c2.13,24.29.81,48.57-.08,72.84-.61,16.62-.55,33.24-.4,49.87.65,70.34,1,140.68-2.4,211-1.22,25.54-2.48,51.11-.61,76.69-.42,43.47,1.39,87-1.51,130.41-.85,12.75-1.1,25.59.58,38.31a12.85,12.85,0,0,0,6,9.24,42.69,42.69,0,0,0,21.48,7.29c3.83.21,7.7,0,11.5.37s7.83.69,11.18,2.27c8.37,4,17,5.11,26.09,4.43,5.09-.38,10.2-.39,15.31-.47,4.25-.07,11.28,3.15,10.14,4.26-2.86,2.78-6.75,3-10.46,3.43a49,49,0,0,1-7.65.44c-19.15-.78-38.31-1.56-57.46-2.59a18.5,18.5,0,0,1-10.7-3.7,89.26,89.26,0,0,0-9.5-6.47c-4.69-2.77-9.47-2.52-14.59-.63-8,3-8.18,2.71-7.66-1.45.48-3.79,1.48-7.56,1.55-11.36.22-10.22-.17-20.46.12-30.68S156.24,1418.26,157,1405.06Z"/><path d="M799.53,321.09c2.52,5.87,4.53,12,7.65,17.53a126,126,0,0,1,15.21,43.12c.78,5,2,10,3.21,15a77.17,77.17,0,0,1,2.53,22.79c-.23,5.1-.56,10.23-.33,15.33.78,16.63.93,33.27-.66,49.84-1.47,15.26-3.56,30.47-5.66,45.66a156.58,156.58,0,0,1-3.81,18.78c-3.95,14.81-8.21,29.55-12.38,44.31-1.41,5-4.19,9.27-7,13.58-2.1,3.26-5.94,3.58-9.4.74-2-1.66-3.82-3.61-4.32-6.19-.72-3.72-1-7.53-1.43-11.3l-.34.21a27.07,27.07,0,0,0,2.62-2.26c3.43-3.73,2.84-5.13-2.85-7l-1.26.74c1.87-5,.82-10.06.73-15.12-.13-7.66-.18-15.32-.38-23-.22-8.23-1.24-10.82-3.55-9.5-2,1.14-3.08,3.13-4.18,5.71a25.87,25.87,0,0,1-4.17,6.29,4.5,4.5,0,0,1-3.33,1.38c-1.1-.1-3-1.14-3-1.9-1.7-20.38-1.8-40.82-1.45-61.25.37-21.72,1-43.43-1-65.1-.6-6.43.71-12.72,1.42-19.05a43.93,43.93,0,0,0-4.9-25.91c-4.73-9-9-18.3-13.68-27.39-4.19-8.25-10.79-14.22-18.92-18.33-9.13-4.62-18.49-8.63-29-9.25-11.53-.69-22.61-4-33.89-6.17-2.52-.48-4.2-2.46-5.31-4.57a11,11,0,0,1,6.65-3.33,16.29,16.29,0,0,1,3.8-.26,38.39,38.39,0,0,1,7.5,1.34c18.08,5.93,18.07,6,33.49,5.19a4.43,4.43,0,0,0,3.11-1.48c1.51-2.29.42-4.13-2.7-5.2-1.21-.42-2.94-.54-3.5-1.39-1.63-2.51-.22-3.53,3.6-3.4,6.4.21,12.83.19,18.38,4A14.59,14.59,0,0,0,737.85,307c7.65-1.21,15.11-1.31,22.68,1.08,9.76,3.09,19.84,4.66,30.16,3.55L790,312.8a13.07,13.07,0,0,0,8.86,8.8Zm-22.4,19.66c2.86,1.27,3.34,3.24,1.06,5.51-.49.49-2.69.31-2.93-.16-1.34-2.59-.17-4.25,3-4.72-4.29-.9-5.2-5-7.4-7.84-2-2.6-3.95-3-5.71-1.33.85.91,1.69,1.84,2.56,2.73a13.7,13.7,0,0,0,2.68,2.6C772.58,338.76,774.88,339.69,777.13,340.75Zm27.32,147.06h-.34c0-7.61,0-15.22,0-22.83.07-10.15.2-20.3.29-30.45.07-7.65-.69-15-3.89-22.26-2-4.53-2.22-9.84-3.46-14.75-.28-1.09-1.34-2.6-2.27-2.79-1.43-.29-2.47,1.84-2.54,5-.25,11.41-.81,22.84,2.51,34,2.19,7.35,2.61,15,3.13,22.58,1.46,21.59,1,43.12-2.45,64.52-1.81,11.29-3.46,22.58-2,34,.42,3.29,2.74,4.2,5.29,3,2.23-1,4.24-2.77,4.6-5.47a144.94,144.94,0,0,0,1.73-18.9C805.13,518.26,804.69,503,804.45,487.81ZM747,316.83l1.84,1.27.31-1.88Z"/><path d="M263.17,1369.42c-.65-1-2-2.08-1.81-2.93.59-3.46,1.72-6.83,2.49-10.28,2.51-11.29,4.55-16.76,8.74-21.48.68-.78,2.16-.86,3.26-1.26q2.53-3.54,1.73.72l-1-1.8c-3,1-5.14.52-6.31-1.54a7.89,7.89,0,0,1-1.34-3.5c0-3.8.22-7.61.53-11.4s1.56-7.64,1.15-11.32c-1-8.94-.45-17.81,0-26.71.89-19.06,2.27-38.12-.64-57.17-.76-5-.48-10.17-.5-15.26-.12-30.57-.08-61.13-.33-91.7-.11-12.69-1.44-25.33-1.25-38.07.17-11.43-.84-22.89-1.47-34.33-.71-12.75-.83-25.47,1.92-38A23.41,23.41,0,0,1,278.66,988a3.09,3.09,0,0,1,2.87,0,4.69,4.69,0,0,1,1.75,3.08c.15,6.48-3.5,12.13-4.13,18.52-.5,5-1.86,10-2.58,15-.58,4,.83,8,4.18,9.84,6.06,3.27,9.34,8,11.5,14.34,2.87,8.4,5.91,16.74,12.2,23.53,2.52,2.72,3.59,6.73,5.7,9.9,5.93,8.89,7.64,18.66,6.93,29.14-.23,3.4,1.63,4,4.53,3.27,4.78-1.29,6,.13,6.16,5.28.18,6.65-.7,12.67-7.37,16.16a17.5,17.5,0,0,0-3,2.26c-2.15,1.81-3.34,4.22-2.36,6.64s3.52,2.46,6.35,2.45c4.69,0,6.45,3.48,4.53,7.81-1,2.31-3.32,4.51-3.32,6.76,0,16.52-1.87,33-1.77,49.45a245.6,245.6,0,0,1-4.72,49.31,94.81,94.81,0,0,0-1.49,26.55c-1.95,3.13-4.06,6.12-7.32,8.06a7.63,7.63,0,0,1-8.58.1l-2-1.17,1.58-1.92,1.47,1.91c.58,3.28,1.15,6.55,1.73,9.82l-1.95,1.63-.88-1.8,1.87.94,3.22-1.83,3.14,2c1.79,4.16.82,7.3-3.39,9.27.49,1,1.39,2.06,1.36,3.08a29.52,29.52,0,0,1-1.05,5.26c1.8-2.88-1.63-5.79.05-8.67,2.44.25,4.88.55,7.32.74.73.06-2.94-6-5.34-8.55l.24-12c1.37-3.91,5.42-5,8-7.59,2,4.66,4.69,9,5,14.3a114.12,114.12,0,0,0,.86,11.41,173.14,173.14,0,0,0,3.6,18.69c1.32,4.86,4.14,9.32,5.35,14.18a10.75,10.75,0,0,1-3.25,10.46c-3.79,3.22-7.64,6.84-12.86,7.9a50.75,50.75,0,0,0-23.48,12c-3.82,3.34-8,6.31-12,9.39-4.9,3.74-8.51,2.11-10.53-4.69-1.07-3.6-2.57-7.08-3.88-10.61,3.62.37,7.25.78,10.88,1.08s5.49-1.14,7.88-5.68c1.77-2,2.7-1.87,2.78.34l-1.79-1.1c-4.23,1.85-8.37,4-12.74,5.4C267.9,1370.26,265.43,1369.53,263.17,1369.42Zm45.19-16.52c-2.05-2.46-1.51-3.65,1.62-3.59l-.36,2.64c-3.09.83-3.66.34-1.7-1.45C308.07,1351.3,308.21,1352.1,308.36,1352.9ZM294.7,1252.65l-2.06,14.85a14,14,0,0,0-3.32,1.82c-.6.57-.59,1.78-.86,2.7,2.07-.54,3.24-2.34,3.53-5.4.37-3.56.63-7.15,1.2-10.69.17-1.08,1.22-2,1.87-3a19.87,19.87,0,0,1-7.65-7c1.38-1.88,3.34-2.78,5.26-3.85,3.23-1.81,3.11-2,4.09-8.14l13.12-5.44q-2.29-4,2-2.25l-1.17,2.46a37.28,37.28,0,0,0-12.87,6,5.2,5.2,0,0,1-6.78-.36c-.14-2.15-.34-4.3-.41-6.46a25.39,25.39,0,0,0-3.48-12.29c5.4,2.66,9.9,2,13.06-3.56a11.55,11.55,0,0,0,2.47-2c.26-.35-.34-1.33-.54-2q-2.81,1.08-.94,5a11.48,11.48,0,0,0-6.94.77c-2.19.88-4.53,1.41-6.81,2.1-.33,2.2-.58,4.42-1,6.6-1,5.22,1.6,8.37,5.84,10.68.73,5.37,0,10.2-5.12,13.31C290,1248.13,292.88,1249.74,294.7,1252.65Zm3.05-78.55c.12-1.07.65-2.31.29-3.18-1.29-3.12-3-3.16-4.48-.14a4.58,4.58,0,0,0,0,3.16,9.83,9.83,0,0,0,2,2.49Z"/><path d="M1239.42,364.46c-3.8.05-7.6.17-11.4.14-3.46,0-7.06-3.47-7.85-6.92a62.81,62.81,0,0,1,.69-30.19c.67-2.61,1.64-4.94,4-6.29,5.46-3.15,11-6.22,16.54-9.16,4-2.13,4.84-1.83,8.62,3.34,1.5,2.06,2.93,4.16,5.36,5.06,7.14,2.63,14.29,5.24,21.54,7.56,6.13,2,11.38,5.57,17,8.5a15.39,15.39,0,0,1,5.91,4.62,153.63,153.63,0,0,0,19.52,23.33c9.35,8.95,15,20.4,19.55,32.35a35.48,35.48,0,0,1,1.75,7.37,62.28,62.28,0,0,1,.61,7.6c.68,20.32,1.52,40.64,3,60.92.37,5-.27,10.14-.53,15.21-.19,3.72-3.48,7.7-6.59,8.14-3.89.55-7.48-.09-10.45-2.85a113.5,113.5,0,0,1-8.21-7.9,109.39,109.39,0,0,1-9.49-11.91,169.84,169.84,0,0,0-24.56-29c-12-11.48-22-24.56-32.45-37.33-7.3-8.94-11-19.95-16.77-29.78-2.22-3.78-.56-8.22,4.37-13-.19-5.21,1.18-9.65,5.57-13,5-3.86,10.25-7,16.83-7.26,2.49-.08,5-.5,7.45-.74a7.38,7.38,0,0,0,6-3.91,22.09,22.09,0,0,0-3.13-1.92,25.57,25.57,0,0,0-11-1.61,22.08,22.08,0,0,0-16.4,7.67c-3.48,4-5.33,8.16-4.83,13.5C1240.24,359.46,1239.64,362,1239.42,364.46Zm38.15,24c1.23.06,2.47,0,3.68.2,3,.44,5.84-.66,5.33-2.6-.57-2.14-3.58-2.85-6.23-2.9-1.22,0-2.45,0-3.67-.11-3-.2-5.84,1-5.35,2.77C1271.91,388,1274.88,388.59,1277.57,388.45Z"/><path d="M1430.4,516.83c-.89-30.65-.93-61.31-.35-92,.17-8.94,0-17.89-.29-26.82-.86-29.36-2.09-58.7-2.63-88.06-.33-17.86.48-35.73.55-53.6.07-19.14,2-38.27.3-57.43-.39-4.55-5.2-9.45-9.94-9.93-2.53-.26-5-.88-7.58-.93-7.66-.15-15.32-.15-23-.13-8.93,0-17.88.37-26.81.09-3.34-.1-4.6-2.18-3.3-3.8a5.23,5.23,0,0,1,3.17-1.81,81.25,81.25,0,0,1,11.44-.78c14,.29,28.09.76,42.14,1.23,2.55.08,5.09.46,7.63.67,6.33.5,12.54,5.85,13.45,11.63.6,3.78,1.49,7.53,1.71,11.33q1,17.21,1.6,34.45c.4,11.49.74,23,.83,34.48.08,10.16,2,20.32.16,30.49,3.3,25.41,1.42,51,2.67,76.51s1,51.08,1.33,76.63q.4,36.41.48,72.82c0,25.55-.23,51.1-.38,76.65-.27,44.72-.36,89.43-.9,134.14-.36,30.63-1.33,61.26-2.15,91.88,0,1.11-1.24,2.19-1.91,3.28-.7-1.05-1.76-2-2.06-3.16-1.61-6.23-1.63-12.66-1.25-19,1.42-24.27.43-48.53.12-72.8-.67-53.65-1.09-107.3-3.5-160.92C1431,560.28,1430.89,538.55,1430.4,516.83Z"/><path d="M792.63,1209a18.74,18.74,0,0,1-1.16-11.17c.64-2.66,2.23-5.2,4.42-5.59a184.63,184.63,0,0,1,22.67-3c3.64-.19,7.48,1.31,11.06,2.53a10.92,10.92,0,0,1,7,8.35c.8,3.67.59,7.59.52,11.39-.1,5.39-2.23,10.07-6.75,13-5,3.24-5.89,7.94-5.87,13.16a46.24,46.24,0,0,0,.54,7.63,220.52,220.52,0,0,1,3.65,41.57c0,6.37-.15,12.8.64,19.09,1.29,10.25.41,20.38-.59,30.53-.49,5-.19,10.54-3.67,14.48a63.67,63.67,0,0,1-11.63,9.66,12.91,12.91,0,0,1-7.13,2.22c-12.73-.26-25.46-.79-38.17-1.45-2.82-.15-4.62-2.07-5.52-4.44a36,36,0,0,1-2-18.79c.62-3.83,2.07-7.52,5.7-9.34,4.92-2.47,8.09-6.07,8.67-11.53,1.35-12.67,3.13-25.3,2.91-38.11a39.83,39.83,0,0,1,1.61-11.3,19,19,0,0,0-.21-11.15c-2.76-8.87-2-17.63.59-26.36.72-2.44,1.65-4.83,2.29-7.3A25.38,25.38,0,0,1,793.17,1208c-.47,4.82.05,9.6.39,14.41.24,3.49.76,5,2.8,3.66.65-.42.4-2.26.5-3.46C797.29,1217.5,793.63,1213.67,792.63,1209Zm4.12,144.17q.45-4.5,1.56-.7l-2.73-.28c.69-17.36,1.41-34.71,2-52.08.1-3-1.06-5.1-2.69-5-.75,0-1.84,1.77-2,2.85-1.89,12.35-1.48,24.77-.57,37.17A63.83,63.83,0,0,0,796.75,1353.18ZM812,1275.12h.4c.29-7.57.75-15.14.83-22.72.09-8.83-.09-17.67-.31-26.5a6.57,6.57,0,0,0-1.61-3.24,12.77,12.77,0,0,0-2.28-2c-.81,1-2,1.82-2.36,2.94-2.13,6.1-.86,12.43-1,18.66a700,700,0,0,0,3.16,83.18c.08.81,1.05,1.54,1.6,2.3.52-1.14,1.48-2.28,1.49-3.43C812,1307.94,812,1291.53,812,1275.12Z"/><path d="M1335.4,1227.51c.69,4.68,1.42,9.34,2.06,14,.48,3.51.83,7,1.24,10.56a12,12,0,0,1-10.37-5.18q1.32,4.75-1.5,1l2.83-.19a18.85,18.85,0,0,1-5.05,14.58q4.34,1.5,1,1.77l-.09-2.64c3.38-.65,6.4-2,8-5.24a10.32,10.32,0,0,1,4.35-4.89c5.32,2.66,6.74,7.52,6.11,12.73-.45,3.71-2.16,7.31-3.63,10.84a11.44,11.44,0,0,0,.78,10.88c1.31,2.19,2.92,4.19,4.39,6.28l.37-.81c-2.55,8.39-5.36,16.73-7.54,25.22-.91,3.53-.9,8.29,2.6,10.12,4.95,2.58,7.53,5.6,7.55,11.28,0,8.79.59,17.58.87,26.37a6.63,6.63,0,0,1-6.77,7.13c-10.16.06-20.06,1.31-29.51,5.27a21.39,21.39,0,0,1-3.63,1c-5.11,1.09-10,.69-14.23-2.68a12.21,12.21,0,0,1-4.63-9.73l-1,.75c4.13-2.09,6.74-5.18,7.1-10a42.21,42.21,0,0,1,1.43-6.36l-.91.94a11.39,11.39,0,0,1,7.46-.55c3.57,8.24,3.73,8.31,5.1,6a3.46,3.46,0,0,0,.07-3.1c-1.44-1.91-3.72-2.4-6.26-1.9,3.19-14.24,1.71-28.18-2.62-41.94a38.87,38.87,0,0,1,13.33,2.31c.07,2.45.1,4.89.25,7.33a10.2,10.2,0,0,0,.63,3.55c.31.66,1.82,1.52,2,1.35,1.83-1.43,2.1-3.62,1.18-6.31a7.31,7.31,0,0,0-5-4.93c-2.32-3-2.33-2.87-9.06-1.8-.86.14-2-1.14-2.94-1.77l-1.23,2.74-3-.47.86.34c-.46-3.7-1.75-7.52-1.2-11.06a128.07,128.07,0,0,0,2-22.23c-.1-6.14,1.77-12.29,1.93-18.45.13-5-1.1-9.91-1.52-14.89a64.34,64.34,0,0,1,1.84-22.27c3.51-13,.28-24.73-7.09-35.44a19,19,0,0,1-3.56-14l-.94.74h8.59l-.95-.93q4.33,4.32,8.65,8.65l-.93-1c2.06,3.75,4.55,7.07,8.74,8.7l-1.17-1.16a20.38,20.38,0,0,0,8.79,8.81l-1.06-1c.53,2.07,1.18,4.12,1.58,6.22a15.93,15.93,0,0,0,7,10.31l-1-1.13c.85,3.12,1.58,6.28,2.58,9.35a12.71,12.71,0,0,0,6,7.2ZM1328.73,1357c2.45-.38,4.59-1.5,5.61-3.73,1.22-2.66.12-4.71-2.74-5.19-.6-.1-1.95,1.46-2.17,2.43a54,54,0,0,0-.76,6.88l-1.21,1.61Z"/><path d="M1006.86,789a25.54,25.54,0,0,1,12,14,437.27,437.27,0,0,0,21.56,48.61,37.41,37.41,0,0,1,3.85,18.45c-.24,8.88-.71,17.75-1.08,26.62-.15,3.65-3.34,6.73-7.16,7.18-6.22.72-12.64-.27-18.61,2.56-2.79,1.33-3.81,3.21-2.29,6.12a6.46,6.46,0,0,0,2.78,2.36,9.89,9.89,0,0,0,3.51.94c5,.5,10.06.87,15.08,1.34,4.28.4,6.71,6.89,4,11.78-3,5.51-6.91,10.47-7.15,17.23-.13,3.84-2.4,7.22-4.61,10.29-3,4.09-6.26,7.92-9.41,11.86,1.09-6.14.4-12.26-.23-18.37-.08-.79-1-1.49-1.55-2.23-.75.76-2.05,1.45-2.16,2.28-.81,6.42,1.88,12,4.61,17.53-3,2.31-6,4.72-9.08,6.89a11,11,0,0,0-4.55,5.91,11.74,11.74,0,0,1-1.49,3.5c-6.79,9.22-14.09,17.94-23.72,24.43a18.83,18.83,0,0,1-14.36,3.31l1,1c-.1-1.28-.19-2.55-.29-3.83A22.51,22.51,0,0,1,974,991.29c5.25-5.56,11.24-10.43,17-15.52,10-8.89,16.26-19.51,16.38-33.31,0-6.38.88-12.76,1.12-19.15a57.86,57.86,0,0,0-.32-11.48c-1.85-11.34-3.38-22.74-7.73-33.56-3.81-9.48-6.82-19.27-10.61-28.76A83.54,83.54,0,0,0,982.68,836c-4.78-7.57-10.67-14.25-16.56-21-6.67-7.68-15.06-13.72-20.69-22.29-.64-1-.48-2.48-.69-3.74l-.76.85,16.43.14-1.5-1.23c.4,1.17.49,2.6,1.24,3.46q14.46,16.65,29.12,33.13a9.13,9.13,0,0,0,3,2.16,17.6,17.6,0,0,0,10.71,1c3.28-.63,4.4-3,3.23-9-.47-2.4-1-4.7-.24-7.19l-.17.46c-.82-.82-2.07-1.51-2.4-2.5-.89-2.74.16-4.86,2.6-6.19l.83,1c0-5.68-1.63-11.45,1-17Zm2.8,65.62a15.8,15.8,0,0,1,7-7.27,12.69,12.69,0,0,0,5.9-8c-1.26,3.57-2.49,7.09-1.72,11,1,5,1.49,10,.49,15.07-2.17.74-4.36,1.4-6.48,2.25a7.57,7.57,0,0,0-2.76,1.88c-.24.28.27,1.73.8,2.08a3.94,3.94,0,0,0,5.68-.9,9.21,9.21,0,0,0,1.6-6.55c6.73,5.07,7.28,6.63,5,14.12-.28,1.16-.2,2.67-.92,3.41-2.39,2.48-5.28,4.49-7.56,7-2,2.26-1.36,4.77,1.48,6a9.64,9.64,0,0,0,9.86-1.12c2.53-1.87,2.51-4-.25-9.64-1-2.14-2.25-4.21-3.38-6.32a35.17,35.17,0,0,0,3.66-.82c3.44-1.11,7.54-1.63,7.85-6.39.17-2.43.32-5.16-.6-7.3-3.44-8-7.28-15.84-13.28-22.37a20,20,0,0,0-2.29-2.64c-3.8-3.11-5.18-3.2-9.4-1.92-2.56.77-3.67,2.22-4.14,5-.87,5.05,1.35,9,4,12.82l-2.5-.48Z"/><path d="M303.41,839.64c-.32-3,1.12-4.65,3.81-5.95s4.71-1.24,7.08.61a20.52,20.52,0,0,1,6.95,8.78l1.22-.4c-6.8-.86-13,1.37-19,4-.5,6.76-4.28,11.39-9.69,15a8.58,8.58,0,0,1-7,1.21c-.51,3.5-1.1,7-1.51,10.51-.37,3.17,3.17,7.47,6.09,7.23,3.48-.3,6.93-1,10.39-1.52.42,3.17-.08,3.6-1.52,1.3h2.39a101.94,101.94,0,0,1-7.31-7.55,65.09,65.09,0,0,0-9.56-10.34,47.56,47.56,0,0,1,11.3.31c5.37.69,9-3.88,8.15-9.51A53.57,53.57,0,0,0,303,846c1.71,1.78,3.38,3.6,5.15,5.33a16.52,16.52,0,0,0,2.93,2.27c3.24,1.92,6.79,3.25,10.53,2.91s6.83-2.52,9.15-5.57l-.4,1.19c9.47,4.27,15.23,12.1,19.6,21,.95,2,.25,4.72.31,7.11-5.4,7.64-3.93,16.52-4.26,25-.16,4-2.14,6.89-4,10l.87-.83c-9.34-4.08-19.67-4.72-29.14-8.55-8.23-3.32-16.86-5.63-25.3-8.4-4.5-1.48-10.14,1.39-12,6.41-2.18,6-4.2,12-8.47,16.89a5.32,5.32,0,0,1-3.49,1.35,3.63,3.63,0,0,1-2.43-1.51,8.2,8.2,0,0,1-1.59-3.39c-1.11-6.37-1.12-13,1.51-18.76,4.88-10.74,7.3-21.44,4.52-33.21-.85-3.63.9-7.59,3.23-10.65,4.62-6,9.53-11.87,14.33-17.78,3-3.68,5.74-4.4,9.93-2.71,3.54,1.43,7.08,2.79,9.87,5.53l-9.16-3.22Zm31.76,34.71-.7-3.2c-.82.28-2.32.55-2.33.86a11.59,11.59,0,0,0,.75,3.25Z"/><path d="M1001.48,179c52.39-2.06,97-2.55,141.75-1.62,33.19.69,66.4.11,99.6.14,10.2,0,20.42-.29,31.65.9-8.07,2.1-15.25,1.62-22.36,1.8-10.21.26-20.45-.06-30.62.64a149.88,149.88,0,0,1-22.92,0,353.24,353.24,0,0,0-49.76-.71c-30.63,1.73-61.27.86-91.89,1.13C1040.35,181.4,1023.76,180,1001.48,179Z"/><path d="M935.6,1321.8a194.6,194.6,0,0,1,52.91,7c3.18.89,5,6.22,3,9.34a7.23,7.23,0,0,1-2.68,2.7c-4.68,2.09-9.47,3.66-14.78,2.79-2.5-.42-5.28-.91-7.61-.22-10.07,3-20.24,1.88-30.39,1.26a57.69,57.69,0,0,1-18.52-4.49,18.26,18.26,0,0,1-10.16-10.79c-.4-1,.27-2.46.33-3.71.12-2.83,1.75-4.35,5-4.3C920.33,1321.47,928,1321.65,935.6,1321.8Z"/><path d="M928.57,543.06c-2.93,2.48-6.11,5.16-9.88,5.35-8.86.44-17.75.11-26.63.13-7.57,0-15,2.53-22.67,1.06-3.1-.59-4.49-2.15-4.49-5.18,0-8.18,3.25-14.7,10.12-19.12a17.24,17.24,0,0,1,7.08-2.3,19.65,19.65,0,0,1,7.56.5c9.76,2.79,19.49,5.51,29.61,6.84,3.79.49,6.85,3.06,9.29,6.11l1-1c-11.48.27-23,.44-34.42.91-2.44.1-4.37,2-5.88,4.14a10.81,10.81,0,0,0,6,4.32,28.56,28.56,0,0,0,7.55.94c8.92-.42,17.83-1.11,26.74-1.7Z"/><path d="M1302.72,1491.8c35.53-.28,67.17-.41,98.8-.39,12.66,0,25.33.44,38-1,1.11-.13,2.35.84,3.54,1.3-1.14.56-2.28,1.6-3.42,1.6q-53.2-.08-106.41-.37C1324.34,1492.86,1315.46,1493.43,1302.72,1491.8Z"/><path d="M1440.32,1253.9a66,66,0,0,0,0,7.57c3.09,26.76-.15,53.7,2.38,80.47a83.35,83.35,0,0,1-.77,19.13c-.39,2.8-1.09,4.94-3.06,6.29-.27-1.25-.64-2.49-.8-3.75-.64-5.08-2.08-10.23-1.68-15.23,1.61-20.44.24-40.91,1.2-61.34.31-6.38,1.18-12.75,1.25-19.14.09-8.94-.27-17.89-.54-26.84-.1-3,.34-5,1.76-6.15.43,1.19,1.26,2.4,1.21,3.57C1441.12,1243.59,1440.68,1248.69,1440.32,1253.9Z"/><path d="M1433.85,967c1.26,2.2,2.36,4.5,3.82,6.56a17.52,17.52,0,0,1,3.26,10.68c-.46,16.46-.37,32.9.54,49.34a96,96,0,0,1,.09,11.38c-1.11,17.71-.24,35.43-.28,53.14,0,5,.64,10.16-1.52,15-2.2-4.72-1.78-9.81-1.59-14.72,1.08-29.09-1-58.19.54-87.29.82-15.17-.73-30.33-3.6-45.3Z"/><path d="M1427.39,895.54a25.24,25.24,0,0,0,.46,3.71c4.7,17.62,5.23,20.61,7.13,39.89a21.45,21.45,0,0,0,1,3.6l-.54,1.09-.54-1.85c1.47,1.95,3,3.83,4.39,5.86,2.58,3.85,2.84,7.2.82,10.21s-4.17,6-6.26,9l1.26-1.23c-2.72.1-5.24,1.1-6.29,3.55-1.42,3.31-2.73,4.29-5.2,2.28,0-17.47,0-35.21,0-52.94a49,49,0,0,1,5.11-22Z"/><path d="M1233.9,1356.87c-9.7-.09-16.68-2.11-20.72-10-1.15-2.25-3.35-4-4.33-6.26-1.19-2.76-.27-5.78,2-6.06,8.89-1.11,19.06,0,41.44,3.51,3.36.53,5.11,5.6,3.12,9-2.67,4.57-6.36,8-11.69,8.87C1239.92,1356.57,1236.08,1356.68,1233.9,1356.87Z"/><path d="M368.8,1373.18c-1.05-12.94,3.89-23.86,11.43-33.9l-.8-.37c1.2-.35,2.39-.77,3.61-1,4.46-1,7.26,1.28,7.47,5,.78,14-3.89,27.1-7.09,40.42-.74,3.1-2.49,4.44-5,3.65a6.54,6.54,0,0,1-2.79-2,23.08,23.08,0,0,1-1.88-3.21c-2-3.18-3.94-6.34-5.91-9.51Z"/><path d="M671.48,1498.9a54.33,54.33,0,0,1-5.82.9q-28.62.1-57.22.09c-2.53,0-5.06-.31-8-.5a64.22,64.22,0,0,1,6.66-.73C627.76,1498.7,648.44,1498.8,671.48,1498.9Z"/><path d="M1269.9,269c-2.53-.27-5.06-.62-7.59-.8-6.41-.44-9-3.85-7.54-9.76.3-1.24.54-2.5,1-3.7,3.07-9,8.24-12.2,17.36-10.73,3.87.62,7.27,2.2,8.91,6.13q1.47,3.51,2.69,7.13c1.56,4.62-2.12,10.24-7.21,11C1275,268.58,1272.42,268.72,1269.9,269Z"/><path d="M1133,277.17l-12.8,8.15.09-2.85-.52,1.77c-3.12,3.79-6.18,7.63-9.38,11.34-1.66,1.91-9,1.3-10.13-.76-2.48-4.42-3.71-9.21-2.61-14.18a22.9,22.9,0,0,1,10.51-14.57c2.48-1.6,8.61-1.77,10.57-.1a102.62,102.62,0,0,1,8.11,7.48,15,15,0,0,0,5.82,4.33Z"/><path d="M929.29,305.11c-3.77-.05-7.55-.09-11.32-.17a36.33,36.33,0,0,1-18-5.09,36,36,0,0,0-6.74-3.38c-7.12-2.34-8.8-8.3-10.15-14.57l-1.29,1.27c3.58.65,7.49.59,10.65,2.1a49.1,49.1,0,0,0,21.07,4.62c3.63,0,7.26.38,10.89.61,5.25.31,8.94,3.13,11.73,7.37l1.06-.88-8.74,8.88Z"/><path d="M390.31,542.54c1.23-2.2,2.08-4.78,3.78-6.54A98.38,98.38,0,0,1,412,521.71c3.39-2.17,7.12-2.05,10.86-.5,2.36,1,4.84,1.63,7.26,2.43l.27-.7c-6.1,2.17-9.82,7.32-14.37,11.44-3.8,3.43-5.54,8.16-8.25,12.29-1.84,2.8-6.09,3.39-9.77,1.63-3.39-1.62-6.56-3.42-8.74-6.59Z"/><path d="M344.48,207.75c5.71-3.29,11.29-4.43,18.11-2.38,8.53,2.55,17.65,1.82,26.54,1.43,4-.18,7.21-2.52,9.32-5.82,2.74-4.3,5.08-8.85,7.59-13.29l-1.23.94c.26,3.67.73,7.34.75,11,0,4.28-5.14,9.52-9.4,9.81-12.25.86-24.51,1.74-36.77,2.48-4,.24-6.76,2.45-9.49,4.92l.2-.17-4.8-9.95Z"/><path d="M348.33,1482.5c-2.64.27-5.25-1-5.24-3.73a55.92,55.92,0,0,1,4.64-21.67c1.22-2.88,6.42-6.22,9-5.73,2.32.46,4.58,6.14,3.95,9.35-1.47,7.5-4.89,14.09-9.35,20.18C350.69,1481.71,349.33,1482,348.33,1482.5Z"/><path d="M1172.22,1191a17.58,17.58,0,0,1,.21,3.6c-1.12,7.37-5.67,13.5-7.56,20.63-.6,2.29-2.48,4.22-3.63,6.39a9.83,9.83,0,0,1-5.32,4.93,7.69,7.69,0,0,1-3.55.79c-3.07-.5-4.15-2.45-2.69-5,3-5.32,6.94-10.25,9.33-15.84s4.06-11.61,8.33-16.27a21.78,21.78,0,0,1,2.91-2.27Z"/><path d="M713.22,203.37a14,14,0,0,1-.41-2.89c8.15-3,16.85-3.11,25.31-4.45,3.59-.57,7.4.26,11.11.45,3,.16,4.69,1.84,4.27,4.91-.09.68-2.07,1.57-3.19,1.59C737.93,203.2,725.55,203.27,713.22,203.37Z"/><path d="M515.41,1491.75c-2.41,1.42-3.17,2.23-4,2.3-14.92,1.28-29.87,2.48-44.85,1.72-2.85-.14-4.49-2.43-3.94-4,.35-1,1.76-1.81,2.88-2.26a7.81,7.81,0,0,1,3.66-.43C484,1490.61,499,1490.94,515.41,1491.75Z"/><path d="M428.58,1343.57c-2.93,8.19-6.62,15.91-13.4,21.74-2.47,2.13-4.41,2.48-5.68.64a7.42,7.42,0,0,1-1.36-3.35c-.82-9.45,3.22-16.8,10.24-22.74a17.23,17.23,0,0,1,3.24-1.63c2.68-1.38,4.9-.81,6.34,1.93A11.34,11.34,0,0,1,428.58,1343.57Z"/><path d="M967.76,313c-11-.82-11.73-1.43-10.64-9.65.34-2.56.68-5-.24-7.44s-1.89-4.54-2.73-6.85c-1.07-2.95.16-4.74,3.57-5a5.87,5.87,0,0,1,3.59.73c7.27,5.23,13.3,11.33,13.65,21.08l.78-1c-2.08,3.93-5.81,6.21-9,9Z"/><path d="M859.73,1126.87c-3.77,0-7.54.13-11.29,0a6,6,0,0,1-5.73-4.34c-.85-2.66,2.94-8.36,5.41-8.84a26.34,26.34,0,0,1,3.7-.86c6.31-.25,12.63-.48,18.94-.51,3.07,0,5.32,1.26,5.22,3.1-.16,2.78-2.32,3.95-5.25,4.49a32.44,32.44,0,0,0-7.09,2.58,10.58,10.58,0,0,0-5.09,5.36Z"/><path d="M1327.93,1180.49v16.17l.88-.71a17.28,17.28,0,0,1-8.63,0l1.06,1a34.56,34.56,0,0,0-8.79-8.81l1.17,1.16c-2.16-3.66-5.32-6.31-8.74-8.7l.93,1q-4.32-4.34-8.65-8.65l.95.93-.93-8.85c2.22.24,4.54.17,6.65.79a23.36,23.36,0,0,0,9.94.45l-1.47-1.33c.45,5.62,4.09,8.06,9.1,9.12l-1.3-1.28c.68,5.3,3.54,8.42,9,9Z"/><path d="M883.1,281.9c-6.43.6-11,5.73-17.08,7.09a7.22,7.22,0,0,1-3.63.07c-3.58-1.22-3.89-3.11-1-5.27,6-4.47,11.86-9.05,18-13.34a5.73,5.73,0,0,1,7,.22c1.34,1.08.36,3.25-1.34,5.81a48.91,48.91,0,0,0-3.18,6.69Z"/><path d="M1443.63,1439.05c-.23,2.52-.54,5-.67,7.56-.14,2.93-1.19,5-3.54,5.78-.28.08-1.54-1.92-1.82-3.08-1.5-6.18-2.57-12.42.1-18.55.42-1,1.75-1.54,2.65-2.3.74,1,1.85,2,2.14,3.11A71.77,71.77,0,0,1,1443.63,1439.05Z"/><path d="M1290.46,1350.49c-1.31-7.47-.1-15,.07-22.42a22.21,22.21,0,0,1,5.21-13.73c.79-1,1.54-2,2.31-2.95l-.86-.34c.19,9.57.44,19.15.53,28.72,0,3.58-.32,7.15-.5,10.73l.91-.94-8.63-.07Z"/><path d="M908,198.58c2.79,0,5.14.1,7.48,0,3-.15,4.69,1,4.51,3.56,0,.36-2.11.78-3.25.81-2.35.07-4.71-.18-7.06-.18-9.48,0-10.43-.47-7.84-3.35A4.81,4.81,0,0,1,908,198.58Z"/><path d="M594.17,201.34c-2.36-1.94-4.19-3.27-5.77-4.85-.73-.73-1.59-2.23-1.3-2.94,1.32-3.18,1.93-2.84,2.06.79C589.27,197.22,591.55,199,594.17,201.34Z"/><path d="M472,467.22a9.57,9.57,0,0,1-3.05,6.26c-2,1.91-4.14,2.42-6.08,1.06a5.35,5.35,0,0,1-1.86-2.87,8.81,8.81,0,0,1,3.73-9.4,5.23,5.23,0,0,1,3.55-.23A4.45,4.45,0,0,1,472,467.22Z"/><path d="M676,202c-1,0-2.3.38-3.06-.09-1.52-.92-.57-2.15,2.48-2.66.85-.14,1.82.48,2.73.75Z"/><path d="M274.32,198.55a7.8,7.8,0,0,1-2.39,6.59c-2.77-2.91-2.36-6.57-2.34-10.12a9.53,9.53,0,0,1,.45-3.56,12.66,12.66,0,0,1,2.22-2.8,11.1,11.1,0,0,1,2,2.8C274.59,192.55,274.32,193.83,274.32,198.55Z"/><path d="M1181.69,202.48c-1.81,1.46-8.22,1.4-10-.2-.08-.07.7-1.68,1.17-1.73a37.45,37.45,0,0,1,7-.13C1180.52,200.48,1181.08,201.76,1181.69,202.48Z"/><path d="M1426.49,893.37c3.74-.43,7-2.12,10.44-3.57a4,4,0,0,1,3.54.36,4.86,4.86,0,0,1,.39,6.78,5.4,5.4,0,0,1-3,2,7.5,7.5,0,0,1-3.59-.7c-2.32-.82-4.58-1.78-6.87-2.69l1.32,1.13a7.06,7.06,0,0,0-2.68-3.93Z"/><path d="M558,191.23c-.29,2.83-1.67,4-3.38,2.42a6.51,6.51,0,0,1-1.78-6.37c.18-.72,1.77-1.48,2.73-1.5a3.12,3.12,0,0,1,2.33,1.62C558.27,188.35,558,189.6,558,191.23Z"/><path d="M962.71,541c-11.21,3.59-22.66,3.07-34.14,2l1,1a15.11,15.11,0,0,1,0-8.61l-1,1c3.79-.05,7.58-.22,11.37-.1A47.12,47.12,0,0,1,961.77,542Z"/><path d="M296,195.19a7.48,7.48,0,0,1,3,6,5.62,5.62,0,0,1-3,5.82c-2.15-1.4-2.91-3.37-2.94-5.93S293.81,196.52,296,195.19Z"/><path d="M345.3,206.74a9.83,9.83,0,0,0-5.85-3.8c-.91-.26-2.36-1.85-2.2-2.19,1.2-2.49,3.21-2.46,4.82.32,1.17,2,1.63,4.44,2.41,6.68Z"/><path d="M1302,193.29l.18,1.61a27.5,27.5,0,0,1-3.27.12,10.27,10.27,0,0,1-.18-1.73Z"/><path d="M349.9,216.86c-4.8-2.34-8.74,1.83-13.24,1.73-1.07,0-2.8,0-3.11-.63-1.58-3.07-.36-4.63,3.11-4,2.25.4,4.41,1.35,6.66,1.82s4.52.63,6.78.93Z"/><path d="M1132.63,277.78c-.7,5.07,1.42,9.54,2.87,14.18.81,2.6.17,4.89-1.67,6.13-.82.55-2.63.83-3.14.34a5.34,5.34,0,0,1-1-3.42,30.91,30.91,0,0,1,.31-7.27c.74-3.58,2-7.05,3-10.57Z"/><path d="M1345.28,285.58c-2.87,1.83-5.47,4.06-9.37,3.58-3.15-.38-4.52-1.58-3.38-4.37.28-.68,2-.87,3.17-1.05,3.68-.59,6.67,1.27,9.71,2.9Z"/><path d="M1132.81,329.33c0,1,.39,2.36-.11,3a4.61,4.61,0,0,1-3,1.23c-1,.09-2.84-.08-3.07-.64-.74-1.83.61-3.44,3.36-4.13C1130.84,328.56,1131.86,329.12,1132.81,329.33Z"/><path d="M389.25,541.71c.73,1,1.84,2,2.11,3.11a8.17,8.17,0,0,1-1.72,7.1c-.7.88-2.19,2.19-2.75,2-2.57-1.08-3.06-3.34-1.79-6.16a9.94,9.94,0,0,1,5.21-5.17Z"/><path d="M960.23,551.87A13.4,13.4,0,0,1,962.71,541l-.94.93c4.56,1.09,9.14,2.08,13.66,3.32A10.77,10.77,0,0,1,982.9,552l.56-1a80.46,80.46,0,0,1-24.15-.16Z"/><path d="M960.31,558.59c-3.56-.3-7.14-.49-10.68-1a4.69,4.69,0,0,1-2.91-1.74c-1.17-1.69,0-3.3,3-4.15,3.49-1,7-1.3,10.51.14l-.92-1,0,8.7Z"/><path d="M1426,892.74c3-4,3.65-8.08,1-12.71-2.47-4.36-1.87-8.85.85-13l-.89-.9c-1.93,9.06-2.66,18.14-.53,27.28Z"/><path d="M766.3,1133.15c3.59-4.42,4.6-5.13,8.64-5.31,1,0,2.59.31,3.06,1,1.49,2.3.59,4.32-2.23,5.41-3.46,1.34-4.31,1.11-9.92-2Z"/><path d="M1282.22,1165.11c-5-3.69-8.23-8.23-6.79-14.87l-1.07.57,16.41.06-1.41-1.16,1.35,8.32a20.94,20.94,0,0,0-9.29,8.23Z"/><path d="M1282.87,1349.35c-5.23-3.53-5.58-4.1-6.36-8.23-.62-3.24.52-5,3.67-4.74.67.06,1.6,2,1.66,3.07.19,3.64.05,7.3,0,11Z"/><path d="M1441.38,1402.1c-.53.88-1.09,2.52-1.61,2.5-2-.06-2.77-1.83-2-4.53.27-1,1.07-2.53,1.6-2.52C1441.36,1397.59,1442,1399.35,1441.38,1402.1Z"/><path d="M848.74,1491.71l2.5,1.4c-.5.72-.87,1.84-1.54,2.08-2.73,1-4.12,0-3.51-2.5C846.31,1492.19,847.85,1492,848.74,1491.71Z"/><path d="M1246,1492.15c-.27.89-.26,2.09-.86,2.64a8.14,8.14,0,0,1-10.15.39,3.88,3.88,0,0,1-1.75-2.71c.17-2.6,5.78-4.08,10-2.6C1244.32,1490.24,1245.11,1491.37,1246,1492.15Z"/><path d="M1121.07,696.35a7.45,7.45,0,0,1-5.48-4.37,19.51,19.51,0,0,1-1.91-10.68l-.87.84c3.37.63,6,2.44,6.67,5.81a82.8,82.8,0,0,1,1,9.6Z"/><path d="M487.73,600.83a99.3,99.3,0,0,0,9.75-2.46,16.4,16.4,0,0,1,9.85-.75s-.57-.85-.57-.85a13.45,13.45,0,0,1,0,8.9s.55-.78.56-.78c-7.05,1.16-13.31-1-19.29-4.5Z"/><path d="M1059.75,367.73a49.81,49.81,0,0,1,2.27-6.05c1.06-2.05,1.24-2,4.57,6l1.23-1.18-8.85.19Z"/><path d="M1238.54,639.82c-.86.5-1.75,1.45-2.6,1.42-3-.09-3.86-1.44-2-3.14a3.54,3.54,0,0,1,2.95-.24C1237.55,638.09,1238,639.14,1238.54,639.82Z"/><polygon points="1347.33 821.05 1346.92 818.51 1348.64 819.01 1347.33 821.05"/><path d="M1050.53,330.32c2.16-1.68,4.27-1.8,6.06-.08a4.73,4.73,0,0,1,.82,5.92c-1.1,2.14-3,2.13-4.93-.1a6.59,6.59,0,0,1-1.29-6.4Z"/><path d="M1045.69,312.3c3.37,5.54,6.09,11.25,4.84,18l.66-.66c-2.92-2.55-4.07-5.94-4.35-9.65-.19-2.42,0-4.86,0-7.29Z"/><path d="M1327.93,1196.66c6.49,2.07,7.7,3.26,7.92,8.36.1,2.16-.15,4.33-.24,6.5l.89-.3-8.72.1,1,1.13c-.41-5.5-1.41-11,.07-16.5Z"/><path d="M1335.61,1211.52c3.4,5.38,4.21,10.72-.21,16l1,.36a44.61,44.61,0,0,0,.13-16.65Z"/><polygon points="1424.42 1239.33 1425.21 1242.2 1423.07 1241.87 1424.42 1239.33"/><polygon points="1023.39 1329.34 1024.7 1326.85 1025.68 1329.45 1023.39 1329.34"/><path d="M1290.55,1365.2c-4.91-1.15-7.15-4.56-7.62-9.29-.21-2.17,0-4.37,0-6.56l-1,1.05,8.58.09-1-1,.1,16.46Z"/><polygon points="927.74 1361.03 930.93 1360.51 930.31 1362.66 927.74 1361.03"/><path d="M824.67,1417c.75.35,2.1.68,2.12,1.07a9.86,9.86,0,0,1-.79,3.08c-.72-.36-2-.67-2.06-1.08A10,10,0,0,1,824.67,1417Z"/><path d="M441.41,1477.49c-.92.52-1.88,1.53-2.76,1.46-3.25-.26-4-1.7-2-3.35a3.84,3.84,0,0,1,3.16-.46C440.52,1475.38,440.89,1476.67,441.41,1477.49Z"/><path d="M249.49,204.18c.48,1,1.36,2.06,1.31,3s-1.12,1.71-1.74,2.56c-.49-.95-1.42-1.94-1.33-2.83S248.86,205.11,249.49,204.18Z"/><path d="M1134.29,200l-2,2.22c-.4-.94-1.4-2.13-1.12-2.78C1132.58,196,1133.78,196.27,1134.29,200Z"/><path d="M1054.94,196c.8.07,2.09-.14,2.32.25a4.9,4.9,0,0,1,.72,3.28c-.26,1-1.42,1.73-2.18,2.58-.64-1-1.67-1.86-1.82-2.89S1054.59,197.06,1054.94,196Z"/><path d="M620.31,188.74c-.77-.68-1.54-1.36-2.32-2,1-.4,2-1.19,2.9-1.06s1.53,1.23,2.29,1.9Z"/><path d="M783.18,590.27c1.71-6.35,1.24-8.31-1.83-8.31l1.26-.74c.07,3.09.15,6.17.23,9.26Z"/><path d="M313.93,607.27l2.82.33c-1.53-3-2.11-2.8-1.71.61Z"/><path d="M488,600.39l.36,3.18c-.22-.91-.45-1.83-.67-2.74Z"/><polygon points="781.58 624.45 778.78 625.5 779.01 622.91 781.58 624.45"/><path d="M1129.67,704.93c-3.23-2.5-6.54-4.91-8.59-8.58,0,0-.62,1.2-.62,1.2,3.84,1.47,5.86,4.76,7.94,8Z"/><path d="M1182.07,705a18.19,18.19,0,0,1,3.24.62c3.31,1.3,5.2,3.55,4.48,7.35l.76-.79a13.86,13.86,0,0,1-8.59.06l.77.94c-1.4,0-1.35-5.11.24-9.09Z"/><path d="M530.27,750.88c-5.92-4.24-5.9-4.24,0-7.5l-1-.66c0,2.94-.07,5.88-.11,8.82Z"/><path d="M553.27,789.29c-4.3-1.24-6.36-4.8-8.53-8.25l-.73,1.18,9.38-.47-.9-.63-.21,8.86Z"/><path d="M1007.77,788c-.93.13-2.43.67-2.69.31-1.22-1.69-.47-1.59,1.78.64Z"/><path d="M1066.59,367.7l9-.43s-.77-1.09-.77-1.09c0,3.09,0,6.17,0,9.26l.59-1.25-8.75-.06,1,1.18c0-2.93.09-5.86.13-8.79Z"/><path d="M321.25,843.08a36.37,36.37,0,0,0,9.07,9l.4-1.19c-1.31-4.19-4.26-6.73-8.25-8.24Z"/><path d="M1427.91,867l-.89-.9Z"/><path d="M360.44,888.39c2.27,2.5,4.7,3.23,7.43.66l1.13-.39-8.94.09Z"/><polygon points="1333.83 886.61 1335.19 888.24 1332.95 886.33 1333.83 886.61"/><path d="M367.87,889.05l8.1,8.5.42-1.18-8.48,0,1,1.24c0-3,0-6,0-8.93Z"/><path d="M530.12,896.61l7.93-7.77s-1.16-.53-1.16-.53l.36,9.22.72-.84-8.88-.46Z"/><path d="M522.7,904.83c3.47-1.84,5.24-5.21,7.42-8.22l-1-.38.33,9.21.89-1.22a16.09,16.09,0,0,0-8.89-.16Z"/><path d="M514.78,912c.93-4.29,4.56-5.59,7.92-7.2l-1.28-.78c.05,2.93.11,5.85.16,8.78l1.27-1-9.08-.18Z"/><path d="M515,920.33c-2.12-1.68-3-3.58-2.17-5.54a13.61,13.61,0,0,1,2-2.75l-1-.41c.05,3,.09,6.11.14,9.17Z"/><polygon points="1170.57 978.22 1168.94 979.61 1169.77 977.34 1170.57 978.22"/><path d="M442,482.36a13.51,13.51,0,0,0,2.72.72c1.46-3,.75-3.69-1.87-2Z"/><path d="M1128.8,1019.2a14.24,14.24,0,0,1-8.68,8.42s.93.73.93.73a18.9,18.9,0,0,1,0-9.45l-.6,1.33,9,0Z"/><path d="M797.83,311.17c-3.43,3.89-3.6,5.18-.85,8a18.56,18.56,0,0,0,2.55,1.9l-.69.51a16.77,16.77,0,0,0,.17-8.89Z"/><path d="M965,1090.27l1.69-1q-2.88-1.18-.72,2Z"/><path d="M889,1092.7l-2.34,2.09c-.66-.81-1.9-1.66-1.84-2.4s1.4-1.41,2.18-2.1Z"/><path d="M765.85,1132.3a52.79,52.79,0,0,1-1.3,14.88l-.2-.28c1.88-4.41,1.91-9.08,1.95-13.75Z"/><polygon points="1046.83 312.72 1043.83 312.32 1045.69 312.3 1046.83 312.72"/><path d="M1266.91,1141.66c-2.18.14-4-.46-5.08-2.11a53.64,53.64,0,0,1-2.6-5.2s-.88,1.14-.88,1.14l9.53,0-1.44-1,0,8.49Z"/><path d="M936.42,305.33c.76,2.71,0,4.6-2.27,5.33a4.78,4.78,0,0,1-2.92-.09c-2.24-.86-2.85-2.79-1.94-5.45l-.82.75a10.1,10.1,0,0,1,8.66.14Z"/><path d="M790.69,311.66a10.26,10.26,0,0,0,1.53,2.72,4.31,4.31,0,0,0,2.8,1.29c2.81-.15,3.74-1.81,2.81-4.5l1.18,1.54a17.29,17.29,0,0,0-9,.09Z"/><path d="M1275.43,1150.24l-8.52-8.58-.5,1.23c2.58,2.7,6.16,4.41,7.95,7.92Z"/><path d="M442.89,481.1l0,2.83q4-2.67-.88-1.57Z"/><path d="M1290.46,1173.06a5.91,5.91,0,0,1-5.29-2.51c-1.11-1.73-2-3.62-3-5.44l-.8,1.15,9.4-1.31q-.64,4.42-1.3,8.85Z"/><path d="M1066.39,1196.15l9.76,7.71-.66-.4-8.85.24.76,1.23c0-3.15,0-6.3,0-9.44Z"/><path d="M1076.15,1203.86c-2,1.17-2.62,3-1.91,5.34.29,1,.53,2,.79,3l.31.22.15-9Z"/><path d="M1006.11,305.93c-.64-2.57,0-4.48,2.18-5.39a4.21,4.21,0,0,1,2.78-.05c2.18.8,2.89,2.68,2.24,5.29l.64-.66a12.38,12.38,0,0,1-8.57.06Z"/><path d="M936.15,297.87a20.22,20.22,0,0,1,3.24.82c2.52,1.09,3.55,2.77,2.67,4.58-1,2.11-3,2.73-5.64,2.06l.71.68a12.13,12.13,0,0,1,.08-9Z"/><path d="M1112.66,1257.11c2.32,4.9,2.19,8.79-.12,8.8l1,.46,0-9.57Z"/><path d="M1121.63,1281.59c.12-1.13.23-2.26.35-3.38q4.45,1.1-1.24,2.57Z"/><path d="M1075.64,1288.5c-5-.57-7.24-3.88-8.47-8.27,0,0-.85,1-.85,1l9.31-.19-.87-.91-.09,9.2Z"/><polygon points="1345.47 1292.04 1344.57 1289.13 1345.84 1291.22 1345.47 1292.04"/><path d="M1345.41,286.64q3-7.06,5.92-14.14l-.93,1c-2.76,3.57-5,7.37-5.12,12.06Z"/><path d="M1351.33,272.5l.9,2c1.09-2.72.47-3.06-1.83-1Z"/><polygon points="380.23 1339.28 377.52 1340.48 379.43 1338.91 380.23 1339.28"/><path d="M1106.13,1342.32c-2.6-1.41-3.66-3.39-2.58-5.65.45-.94,1.81-1.44,2.76-2.14l-.84-.54q-.15,4.41-.29,8.83Z"/><path d="M621.23,1341.63c1.77,2.09,2.31,4.08,1.57,5.95-.43,1.07-.92,2.12-1.39,3.18l.94.29-.09-9.79Z"/><path d="M367.82,1372.26c.78,3.07,0,4.5-2.42,4.12-.08,0-.21-2,.22-2.31a10.29,10.29,0,0,1,3.18-.89Z"/><path d="M1267.14,505.8c-.57-2.56.36-4.4,2.92-4.88.74-.13,1.88,1,2.56,1.73a13,13,0,0,1,1.51,2.78l1.09-.8-8.87.31Z"/><path d="M206.5,198.11c.47,2.41-.35,4.27-2.63,5.11-.34.12-2-1.87-1.86-2.18,1.19-2.08,3.15-2.65,5.46-2Z"/><path d="M207.47,199.08q.12-4,2.41-3.93c-.19.61-.18,1.5-.59,1.79a13.57,13.57,0,0,1-2.79,1.17Z"/><path d="M438.62,512.47c.71-.21,2.07-.57,2.06-.61-.57-2.44-1.37-2.53-2.29-.29Z"/><path d="M406,187.69c.09.69.19,1.38.28,2.07q2.51-2.81-1.51-1.13Z"/><path d="M1274.13,505.43c4.11,1,7.12,3.12,7.62,7.71l1.07-.78-8.82.2.93,1q.15-4.45.29-8.91Z"/><path d="M430.11,523.64l6.73.54c1.39-1.78,3.62-3.44,3.92-5.39s-1.35-4.2-2.14-6.32l-.23-.9c-5,2.14-8,5.69-8,11.37Z"/><path d="M1281.75,513.14c4.47,1,7.11,3.78,8.24,8.14,0,0,.8-1,.8-1l-9.2.08,1,.81c.07-3,.13-5.9.2-8.84Z"/><path d="M844.23,921.14c-.06,7.85,2.83,14.93,5.53,22.11.85,2.27.69,5,.64,7.51a7.14,7.14,0,0,1-3.59,6.32c-2.3,1.2-5,.78-7.26-.17a12,12,0,0,1-3.2-2.08c-8.72-7.79-15.1-17.31-19.9-27.86a59.57,59.57,0,0,1-5.51-29.82c.64-7.6,2.21-15.13,3.37-22.7,7.3-18.06,17.41-34,34.57-44.26,2.4-1.43,5.12.06,6.54,2.42a6.53,6.53,0,0,1,1,3.33,40.47,40.47,0,0,1-3.08,14.9,5.61,5.61,0,0,0,1.46,6.79c2.11,1.69,4.1,3.27,4.42,6,.29,2.41-.77,4.7-2.54,6.74-.83,1-1.74,1.87-2.61,2.8-3.89,4.08-4.29,9-3.24,14.17a42.66,42.66,0,0,0,5.66,14.14A25.42,25.42,0,0,1,860.32,912c.34,2.93-2.79,8.57-5.51,8.92-3.8.47-7.62.76-11.43,1.12-.15-2.14-.17-4.3-.51-6.41a2.46,2.46,0,0,0-1.61-1.65C838.86,913.72,839.11,914.68,844.23,921.14Z"/><path d="M751.9,773.53a12,12,0,0,1,8.93.06c-.9,5-3.74,8.11-8.9,8.86A14.53,14.53,0,0,1,751.9,773.53Z"/><path d="M744.09,790.15c1-7.88,1-7.88,9.08-9.11C752.43,786.36,749.25,789.25,744.09,790.15Z"/><path d="M736.4,797.83c1-8.1,1-8.1,9.1-9.09C744.6,793.91,741.65,797,736.4,797.83Z"/><path d="M584,782.26l-9,0a12.48,12.48,0,0,1,9-9Z"/><path d="M591.65,789.91l-8.79,0q0-4.38,0-8.74h8.72C591.64,784.1,591.65,787,591.65,789.91Z"/><path d="M1289.45,1166.21l.12-8.85c4.59,1.31,8.24,3.56,8.81,8.86Z"/><path d="M415.26,989.63l-9-.11c0-2.92,0-5.85,0-8.78C411.11,981.84,414.2,984.71,415.26,989.63Z"/><path d="M407.33,958.89l-8.7-.06c0-2.91,0-5.82,0-8.73l8.71,0A16.69,16.69,0,0,1,407.33,958.89Z"/></svg>