<svg id="Calque_1" data-name="Calque 1" xmlns="http://www.w3.org/2000/svg" viewBox="0 0 1500 1500"><path d="M166.48,795.22c-.23-22.63.61-39.22,2.73-55.75.82-6.35,1.49-12.73,3.52-18.83a91.47,91.47,0,0,0,4.11-18.7c1.74-15.35,6.31-30,11.36-44.49,9.69-27.75,19.44-55.49,29.81-83,4.07-10.79,8.79-21.27,13.86-31.6,3.38-6.88,7.22-13.55,10.46-20.5,17.42-37.28,40.38-71.12,64.87-104a281.36,281.36,0,0,1,20-23.24c8.72-9.36,17.87-18.31,26.81-27.46,29.67-30.34,63.29-55.77,98.54-79.16,3.18-2.11,6.63-3.83,9.95-5.74,12.18-7,24.58-13.7,36.5-21.13,15.33-9.56,32.12-15.7,48.86-22A57,57,0,0,1,559.07,237a160,160,0,0,1,38.24-1.89c8.92.73,17.86,1.39,26.8,1.8,6.71.3,12.35,3.07,17.49,7,2.46,1.87,3.13,4.25,2,5.67a5.13,5.13,0,0,1-3.4,1.63c-7.66.25-15.33.33-23,.41-12.95.14-25.34,3-37.42,7.51-13.19,4.89-26.12,10.31-38.39,17.26-13.34,7.56-26.48,15.49-40.73,21.36a70.2,70.2,0,0,0-13.3,7.6c-5.29,3.7-11.21,6-16.87,8.87-10.2,5.19-20.45,10.56-28.26,19.4-2.76,3.13-2.49,8.53.86,9.37,1.21.31,2.3,1.17,3.52,1.36,3.78.58,7.59,1.15,11.41,1.37a49.63,49.63,0,0,1,14.85,3.53,85.73,85.73,0,0,1,34.37,23.59c2.42,2.71,1.17,8.16-2.17,9.43a27.59,27.59,0,0,1-3.5,1.54c-3.74.84-7.52,1.5-11.29,2.2-5.51,1-10-1.07-13.78-4.82-1.82-1.79-3.22-4-5.09-5.73-12.86-11.79-28-17.58-45.49-16.79a35,35,0,0,0-18.07,5.62,241.57,241.57,0,0,0-41.34,34.12c-14.21,14.75-27.93,29.9-39.8,46.66-4.43,6.26-8.82,12.58-13.68,18.5A184.25,184.25,0,0,0,295.83,489c-3.83,6.64-8,13.1-11.8,19.75-3.19,5.53-6.4,11.08-9.13,16.84-12,25.42-24.33,50.7-34.78,76.82a7.84,7.84,0,0,0-.35,3.79,9.4,9.4,0,0,0,1.37,3.32,4.75,4.75,0,0,0,6.49,2c7.06-3.13,12.8-8.3,18.94-12.85,19.59-14.49,40.77-26.44,62.12-38,18-9.76,37.05-17.31,56.42-24,10.89-3.73,21.84-7.25,32.69-11.08,15-5.3,20.32-9.47,29.43-23.08,4.27-6.37,8.49-12.79,12.21-19.47q13.05-23.5,28-45.82c2.08-3.11,2.9-7,4.61-10.43a53,53,0,0,1,5.8-9.83,196.07,196.07,0,0,1,24.27-24.46,11,11,0,0,1,7-2.56,50.07,50.07,0,0,1,7.64-.11c21.89,2.74,43.39-.38,64.87-4,7.56-1.27,15.11-2.89,22.73-3.51,16.66-1.37,32.75-5.67,49-9A31.42,31.42,0,0,0,687,366.42c4.92-4.05,9.94-8.11,14.17-12.84a248.79,248.79,0,0,0,23.19-30.53,59.28,59.28,0,0,1,9.89-11.66,100.72,100.72,0,0,0,8.13-8.14c17.89-20.32,39.44-36.34,61.31-52a102.74,102.74,0,0,1,34.55-16c9.87-2.55,19.42-6.2,29.7-7.25,3.75-.38,7.39-1.94,11.08-2.94s7.34-2.52,11.09-2.85c12.75-1.12,25.43-2.71,38.11-4.45a95.6,95.6,0,0,1,19.14-.19c12.76.83,25.51,2,38.23,3.28,7.63.77,15.21,2,22.78,3.19s15.09,3,22.7,3.76c12.8,1.33,25.06,4.71,37.37,8.18a484.43,484.43,0,0,1,47.25,15.73,277.6,277.6,0,0,1,41.22,20.33c9.84,5.92,20.45,10.55,30.77,15.65,3.43,1.69,7,3.07,9.8,5.83,11.46,11.34,26.69,14.59,41.28,19.11,6.1,1.89,12.81.22,18.94,2.45a12.58,12.58,0,0,1,8,7.57A44.42,44.42,0,0,1,1268,330c.9,5,1.49,10.11,2.14,15.18.83,6.5,3.1,12.25,7.86,17,3.68,3.67,5.72,8.43,7.54,13.23s2.83,9.79,1.36,15c-.69,2.46-1.38,4.93-1.94,7.42a24.67,24.67,0,0,0,0,11.4c1.8,7.45,3.89,14.83,5.84,22.25,4.56,17.36,8,34.88,8.9,52.87.27,5.44,3.73,9.42,7.75,12.69a67.49,67.49,0,0,0,9.51,6.47c5.55,3.13,11.34,5.85,16.93,8.93a73.81,73.81,0,0,1,25.64,22.71c12.33,17.88,24,36.15,33.47,55.81,7.88,16.29,12,33.69,17.86,50.57a40.27,40.27,0,0,1,1.46,7.53c1.8,12.66,3.64,25.32,5.25,38a147.78,147.78,0,0,1,1,15.31c.23,10.22-.1,20.47.41,30.68.66,12.95-.36,25.54-5.36,37.65a13.86,13.86,0,0,0-.8,3.74c-.62,5.3.39,10.37,4.2,14.11,3.62,3.55,8,6.28,12,9.51a94.19,94.19,0,0,1,8.52,7.68,19.17,19.17,0,0,1,4.21,6.33c3.09,8.57,4,17.37,1.52,26.33a10.48,10.48,0,0,1-4.37,6.06c-3.18,2.13-6.6,4-9.51,6.41a11,11,0,0,0-4.12,10.09c1.13,9,1.48,17.8-1.28,26.59a60.75,60.75,0,0,0-2.37,11.24c-3,25.61-11,50-19.31,74.1s-18.49,47.69-31.8,69.68c-2,3.28-3.79,6.67-5.59,10-23.13,43.42-54.84,80-90.7,113.17-2.81,2.6-5.63,5.22-8.68,7.53-25.51,19.39-52,36.94-82.25,48.52-14.31,5.49-28.29,11.67-43.21,15.56a45.31,45.31,0,0,0-25,17.09c-11.46,15.54-25.34,28.77-38.52,42.7s-28,26.11-43.52,37.47a73.21,73.21,0,0,1-6.21,4.51c-24.31,14.09-48.14,29-73.45,41.39-16.22,8-33.67,11.8-50.48,17.75-2.77,1-3.9,3.13-3.43,6.14.59,3.76,1,7.56,1.88,11.25s2.34,7.4,1.81,11.25a5.48,5.48,0,0,1-4.8,4.88c-1.21.19-2.94.54-3.64-.08-4.76-4.24-9.56-8.49-13.87-13.17-7.43-8.06-16.27-12.09-27.3-11-3.82.37-7.65.75-11.48.86s-7.81.54-11.45-.34c-15-3.6-30.56-3-45.39-7.39a113.93,113.93,0,0,0-18.81-3.67c-10.21-1.26-20-3.93-29.89-6.73-2.43-.7-5-.69-7.58-1-4.31-.58-11.3,3.35-12.34,7.08s-2,7.41-2.83,11.14c-1.77,7.54-4.93,14.52-8.47,21.35-2,3.75-9,6.88-13.11,5.59-9.25-2.88-15.37-9-17.5-18.48a14.22,14.22,0,0,1,2.16-10.94,22,22,0,0,1,2.56-2.83c7-7.42,12.82-15.77,18.22-24.41a4.82,4.82,0,0,0-.06-3.76c-1.12-2.76-3.39-4.23-5.46-3.07-10.45,5.89-21.72,7.15-33.41,6.54-4.32-.22-9.47-4.4-11-9.28-1.91-6.1-3.74-12.22-5.74-18.29-1.27-3.85-8.23-8.1-12.26-7.55-3.78.52-7.71.72-11.27,1.94-12.44,4.27-25.19,4.78-37.92,2.75-13.87-2.23-27.88-4.14-41.33-8.34s-26.75-8.72-39.79-13.93c-16.69-6.66-31.81-16.41-46.6-26.44A506.33,506.33,0,0,1,407,1263.7a302.05,302.05,0,0,1-46.89-50.4c-24.18-33-48.75-65.74-69.91-100.85A271.54,271.54,0,0,0,265.86,1078c-18.29-21.78-31.94-46.21-42.69-72.41-3.89-9.46-8.15-18.77-12-28.24-10.11-24.85-18.72-50.32-31.28-74.14a22.15,22.15,0,0,1-2-7.35c-.65-5.07-.82-10.2-1.42-15.28-.74-6.35-1-12.85-2.69-19C167.27,837.87,167.41,813.51,166.48,795.22Zm374.59,290.49c3.6,3.73,8.12,6.12,12.57,8.6a23,23,0,0,0,11,2.65c5.62.12,9.87-3.51,10.15-8.79,1-19.12.49-38.25-.1-57.37-.16-5.09-.73-10.22-.28-15.26,1.72-19.13.56-38.25.18-57.37a42.07,42.07,0,0,0-1-7.55,21.27,21.27,0,0,0-7.73-12.83,63,63,0,0,0-13-7.91,330.1,330.1,0,0,0-65.5-20.64c-1.88-.4-8,4.82-8.33,7.13-1.8,12.61-3.63,25.22-5.31,37.84a25.34,25.34,0,0,0,0,7.63c2.09,11.74.17,22.83-4.85,33.53-1.08,2.3-1.36,5-2.43,7.25-2.62,5.66.13,10.2,3.73,13.61,4.8,4.53,8.34,9.3,9.65,15.9,1,4.93,2.84,9.69,4.11,14.58.3,1.16-.21,2.52-.34,3.79l.14-.13c-1.06.69-2.08,1.46-3.19,2.06-11.83,6.53-12.36,6.66-14.5,20-3.85,24-3.6,47.82,2.23,71.5,1,4,7,7.94,11.72,7.63,6.35-.42,12.63-1.4,18.47-3.9,9.29-4,18.54-8.1,27.54-12.67a163.29,163.29,0,0,0,31.58-20.67c1.89-1.6,1.68-4.92.44-6.84-2.83-4.37-7.89-6.16-11.78-9.33-4.41-3.58-6.22-7.54-4.39-13Zm171,62.78c9.28-.42,17.59,2.44,25.17,7.59,7.38,5,14.59,10.29,22,15.22a111,111,0,0,0,10.13,5.35c3.07,1.6,8.14.73,10.57-1.9,3.44-3.73,6.84-7.51,10.24-11.29,9.73-10.84,15.69-23.12,15.11-38.11a53.49,53.49,0,0,1,1.14-11.39,21.05,21.05,0,0,1,5-10.12,42.44,42.44,0,0,1,18.77-12.59c4.27-1.46,11.44,2,12.34,6.21.79,3.72,1.88,7.42,2.23,11.19.83,8.88,1,17.84,2,26.69.64,5.32,4.29,9.09,9.16,11.36a23.89,23.89,0,0,0,7.16,2.47c18.22,2.06,34.8,7.77,48.29,20.81.86.84,2.3,1,3.37,1.71,2.56,1.58,8.35.46,10.62-1.78a64.69,64.69,0,0,0,12.82-18.86c12.48-26.56,26-52.58,39.55-78.61,1.18-2.26,2.13-4.62,3.27-6.9,2-4-.46-11.64-4.14-13.41-20.77-10-42.92-16.09-64.74-23.12a31.13,31.13,0,0,0-18.88.16c-2.38.73-5.26,1.6-6.69,3.38-8.08,10-18.19,17.81-28.11,25.79-1.89,1.51-4.63,2-7,2.86a5.75,5.75,0,0,1-6.74-2.06c-1.61-2-3.53-3.91-4.37-6.21-2.88-7.82-8.89-12.21-16-15.48-5.79-2.66-11.67-5.13-17.51-7.69-10.49-4.61-21.43-8.27-31-14.78a8.72,8.72,0,0,0-3.65-1.07c-3.83-.51-8-.86-11.2,1.2-13.92,8.94-26.8,19.45-41.3,27.55a49.65,49.65,0,0,0-6.2,4.47c-22.05,17.34-43.8,35.06-64.21,54.34-1.59,1.51-2,4.53-2.36,6.94-.13.82,1.4,2,2.36,2.86,3.9,3.36,8.45,5.55,13.19,7.53,7,3,14.08,6,20.87,9.55,9,4.68,16.71,11.71,26.34,15.44a5.77,5.77,0,0,1,2.56,2.41,16.39,16.39,0,0,1,1.21,3.62,48.87,48.87,0,0,1-29.69-4.82c-2.28-1.17-4.53-2.37-6.75-3.63a37.48,37.48,0,0,0-14.39-4.91c-8.92-1-17.65-2.61-26-5.92a21.25,21.25,0,0,0-7.43-1.56c-2.45,0-5.32.27-7.24,1.56s-3,3.92-4.23,6.1a6.54,6.54,0,0,0-.83,3.7c1.94,15.18,3.16,30.55,7.3,45.3,8.59,30.69,17.36,61.34,29.27,91a5.8,5.8,0,0,0,2.79,2.55c3.53,1.69,7.38,2.21,10.95.59,5.78-2.64,11.33-5.77,17-8.64a226.77,226.77,0,0,0,32.52-19.94c8.15-6,15.29-13.48,22.65-20.54a143.94,143.94,0,0,0,19.29-23.68c2.79-4.15,1.73-14.1-1.87-18a135.35,135.35,0,0,0-29.69-23.91,69.88,69.88,0,0,1-9-7A20.33,20.33,0,0,1,712,1148.49Zm472-221.38a14.57,14.57,0,0,1-.66-3.73c.2-2.51.15-5.28,1.23-7.43,4-8,9-15.5,12.45-23.71s5.28-17.07,7.93-25.62a8.91,8.91,0,0,1,2-3.06c.85-.94,1.92-2.28,2.92-2.3s2,1.37,2.78,2.32c4.23,5.09,5.7,11.38,7,17.58,2.34,11.26,2.24,22.88,5,34.11.74,3,6,5.27,9.38,3.94,22.89-9.1,42.77-22.93,60.75-39.5,9.39-8.66,18.23-17.93,27-27.19,9.68-10.2,17.53-22,27.7-31.8,5-7.41,10.33-14.62,13.65-23a11.89,11.89,0,0,0,.21-7.55c-1.29-5.06-3.39-9.76-7.37-13.15a209.53,209.53,0,0,1-34-36.24c-9.11-12.53-20.08-23.14-31.61-33.31-13.48-11.9-28.47-21.67-43.53-31.36-4-2.58-10.44-1.7-14.14,1.66a98.34,98.34,0,0,0-21,27.13c-6.06,11.4-14.23,21.26-23.22,30.39-11.68,11.87-24,23.09-38.1,32-8.64,5.46-16.43,12.11-25.53,17-6.75,3.6-12.51,8.87-17.92,14.35-3.63,3.67-7,7.68-8.2,12.75-1.94,8.14-7.09,13.13-14.2,17A214.5,214.5,0,0,0,1065,840.37a30.49,30.49,0,0,0-11.79,14.75c-7.92,21.82-13.57,43.93-9.37,67.49.65,3.67,0,7.67-.54,11.43a51.59,51.59,0,0,0,.7,19,19.34,19.34,0,0,1-1.24,11.24,25,25,0,0,0-.86,15,38.07,38.07,0,0,1-2,22.53c-2.76,7.14-5.2,14.44-7.27,21.81a9.88,9.88,0,0,0,1,7.13c1.31,2.12,4.23,2.72,6.77,3a21.53,21.53,0,0,0,3.82.34c15.38-1.11,30.06-6.13,45.25-8.32,28.25-8.41,55.81-18.55,81.9-32.41,7.11-3.77,11.82-9.42,13.69-17.49a139.82,139.82,0,0,0,3.64-30.4,28.33,28.33,0,0,0-1-7.56C1186.67,934.3,1185.24,930.73,1184,927.11ZM353.17,902c1.44-3.91,5.74-15.93,10.27-27.87,2.72-7.17,5.78-14.2,8.71-21.28,1.69-4.08-.9-10.78-4.81-13.31a58.13,58.13,0,0,0-17.58-7.41,13.22,13.22,0,0,0-7.44.49,139.84,139.84,0,0,0-17.48,7.74,265.42,265.42,0,0,0-23,13.86c-23.2,15.89-47,30.87-71,45.36a25,25,0,0,0-2.92,2.44c-3.14,2.64-4.35,6.25-4.66,10.09a20.59,20.59,0,0,0,.66,7.59c5.35,17,10.69,34.12,16.42,51,6.15,18.2,15.28,35.09,24.09,52.09a94.49,94.49,0,0,0,8.18,13c7.65,10.23,15.32,20.46,23.45,30.3,6.51,7.88,13.82,15,23,20,4.66,2.52,7.28,7,8.69,12.1,1.35,4.92,2.23,10.07,4.28,14.7,5.19,11.68,10.93,23.12,18.58,33.45,2.28,3.07,4.74,6,7.31,8.85,7.24,8,15.8,12.72,27.07,11.32,6.34-.79,12.74-1.1,19.11-1.52,5.16-.35,9.95-1.9,14.79-3.66s9.84-2.65,14.75-4a8.24,8.24,0,0,0,5.91-8.61,559.39,559.39,0,0,1-1.9-72.77,70.94,70.94,0,0,0-.65-11.46c-.65-5.16-2.48-9.87-6.43-13.53a23.76,23.76,0,0,1-2.51-2.88,22.86,22.86,0,0,1-4.76-14.19c-.32-14.61,3.41-27.81,13.16-38.95,3.43-3.92,6.31-8.16,7.21-13.28,1.56-8.82,3.06-17.6,6.12-26.08A43.82,43.82,0,0,0,452,944.28c.92-11.46,1.76-22.94,2.17-34.43A54.51,54.51,0,0,0,451.25,891c-.76-2.34-2-5-3.84-6.45-10.05-8-21.59-13.48-33.23-18.71-6.6-3-17.57,0-20.78,5.48a329.42,329.42,0,0,0-17.53,34.05c-9.3,21.14-15.14,43.37-21.91,65.32-3.16,20.13-10,39.63-9.47,60.43.25,10.25-2.59,20.25-6.63,29.75a6.8,6.8,0,0,1-2.55,2.4c-2.79,1.93-4.64,1-5-2.73-1-10.16-2.06-20.31-2.67-30.49-1.16-19.29,1.14-38.39,5.56-57C338.2,951.86,343.86,930.87,353.17,902Zm536.32,464.85c6.13-1.4,13.68-2.75,21-4.87,13.53-3.91,26-10.68,39-15.79,17.94-7,34.52-16.64,50.82-26.63a225.17,225.17,0,0,0,44.92-35.65c10.62-11,21.28-22.07,30.94-34a9.27,9.27,0,0,0,1.42-3.5,6.2,6.2,0,0,0-2.07-6.71,16.07,16.07,0,0,0-6.88-3c-13.86-2.25-27.91-3.37-41.45-7.41-15.37-1.29-29.92-6.38-44.81-9.85a304.41,304.41,0,0,1-71.77-26.06c-19.27-10-39.33-18.23-59.23-26.8-6.26-2.7-12.51-1.09-17.92,3.17-1,.79-2.05,1.53-3,2.39-8.46,7.88-15.18,17.14-21.42,26.79a18.5,18.5,0,0,0-1.54,3.49,10.94,10.94,0,0,0,1.7,10.77,62.23,62.23,0,0,0,10.46,11.1c8,6.36,16.46,12.06,24.55,18.26a14.29,14.29,0,0,1,4.65,5.91c3.05,8.19,10.82,10.45,17.33,14a15.09,15.09,0,0,0,14.73-.08c11.18-6.11,22.1-12.58,31.17-21.8,3.7-3.75,8.47-3.62,14-.61a27.1,27.1,0,0,1,3.26,2c5.24,3.89,6,7.33,2.82,13.13-1.22,2.23-2.33,4.84-4.23,6.3-7.69,5.93-10.76,13.62-11.09,23.18-.18,5-2.17,9.93-3.52,14.85-1.59,5.75-13,11.29-19.17,9.48-9.88-2.91-19.16-7-27.44-13.25a42.39,42.39,0,0,1-12-14.68,31.84,31.84,0,0,1-2.54-7.21c-1.28-5.33-4.82-8.88-9-11.86-6.23-4.4-13.32-7.55-18.52-13.44a14.35,14.35,0,0,0-6.15-4.4c-9.95-2.91-17.62-10.24-27.32-13.62-4.08-1.42-7.65-.44-10.91,1.45a41.74,41.74,0,0,0-9,7c-11.57,12-24.89,21.92-37.66,32.51-18.36,11.55-35.39,25.13-54.27,35.91-1.07.61-1.79,1.83-2.8,2.6-2,1.54-3.08,7.92-1.8,10.69,1.61,3.5,3.45,6.83,6.52,9.26a101.7,101.7,0,0,0,22.93,13.73c17.59,7.62,35.43,14.63,53.95,19.72,11.07,3,22.09,6.37,33.3,8.8s22.6,4.08,33.8,6.68c3.67.85,7.61.64,11.43.67,1.16,0,2.31-.84,3.49-1.22,2.85-.89,3.61-2.85,3.58-5.94a60.12,60.12,0,0,0-2.49-15,49.21,49.21,0,0,1-1.56-15.17,15.45,15.45,0,0,1,4.35-10.21c2.3-2.41,4.45-2.53,6.41-.36,8.49,9.45,13,22,23.51,29.93C878.34,1364.73,883,1366,889.49,1366.84ZM1399.15,862.6c.35-5.19,1.07-9.05.77-12.82-.69-8.87-.89-17.88-4.54-26.22-.4-.93-2-1.37-3.12-1.94a9.2,9.2,0,0,0-10.29,1.79c-5.64,5.35-9.63,11.9-13.57,18.42-9.33,15.45-22.75,27.39-34.41,40.85-20.26,17.51-40.43,35.1-63.22,49.38-10.79,6.76-21.4,13.8-32,20.77a10.82,10.82,0,0,0-4.34,6.16,64.13,64.13,0,0,0-2.2,7.29c-.67,3.76-.81,7.61-1.41,11.39-1,6.37-3,12.47-7.18,17.48-5.91,7.12-9.5,15-9.47,24.38a46.41,46.41,0,0,1-3.49,18.67c-3,7.08-4.07,14.72-6.14,22.07-10.7,38.1-23.24,75.5-42.23,110.45a178.17,178.17,0,0,0-9.32,20.94c-.8,2.07,0,4.87.38,7.26.56,3.08,5.89,4.28,9.79,2.48,2.32-1.06,4.66-2.09,6.94-3.21,17.18-8.47,33.26-18.8,49.32-29.15a142.8,142.8,0,0,0,12.28-9.11,510.35,510.35,0,0,0,68.51-66.52,269.25,269.25,0,0,0,18.6-24.26c12-18,23.35-36.49,33.65-55.56a355.11,355.11,0,0,0,27-63.17c2.28-7.3,5-14.47,7.09-21.82C1392.76,906.54,1399.79,884.59,1399.15,862.6Zm-142.35-380c4.43-.37,7-.52,9.5-.8,3.43-.39,6.88-4.66,7-7.73.31-7.86-2.64-15-4.24-22.45-5.39-25.25-15.82-48.5-28-71-7.42-13.68-17.41-25.39-30.31-34-7.44-5-14.34-10.61-21.7-15.63a144.25,144.25,0,0,0-13.3-7.62c-1.07-.57-2.48-.48-3.71-.81-3.11-.85-7.75,2.63-8.49,5.76-1.77,7.57-.26,15.31-1.53,22.85-.63,3.75-1.72,7.42-2.72,11.1-.75,2.74-6.06,6.15-8.94,6-10.89-.56-19.43-5.72-26.42-13.67-1.62-1.86-2.5-4.42-3.51-6.75s-1.51-4.93-2.69-7.17c-2.19-4.2-7.39-7.59-12.66-6.28-2.47.62-5.06.83-7.51,1.5-13.52,3.73-27.1,7.25-40.46,11.46a61.86,61.86,0,0,1-18.7,3.37c-3.83,0-7.67.23-11.48.6a41.36,41.36,0,0,0-14.72,3.7c-10.29,5.1-20.77,9.81-31.15,14.72-1.13.54-2.08,1.45-3.18,2.06-5.44,3-7.61,11.4-3.91,16.74,8,11.57,15.75,23.3,21.65,36.07,5.43,11.76,13.43,21.58,21.82,31.16,1.48,1.69,4.48,2.32,6.91,2.84a20.6,20.6,0,0,0,7.58.3c31.74-5.57,63.52-5.7,95.41-1.36,7.58,1,15.25,1.51,22.87,2.31,3.8.41,7.63.78,11.38,1.51,8.77,1.72,17.42,4.41,26.25,5.3,10.35,1.05,19.72,5.34,29.73,7.22,7.56,1.42,14.89,3.53,22.29,5.52C1246,481,1252.34,481.78,1256.8,482.6Zm-176.39,736c3.44-.18,4.71-.28,6-.31a24.5,24.5,0,0,0,17.09-7.32,129.32,129.32,0,0,0,22.83-30.54c7.88-14.57,15.76-29.16,21.89-44.6,4.7-11.85,9.58-23.63,14.36-35.45,8.64-21.33,14.8-43.41,20-65.79a57.46,57.46,0,0,0,1.23-15.21c-.11-3-5.71-6.75-8.42-5.32-20.28,10.78-41.22,20.16-63.17,26.84-29.25,8.9-58.48,18-88.57,23.79a26.48,26.48,0,0,0-7.23,2.27,16.78,16.78,0,0,0-5.85,4.68c-6,8.34-9.89,17.77-13.56,27.32-9.16,23.89-20.45,46.68-35,67.8-2.88,4.17-5.09,8.8-7.56,13.24-2,3.68,1,11.22,5.2,13,1.15.49,2.16,1.37,3.34,1.77,30.81,10.4,67,18.81,96.72,22.27C1067.26,1217.92,1074.92,1218.21,1080.41,1218.62ZM1027.7,557.29c.69,5.79,1.19,13.46,2.59,21,4.21,22.62,6.4,45.46,8.3,68.36.42,5.08.93,10.17,1.82,15.19,2,11.34,2.74,22.76,3.29,34.25a468.85,468.85,0,0,0,9.68,75.85c.51,2.37,2.1,4.59,3.51,6.65,1.08,1.57,9,2.37,11,1.34,6.84-3.41,13.62-6.93,20.48-10.28,15-7.32,28.56-16.77,41.88-26.69s24.66-22.12,36.57-33.67a120.39,120.39,0,0,0,27.85-40.71,7,7,0,0,0-1-7.22,44.74,44.74,0,0,0-4.94-5.77c-22.56-20.68-46.14-40.19-69-60.49a381.33,381.33,0,0,0-72.12-50c-3.27-1.77-7.28-2.19-11-3.17-3.19-.85-8.09,2.77-8.27,5.93C1028.23,550.36,1028,552.9,1027.7,557.29Zm-6.77,167.19c-1.76-36-6.29-69-8-102.14a21.39,21.39,0,0,0-1.56-7.46c-5.8-13.09-8.14-26.8-8-41a165.69,165.69,0,0,1-4-30.28,14.39,14.39,0,0,0-5.22-9.93,43.21,43.21,0,0,0-6.13-4.49c-3.33-1.94-7-3.77-8.65-7.26-4.39-9.35-12.24-16.34-16.85-25.5-2.41-4.77-6.84-7.62-11-10.4-9.61-6.39-19.93-11.24-31.58-12.94-5-.73-9.86-2.75-14.89-3.49-2.27-.34-5.45.3-7.08,1.77-6.66,6-12.68,12.71-14.64,21.88-1.35,6.3-4.6,12-6,18.13-3.16,13.64-3.49,27.86-8.42,41.16a12.28,12.28,0,0,0-.65,3.77q-.43,11.47-.74,23c-.26,9.13,2.17,17.7,5.73,26a21.88,21.88,0,0,0,3.84,6.53c4.41,4.59,9,9,13.87,13.15a15.83,15.83,0,0,0,6.88,3.08,69.65,69.65,0,0,0,19.07,1.1,25.93,25.93,0,0,0,3.73-.82c5.21-1.17,9.41-3.6,11.06-9.08.73-2.43,1.17-5,2-7.38,1.82-5.51,6.37-8.93,11.1-8.3,6.32.83,12.72,1.43,18.91,2.86,5.65,1.3,8.74,6,7.07,11.39-1.87,6.12-3.94,12.17-7.64,17.46-5.14,7.34-10.78,14.27-17.68,20.07-1.94,1.64-4.17,3-6.11,4.59-5.19,4.35-4.64,11.47,1.17,16.16,3,2.4,5.81,5,9,7.15,19.3,12.94,35.23,29.4,49.91,47.21q4.88,5.91,10,11.65a10.53,10.53,0,0,0,6.46,3.16c3.31.32,4.9-1.24,4.93-4.48C1020.77,734.36,1020.88,728,1020.93,724.48ZM428.59,562.56c-1.54-1.32-3.18-3.81-5.29-4.32-6.32-1.53-12.73-.28-18.74,1.79-14.42,5-28.88,9.91-43,15.69a144.18,144.18,0,0,0-23.73,12.12c-24.54,15.89-48.78,32.19-71.18,51.07-1.72,1.45-3.79,8.39-3.14,10.66.71,2.43,1.29,4.91,2.06,7.32,7.31,23.13,18.41,44.62,29,66.3a95.18,95.18,0,0,0,26,32.55c5.93,4.79,11.7,9.8,17.74,14.45a17.91,17.91,0,0,0,6.82,3.17,26.14,26.14,0,0,0,18.48-2.27A46.83,46.83,0,0,0,370,767c20-15.14,19.9-14.13,23.18-36.64,1.83-12.58,4.32-25.06,6.36-37.61,4.7-28.88,10.32-57.56,18.83-85.58,3.69-12.16,5.62-24.79,10.1-36.74C429.3,568.16,428.59,565.36,428.59,562.56ZM584.19,630l-.6,0c0-10.17,0-20.35,0-30.52A128.34,128.34,0,0,0,580.91,573c-1.16-5.41-4.55-9-9.19-11.42s-9.29-4.1-13.81-6.39c-5.78-2.93-11.92-4.19-18.27-5-7.59-1-15.14-1.65-22.78-.38-5.1.84-10.09-.15-15-1.52a64.31,64.31,0,0,0-11.12-2.46,19.12,19.12,0,0,0-11,2.22,28.25,28.25,0,0,0-11.09,10.15c-6.65,10.88-11.59,22.51-16,34.48-13.06,35.94-21.3,73.13-29,110.44-1.79,8.65-1.82,17.67-2.57,26.53-.45,5.15,5.16,9.18,10.16,7.34,3.57-1.32,7.35-2.32,10.58-4.23,12.06-7.13,24.7-13.13,37.41-18.92,24.32-11.09,49.13-20.79,75.66-25.41,7.55-1.31,14.53-4.44,21.57-7.42,4.29-1.82,5.58-5.58,5.83-9.07C583.26,658,583.6,644,584.19,630ZM555.91,526c7.34-2,14.84-3.67,22.11-6,5-1.61,9.15-4.86,10.82-10,3.92-12.14,7.24-24.48,11.37-36.53,1.2-3.48,4.49-6.06,8.54-7,9.63-2.17,17.87.94,23.37,8.78a25.79,25.79,0,0,1,4.56,18c-.69,7.57-4.76,14.54-3.65,22.32a4.76,4.76,0,0,0,2.21,3c3.48,1.89,7.4,2.29,10.74.16,12.93-8.23,26.83-14.78,39.81-22.85s26.43-15.47,40.05-22.51c11.35-5.86,22.21-12.82,33.92-17.79,12.87-5.46,26.47-9.16,39.73-13.71,1.16-.4,3.09-1.55,3-2.1a9.1,9.1,0,0,0-3.9-6.26c-2.09-1.38-4.37-2.89-6.76-3.36-12.63-2.48-24.71-6.29-35.81-13-7.75-4.68-16.3-7.21-25.16-8.81a13.34,13.34,0,0,0-7.48.95c-7.5,2.92-13.18,7.63-16,15.36-.88,2.4-1.44,5-2.79,7.12a41.64,41.64,0,0,1-7.15,8.92,11.32,11.32,0,0,1-10.79,2c-2.25-.67-3.87-3.16-4.47-5.66-.89-3.71-1.19-7.55-1.91-11.3s-1.65-7.48-2.51-11.21c-1.09-4.69-6.46-8.68-11.18-8.7a299.8,299.8,0,0,0-42,2.35c-11.39,1.56-22.82,2.88-34.21,4.43-5,.69-10.12,1.46-15.08,2.61-10,2.31-19.25,5.88-27.45,12.74a177.73,177.73,0,0,1-31.54,21.65A52.28,52.28,0,0,0,510,454a44,44,0,0,0-15.82,21.14c-2.56,7.2-4.57,14.6-6.83,21.91-1.16,3.74.57,6.82,4.06,9.19,7.66,5.22,16.92,5.46,25.21,8.66a11.16,11.16,0,0,1,5.82,4.77c2,3.28,3.82,6.62,5.84,9.87a7.52,7.52,0,0,0,9.64,3.23C543.89,530.45,549.87,528.23,555.91,526Zm536.35-51.9c-8.91.22-17.82.42-26.73.68a22.28,22.28,0,0,0-3.78.57,22.59,22.59,0,0,0-12.9,7.57c-6.84,8.06-9,24.89,2.9,34.26,11,8.66,22.31,16.93,34.13,24.46A1156.88,1156.88,0,0,1,1188.35,615a143.2,143.2,0,0,0,19.08,12.58c3.06,1.74,8.29,1.07,10.56-1.37a34.14,34.14,0,0,0,2.73-2.64,230.05,230.05,0,0,0,21-36.26c8.27-17.28,13.57-35.67,17.4-54.43a42,42,0,0,0,.33-11.38,16.45,16.45,0,0,0-7.7-12.55c-7.48-5-16-7.89-24.57-10.22-19.66-5.32-39.74-8.89-59.35-14.52-7.29-2.09-15.16-2.09-22.56-3.9C1127.85,476,1110.16,474.33,1092.26,474.06Zm295.65,228.83c0-23.49-3.92-43.57-7.48-63.7a30.25,30.25,0,0,0-1.07-3.68,265.3,265.3,0,0,0-22.42-52.83c-11.45-20.19-26-38-44.87-51.78a19.71,19.71,0,0,0-14.51-3.52c-2.7.36-5,1.23-6.31,3.73a75.72,75.72,0,0,0-7.67,21.47c-2,10.08-5.85,19.6-8.12,29.55-2.91,12.71-9.21,23.74-16.16,34.48-4.16,6.41-9.18,12.25-12.28,19.37-1.2,2.76-.76,8.5.94,10.93a74.37,74.37,0,0,0,16.11,16.3c17.35,13.2,32.54,28.75,48.49,43.48,12.21,11.26,24.87,22,37.36,33a38.35,38.35,0,0,0,13.37,7.29c2.39.79,5.27,2,7.38,1.36a14.48,14.48,0,0,0,8.29-7.57C1385.17,727.91,1388.5,714.36,1387.91,702.89ZM567.34,1148c-25.79,11.06-51.86,21.41-78.55,30.16a57.68,57.68,0,0,0-6.94,3.17c-3.83,1.86-5.09,5.45-5.72,9.22-1.28,7.65-.55,15.35.89,22.85,2.39,12.52,5.42,24.92,8.18,37.37a83,83,0,0,0,14.19,31.14c1.42,2,3.67,4.12,5.87,4.56,10.21,2,18.67,8.2,28.35,11.43,3.62,1.2,7,3.28,10.66,4.22,11.12,2.84,22.26,5.66,33.53,7.82A79.23,79.23,0,0,0,612,1309a28.7,28.7,0,0,0,6.91-3.16c5.87-3.31,9.22-10,7.94-15.95-1.88-8.73-3.24-17.64-6-26.08-9.18-27.85-16.2-56.3-23.93-84.55-2-7.38-4.15-14.73-6.46-22a44.94,44.94,0,0,0-3.38-6.81c-2.39-4.65-8.39-7.26-12.69-5.5C572,1145.89,569.68,1147,567.34,1148ZM847,457.45c-6.29,0-10.13-.28-13.92.06a94.34,94.34,0,0,0-25.93,5.81C781,473.4,755.4,484.57,730.8,498c-19,10.33-37.67,21.26-56.37,32.14a177.88,177.88,0,0,0-24.84,17.71c-1.91,1.6-3.37,3.75-5,5.65-2.08,2.38-2.17,7.66-.14,10.68,1.41,2.1,2.58,4.49,4.38,6.19,11.09,10.5,22.13,21.07,33.6,31.14,5.71,5,12.27,9.06,18.56,13.38a56.53,56.53,0,0,0,6.78,3.41c3,1.49,8.3.76,10.68-1.78C728,606.26,738.74,597.3,749.14,588c3.79-3.39,7.49-7.29,12-9.42,11.53-5.48,20.48-15.3,32.94-19.07,12.13-7,24.28-13.87,36.37-20.88,6.77-3.93,12.13-9,14.74-16.78,4.47-13.27,9.48-26.36,13.82-39.66,1.56-4.78,1.84-10,2.7-15,.55-3.22-2.87-8.24-5.74-8.6C852.14,458.11,848.36,457.62,847,457.45Zm71.19-94.35c-.34-2.48-.3-5.08-1.07-7.41-9.6-29.14-22.78-56.51-40.73-81.47a112.59,112.59,0,0,0-7.48-8.62c-3.68-4.14-13.06-6.54-17.51-4.52-17.38,7.87-34.12,16.78-49,28.95-6.87,5.62-14.2,10.68-21.28,16.06A271.08,271.08,0,0,0,732,353.69c-2.25,2.84-3,6.93-4.15,10.53-.91,2.84,1.84,8.52,4.41,9.77q15.39,7.49,30.8,14.94c12.43,2.92,23.91,8.3,35.49,13.51,7,3.14,14.53,4.57,22.11,5.48a22.39,22.39,0,0,0,7.53-.34c22.34-5.24,43.49-13.87,64.33-23.24a73.7,73.7,0,0,0,22.06-14.65C916.31,368,917,365.32,918.22,363.1Zm60,664.47c4.69,0,7.23.11,9.75,0,4.77-.26,8.85-5.26,9.44-10.22.92-7.72-.58-15.23-1.11-22.83-.37-5.31.4-10.39,3.55-14.51,5.58-7.3,9-15.07,9.09-24.49.15-16.67,4.62-32.74,7.82-49,1.73-8.74,3.76-17.42,4.65-26.29.25-2.49-.21-5-.29-7.57-.12-3.17-5.27-6.32-8.46-5.6-5,1.13-9.58,3.32-14.14,5.55-14.87,7.26-30,13.64-46.16,17.81-14.74,3.79-28.83,9.95-42.74,16.3-9.42,4.3-17.31,10.73-24.36,18.14a34.43,34.43,0,0,0-6.26,9.5A137.34,137.34,0,0,0,874,948.84c-1.21,3.78-.82,7.39,1.86,10.51,4.34,5.06,6.53,10.72,5.57,17.53a39.59,39.59,0,0,0,.13,7.61,37.14,37.14,0,0,0,.63,3.75c1.6,9.45,8.44,16.62,17.88,16.92,12.92.41,25.06,4,37.26,7.51,3.64,1.05,7,2.89,10.57,4.34,7.06,2.9,14.06,6,21.23,8.57A55.62,55.62,0,0,0,978.19,1027.57ZM602.05,993.39l.66,0c0,9,.24,17.9-.05,26.84-.53,16.61-.85,33.23-2,49.81-.26,3.79.38,7.62.38,11.44,0,3.25,1.41,4.71,4.63,5.12,2.45.31,5.11.78,7.34-.69,10.67-7,21-14.54,31.82-21.38,18.42-11.66,35.3-25.37,52.4-38.78,5-3.92,9.25-8.8,13.68-13.4a53.14,53.14,0,0,0,4.53-6.14c2.26-3.13,2.64-8.09.72-10.7-2.25-3.07-4.08-6.81-7-8.94-7.58-5.46-9.72-14.94-16.41-20.93-4.94-4.43-6.79-10.73-9.58-16.43-5.63-11.47-11.27-22.94-15.34-35.13-2.42-7.26-5.87-14.16-8.88-21.22-.5-1.17-1.18-2.27-1.73-3.42-1.87-4-8.09-7.68-12.31-7.71-11.76-.07-22.71,3.47-33.48,7.58-2.14.83-4.1,3.12-5.3,5.22A32.22,32.22,0,0,0,602,909.19c-.72,16.61-1,33.23.75,49.8a81.46,81.46,0,0,1,.15,15.3C602.37,980.64,602.3,987,602.05,993.39ZM1130,304.51a8.08,8.08,0,0,0-3.13-6.3c-17.88-14.85-38.25-24.94-60.37-31.74-6.07-1.87-12-4.19-18.22-5.6-11.16-2.54-22.36-4.81-33.42-7.87-6.06-1.68-12.58-1.71-18.89-2.55-5-.68-10.13-1.21-15.1-2.27a138.2,138.2,0,0,0-30.36-2.67c-15.27.14-30.54.19-45.81.39-2.51,0-5,.71-7.53,1-3,.33-6.14,5.27-5.42,8.5.27,1.24.1,2.69.69,3.74,3.08,5.56,6.07,11.2,9.58,16.49a455.9,455.9,0,0,1,38.35,70.22,6.76,6.76,0,0,0,2.32,3c2.08,1.3,4.34,3,6.62,3.1s5-1,7.17-2.17c23.68-12.49,48.53-22.2,73.55-31.54a87,87,0,0,1,22.32-4.75c5.06-.48,10.17-.53,15.25-.75,17.79-.77,35.58-1.44,53.36-2.4,2.35-.13,4.74-1.51,6.89-2.7C1128.79,307.07,1129.25,305.57,1130,304.51ZM198.24,795.45c.5,12.92,1,25.64,1.49,38.37.51,12.89,3.88,25.06,9.13,36.77A5.36,5.36,0,0,0,215,874c2.46-.36,5.29-.32,7.27-1.55,14-8.74,28.53-16.75,40.84-28,3.71-3.4,8.26-6,12.64-8.52,6.59-3.84,13.57-7,20-11.06a45.09,45.09,0,0,0,15.65-16.42c1.9-3.39,2.06-8.4,0-10.74-7.49-8.66-15.05-17.26-22.4-26-6.56-7.83-13-15.82-13.61-26.7-2-4.68-3.51-9.64-6.06-14A236.64,236.64,0,0,1,245,671c-.62-2.4-2.06-4.58-3-6.89-1.23-2.89-7.19-3.84-9.87-1.84-6.27,4.68-10.45,11-14.63,17.42a12.25,12.25,0,0,0-1.64,3.42c-2.25,8.59-5.9,16.88-6.12,25.92-.15,6.41-.69,12.66-3.29,18.63a76.52,76.52,0,0,0-5.8,26C199.68,767.63,199,781.62,198.24,795.45Zm669.7-46.72c-.59,4.2-1.05,8-1.68,11.79-1.31,7.81.08,15.24,2.92,22.49a10.8,10.8,0,0,0,1.7,3.41,7.75,7.75,0,0,0,3.21,1.92c12.18,4.21,24.56,6.8,37.51,4.13,1.25-.26,2.54-.32,3.79-.6a59.72,59.72,0,0,1,26.6.33,37.19,37.19,0,0,0,15.19.14,142.56,142.56,0,0,1,30.5-2.75A25.45,25.45,0,0,1,998.81,792a70.32,70.32,0,0,0,7.06,2.92,6.88,6.88,0,0,0,7.18-1c1.82-1.48,2.11-3.77.89-6.56-2.56-5.83-6.09-11.18-7.87-17.42-2.13-7.46-6.47-13.85-11.09-20a206,206,0,0,0-49.83-47.2c-8.46-5.71-17.5-10.55-26.15-16-8.9-5.6-18.32-8.78-29-7.73-5.22.52-10-1.63-14.87-3.14a8.2,8.2,0,0,1-6-8.38,69.45,69.45,0,0,0-1.41-22.77c-1.14-4.85-6.25-8-11.79-7.1s-9.09,4.15-12.34,8.23c-3,3.79-4,7.2-2.71,10.48.94,2.37,1.9,4.75,3.06,7a32.87,32.87,0,0,1,2,25.9c-.74,2.35-.38,5.06-.44,7.61-.11,5.51,2.44,9.8,6.57,13.13,2,1.59,4.36,2.65,6.47,4.07,5.61,3.78,9.07,9,9.34,15.82C868.13,736.35,867.94,742.74,867.94,748.73ZM521.61,857.86l0,.78c12.68-.31,25.36-.56,38-1,2.5-.09,5-.92,7.47-1.34,2.3-.38,7-5.63,7.21-8.09.09-1.24.84-2.45.87-3.68q.56-19,.95-38c0-1.24-.41-2.49-.47-3.74-.24-4.35-5.53-9.41-10.12-9.78a187.38,187.38,0,0,0-41.65,1.48c-24.13,3.45-46.25,13.19-69,20.86-6.4,4-13.55,6.95-18.51,13.09-1.86,2.29-2.32,4.31-1.42,6.9a23.65,23.65,0,0,0,12.12,14c4.51,2.22,9.58,3.28,14.3,5.14a68.12,68.12,0,0,0,29.82,4.5C501.31,858.31,511.47,858.2,521.61,857.86Zm325.62,1.32c-.51-13.8-.71-21.46-1.12-29.11a43.24,43.24,0,0,0-1.27-7.53c-.29-1.19-1.28-2.19-1.67-3.37-1-3-2.85-3.67-6-3a138.8,138.8,0,0,1-38,2.67,118.79,118.79,0,0,0-37.89,4.21c-6.15,1.65-12.5,2.61-18.63,4.31-5.22,1.46-8.35,5.37-10.3,10.36a36,36,0,0,0-2.54,18.7c.58,3.9,1.73,7.55,4.86,10,4,3.11,8.41,5.73,12.58,8.64a56.31,56.31,0,0,0,21,9c3.75.79,7.4,2,11.15,2.78,12.54,2.55,25.13,4.29,38,2.92,6.32-.67,12.74-.53,19.11-.71,5.13-.15,9.94-4.52,10.11-9.23C846.83,870.87,847.14,862,847.23,859.18Zm-72.68,96c1.47-5,1.5-8,.42-11.13-2.09-6-5.26-11.4-6.71-17.71-2.11-9.19-8.59-15.64-16.93-19.35a62.78,62.78,0,0,1-18.65-12.67c-8.86-8.63-9.11-8.34-26-13.94a29.42,29.42,0,0,1-6.56-3.65c-1-.68-1.7-1.87-2.63-2.73a56.13,56.13,0,0,0-5.68-5,10,10,0,0,0-7.07-1.47c-3.08.31-6.25,4.39-6.62,8.21-1.27,12.85.17,25.27,5.28,37.24,5.47,12.82,12.48,24.94,17.1,38.15,4,11.5,13,18.43,23.26,23.92a100.94,100.94,0,0,0,14,5.79c7.92,2.82,15.16.73,21.13-4.61,4.68-4.19,8.68-9.19,12.63-14.12C773,960.21,773.57,957.53,774.55,955.2ZM551.47,716.31c-25.5,3.74-49.2,12.84-72.34,23.67-4.61,2.16-9.24,4.27-13.93,6.26-14.2,6-26.65,14.8-38.6,24.38a17.13,17.13,0,0,0-2.64,2.74c-4,5-7,10.59-8.18,17a12.38,12.38,0,0,0,1.21,7.26c1.38,3.06,3.27,3.48,6.32,2.17,10.52-4.52,21.13-8.81,31.73-13.14a86,86,0,0,1,10.7-4c32-8.28,63.8-17.94,97.39-17.57a20.62,20.62,0,0,0,7.31-1.63,8.67,8.67,0,0,0,5.16-5.2,22.76,22.76,0,0,0,1.79-7.32,218.05,218.05,0,0,0-2.32-30.4c-.37-2.64-5.74-6.58-8.55-6.18C561.51,715,556.48,715.65,551.47,716.31ZM1009,820.88c-.33-2.46-2-4.61-4.95-4.46-25.34,1.3-50.65,2.81-76.05,2.63-12.65-.09-25.32,1.43-38,2.31-5.87.4-11.18,6.13-12,12.84-1.7,13.85-3.4,27.7-5,41.57a28.26,28.26,0,0,0,.37,7.45,4.56,4.56,0,0,0,1.94,3.16,45.34,45.34,0,0,0,7,1.89c21.56-7.37,42.18-17.33,64.17-23.55a52.26,52.26,0,0,0,7.06-2.83c10.41-4.69,20.9-9.24,31.17-14.22a64.65,64.65,0,0,0,18.44-13.32C1006.79,830.67,1009.35,826.33,1009,820.88ZM605.24,629c0,10.55-.11,19.4.07,28.26.05,2.48.91,4.94,1.41,7.41.6,3,5,6.83,7.78,7.32,7.58,1.37,15.13.61,22.69.17a33.85,33.85,0,0,0,7.45-1.38,126.25,126.25,0,0,0,34-16.42c1.9-1.27,2.91-4,4.1-6.14a7.53,7.53,0,0,0,.89-3.66c-.1-3.74,1-7.78-.88-11.14s-6.26-3.52-9.65-4.83c-4.74-1.83-5.25-4-1.66-7.25,3.18-2.87,3.63-7.18,1-9.71-1.81-1.75-3.49-3.86-5.66-5-5.65-2.83-11.47-5.17-15.21-10.79a20.77,20.77,0,0,0-5.5-5.14c-6.2-4.32-12.54-8.43-18.83-12.62-4.13-2.75-9.77-.45-12.07,5-2,4.65-3.69,9.44-5.95,14a28.76,28.76,0,0,0-2.85,10.9C605.81,615.48,605.54,623.07,605.24,629Zm243-17a12.06,12.06,0,0,0-.18-7.49c-3.59-10.9-5.88-22-4.86-33.58.1-1.2-.54-2.45-.64-3.69-.25-3-5.92-6.46-8.57-5.22-4.58,2.14-9.36,4-13.71,6.5-28.48,16.64-55.85,35-83,53.76-1,.68-1.44,2.07-2.27,3-2,2.36-1.25,7.75,1.32,10A21.26,21.26,0,0,0,750.06,641a41.84,41.84,0,0,0,7.59,0c6.25-.94,12.4-2.54,18.67-3.26s12.65-.73,19-1a66.75,66.75,0,0,0,22.15-5c4.7-1.9,9.63-3.28,14.18-5.47a75.9,75.9,0,0,0,13-7.85C846.44,617.09,847.09,614.2,848.25,612ZM414.71,1186.28c-4.32-.84-9.29-1.9-14.29-2.74a28.78,28.78,0,0,0-7.55-.59,23.18,23.18,0,0,0-7.18,2.08c-1.6.72-.59,8.64,1.28,10.75,11.77,13.3,23.32,26.8,35.45,39.77,6.9,7.38,14.64,14,22.23,20.7,1.8,1.59,4.45,2.37,6.83,3.13,4.15,1.33,8.41-2.59,8.18-5.31-.55-6.31-1-12.63-1.5-18.94-4.63-13.15-5.48-27.35-11.34-40.17a11,11,0,0,0-8.72-6.45C430.59,1187.36,423,1187,414.71,1186.28Zm190.44-448q-.79,11.32-1.61,22.64c1.61,1.78,2.88,4.39,4.87,5.19,11.12,4.44,22.22,3.75,32.91-1.59,2.18-1.09,4.61-2.61,5.79-4.61,5.13-8.65,9.61-17.66,11.93-27.53a23.27,23.27,0,0,0,.26-7.5c-1.75-16.91-7.89-22.46-24.13-22.12-6.32.14-12.59.54-18.68,2.39-1.2.37-2.68.47-3.5,1.26-1.78,1.68-4,3.49-4.67,5.68C605.52,720.51,606.26,729.5,605.15,738.23Zm352.51-276c2.74.41,4,.56,5.23.81,2.6.5,8-2.43,9.41-5.35a9.22,9.22,0,0,0,.6-7.43c-2.23-5.94-4.2-12-7.12-17.65-5.28-10.17-10.38-20.42-14.81-31a7.37,7.37,0,0,0-2.45-2.9c-1.95-1.41-4.55-2.4-7-1.64s-4.42,2.5-6.27,4.19c-9.4,8.64-17.44,18.52-25.36,28.5-4.82,6.07-3.66,12.75,2.8,15.45,10.56,4.43,21.08,9,31.75,13.11C949.17,460.22,954.2,461.28,957.66,462.28Zm-304.83,370c0-3.77.07-7.54,0-11.31a43.61,43.61,0,0,0-.58-7.5,13.9,13.9,0,0,0-5.7-9.22c-5.43-3.8-11-5.48-17.64-3.48-6,1.82-12.13,3.25-18.2,4.85-1.42,2-3.88,3.88-4.07,6-1,11.23-.72,22.56-2.92,33.72-.43,2.17.67,5,1.91,7a13.06,13.06,0,0,0,8.83,6.31c8.74,1.67,17.52,1.12,26.29.6,1.23-.07,2.41-.76,3.64-.91,2.68-.34,7.14-4.91,7.81-7.35C653.89,844.86,653.08,838.57,652.83,832.32ZM734,700.74c2.13-1.4,4.21-2.88,6.4-4.16s4.09-3.11,4.48-5.81a8.49,8.49,0,0,0-2.14-7,73.14,73.14,0,0,0-18.1-14,16,16,0,0,0-11.11-1.79c-10,2.14-19.33,6.23-28.57,10.51-3.24,1.5-6.55,9.85-5.27,13.51a101.89,101.89,0,0,0,3.95,10.78c4.87,10.13,13.06,15.29,24.33,15.69a51,51,0,0,0,22.31-4.61c3.48-1.5,4.8-3.93,4.46-9.32A27.45,27.45,0,0,0,734,700.74Zm96.22,290.09-.26,0c.38-5.07.9-10.13,1.11-15.2a29.84,29.84,0,0,0-.62-7.55c-.54-2.44-1.08-5.34-2.69-7-5.39-5.61-11.82-9.6-20.08-9-3.82.29-7.41,1.31-10.16,4.37-3.4,3.78-6.85,7.51-10.44,11.1-4.75,4.74-6.31,10.87-7.8,17.06-.7,2.92,1.65,8.83,3.94,10.13,8.8,5,17.48,10.31,26.48,14.94,3.26,1.68,7.28,2,11,2.58,3.13.5,8.1-3.51,8.31-6.33C829.4,1000.89,829.84,995.86,830.24,990.83Zm-22.81-315-.18,0c.6-3.69,1.27-7.36,1.8-11.06s-4.73-10.26-8.83-10.5c-2.45-.14-5.14-.78-7.34-.06-9.44,3.09-18.83,6.38-28,10.11-2.19.89-3,4.16-2,6.16a15.57,15.57,0,0,0,4.88,5.49c9.14,6.43,19.11,11.43,29.25,16.1,2.77,1.27,7.82-1.79,8.47-5.23C806.15,683.19,806.77,679.53,807.43,675.87Zm-102,93.57c0-2.12,0-4.6,0-7.08a9.69,9.69,0,0,0-.35-3.68,25.62,25.62,0,0,0-3.55-6.11c-1.46-1.74-8.61-.79-10.48.88-5.7,5.1-9.3,11.7-12.32,18.45s-1.25,14.8,4.76,20.41c2.71,2.53,6.72,3.1,10.47,2.35,4.56-.92,9.27-6,9.76-10.07C704.27,779.67,704.79,774.74,705.39,769.44Zm117,142.41a18.06,18.06,0,0,0-1.53-3.4,6.88,6.88,0,0,0-2.67-2.27c-8.18-3.46-16.6-5-25.38-2.61-1.18.32-2.83.83-3.22,1.71a5.14,5.14,0,0,0,1.36,6.5c4.89,3.89,10,7.5,15.93,9.55a22.61,22.61,0,0,0,7.27.8C818.93,922.12,822.89,917.05,822.41,911.85Zm22-135.23c0-5.78-2.93-9.41-7.37-12.3-3.44-2.23-6.08-1.91-10.21.68-4.69,2.93-5.42,12.58-.26,16.22a29.66,29.66,0,0,0,6.49,3.69c2.25.83,4.75,1,7.15,1.39A12.88,12.88,0,0,0,844.44,776.62Zm-42.82-47.21c-4.48-.86-6.66-.1-8.33,1.9-2.61,3.15-2.6,7.4,0,9.86,5.34,5,11.79,8.71,15.86,15.15,1.16,1.84,4.31,1.75,6.53.83,3-1.25,3.2-3.23,1.8-6-2.73-5.5-5.08-11.2-8.75-16.19C806.51,731.87,803.65,729.78,801.62,729.41ZM390.79,805.06c-.39-5.16-1.18-7.34-4-10.38-1.77-1.89-4.31-3.38-6.79-2.61s-3.72,3.42-4.34,5.93c-1.14,4.66,1.18,9.92,5.76,13.06,2.44,1.67,4.76,2.13,6.67.73C390.19,810.26,391,807.86,390.79,805.06ZM563.86,906c-6.33-3.64-10.67-10-17.44-13.49a9.84,9.84,0,0,0-3.51-1,6,6,0,0,0-3.47.44c-2.67,1.65-2.59,3.76-.51,6.3,4.92,6,11.6,9.14,18.62,11.62C560.07,910.75,562.21,909.24,563.86,906ZM888.73,417.27c-.13-1.31.06-2.65-.45-3.6s-1.88-2.53-2.71-2.44c-6.48.75-12.05,3.39-15.7,9.06-1.7,2.65-1.25,5,1,6.29a5.38,5.38,0,0,0,3.31.86C880.6,426.28,885.67,423.09,888.73,417.27Zm-187,419.34c-.7.86-2.11,1.85-2,2.56.5,2.77,2.49,3.82,5.12,2.79.93-.36,2.33-1.78,2.17-2.32C706.27,837.12,704.28,836.17,701.69,836.61ZM771.05,715l-1.47,2.31,2.45.25Z"/><path d="M1252.06,789.42c-.55,2.46-.58,5.18-1.73,7.31a94.54,94.54,0,0,1-18.54,23.86c-5,4.75-13.51,4.77-16.33-.47a249.7,249.7,0,0,0-14.06-22.55c-2.9-4.25-4.38-9.09-5.6-14-1.67-6.73.25-12.4,5.19-17.11,3.73-3.57,7.92-6.36,13.23-6.69a24,24,0,0,1,7.53.34,53.19,53.19,0,0,1,23.15,12.44C1249.56,776.9,1252.51,783.6,1252.06,789.42Z"/><path d="M541.82,1085.15a23.82,23.82,0,0,1-13.29,1.8c-3.35-.47-6.75-.57-10.13-.83l.05.2c2.12-.67,4.27-1.27,6.36-2a17,17,0,0,1,9.79-.23c2.17.49,4.32,1.09,6.47,1.64Z"/><path d="M489.8,1059a56.21,56.21,0,0,1-5.05-3.23c-1.57-1.25-1.81-3.2-1.06-5.42l-.13.13c2.65-.08,4.5.91,5.53,3a6.75,6.75,0,0,1-.23,6.47Z"/><path d="M488.86,1059.93c1.14-.22,2.89-1,3.32-.56,1.79,1.87.81,1.92-2.38-.35Z"/><path d="M515.18,1071.11a18.75,18.75,0,0,0-1.57-1.58c-2,1.6-1.76,2.54.65,2.68Z"/><path d="M514.26,1072.21c4.26,3.85,5.27,8.67,4.19,14.11l-.05-.2c.49-5.34-2.43-9.95-3.22-15Z"/></svg>