<svg id="Calque_1" data-name="Calque 1" xmlns="http://www.w3.org/2000/svg" viewBox="0 0 1500 1500"><path d="M1168.4,440.24c.67,2.45,1.41,4.88,2,7.36.28,1.23.71,2.81.2,3.75-2.44,4.46-5.14,8.78-7.83,13.1a326.82,326.82,0,0,1-44.89,57.13c-11.68,11.84-22,24.93-32.12,38.06A168.57,168.57,0,0,1,1062,584.55c-20.37,17.48-39.72,36.07-58.44,55.31-2.65,2.73-4.95,5.81-7.42,8.72-2.6,3.08-3,7.66-1,10.36a563.88,563.88,0,0,0,42.06,49.64c.88.91,2.13,1.44,3.06,2.3,3.27,3,10.68,3,14.27.36,9.33-6.71,16.41-16.08,26.31-22.06.9-.55,2.39-1,3.21-.64,2.75,1.23,3.43,3.67,1.66,6.37-2.09,3.18-4.53,6.14-6.84,9.18-6.19,8.1-14.06,14.85-19.34,23.66-2,3.42-1.67,7.43-.37,11.07a26.16,26.16,0,0,0,3.72,6.64c7.65,10.23,15.3,20.47,23.18,30.52,14.19,18.1,28.27,36.29,42.89,54,30,36.5,58.39,74.37,89.73,109.8,3.38,3.83,6.72,7.7,10.14,11.5a18.7,18.7,0,0,0,13.4,6.37,49.23,49.23,0,0,1,7.61.52c3.69.78,7.47,1.6,8.68,6.21,1.35,5.13,5,8.69,8.84,12.14,4.39,4,2.79,9.42-2.36,12.38a32.21,32.21,0,0,1-7,2.89c-3.87,1.12-6.53,3.69-9.09,6.58-5.59,6.31-12.82,7.57-20.79,6.6a9.47,9.47,0,0,1-7.44-7.48c-.31-2.53-.37-5.09-.63-7.64-.79-8-4.41-12.38-10.84-13.62-7.56-1.46-15.27-3-22.82-2-9,1.17-17.82,0-26.71.38a10.82,10.82,0,0,0-9.43,5.53c-2,3.64-4.84,5.45-9.35,4.52-5.21-1.08-10.1.61-14.77,2.89l1.07.95a49.22,49.22,0,0,0-4.89-5.57c-2.89-2.47-12.17-2.13-14.2.28-6.52,7.72-13,15.6-17.16,24.82a35.06,35.06,0,0,0-1.79,25.89l1.06-1.15c-.71-1.06-1.35-2.18-2.14-3.18-8.08-10.19-8-21.12-2.77-32.38,3.76-8.17,9-15.44,14.38-22.61,2.57-3.43,1.66-8-1.67-9.52-1.16-.51-2.22-1.27-3.39-1.74a40.87,40.87,0,0,0-7.2-2.61,185,185,0,0,0-45.77-3.42c-3.72.21-6.85,3.66-10.78,2.83-3.67-.78-6.75-3.52-10.68-3.64a12.43,12.43,0,0,0-3.81.34,25.35,25.35,0,0,0-3.35,1.81c-5.31,2.64-5.57,2.83-9.29-1.35a16.13,16.13,0,0,0-9.9-5.13,89.06,89.06,0,0,0-23-.48,4.78,4.78,0,0,0-3.27,1.85c-1.26,2-.76,4.37.64,6.8a13.59,13.59,0,0,0,5.59,5,24.42,24.42,0,0,1,5.92,4.62c2.53,2.75,2.22,7.8,6.29,9.17,3.73,1.25,7.13-.79,10.59-2.42,4-1.88,7.27.87,6.89,5.19-.12,1.28-.17,2.56-.34,3.83-.34,2.53-.8,5.05-1.13,7.59-1.09,8.51,1.27,15,10.25,17.77,2.72.83,4,3,3.27,6a15.63,15.63,0,0,0,1.28,11.07c4.68,9.21,11.47,16.92,17.68,25,33.41,43.71,65.59,88.34,98.4,132.49,2.32,3.12,2.57,7.08,1.66,11l.71-.77c-2.72.35-5.21-.08-7-1.83-4.48-4.45-9.15-8.78-13.13-13.66-16-19.61-32-39.23-47.54-59.17-16.34-21-32.35-42.15-48.23-63.45a436.12,436.12,0,0,0-44.55-51.7,40.16,40.16,0,0,1-8.56-12.33c-1.6-3.48-4.71-5.42-8.37-7-7.07-3.09-14-5.59-21.91-4.23-2.3.4-4.88-.83-7.34-1.32-2.45-3-2.88-6.7-3.82-10.32-1.14-4.39-9.12-6.86-12.72-4.27-5.07,3.67-10.07,7.45-15,11.29a8.45,8.45,0,0,0-2.19,3c-1.25,2.64-1,4.91.53,6.77,1.7,2.13,3.88,2.77,6.71,2.39,5.25-.71,9.11-4,13.24-6.79,4.39-3,9.27-3.62,14.4-3.21-.57,2.65-1.67,5-3.78,6.27-13.15,7.83-25.31,17-37.44,26.3-22.38,17.18-41.54,37.51-59.62,59-1.63,1.93-2.83,4.22-4.29,6.31-3.14,4.51-4,9.38-1.23,14.22,5.11,8.8,10.43,17.49,15.86,26.1q31.57,50.06,63.28,100c2.72,4.31,5.49,8.6,7.93,13.06a16.42,16.42,0,0,1,1.5,11.06l.7-.62a8.2,8.2,0,0,1-6.86-2.32,43.42,43.42,0,0,1-5.1-5.68c-19.81-29.62-41.25-58.12-60.3-88.27q-10.18-16.12-20.66-32.08c-2.08-3.18-4.69-6-7-9-3.11-4-10.5-4.18-13.36-.3-10.58,14.33-21.56,28.32-33.24,41.79-6.66,7.69-13,15.74-18.86,24a528.47,528.47,0,0,1-38.23,47.61c-8.53,9.44-15.92,19.88-25.1,28.76-2.68,2.6-4.45,3.3-10.21,3.19l.77.69c-.41-2.63-.36-5.26,1-7.38a123.11,123.11,0,0,1,8.67-12.54c28.34-34.48,55.85-69.61,82.91-105.09,7.72-10.14,15.82-20,23.6-30.08,2.32-3,4.7-6.16,5.37-10,.43-2.44,1-5.34.09-7.46a157.57,157.57,0,0,0-10-20.6c-13.83-22.9-28-45.58-42.1-68.33-6.7-10.84-13.23-21.8-20.23-32.45a149,149,0,0,0-13.83-18.24c-4.26-4.72-9.7-8.32-16.28-9.37-5-.81-10.09-1.42-15.16-2-10.14-1.13-20.33-1.86-30.42-3.3a327.84,327.84,0,0,0-34.27-3,457.52,457.52,0,0,1-45.69-4.17c-29.08-4-58.43-5-87.7-6.81a70.8,70.8,0,0,0-11.45.5c-2.51.26-5.33.49-7.38,1.77a106.5,106.5,0,0,1-20.4,10.33c-2.42,2.64-4.74,5.37-7.35,7.79-.34.31-2.76-.71-3.22-1.62-1.66-3.27-2.2-7.41-5.53-9.38-3.68-2.2-7.21.86-10.83,1.46a33.34,33.34,0,0,1-3.75.11c-2.78.14-5.23-.94-6.07-3.7-2-6.38-6.25-10.77-11.06-15.05-4-3.58-3.11-10.09,1.3-13.14a50.7,50.7,0,0,1,6.43-4.11,42.76,42.76,0,0,1,7.18-2.53c5.1-1.43,9-4.57,12.6-8.27l-.46.44c3.78-.86,7.48-.32,11.3.06a23.17,23.17,0,0,0,17.76-5.64c8.68-7.52,17.22-15.22,25.52-23.16,12.93-12.35,25.63-24.94,38.39-37.46,5.47-5.37,11.08-10.61,16.24-16.27,13.79-15.11,28.25-29.54,42.92-43.77a45.2,45.2,0,0,0,5-5.75c3.13-4.26,4.84-9,3.46-14.31-1.3-4.93-3-9.75-4.4-14.66a5,5,0,0,1,.3-3.72c1.28-1.75,3.7-1.87,6.26-.49,2.24,1.2,4.28,2.79,6.44,4.14,3,1.84,7.88,1.16,10.6-1.18,1-.82,2.17-1.37,3.07-2.25,20.17-19.75,36.85-42.32,52.7-65.54,2.19-3.22,2.06-7.43.55-11-4-9.51-10-17.78-16.79-25.5-16-18.27-32.46-36.08-50.52-52.36-7.59-6.84-15.34-13.55-22.46-20.86a1134.63,1134.63,0,0,1-89.9-104.49c-7.73-10.16-15.12-20.59-22.39-31.08-2.25-3.24-2.09-7.15-.46-10.84L453,389c10.51,11,21.06,22,31.5,33.12,6.11,6.49,12.19,13,18.06,19.71,26.87,30.64,55.47,59.68,83.21,89.52,4.63,5,10.65,6.38,17.08,7.19,4.25.54,5.61,2.34,7.32,7.5,1.2,3.6,1.92,7.59,4,10.65,10.64,15.85,32.87,39.15,49.66,52.48a7.2,7.2,0,0,0,7.3.76c3.41-1.36,6.26-4.22,10.32-3.84.25,5.08.42,10.15.79,15.22.25,3.55,4,6.87,7.66,7.06,2.51.13,4.92-.31,6.7-2.5,3.18-3.92,6.73-7.79,7-13.19a31.78,31.78,0,0,1,6.52-17.59c.69-1,.72-2.41,1-3.64.49-2.57.06-5.07-1.82-6.81-.57-.53-2.5.11-3.64.59a33.64,33.64,0,0,0-14.48,11.9c-3,4.25-6.28,8-10.92,10.35-.49-7.73,2.2-14.78,4.88-21.77,1.9-4.93,1.66-9.69.4-14.62a9.35,9.35,0,0,1,.07-3.61,29,29,0,0,1,1-3.6l-.45-1c5.38,3.74,9.83,3.23,12.76-1.3,1.38-2.13,3.06-4.08,4.34-6.28,5.12-8.81,10.46-17.52,15.12-26.57,15.18-29.48,32.53-57.72,48.93-86.5,5-8.84,10.84-17.25,16.36-25.81A23,23,0,0,0,787,398.2c-1.12-4.8,2-6.7,4.86-9,6.87-5.53,7.49-8.19,3.87-16-1.07-2.3-2.2-4.56-3.26-6.87-1.73-3.77,2.1-10.77,6.45-12.14a14.86,14.86,0,0,1,3.69-.95c11.71-.51,22.63,2.86,33.41,6.89,2.62,1,3.76,3.1,2.54,6-.95,2.31-2.74,4.27-4,6.47s-2.24,4.39-3.34,6.59c1.6,2.11,3.87,3.19,6,4.55,4.07,2.56,5.5,6,4.37,9.42-.79,2.4-2,4.68-2.76,7.08a6.05,6.05,0,0,0-.41,3.61c2.57,7.19,5,14.41,9.12,21,14.84,23.78,29.3,47.81,44.3,71.5q25.56,40.38,49.77,81.58c10.33,17.6,21,34.94,33.16,51.36,3.06,4.14,9.87,4.74,13.31,1.14.87-.92,1.95-1.66,2.76-2.63,10.69-12.7,22.66-24.13,34.62-35.62,29.41-28.25,58.72-56.61,87.58-85.44,4.51-4.5,9.15-8.92,13.26-13.76,10.73-12.65,22.19-24.6,33.87-36.36a56.17,56.17,0,0,0,4.93-5.84,16.46,16.46,0,0,0,3.47-10.6ZM840.29,748.43c2.2.83,4.36,2.27,6.59,2.36,3.55.15,7.14-.55,10.7-1,1.07-.13,2.69-.33,3-1a4.77,4.77,0,0,0-1.34-6.25A34.24,34.24,0,0,1,849.1,728l1.6-1.68c.36.53.73,1.05,1.1,1.57l-1.82-.49c-6.2.84-12.26-2.62-18.49-.68-2.53.79-4.39,2.38-5,4.74-1.11,4.66,1.91,10.66,6.12,12.25,3.29,1.25,7.48,1,8.66,5.5a16.73,16.73,0,0,0-1,3.41c0,.44.91,1,1.42,1.48Q843.87,751.27,840.29,748.43Zm-88-48.51c-2.9-2.47-6.51-4.47-8.57-7.51-6.61-9.77-15.85-16.37-25.37-22.8-4.65-3.14-9.26-3.55-14.15-.85l-1.63-1.57L704,666.1l-.69,2c3.38,5.4,6.64,10.88,10.16,16.19a129.53,129.53,0,0,1,9.06,16.76c1.59,3.4,4.22,6.34,6.58,9.33s10.25,5.48,14.09,3.56c3.43-1.72,6.66-3.34,7.41-7.76.42-2.46,1.71-4.78,2.62-7.16l-1.51-1.63C753.74,697.07,753.93,697.91,752.27,699.92Zm158,161.23c-6,2.25-12.28,1-18.44,1.07a23.6,23.6,0,0,0-10.64,2.72c-2.5,1.27-4.07,3.23-3.22,6,.6,2,3.1,2.8,5.81,2.82a8.47,8.47,0,0,0,3.67-.52c7.85-3.7,14.74-9.21,23-12.09a43.57,43.57,0,0,0-7.5,12.86c-1.71,4.88-6.36,7.54-9,11.72a8.34,8.34,0,0,0-.68,7.14c1.5,4.67,5.43,8.41,5.32,13.7-8.09,0-14.59-3-19.39-9.79-2.53-3.6-7.08-4.71-9.71-3-3.17,2-5.92,5-9.33,6.23-7.3,2.68-13.66,6.42-18.84,12.26-2.5,2.83-5.39,5.33-7.93,8.13a5.64,5.64,0,0,0-1.45,3.45c0,2.12,1.64,4.07,4.33,5,10.89,3.76,22.35,3.88,33.65,4.71,3.65.26,7.39-1.43,11.13-1.65,5-.3,10.08,0,15.12-.06,1.21,0,2.39-.73,3.61-1,3.53-.66,6.23-5.81,4.46-8.75-2-3.23-4.23-6.25-6.14-9.5a10,10,0,0,1-.78-7.29,51,51,0,0,1,7.26-1.38c4.18-.21,6.89-2,8.27-6a31.07,31.07,0,0,0,1.75-14.66c-1.05-7.7-.64-7.69,7-10,9.26-2.79,12.62-6.91,12.89-15.76a5.21,5.21,0,0,0-1.16-3.51,5.7,5.7,0,0,0-6.68-1.41C921.19,855.37,916.69,860.14,910.22,861.15Zm-52.05-59.37c-.51,3.36-1,3.33-1.62-.07l2.4,1.19c-.77,7.24-2,8.74-8.39,10-3.68.76-7.38,1.46-11,2.42a9,9,0,0,0-3.08,2.15c-2.28,2-2.87,4.24-1.52,6.5a6,6,0,0,0,2.56,2.31c3.44,1.49,5.47.87,10-2.64l-.66-.22c1,2.33,2.47,4.59,2.86,7,.77,4.86.34,9.81,5.54,13,3.22,2,4.25,6.09,5.86,9.53,1.33,2.85,7,4.3,10.07,3,4.65-2,9.29-4,13.92-6.08,3.91-1.71,5.69-4.45,4.13-9.29-2.27-7-1.16-12.1,5.68-15.54a5.83,5.83,0,0,0,2.39-2.88,5.69,5.69,0,0,0,.37-3.68c-.38-1.09-1.55-2.62-2.5-2.71-10.73-1.08-10.71-1.08-23.7-7.86a30.78,30.78,0,0,0-7.24-2.16A9.87,9.87,0,0,1,858.17,801.78Zm114.29,68.44c-1,2.53-2.31,4.81-4.53,5.81-6.83,3.08-8.78,8.24-8.09,15.42.37,3.82-1.85,7.47-5.06,9.71-7.42,5.17-13.88,11.06-17.9,19.38-2,4.17-.3,10.81,3.82,13.49a36.78,36.78,0,0,0,10.3,4.83c16.26,4.56,32.73,4.82,49.36,3,2.75-.31,8-4.54,8.31-7,.89-6.32,2-12.62,2.56-19a83,83,0,0,0-5.45-37.52,6.41,6.41,0,0,0-2.62-2.75,11.34,11.34,0,0,0-13.74,2.08c-2.6,2.8-5,5.74-7.52,8.67C980,888.57,978,889.81,976,889a4.59,4.59,0,0,1-2.2-3c-1-5-1.75-10-2.59-15q5.1.33,1,1.86C972.31,872,972.39,871.1,972.46,870.22ZM821.09,914.45c2.11-3.28,5.27-5.38,8.38-7.57,6.22-4.39,12.64-8.56,18.39-13.51A25.3,25.3,0,0,0,856,880.74a12.85,12.85,0,0,0,.28-3.77c-.09-2.86-1.31-5.37-3.69-5.63-7.25-.79-10.93-4.76-13.17-11.54-2.12-6.4-7-7.45-11.21-3.31-1.79,1.77-3.33,3.86-5.34,5.32a6.18,6.18,0,0,1-6.92.4c-2.21-1.31-4.25-3.6-4.18-6.07.12-3.71,1.46-7.37,2.16-11.07s-2.52-7-6.89-5.64c-5.92,1.86-9.65-.13-12.79-4.79a18.92,18.92,0,0,0-2.6-2.78c-3-2.94-7.44-3-9.82,0s-4.51,5.88-4.92,10c-.64,6.53-.4,5.59-5.76,8.68-1.1.63-2.31,1.07-3.41,1.69-4.59,2.57-8.4,6.11-9.26,11.39-1.28,8-4.41,14.25-11.58,18.59-5.54,3.36-9,8.88-11.74,14.66a10,10,0,0,0-.93,3.68c-.13,2.52.68,5.21,2.95,6.35,13.73,6.87,29.3,7.39,43.65,12.32,3.41,1.17,7.54.38,11.33.25a9,9,0,0,0,6.77-3c4.06-4.84,8.28-9.63,11.62-14.95,1.93-3.08,2-7.27,3.43-10.76a13.1,13.1,0,0,1,8.09-7.39,5.73,5.73,0,0,1,3.69-.29c3.2,1.35,3.83,3.41,1.92,5.5-3.52,3.85-6,8.1-5.76,13.54.15,3.81.21,7.61.3,11.42q-3.63,2.31-1.89-1Zm37.54,36c-3.83,1.09-7.53.46-11.17-.87-4.75-1.74-9-4.72-14.23-5.34a7,7,0,0,0-8,5.72c-.77,3.8-1.73,7.32-5.61,9.13A53.68,53.68,0,0,0,797,979.21a61.55,61.55,0,0,1-22,20.66c-2.42,1.36-3.08,3.8-2.32,6.67a35.78,35.78,0,0,0,1,3.68c3.62,9.66,10.11,17.71,15.3,26.45s7.81,18.92,14.34,26.95a17.86,17.86,0,0,0,2.81,2.53c2.06,1.68,4.37,1.65,6.89,0,7.66-5.1,11.8-13.28,17.56-20,10.76-12.63,21.63-25.17,31.07-38.86,2.17-3.15,1.37-7.17-2.23-9.86-1-.76-2.35-1.17-3.19-2.07a5.25,5.25,0,0,1-1.55-3.24c0-.77,1.3-1.88,2.22-2.17a58.54,58.54,0,0,1,7.45-1.65c3.82-.66,7.81-1.59,9.76-5.08,4.38-7.84,10.72-14.18,15.68-21.55,2.68-4,.49-11.86-3.73-13.22-3.61-1.17-7.31-2.07-11-3.15A12.36,12.36,0,0,0,864.29,947c-2.12,1.42-4.21,2.88-6.32,4.32Zm-161-131.06c-.57,2.77-1.9,5-4.26,5.73-3.64,1.12-7.45,1.64-11.11,2.7a39.09,39.09,0,0,0-7,2.91c-4.55,2.35-6.07,8.94-3.19,12.58,3.26,4.13,7.11,7.23,12.41,8.22a33.52,33.52,0,0,1,3.72.88c1.18.37,3.25.84,3.29,1.39.23,2.94-1.74,4.31-4.06,5.83-9,5.92-9.7,9.93-4.05,18.53a109.7,109.7,0,0,0,17,20.66,24.88,24.88,0,0,0,6.44,3.95,7.06,7.06,0,0,0,7.16-.95c8.58-6.08,12.16-16.29,19.27-23.64,2.57-2.65,3.87-6.55,5.64-9.93a9.27,9.27,0,0,0,1.17-3.63c.13-2.53-.17-5.08-.13-7.61.09-5.18,5.27-4.08,7.82-6.23a14.06,14.06,0,0,0,2.67-2.61c2.88-4.21,5.67-8.49,8.44-12.78.69-1.07,1.15-2.28,1.76-3.39,3.18-5.78-.1-13.6-6.51-15.14-6.2-1.48-12.46-2.73-18.69-4.08,1.33-2.3,3-4.3,5.39-5.16,6-2.17,12.06-4,18-6.12,3.94-1.41,6.3-9,4.21-12.94-9.49-18.08-19.5-35.85-31.55-52.39C723.25,724.86,714.88,713.6,707,702c-3.57-5.22-5.63-11.51-9.37-16.57-4.52-6.12-10.19-11.37-15.17-17.16-2.48-2.89-4.45-6.22-6.81-9.23-3.71-4.74-9.08-5-12.77-.55-7.33,8.8-14.58,17.68-21.92,26.48-5.66,6.79-13,12.52-13.86,22.28-2.31,3-4.25,6.43-7,9-5.62,5.26-11,10.71-14.45,17.63a14.29,14.29,0,0,0-1.07,11.1,63.41,63.41,0,0,0,4.36,10.56c5.6,10,11.63,19.8,17.21,29.82,1.87,3.35,2.13,7.29,1.9,11.16a12.47,12.47,0,0,1-6.51-3.62c-6.48-6.32-10.7-14.32-16.07-21.46-3.07-4.08-6-8.21-9.85-11.66-2.23-2-8.4-2.69-10.67-.73-8.7,7.52-17.26,15.21-26.09,22.57-27.57,23-52.4,48.83-77.74,74.14A20.47,20.47,0,0,0,477,862c-.31.71.81,2.78,1.74,3.19a22.63,22.63,0,0,0,7.24,2c2.85.24,5,1,6.46,3.18-1.33,1.53-3.46,2.42-6.37,2.38-9.35-.12-17.42,3.56-25,8.49-2.32,1.5-3.64,3.69-3.27,5.9.16,1,1.57,2,2.62,2.7a39.35,39.35,0,0,0,17.82,6.53c11.44,1.27,23,2,34.34,3.64,19,2.8,38.16,3.9,57.35,4.61,12.78.47,25.67.76,38.26,2.7,25.38,3.93,50.9,4.75,76.46,5.47a5.62,5.62,0,0,0,3.48-1.49,6.38,6.38,0,0,0,2-6.64c-1.93-6.28-6.23-11.2-10.83-15.58-9.23-8.83-18.86-17.23-29.18-26.59-1.57-3.58-3.57-8.26-5.67-12.9-1.68-3.71-4.5-5.43-9-6-6.45-.8-12.74-.89-18.41,3l.7.37c1.3-5,3.32-9.22,8.83-10.87a27.28,27.28,0,0,0,6.62-3.29,7,7,0,0,0,2.24-2.94c1.59-3.37,2.53-6.67,1.3-10.63-2.59-8.32-9-15-9.94-24,2.13,1.24,4.82,2,6.31,3.81,4.85,5.83,9.14,12.13,13.9,18a18.91,18.91,0,0,0,5.87,4.75c2.17,1.14,4.84,2.26,7.15,2C672.55,822.59,685.1,820.93,697.66,819.41Zm337.07-67.85c.41-5.09,1-10.16,1.18-15.25a16.43,16.43,0,0,0-3.34-10.76,62.88,62.88,0,0,0-7.81-8.34c-2.89-2.56-6.41-4.22-10.38-2.5-5.85,2.55-11.6,5.32-17.41,8-2.3,1.06-4.59,2.18-7,3.1-1.17.45-2.51.42-3.73.77-3.64,1-9.1-1.56-8.46-4.14s1.72-5.13,4.07-6.27c8-3.89,16.26-7.32,24.3-11.17,2.84-1.36,3.4-3.79,2.18-6.24-5.76-11.57-14.28-21.12-22.59-30.81-.8-.93-2.16-1.36-3.17-2.14-2.75-2.13-7.6-2.07-10.75-.45A40.86,40.86,0,0,0,960,674.92c-11.79,13.4-25.05,25.57-34.53,41-1.25,2-3.81,3.3-5.9,4.73-3.19,2.17-6.21,4.54-8.28,7.82a5.22,5.22,0,0,0-.35,3.74,3.94,3.94,0,0,0,2.23,2.26c8.61,3.05,17.73,1.44,26.53,2.83a30.26,30.26,0,0,1,10.7,4c5.57,3.26,5.44,7-.56,11-4.28,2.81-8.29,6-13.2,7.72-3.62,1.25-7.28,2.44-11.16,1a63.79,63.79,0,0,0-7.23-2.51c-7.73-1.87-15.17-1.34-21.91,3.38-2.1,1.46-4.07,3.12-6.19,4.53-2.93,1.95-3.55,3.77-1.6,5.53a13.15,13.15,0,0,0,3.05,2.17c6.14,2.87,12.4,2.09,18.75.7,5.5-1.21,7.81-.43,9.91,2.67.72,1.06,1.31,2.2,2,3.31,7.31,12.76,17,22.29,32.43,24.26,4.6,2.2,9.13,4.59,13.83,6.56,5.17,2.16,9.95.85,14.15-2.66a40.9,40.9,0,0,0,5.6-5.23c4-5,7.91-10,11.77-15.14,5.4-7.12,10.51-14.48,16.2-21.37,3.2-3.88,6.72-7.74,11.8-9.45.21,3.87-.19,7.76-2.15,11.06a149.37,149.37,0,0,1-8.71,12.55,35.79,35.79,0,0,0-6,13.9,14.19,14.19,0,0,1-6.43,9c-2.11,1.38-4.52,2.9-5.66,5a6.43,6.43,0,0,0,.83,7c4.27,4.87,10.93,6.24,15.76,10.51,15.71,13.9,25.87,31.25,32.45,50.92a17.15,17.15,0,0,1,.93,3.7c1,8.91,1.78,18-1.31,26.5-3.48,9.58-6.47,19.28-9.45,29-.78,2.51.28,4.43,3.12,5.8,9.35,4.5,19.39,6.06,29.58,6.75,16.52,1.13,33.15,1.43,49.46,4.46,26.43,4.9,53.14,5.77,79.88,6.7a13.66,13.66,0,0,0,3.75-.45,10,10,0,0,0,3.52-1.43,6.8,6.8,0,0,0,2.81-6.42c-.63-3.74-2.94-6.9-5.4-9.85q-41.6-49.9-83.13-99.85c-5.7-6.86-11.59-13.6-16.74-20.85-16.25-22.9-35-43.72-52.78-65.4a22,22,0,0,0-2.85-2.49,9.57,9.57,0,0,0-7.11-2.18C1039.83,751.76,1037.28,751.59,1034.73,751.56ZM804.22,581.68l8.85,0a12.23,12.23,0,0,0,3.33-.68c6-3.12,12.07-6.18,17.88-9.65,1.79-1.08,2.83-3.4,4.22-5.15l-1,.37a28.9,28.9,0,0,1,1.77,3.4c1.63,4.45.65,8.89-2.59,9.68-9.38,2.28-15.46,8.15-20.26,16.22-2.58,4.34-5.81,8.33-7.53,13.13-.35,1,.41,2.55,1.07,3.6,2.12,3.36,7.12,5.68,9.54,4.51,6.87-3.35,13.5-7.36,20.63-10,8.58-3.15,17.77-.07,26.63-1.14,2.53-.31,5-.76,7.55-1.29a38.41,38.41,0,0,1,15.18-.43c13.9,2.54,28,1,42,2.43a8.36,8.36,0,0,0,3.63-.81c2.41-.9,4.13-3.19,3.15-5.92-4.77-13.35-12.71-25-20.53-36.67s-15.41-23.48-22.37-35.69c-20.86-36.61-43.94-71.88-65.75-107.92a49.83,49.83,0,0,0-9.51-11.95,29.51,29.51,0,0,0-6.36-4.06,6.45,6.45,0,0,0-7.17.66c-2,1.56-4.43,3-5.65,5-16.26,27.45-32.67,54.83-48.37,82.61-13.18,23.32-26,46.83-39.28,70.11a6.08,6.08,0,0,0,.86,7.25c1.82,1.79,4.54,1,7.2.55,7.12-1.14,8-.55,7.51,4.16-.41,3.81-1,7.52.51,11.22,1,2.44,2.5,4.75,5,5.38,5.87,1.44,11.86,2.37,17.81,3.52-9.38.35-17,5.75-25.54,8.29-3.94,1.17-6.69,3.7-9.06,6.67a61.42,61.42,0,0,0-12.44,27.62,14,14,0,0,0,5.07,13.61,60,60,0,0,0,16.17,10.13c4.7,1.94,9.65,3.27,14.36,5.17s8.41,5.7,13.25,7.6,11.15-1.2,11.4-6.1a17,17,0,0,0,.17-3.82c-1.4-7.87-1-15.21,5.32-21.15.88-.83,1.27-2.19,1.86-3.31,2-3.8,1.57-7.22-1.48-10.16-3.69-3.54-3.51-6.37.39-7.74,3.61-1.27,7.8-1.68,10.76-3.82,4.33-3.13,4.56-8.88,5.84-13.71,1-3.63.62-7.6,1.39-11.31a11.06,11.06,0,0,1,7.23-8.12C799.29,583.06,801.78,582.44,804.22,581.68Zm57.13,118.1c0,2.87-1.63,3.91-4.93,4.05a4.93,4.93,0,0,0-5,4.5c-.25,2.82,1.49,4.71,4.36,5.49,3.74,1,7.74,1.42,11.2-.08,10.46-4.51,21.18-8.38,31.67-12.78,5.78-2.43,11.12-5.89,16.43-9.45a368.18,368.18,0,0,0,44.57-35.67c1.82-1.68,3.07-4,4.57-6a6.83,6.83,0,0,0,.68-7.28,29.81,29.81,0,0,0-15.52-15.81c-12.71-6-27.1-6.8-39.64-13.25a14.74,14.74,0,0,0-3.69-.87c-5.05-1.07-10.31-1.49-15,.48-5.08,2.13-9.74,1.83-14.66.24a25.1,25.1,0,0,0-15-.17c-2.44.7-4.92,1.3-7.31,2.14-3.6,1.25-6.94,2.77-9.18,6.25a16,16,0,0,1-5.37,5.26A43.47,43.47,0,0,0,823,642.16c-3.37,5.46-7.77,10-12,14.75a55.07,55.07,0,0,0-4.39,6.14c-3.09,4.58-1.88,13.16,2.44,17.64,6.42,2.78,9,8.43,11,14.55a14.85,14.85,0,0,0,2,3.17c1.85,2.8,7.05,4.93,10,3.21a25.13,25.13,0,0,1,18.2-3.29C853.88,699,857.63,699.31,861.35,699.78ZM778,734.92c.35-2.5.71-5,1-7.51.48-3.42-4.07-6.62-7.68-5.9-6.22,1.25-11,6.21-17.53,6.7-2.77.2-4.67,2-4.75,4.19,0,.68,1.91,1.46,3,2.15,5.2,3.37,6.43,4.21,5.68,8.46-1.29,7.33,2.57,12,6.89,16.75,3.5,3.84,5,4.12,9.71,1.5,6.83-3.77,9.1-3.77,11.78,2.82,3.51,8.61,9.92,10.66,18,11.06,4.54.22,10.31-3.69,11.31-8.18.55-2.48.89-5,1.37-7.5,1.85-9.63-1.71-17.42-8.25-24.19-.87-.91-1.94-1.64-2.84-2.53-2.79-2.77-6.61-2.56-9.89.65-2.71,2.65-4.76,6-8.26,7.8a8.15,8.15,0,0,1-7.13.12C777.6,740.07,776.82,737.86,778,734.92ZM732.28,928.63c-3,.31-5.24,6.17-3.59,9.21A343.15,343.15,0,0,0,752.9,976.6c.73,1,2,1.63,2.84,2.54,1.74,1.77,8.73,1.77,10.72,0,2.85-2.57,5.73-5.18,7-8.86,1.69-5,4.32-8.94,9.42-11.14a25.48,25.48,0,0,0,8.92-7c3-3.48,2.74-7.63-1.11-8.69-7.35-2-14.65-4-21.55-7.51-4.47-2.26-9.44-4.31-14.35-4.77-6.38-.59-12.43-2.53-18.73-3.17A13.85,13.85,0,0,0,732.28,928.63ZM877.82,720.48a9.84,9.84,0,0,0-6.7,1.44,4.57,4.57,0,0,0-1.8,2.48c-.53,2.49.61,4.52,3.12,5.65a8.57,8.57,0,0,0,6.86,0,9.39,9.39,0,0,0,5.15-4.29C886,723,883.3,720.82,877.82,720.48ZM1023.23,937c1.08-.58,2.81-.92,3.17-1.81,1.43-3.53,3.09-7.19,3.37-10.91.18-2.46-2.77-3.68-5.53-2.94-2.49.67-3.9,2.68-4,5.52C1020.15,930.56,1020.23,934.24,1023.23,937Zm-97.57,11c-.9.09-2.18-.17-2.64.33a5.86,5.86,0,0,0-1.24,6.31,4.32,4.32,0,0,0,2.4,2.4,6.61,6.61,0,0,0,6.43-1.68c.45-.44.23-1.94-.12-2.77A8.77,8.77,0,0,0,925.66,948ZM794.71,674.42l-1.12-2.78-1,2.82Zm220.7,205.05c3.09-1.06,4.08-3.15,2.64-6.08-.53-1.07-2.11-2.79-2.41-2.64a5.33,5.33,0,0,0-3,6.32C1012.86,878,1014.44,878.68,1015.41,879.47Zm-83.57,5.29c-2.43,1.09-3.47,3-2.68,5.5.31,1,1.66,2.6,2,2.47a4.22,4.22,0,0,0,2.8-5.42C933.69,886.34,932.57,885.6,931.84,884.76Zm-10.1,24.15c-.39,1-1.18,2-1.07,2.9s1.1,1.83,1.71,2.74c.81-.7,2-1.26,2.33-2.15a4,4,0,0,0-.55-3.06C923.86,908.88,922.58,909,921.74,908.91ZM800.07,624.81l1.82,1.27.27-2ZM1039,895.35l1.49-2.55-2.54-.21Z"/><path d="M1089.15,1034c3,2.29,5.81,4.82,9,6.83s7,3.75,10.63,3c6.11-1.29,12.28-2.15,18.4-3.34a19.91,19.91,0,0,0,6.85-2.89,162.79,162.79,0,0,0,15.36-10.86c4.74-3.94,8.82-8.65,13.35-12.85.8-.74,2.38-.63,3.61-.91l-1.1-1.13c.06,2.52.17,5.05.16,7.57,0,7.9-2.87,14.76-7.51,21.06a60,60,0,0,1-12.91,13.36c.75,1,1.34,2.62,2.27,2.85,3.67.91,7.44,1.38,11.17,2l-.79-.93a11,11,0,0,1-8.7,5.87c-7.41.81-14.82.74-22.05-1.34-5.93-1.7-11.81-3.56-17.71-5.35-4.84-1.47-8.72-4.61-12.59-7.64a15.74,15.74,0,0,1-6.32-12.72c0-1.23,0-2.47,0-3.71Z"/><path d="M1024,1353c-.22-2.52-.49-5-.66-7.56-.19-2.83,1-5.11,3.58-5.66s4.62,1.17,6.37,3.26c6.9,8.24,7.26,8.18,15.41,4.3,1.14-.54,2.22-1.21,3.37-1.73,4-1.83,5.63-.69,7.32,5.44,1.34,4.88,2.5,9.81,3.61,14.74.64,2.8-4.06,7.46-7.06,7.51a17.8,17.8,0,0,1-7.43-1.29,25.94,25.94,0,0,0-14.81-1.55c-4.41.75-6.53-1.47-7.51-6.25-.51-2.49-1-5-1.54-7.46C1024.4,1355.54,1024.21,1354.28,1024,1353Z"/><path d="M1166.32,1012.91a27.7,27.7,0,0,0-.43-3.77c-2.45-9.53-.16-17.37,7.81-23.5,3-2.34,6-2.79,10.07-.16a19.87,19.87,0,0,1,5.66,4.9c1.35,2,1.87,4.53,2.45,6.91a6.64,6.64,0,0,1-.26,3.74c-3.71,9.64-4.3,19.6-3.79,29.8.34,6.76-3.53,11.92-7.8,16.68-1.61,1.8-4,2.59-6.68,2.83l.38.48c.17-2.36-.07-4.85.63-7s2.32-4.2,3.6-6.24c4.75-7.53,5.74-15.67,4.24-24.32a7.24,7.24,0,0,0-10.73-5.1c-2.09,1.2-4.17,2.43-6.25,3.65Z"/><path d="M1087.85,1357.75c1,4.59,2.13,7.06,2,9.46-.15,2.94-2.23,4.33-4.74,4.6a6.61,6.61,0,0,1-6.47-2.77,13.21,13.21,0,0,1-1.73-3.28,34.33,34.33,0,0,1,.76-25.59,5.56,5.56,0,0,1,5.87-3.76c2.19.18,3.72,2,4.25,4.76.24,1.19-.22,2.49-.2,3.74C1087.66,1349.91,1087.79,1354.91,1087.85,1357.75Z"/><path d="M1004.05,1360.11c-.62,8.48-6.23,12.65-10.74,11.39a23.46,23.46,0,0,1-9.75-5.49c-3.29-3.06-4.55-10.08-1-13.63a27.12,27.12,0,0,1,9-6.57c3.15-1.28,8.21.36,9.7,3.47a29.13,29.13,0,0,1,2.71,6.89C1004.41,1358.59,1004.05,1361.18,1004.05,1360.11Z"/><path d="M647.93,1290.76c-1.71-5-1.67-9.63,1.45-14.19,5.66-8.28,11.09-16.72,18.46-23.66a9.92,9.92,0,0,1,6.74-2.62l-.77-.69a10.73,10.73,0,0,1-2.28,10.08c-5.63,6.34-11.37,12.61-17.39,18.58a25,25,0,0,0-6.73,12.57Z"/><path d="M876.15,1351.34c0-2.82,0-4.07,0-5.31s0-2.5.09-3.74c.3-4,1.94-4.08,2.49.21.94,7.36-.17,15.08,3.89,21.82,1.63,2.71,1.62,4.42-1.1,5-.9.18-2.24-.84-3.07-1.63a7.48,7.48,0,0,1-1.94-3.06C875,1359.72,876.22,1354.72,876.15,1351.34Z"/><path d="M816.29,1365.58c-2.16.05-4.26,2.19-6.39,3.42-2.31-1.78-2.79-4.28-.39-6.06,3.87-2.87,8.78-4.1,12.35-7.67,2.23-2.22,4.66-1.74,6.07.93a6,6,0,0,1,.27,3.59c-1,5.81-3.36,9.61-5.34,8.83C820.59,1367.72,818.44,1365.52,816.29,1365.58Z"/><path d="M965.09,1349.9c-.19,0,1.07.07,2.31.25,4.63.67,8.18,7.26,6.25,11.54-2.68,6-5,7.06-11.94,5.55-3.69-.8-7.06-2.19-9.55-5.27a6.52,6.52,0,0,1-1.09-7.13c.9-2.18,2.41-4.24,5.08-4.83C958.54,1349.49,961.14,1349.9,965.09,1349.9Z"/><path d="M925.43,1363.29c0,1.28.3,2.72-.16,3.81-1,2.3-3.15,3.46-5.88,3.63-4.1.24-7.34-1.58-10.21-4.29s-3.44-6.38-1.3-10.2c3.11-5.55,8.83-6.21,11.86-1.25,2,3.24,3.23,7,6.59,9.2Z"/><path d="M1126.12,987.59c3.7,10.91-2,18.9-8.34,26.66a2.63,2.63,0,0,1-2.49.4,5.23,5.23,0,0,1-2.45-2.58,9.32,9.32,0,0,1,.71-7.14c2.83-5.38,5.78-10.73,10.27-15,.83-.79,2.23-1,3.37-1.43Z"/><path d="M926.33,1364.19c3-4,6.1-7.87,9-11.94,1.58-2.24,3.77-3.9,5.88-2.57s2.32,4.3,1.84,6.88c-1.1,5.94-4.59,8.79-10.29,8.16-2.45-.28-4.86-.94-7.29-1.43Z"/><path d="M912.07,1242.49a9.66,9.66,0,0,1,6.15,3c.78.89,1.29,2,2,2.94,4.93,6,6.82,12.48,3.39,19.89l.88-.18a56,56,0,0,0-9.12-16,13.11,13.11,0,0,1-2.66-10.35Z"/><path d="M1154.94,1229.28c-1.76-5.64-4.9-10.48-8.51-15.09-3.15-4-3.32-8.44-1.08-13l-1.13,1.26c2.79,3.62,5.6,7.23,8.38,10.87,3,3.93,3.43,8.34,2.28,13-.27,1.11-.57,2.22-.86,3.34Z"/><polygon points="649.26 554.73 652.72 554.06 652.21 556.39 649.26 554.73"/><path d="M686.55,563.89c-1.56-1.92-3.42-2.26-5.29-.67a2.63,2.63,0,0,0,.14,2.26c2.35.81,4-.16,4.7-2.57Z"/><polygon points="1024.1 987.72 1024.43 990.29 1022.79 989.81 1024.1 987.72"/><path d="M1173.35,1050.34c-1.91,6.15-3.8,7.91-9,8a52.94,52.94,0,0,1-6.72-.68l.79.93c1.48-5.6,2.18-6.5,5.36-7.74a13.57,13.57,0,0,1,10-.07Z"/><path d="M433.5,376.15c.14-.91.27-1.82.41-2.74q-5-.46-1.44,3.16Z"/><path d="M432.47,376.57c2.13.55,4.28,1.06,6.39,1.66s3.31,2.29,3.48,4.87l1.05-1c-1.62-1-3.21-2.14-4.87-3.13s-3.34-1.88-5-2.81Z"/><polygon points="1191.31 429.14 1191.84 426.96 1190.26 428.38 1191.31 429.14"/><path d="M1190.26,428.38c-3.69,1.31-6.56,4.49-10.74,4.68l.77,1.16c3.11-2.91,7.21-3.67,11-5.08Z"/><path d="M1179.52,433.06c-.56,4.73-3,7.42-8,7.32-1,0-2.09-.09-3.14-.14l.18-.09a8,8,0,0,0,6.52-1.32c1.82-1.43,3.47-3.07,5.19-4.61Z"/><path d="M421,873.62c-3.16,1.37-5.22.37-5.45-3-.05-.75,1.93-2.44,2.7-2.29,3.39.65,4.11,2.81,2.29,5.78Z"/><path d="M442.34,383.1c4.81-.29,8,2.4,10.65,5.91l1.22-1.11c-6.65,1-7.34.65-10.82-5.81Z"/><path d="M1134.61,1196.74c2.25-.8,4.24-.6,5.67.89s2.63,3.21,3.94,4.83l1.13-1.26c-7.72,3.41-8.26,3.13-10-5.23Z"/><path d="M1154,1229.68a63.39,63.39,0,0,1,6.48.83c2.21.51,3,2.38,2.53,5.08l1-.6c-3.18-1.68-5-5.59-9.13-5.71Z"/><path d="M1163,1235.59l13.16,6.56-.91-1.19c-3.1-3.19-7.08-4.73-11.21-6Z"/><path d="M1176.19,1242.15l-2.31.27q3.15,3,1.4-1.46Z"/><path d="M923.66,1268.35a13.85,13.85,0,0,1,3.57-.93c1.75,0,.86.46-2.69.75Z"/><path d="M638.75,1297.86c0-2.51.93-4.34,3-5.15s4.11-1.31,6.17-2l-.52.07a7.27,7.27,0,0,0-5.47,1.92c-1.47,1.39-2.87,2.85-4.29,4.28Z"/><path d="M637.65,1297c-3.18,1.87-5.48,5.61-10,4.71l.8,1a5.9,5.9,0,0,1,4.19-4.11c2-.43,4.06-.52,6.09-.76Z"/><path d="M627.67,1301.74c-4.2,9.09-4.2,9.09-6.19,9.09l.89.59c.32-4.1,4.53-5.46,6.1-8.69Z"/><path d="M621.48,1310.83l-3.07.22c-4.51.31-7.59,2.2-7.82,7.18l-.9,1.17a11.84,11.84,0,0,0,6.78-3.11c1.9-1.69,3.93-3.25,5.9-4.87Z"/><path d="M610.59,1318.23c-.06,1-.12,1.91-.17,2.86q4.35-2.37-.73-1.69Z"/><path d="M836.19,542.66a7.14,7.14,0,0,1,5.63-4.52c2.88-.64,5.09-.36,6.33,1.62.2.32-.8,1.84-1.54,2.19a7.67,7.67,0,0,1-3.65.63c-2.49-.14-5-.56-7.45-.86Z"/><path d="M826.2,559.27c-11.09-.61-9.09-1.2-9.58-9.49l-.74-.69c3,3,6.65,2.3,10.25,1.87l-1-.48c1.51,4.14,1.38,9.31-.08,9.31Z"/><path d="M816.62,549.78c-2.7-1.43-4.63-1.73-5.77-.92.68.75,1.47,2.17,2,2.09,1.07-.17,2-1.19,3-1.86Z"/><path d="M826.13,551a21.09,21.09,0,0,0,10.06-8.3l-.68-.94-10.37,8.76Z"/><path d="M838.5,566.18a9.83,9.83,0,0,0-5.45-4.45c-2.29-.78-4.57-1.64-6.85-2.46l-1.14.52c4,2.52,7.48,6,12.42,6.76Z"/><path d="M813.3,582.3l-9.3,0,4.68-4.51Z"/><path d="M1026.79,759.26c1.21-4.87,3.68-8.46,9.14-9C1034.93,755.32,1032.61,759.06,1026.79,759.26Z"/><path d="M617,846.55c-13.41,1.81-26.86,3.34-40.09,6.28l.89.65c1.87-4.92,5-8.3,10.56-8.87,9.93-1,19.79-1.32,29.34,2.31Z"/><path d="M539.39,855.22c-4.74,6.7-7.11,8.6-10.57,9-3,.34-5-.23-6.24-2.56a23,23,0,0,1,3.5-1.36c3.66-.82,7.39-1.34,11-2.3,1.06-.29,1.83-1.67,2.74-2.55Z"/><path d="M576.88,852.83c-12.2,5.44-24.73,5.77-37.49,2.39l.44.22c4.55-1,9.08-2.22,13.68-3,8.13-1.35,16.26-1.47,24.26,1Z"/><path d="M736.59,812c-2.32,2.68-4.71,5.34-8.47,5.87-4.68.65-9.37,1.31-14.07,1.67-5.9.45-11.82.59-17.73.87a41.48,41.48,0,0,1,21.25-7.6C723.9,812.33,730.25,812.23,736.59,812Z"/><path d="M698.84,733.32c3.33,2.08,7.12,2.46,10.89,2.91,2.74.33,4.7,1.45,5.87,3.48a6.66,6.66,0,0,1-6.48,3.22,14.12,14.12,0,0,1-7.07-2.17c-2.25-1.46-3-3.6-2.31-6.5Z"/><path d="M699.74,734.26l-2.11-1c-.69,2.27-.28,2.29,1.21.09Z"/><path d="M858,951.33c1.95-1.82,4-1.94,6.37-.79,3,1.45,3.44,3.2.78,5.16a4.31,4.31,0,0,1-3.31.21c-2.56-.8-3.57-2.76-3.18-5.44Z"/><path d="M847.55,823.68c3.38,1.48,4.06,2.48,2.24,2.08-1.08-.24-1.94-1.5-2.9-2.3Z"/></svg>