<svg id="Calque_1" data-name="Calque 1" xmlns="http://www.w3.org/2000/svg" viewBox="0 0 1500 1500"><path d="M763.78,1248c5.58,3.37,10.28,7.17,10.58,14.59.47,11.48,1.74,22.81,5.4,33.9,2,6,2.58,12.5,3,18.84,1.19,16.6,4.33,32.88,7.51,49.16.54,2.78,1.84,4.74,4.68,5.39a6.13,6.13,0,0,0,1.29-3.06c.61-14,1.62-28,1.51-42-.19-24.24-.29-48.49-2-72.72-1.49-21.62-3-43.32-.09-65a16.27,16.27,0,0,0,.1-3.82c-2.32-22.82-2.31-45.87-6.52-68.51-.11-.56-1.56-1.25-2.36-1.23-1.17,0-2.88.33-3.37,1.11-3.32,5.42-8.54,9.44-10.88,15.62-1.38,3.64-4.92,5.64-8,7.85-4.54,3.22-6,8.18-6.28,13.3-.52,10.18-.56,20.38-.78,30.08-2.31,2.33-3.89,1.54-4-1.93-.13-5.09.13-10.17-.64-15.25-.85-5.57-1.11-5.81-9.85-6.25-1.08,0-2.76-.75-3.07-1.57-1.85-4.87-.79-10-1.22-15.09a9.89,9.89,0,0,0-3-6.68c-1.94-1.78-4.06-1.47-6.58.44-7.12,5.41-14.11,11-20.23,17.54q-18.32,19.56-36.31,39.42c-12,13.27-23.7,26.75-35.52,40.14-3.38,3.83-6.85,7.59-10.1,11.52-22.75,27.58-47.06,53.8-70.29,81q-17.41,20.37-34.91,40.67a23.23,23.23,0,0,1-9.13,6.62c-3.05,1.2-4.73.35-4.87-3.29-.1-2.49-.33-5.21.5-7.46,4.82-13.18,9.67-26.36,15-39.33,5.82-14.17,11.26-28.44,15.76-43.08,1.5-4.86,3.6-9.54,5.45-14.29,5.08-13.06,10.86-25.9,15.09-39.23,4.63-14.61,10.16-28.84,15.49-43.17,4.89-13.15,10.1-26.2,14.6-39.48a489.11,489.11,0,0,1,30.35-70.18c1.24-2.36.76-5-.14-7.34-1-2.6-2.93-3.07-6.05-1.93a23.86,23.86,0,0,1-11.27.89c-2.49-.3-5.37-1-7.5-.12-10,4.15-20,2.81-30,.47l-.82,1c2.41-.69,5.06-1,7.18-2.16a49.79,49.79,0,0,0,9.28-6.7,439.32,439.32,0,0,0,34.41-36c1.82-2.13,2.41-4.41.69-6.91a8.21,8.21,0,0,0-6.43-3.6c-2.48-.11-5.45-.49-7.4.63-7.73,4.48-15,9.76-22.72,14.24A107.2,107.2,0,0,0,561,1038.71c-21.75,19.74-43.59,39.4-65.08,59.42a214,214,0,0,1-23.57,19.51c-15.74,10.92-31.4,21.95-47.21,32.77-3.23,2.21-7.1,2.42-10.92,1.23l.54.52a9.11,9.11,0,0,1,2.16-7A110.83,110.83,0,0,1,425,1137c27.88-24.36,55.63-48.88,83.8-72.9,16.5-14.07,33-28.23,51.3-40,6.53-4.2,10.36-11.31,17.4-14.77s12.11-9.31,18.17-14a21.34,21.34,0,0,0,7.67-12.76,5.25,5.25,0,0,0-3.18-6,9.25,9.25,0,0,0-3.63-1.11c-5.09,0-10.21.07-15.28.56-11.46,1.12-22.47,4.68-33.75,6.65-10,1.76-20.3,1.57-30.3,4.15-17.3,4.47-35.24,5.76-52.58,10.18-4.9,1.25-10.17,1-15.18,1.86-2.4.44-4.58,2-6.86,3.13l.57.1a15.63,15.63,0,0,1,5.38-9.63c12.85-1.05,24.06-8.32,36.87-9.59s24.48-7.26,37.42-7.41c17.48-3.6,35-7.05,52.73-9.25,15.88-4.73,32.46-6.76,48.16-12.23s31.11-11.17,46.34-17.61c4.85-2,8.53-5.52,12.28-8.93s3.28-11.21-.71-12.89c-1.17-.49-2.27-1.18-3.46-1.58-6-2-12-4.27-18.14-5.94s-12.55-2.38-18.65-4.17c-8.71-2.55-17.56-3-26.5-3a53.21,53.21,0,0,0-18.71,3.35c-10.74,4-20.88,9.4-31.79,13-3.56,1.18-5.72,4.92-7.93,8.05l1-.51A18.4,18.4,0,0,0,545,921.94c-2.1.37-4.22.66-6.33,1l.82,1c-1.23-4.23.59-7.24,4.07-9.29a96.13,96.13,0,0,1,24.72-10c1.18-.3,3.12-1.35,3.1-2a7.38,7.38,0,0,0-3.81-6c-12.1-7.16-25.09-12.56-37.62-18.87a38.24,38.24,0,0,0-10.82-3.58c-8.94-1.53-16.73-6.17-25.06-9.3-3.93-1.48-1.77-7.54-5.17-9.36s-7.57-1.21-11.29-.28c-7.65,1.91-15,1.32-22.64-.57-9.94-2.45-19.62-5.53-29.38-8.55q-62.2-19.27-124.14-39.35c-24.3-7.82-48.65-15.52-71.88-26.24-2.24-1-3.2-3.54-3.41-6.34l-.71-.64c7.6.22,15.21.62,22.81.6a37.4,37.4,0,0,1,18.16,4.61,32.61,32.61,0,0,0,10.84,3.17,218.66,218.66,0,0,1,26.2,4.72c8.57,2.26,17.38,3.65,26.09,5.36a549.42,549.42,0,0,1,62.53,16c1.14.36,2,1.48,3,2.25a118.85,118.85,0,0,1,25.81,6.23c26.46,9.07,54,13.36,81.12,19.79,2.48.59,8.52-2.67,9.35-5.16.4-1.17,1.07-2.25,1.47-3.43a33.08,33.08,0,0,0,.9-3.69c2-9.69-1.61-15.46-10.19-16.18-27.79-2.33-55.65-2.44-83.51-2.76-2.53,0-5.06.13-7.59.31a43.32,43.32,0,0,0-18,5.5c3-2.27,6-4.5,9-6.83a13.54,13.54,0,0,1,6.79-2.93c16.16-2.16,32.39-3.46,48.68-2.81a109.13,109.13,0,0,0,26.14-2c16-3.21,32.09-5.57,47.5-11.23,3.43-1.26,7.38-1.25,11.11-1.55,5.17-.42,9.47-2.76,13.8-5.35,3.27-2,7.1-2.2,10.88-2.17l-.66-.75a8.54,8.54,0,0,1-1.51,7.06c-3.21,4-7.38,6.93-11.69,9.66a28,28,0,0,0-8.14,7.83A6.43,6.43,0,0,0,546,807c1.13,2.24,2.59,4.39,5.22,5.06a16.33,16.33,0,0,0,11.15-.82,45.83,45.83,0,0,1,26-3.93,7.66,7.66,0,0,1,3.35,1.61c1.77,1.32,1.34,3.44-1.6,5.23-5.43,3.3-11,6.35-17.46,7.33s-12.61,1.64-18.84,2.86-12.53,2.71-18,5.94a11.58,11.58,0,0,0-5.65,9.37c-.46,6.91,2.31,12.52,8.12,16A162.34,162.34,0,0,0,573,870.93c15.85,5.07,32.21,7.26,48.48,9.94,4.91.82,10.21.34,15.18-.45,10-1.6,20.08-3.41,29.93-5.89a65.51,65.51,0,0,0,27-13.65c3.8-3.26,7.34-7.07,12.27-8.83,2.83,1.26,5.66,1.57,8.47,0,6.71-.58,12.12-2.82,14.76-9.83.82-2.16,3.16-3.88,5.05-5.5,8.7-7.45,17.59-14.67,26.18-22.24,2.83-2.48,5-5.74,7.44-8.65-.12,2.7,1.18,4.94,3.76,4.76,2.29-.17,3.58-2.55,4-5a27.41,27.41,0,0,0,14.56-1.49c7-2.63,13.61-5.62,18.15-12.14,2.07-3,5.14-5.31,8.06-7.55,3.16-2.43,4.63-5.76,5.69-9.29,2.16-7.18,2.55-14.57,2.33-22.05-.13-4.18.14-4.19,5.32-8.74-.83,4.73-1.9,9.42-2.39,14.18a18.92,18.92,0,0,0,1.1,7,4.47,4.47,0,0,0,2.39,2.58c1.88.69,4-.32,5.19-2.74,1.61-3.29,1.57-7,1.3-10.58-.39-5.41-3.15-8.72-8.58-9.65,5.08-3.85,10.22-7.58,16.09-10.22a26.53,26.53,0,0,0,9.2-6.69l-1.22,2.55.09-1.94a7.06,7.06,0,0,0-1.32-7c3,.62,5.68-.57,5.6-3.5-.08-2.62-2.84-3.94-5.65-4,2.1-4.56.5-10.14,4.08-14.33,1.82-2.13,1.72-4.6.13-6.93-1.41-2.08-3.45-3.94-4.18-6.22-1.86-5.84-6-7.08-11.48-7.77-7.75-1-14.79,3-22.47,2.28-2.82-.25-5.21-.29-6.3-3.07-.28-.7.74-2.1,1.43-3,3.14-4,6.42-7.79,9.57-11.73,4-5,8.84-9,13.11-13.63s7.66-10,12-14.61c1.67-1.79,1-4.55-.77-6.53s-4.38-3.12-6.85-2.06c-9.26,4-18.52,8-26.94,13.65-22,14.81-44.56,28.81-64.89,46a14,14,0,0,1-3.33,1.73,7.79,7.79,0,0,1-7.24-.09c-4.39-2.44-7.68-6.58-12.59-8.25l.14.45a20.71,20.71,0,0,1,14.1-4.64c4.12.11,7.44-1.64,10.42-3.93a35.13,35.13,0,0,0,9.61-11.67c2-3.78,1.69-11.55-.72-14.52-1.6-2-3.09-4-4.74-6-4.94-5.79-10.12-11.39-14.8-17.39-1.42-1.83-1.51-4.71-2.2-7.1l1.77-1.56c4.27-.82,6.33,2.46,9,4.76a7.79,7.79,0,0,0,6.68,1.92c1-.2,1.83-1.43,2.73-2.2l-.71.61c2.46-2.9,4.81-5.91,7.42-8.66,2.75-2.91,3.9-6.49,4.48-10.22a108.53,108.53,0,0,0,.92-11.41c.7-14,1.34-28,2-42.64.66,1.76,1.35,2.81,1.41,3.9.79,12.71,1.38,25.43,2.25,38.13a104.8,104.8,0,0,0,1.91,11.2c.59,3.21,2.36,4.48,5.28,3.94,1.21-.23,2.71.12,3.65-.47,6.73-4.3,11.53-10.19,12.35-18.3,1-10.12,1.25-20.32,2.12-30.46,2.73-31.83.95-63.63-.79-95.41a230.29,230.29,0,0,0-3.49-30.33c-1.64-8.63-4.79-17-7.29-25.52-1.43.74-3.31,1.11-3.56,1.95-1.05,3.64-1.62,7.42-2.37,11.15-1.1,5.48-4.87,8.63-9.58,11l.48.87c.12-3.65.21-7.3.36-10.95.37-9.08-2.75-16.65-9.7-22.59l-.09.24c1.23-2.19,3.34-4.29,3.54-6.57,1.24-14,4.16-27.68,6.5-41.49s4.43-27.67,6.7-41.5c3.93-23.91,8.53-47.68,13.08-71.46.46-2.4,2-4.65,3.27-6.8a10.25,10.25,0,0,1,2.81-2.37c2.54-1.88,4.47-1,5.07,2.55,2.74,16.33,7.94,32.13,10,48.63s7,32.4,8.11,49c11.31,69.87,14.16,91,19.13,147.86,1.77,20.31,2.93,40.67,4.39,61,.2,2.85,2,4.35,5.22,4a5,5,0,0,0,3.21-1.83c15.35-22.11,34.59-40.67,54.05-59s39.29-36.4,59.17-54.34c18.94-17.1,37.4-34.67,54.8-53.35,6.94-7.46,14-14.87,22.26-20.93a9.09,9.09,0,0,1,7.19-1.39l-.61-.61A15.9,15.9,0,0,1,1049,356a459.36,459.36,0,0,1-28.84,40.14c-23,28.79-43.32,59.43-64.26,89.65-5.78,8.34-11.6,16.66-17,25.24-14.24,22.57-26.68,46-35.63,71.28-5.59,15.8-7.93,31.94-8.15,48.51a71,71,0,0,0,1.17,11.32,21.39,21.39,0,0,0,7,13.15c12.33,10.92,24.69,21.8,37.28,32.41,4.34,3.65,9.39,2.71,14.11,0,.33,2.8-.12,3.33-1.33,1.58l2.24-.44c-2.78-3.55,1.42-7.38-.17-10.55-1.14-2.3-3.75-4.21-3.1-6.29,1.27-4.08,5.53-4.48,8.94-6,5.8-2.49,11.24-5.8,17.29-7.78.59-.2,1.28-2.15,1.11-2.29a31.77,31.77,0,0,1-10.38-15.22c-3.12-9.25-3.8-9.21,6.15-11.78,2.66-.69,5.23-1.43,6.12-3.88.79-2.18-.42-4.65-2.59-6.41a27.1,27.1,0,0,0-6.33-4.07c-5.33-2.19-7.3-6.62-8.68-11.65-1.59-5.81.4-8.8,7.13-10.46,1.24-.3,2.52-.38,3.76-.67,7.64-1.84,7.84-2.7,2.44-9.06-.7-.81-1.61-2-1.47-2.86.41-2.51,2.46-3.73,5.47-3.78a58.83,58.83,0,0,1,7.62-.11c2.78.31,5.49.07,6.9-2.29,1.17-2-.09-4.3-1.75-6.5-1.49-2-2.62-4.26-3.91-6.4a21.22,21.22,0,0,1,1-2.87c1-1.92.65-3.64-1.23-5.25a20,20,0,0,0-1.16-11.11c-1.44-3.51-3-7-4.24-10.56-1.58-4.51,3-10.67,7.72-10.45,3.75.17,7.49.81,11.24.91a18,18,0,0,0,10.83-2.8c3.16-2.11,6.68-3.72,9.69-6,1.94-1.48,3.3-3.75,4.85-5.72,1.71-2.17,1.85-4.75-.28-6.83s-3.72-4.07-2.64-6.14a26,26,0,0,0,2.2-18.28c-1.7-7.94.83-15.23,6.25-21a298.53,298.53,0,0,1,21.78-21.21c6.68-5.8,13.92-10.95,20.12-17.35,3.55-3.67,7-7.38,9.09-12,.47-1,.08-2.55-.26-3.75-.71-2.53-2.23-4.84-4.65-5.55a94.81,94.81,0,0,0-11.08-2c-4.71-.8-6.9-4.69-4.32-7.82,9.65-11.73,19.37-23.42,29-35.18A225.77,225.77,0,0,0,1127,294.49a30.71,30.71,0,0,0,2.23-18.57l-1.13,1.38c5.79-2.94,5.83-3,2.53-6.67-.73-.82-1.44-1.66-2.17-2.48l.89.83c-.42-2.67-.21-5.27,1.28-7.33,7.49-10.36,15.62-20.17,25.77-28.08a5.38,5.38,0,0,1,3.58-.95c2.58.3,4,2.27,3.42,5.14-4.49,22.55-9.72,44.95-14.48,67.45-4.24,20-6.44,40.38-11.33,60.25-3,24.12-8.45,47.77-13.85,71.45-3.41,14.93-5.71,30.12-8.4,45.22-7,39.28-12.17,64.13-21.17,97.32-3.34,12.34-6,24.8-8.13,37.38-.54,3.19,4.57,6.95,7.91,5.94a22.3,22.3,0,0,0,9.91-5.52c5.35-5.57,10.9-10.53,18.7-12.74a57.2,57.2,0,0,0,17-8.63q9.42-6.57,19.21-12.62c4.76-3,9.75-2,14.6,0a17.58,17.58,0,0,1,3.38,1.78c8.5,6.07,15.07,13.69,18.64,23.66a9.4,9.4,0,0,1-.18,7.46,30,30,0,0,1-9.6,11.67,86.48,86.48,0,0,1-42.77,15.37c-2.54.23-5.11,0-7.66.19-6.86.37-12.17,2.5-13.57,10.4-.38,2.16-2.86,3.95-4.37,5.92-9.6,3.5-19.29,6.75-28.73,10.65-3.42,1.41-6.29,4.26-9.24,6.66s-2.7,8.32.18,10.1c2.13,1.32,4.34,2.53,6.58,3.67,6.7,3.39,7.47,5.62,4.46,11.6-1.74,3.46-3.74,6.73-7,9s-6.37,4.25-9.69,6.15c-11.47,6.59-19.69,16-25.44,27.88-1.88,3.89-1.45,7.36.32,10.86,1.14,2.26,2.81,4.25,4.07,6.46,3.41,6,2.54,9.84-3.08,12.11A255.38,255.38,0,0,0,1012,793.54a7.32,7.32,0,0,0-3.18,6.37,5.63,5.63,0,0,0,4,5.75,35.46,35.46,0,0,0,3.59,1.25,15.33,15.33,0,0,0,3.8.47c19.18-.46,38.3-1.34,57.08-5.8a158.65,158.65,0,0,1,18.87-3.25,113.31,113.31,0,0,0,22.46-4.64c9.81-3.18,20.26-2.45,30.32-4.28,8.88-1.61,17.53-3.66,25.15-8.73a22.39,22.39,0,0,1,10.82-3.43c6.36-.51,12.76-.6,19.15-.7,15.34-.26,30.68-.29,46-.65,20.45-.47,40.87-1.44,61.14-4.51a173.91,173.91,0,0,1,42-1c3.27.3,4.44,1.94,3.23,5.27a9.66,9.66,0,0,1-2,3.14,8.33,8.33,0,0,1-3,2.2c-51.37,19.39-103.12,37.76-155.34,54.65q-82,26.52-164.79,50.54c-7.35,2.14-14.78,4-22.19,6-6.23,1.61-12,4.4-17.7,7.21-1.11.55-2.85,1.63-2.81,2.39.1,2,2,3.62,4.51,4.9a31.14,31.14,0,0,0,3.48,1.6c9.6,3.46,19.25,6.78,28.81,10.34,8.38,3.12,16.48,7.08,25,9.61,9.8,2.9,18.89,7.8,28.94,9.87,5.3,1.09,9,4.64,12.76,8.06a7.72,7.72,0,0,0-6.46-.44,2.86,2.86,0,0,0-1.62,2c.12,2.89,2,2.28,7.22-2.54,5,.83,10.29-.36,15.16,1.61a4.57,4.57,0,0,1,2.57,2.59c1.85,8.08,1.83,8.3,10.45,6,6.62-1.8,12.46-1.82,16.81,4.68,1.52,2.26,4.2,2.51,6.9,2,3.82-.69,7.8-.74,11.3.85,19.79,9,40.56,15.33,61,22.62q28.83,10.32,57.51,21c20.32,7.57,41,14.3,60.6,23.62.85.4,1.34,2.22,1.38,3.4,0,.74-1,1.75-1.78,2.2a6.75,6.75,0,0,1-3.56,1c-7.63-.59-15.39-.67-22.84-2.19-23.81-4.87-48.16-6.16-72-11a49.9,49.9,0,0,0-7.62-.84c-41-2.05-80.73-12.3-121-19.31-14.65-4.79-30-6-45.06-8.94-18.78-3.68-37.54-7.55-56.37-11-3.75-.69-7.61-.9-11.27.57a4.45,4.45,0,0,0-2.48,2.11c-.37,1.12-.4,3,.28,3.7,2.57,2.8,5.17,5.75,8.32,7.79,8.55,5.55,17.36,10.69,26.12,15.92,3.09,1.85,3.91,3.47,2,4.8a7.44,7.44,0,0,1-3.48,1.2,17.32,17.32,0,0,1-10.92-2.48,23.79,23.79,0,0,0-14.61-3.59,12.75,12.75,0,0,0-1.89-2.49c-.34-.29-1.27.13-1.94.23q.83,2.9,4.67,1.34c-.77,6.12-.61,7.64,1.74,10.24,4.14,4.6,8.3,9.17,12.6,13.61s9.06,8.46,13.11,13.11c2.47,2.85,2.64,6.73,1.58,10.46l.59-.58c-5.42,1.49-10.83-.38-16.26-.07l1,1c-.09-7.75-3.84-13.66-9.37-18.68-.88-.81-1.79-1.59-2.74-2.32-1.89-1.47-3.83-2.89-5.74-4.34-5.29-4-10.91-4.27-16.81-1.52,2.1-5.41,1.31-10-3.9-13.22a7.13,7.13,0,0,0-5.31-3.56c-.09.85-.18,1.69-.26,2.54l6.56-.06a13.66,13.66,0,0,0,1,7.06c.87,2.24,1.41,4.61,2.1,6.92A19.74,19.74,0,0,1,989,1038c5.13,5.07,10.12,10.3,15.07,15.55,1.61,1.71,1.95,4.06,1.43,6.66l.41-.51c-2.57.83-5.19,1.07-7.42-.12-4.49-2.4-8.82-5.11-13.2-7.71-6.39-3.79-7.64-3.59-12.12,2.71-1.47,2.09-3.4,4-4.42,6.23s-2,5.08-1.43,7.25c4.88,18.53,6.31,37.85,12.9,56,15.22,66.06,34.66,131,52.69,196.3,3.4,12.32,6.78,24.66,9.88,37.06a48.93,48.93,0,0,1,1.11,11.41c0,3.12-1.69,4.87-4,4.71a5.39,5.39,0,0,1-3.39-1.34,60.21,60.21,0,0,1-7.32-8.83c-17.54-28.24-35.48-56.26-52.27-85-31-53-61.39-106.3-91.84-159.59-9.51-16.65-18.33-33.69-27.64-50.46a20.3,20.3,0,0,0-5.27-5.48,4.49,4.49,0,0,0-3.5-.28,3.52,3.52,0,0,0-2.18,2.13c-1.81,10.14.09,20.44-1,30.61-1.54,14-1.94,28-3.77,41.91-.09.68-1.17,1.23-1.78,1.84-.75-1-2.17-2-2.16-3a330.29,330.29,0,0,0-2.86-45.88c-.14-1.12-1.4-2.1-2.15-3.14-.55.78-1.5,1.5-1.61,2.34-3.11,23-1.78,45.91,1.42,68.74,1.07,7.64,2,15.2,1.6,22.9-.18,3.83-.52,7.67-.43,11.5.76,32.13-3.51,63.81-8.29,95.45-1.14,7.59-2.47,15.17-3.15,22.8-1.47,16.57-2.47,33.16-6.52,49.41a88.61,88.61,0,0,0-1.91,15.21c-1.65,23-6.45,45.57-9.53,68.38a19.77,19.77,0,0,1-1.34,3.53c-1,2.84-2.94,4.33-5.86,4-2.23-.25-4.14-2-4.75-4.78-3.75-17.5-7.55-35-10.94-52.58-4.12-21.34-9.45-42.41-14.11-63.62-3.57-16.26-6.67-32.56-9.11-49-1.12-7.56-3.85-14.83-3.64-22.65.09-3.58,1.33-6,6.11-8.76a19.88,19.88,0,0,1,3.62-1.27Zm-145.63-45a75.69,75.69,0,0,0,11.52-13.9,9.43,9.43,0,0,0,1.46-6.89l-1.27,1.25a10,10,0,0,0,6.73-3c9-9.17,15.14-20.42,22.49-30.78,2.2-3.1,4.91-6.17,5.94-9.67s-.4-7.66.37-11.29c1.34-6.25,2.52-12.45,2.23-18.87,0-1.27,0-2.55-.11-3.82-.79-9.14,1.28-17.68,5.32-25.83a743.29,743.29,0,0,0,36.33-88.14c1.24-3.6,3-7,4.29-10.6a13,13,0,0,0,.57-3.75c.2-3.09-.92-5-3.27-5.1a4.69,4.69,0,0,0-3.33,1.33,167.63,167.63,0,0,0-17.57,24.91q-26.54,46.38-53.38,92.59c-16.56,28.66-32,57.87-45.43,88.15-8.74,19.77-17.35,39.61-26.33,59.26-2.68,5.86-3.76,12.17-6.22,18-2.93,7-4.54,14.59-9.57,20.59,2.09,2.55,1.18,5.42.88,8.23,1.5-3-2-5.57-.58-8.52,7.47,2.94,9.34,2.43,13-1.63,6.66-7.46,11.25-16.26,16.72-24.49a35.86,35.86,0,0,1,10.28-10.51c3.1-2,6.09-3.87,8.5-6.9a314.19,314.19,0,0,0,21.17-30.34Zm101.43-148.15c-.18,11.89-.61,23.33-.42,34.75a33.48,33.48,0,0,0,5.31,18,38.88,38.88,0,0,0,7,1.34c.88,0,1.92-1.55,2.67-2.56a9.93,9.93,0,0,0,1.74-3.25,362.52,362.52,0,0,0,10.29-52.26c2.2-18.89,5.46-37.71,9.23-56.36,2-9.94,4.3-19.83,6.21-29.8,2.14-11.22,4.68-22.4,7.82-33.37,4.94-17.25,6.78-34.87,7.53-52.67a7.52,7.52,0,0,0-3-6.31,4.18,4.18,0,0,0-3.68.06,20.92,20.92,0,0,0-5.75,4.47c-12.17,15.06-19,32.87-25.6,50.74a18.66,18.66,0,0,0-.89,3.7c-1.66,11.33-5.15,22.23-7.9,33.31a334.86,334.86,0,0,0-9.66,67.79C720.16,1040,719.86,1047.66,719.58,1054.81Zm93.67-509.1c.24,10.16.35,17.71.63,25.27a40.74,40.74,0,0,0,1,7.46c.26,1.15,1.1,2.68,2,3,1.35.52,3.17-1.3,3.6-4.32,2.71-18.89.77-37.7-1.25-56.51-.32-2.93-.9-4.92-2.35-5.92-.5,1.14-1.36,2.25-1.46,3.43C814.56,528.19,813.83,538.23,813.25,545.71Zm48.65,318a34.48,34.48,0,0,0-1.33-3.52c-3.55-7-11.63-9.73-19.16-6.31a5.23,5.23,0,0,0-2.51,2.71,7.4,7.4,0,0,0,1,6.84c4.1,5.85,13.84,7.28,20.12,3C860.87,865.83,861.28,864.62,861.9,863.71Zm231.46-221.77c-.19,2.79,1.06,4.65,3.47,6.07,2.78,1.64,5,1.35,6.14-1.65,1-2.69-.27-5-2.91-6.11A5.37,5.37,0,0,0,1093.36,641.94Zm-39.71,299.83.17-2.36-3.2,1Zm-24.25-7.65.27-2-3,.72ZM833.78,586.39a8.08,8.08,0,0,0,.67-2.75c0-.41-1.22-.71-1.89-1.06a8.48,8.48,0,0,0-.78,2.8C831.8,585.75,833.08,586.05,833.78,586.39Z"/><path d="M479.91,226.37c1.06,2.3,1.64,5,3.26,6.82,7.7,8.54,15.71,16.79,23.55,25.21,6.09,6.55,12.31,13,18.08,19.84,40.48,47.86,83,93.9,124.44,140.92,18.6,21.12,37.79,41.68,58.17,61.13A235.44,235.44,0,0,1,725.64,500a12,12,0,0,1,2.12,10.89c-1.4,4.88-4,9.51-4.83,14.45a288.51,288.51,0,0,0-3.64,30.44,40.77,40.77,0,0,0,3.4,18.76c4.11,9.32,6.43,19.43,12.48,27.93,2.23,3.13,2.79,7.07,3.05,10.93l-1.77,1.56a9.73,9.73,0,0,1-6.64-2.89c-10.07-11.11-19.43-22.7-26.32-36.19-2.25-4.4-6.63-7.26-11.16-9.65a19.51,19.51,0,0,0-14.35-2,28.2,28.2,0,0,0-10.12,4.61,19.76,19.76,0,0,0-2.71-10.71c-2.48-4.61-3.3-9-.4-13.95,2.63-4.44,2.06-9.68,2.49-14.63a13.71,13.71,0,0,1,3.75.72c5.76,2.9,10,7.69,14.7,12,7.47,6.9,13.29,15.46,21.51,21.61,1,.72,2.91,1.44,3.56,1,2-1.42,2.62-3.85,2.61-6.48,0-4-3.09-6.91-3.83-10.65-.5-2.51-1-5-1.65-7.49-.94-3.72-1.75-7.49-3-11.1a127.69,127.69,0,0,0-13.28-27.53c-9.81-15.09-20.8-29.07-34.3-41-1.91-1.69-3.66-3.58-5.6-5.22a8.62,8.62,0,0,0-7.12-1.69,14.46,14.46,0,0,0-2.81-10.13c-2.84-3.83-5.91-7.5-9-11.11-.73-.84-2.08-1.16-3.14-1.72-2.6-3.65-5.25-2.79-7.93-.1-4.6,4.16-7.88,8.93-7.21,15.53-10.87-15.75-21.66-31.54-31.73-47.86a861.81,861.81,0,0,0-52.13-75.7,11.22,11.22,0,0,0-6-4.22c-3.13-.83-5.36.35-5.78,3.51a20.57,20.57,0,0,0,.31,7.42c4.57,18.66,12,36.35,19,54.17-1.72,0-1.83,4.46-.07,9,.51,3.3.87,6.63,1.64,9.87.19.83,1.68,1.36,2.57,2l-.83-.56c1.67,5.87,3.5,11.71,5,17.64,1,3.87,3.4,6.19,6.73,7.89.07,10,.14,19.82,4.93,29.1,1.63,3.14,1.81,7.2,2,10.87.26,4.95-.11,9.93-.22,14.9l1-1a11.37,11.37,0,0,0-6.53,7.07c-1,3.19-1.44,6.54-2.13,9.81l.91-1.15c-1.58-1.95-3.78-3.66-4.59-5.89-1.72-4.74-2.09-10-4.12-14.6-10.31-23.34-16.83-47.85-23.18-72.44-2.54-9.84-5.15-19.69-8.38-29.31-7.25-21.7-12.87-43.86-18.72-65.94-5.53-20.85-10.6-41.82-17.42-62.31a24.39,24.39,0,0,1-.75-3.73c-1.08-6.57.16-12.57,4.49-17.78Z"/><path d="M591.86,598.71c-1-10-4.57-19-9.13-27.8-2.48-4.8-2.34-5.07-7.94-3.31-3.18,1-4.52.2-4.6-3.36s.11-7.41-1.46-10.89l-1.14.46a7.9,7.9,0,0,0,4.9-4.69,14.08,14.08,0,0,0,.17-10.39c-1.32-3.27-3.15-6.33-4.76-9.49l.86.5a11,11,0,0,1-2.23-6.89c-.09-2.41,0-5.29-1.32-7.06-1.43-2-4.29-1.47-6.83-.61-.73.25-2.74-.95-2.9-1.75-1-4.79-1.6-9.66-2.34-14.51l-.91,1.15a17.85,17.85,0,0,0,6.95-10.61c.43-2.12,1.13-4.18,1.71-6.27l-1,1c2.6.69,5,1.87,5.8,4.07,4.24,12.19,12.24,21.58,21.72,29.93l-5-2,4.25,1.61a7,7,0,0,1,5-3.8c-.66,4-.83,8.19-3.42,11.65.45,1.12,1.38,2.29,1.26,3.34-.42,3.64-.91,3.56-1-.18,0-1.21,0-2.43,0-3.64l11.07,4.66c-1.14,7.53-1.29,15,1.86,22.15,5,11.56,7.69,23.88,11,36,10.17,36.86,10,36.92,26,66.18,1.2,2.2,2.48,4.37,3.51,6.65a36.19,36.19,0,0,1,3,22l.69-.8a34.33,34.33,0,0,1-2.39,3c-7.24,7.25-6.93,15.93-4.38,24.8,1,3.6,3.12,6.9,4.7,10.35a10.24,10.24,0,0,1,.58,7.38,22.65,22.65,0,0,1-15,15.65c-2.7.93-5,0-5.81-3a101.28,101.28,0,0,1-2.13-11.11c-.61-3.73-1-7.5-1.66-11.2-.19-1.05-1.16-2.71-1.86-2.75a6.89,6.89,0,0,0-6.6,3.12c-6.28,11-11.08,22.67-16.21,34.21a50.38,50.38,0,0,1-13.4,18.25c-4.09,3.47-8.47,5.31-13.82,4.69l.66.75a8.94,8.94,0,0,1,1.82-6.8c-1.84-1.76-1.71-2.11.41-1-.46.6-.91,1.2-1.37,1.79-4.74-1.75-9.5-3.41-14.17-5.31a4.72,4.72,0,0,1-2.41-2.52c-1-3,.16-5.14,3.2-6,4.87-1.38,9.79-2.55,14.67-3.91a10.85,10.85,0,0,0,3.46-1.57,22.88,22.88,0,0,0,7-8.75c-1.05-2.28-1.59-5-3.21-6.76-6.92-7.38-14.93-13.61-21-21.94-5.18-7.14-11.67-13.31-17.38-20.07-1.61-1.9-2.52-4.39-3.76-6.61-1.88-3.36-1.73-4.09,2.1-10,3.17-4.91,2.77-6.18-2.3-8.34-8.19-3.49-16.45-6.56-25.37-7.8-3.7-.51-7.77-1.46-10.75-3.54-11.48-8-24.82-12.74-36.12-21-1.94-1.41-2.47-3.86-2.07-6.69l-.65.84c3.75-.64,7.62-1,11.14.46,14,5.74,27.78,11.79,41.72,17.55,7.51,3.11,32.41,9.68,43.66,11.65a27.59,27.59,0,0,0,7.43,0,4.84,4.84,0,0,0,3.29-1.64,4.56,4.56,0,0,0,0-3.57c-2.88-7.17-9.28-11.7-13.55-17.85a7.6,7.6,0,0,1-1-7.06l-.71.68c2.45.3,5.26-.06,7.3,1,5.55,3,10.7,6.68,16.19,9.77,2.11,1.2,4.71,1.55,7.11,2.24,2.82.82,8.62-3,8.64-5.62.05-7.56,0-15.12,0-22.68l-.91.3c6.38-6,6.88-8.65,2.58-14.55a19.46,19.46,0,0,0-2.53-2.43Zm18.36,27c-1,.33-2.15,1.1-3.06.91-3.67-.8-4.26-.24-1.85,2.07l5.5-3.39c1.1,3.8-2.19,6.3-2.84,9.58s.39,4.64,3.27,4.11c.27,0,.32-2.11.23-3.22a8.6,8.6,0,0,0-.76-3.36A7.51,7.51,0,0,1,610.22,625.74Z"/><path d="M444.75,967.27c-1.42,2.27-3.2,4.49-5.54,4.77-12.68,1.52-24.36,7-36.87,9.13a27,27,0,0,0-7.35,1.91c-16,7.92-33.84,10.83-50.28,18.47-1.71,3.12-3.34,6.57-5.39,9.74s-4.45,6.36-8.53,7c-21.34,3.19-42.52,7.24-63.82,10.59-6.21,1-12.64,1.45-18.82-.64a3.31,3.31,0,0,1-2-2.07c-.12-1.18.15-3.13.92-3.55a134.37,134.37,0,0,1,20.85-9.19c30-10.29,60-20.56,89.65-31.76,16.6-6.27,33.45-11.88,49.88-18.59,7.33-3,14.86-2.88,22.49-2.41l-.7-1.19c1.41,5,4.76,7.71,9.85,8.27,2.31.25,4.64.32,7,.48Z"/><path d="M1135.59,1160.46c-2.45-.43-5.41-.12-7.28-1.41a976,976,0,0,1-81.32-61.86c-1.88-1.6-2.41-4.12-2.17-6.85l-.9.76,8.52-8.59-.74.65a10.44,10.44,0,0,1,7.13,1.43,42,42,0,0,1,5.91,4.6c21.57,20.93,46.19,38.44,67.23,60,2.65,2.71,4.79,5.69,5.21,9.6Z"/><path d="M530.66,582.52a17.34,17.34,0,0,1-11-1.18c-1.14-.51-2.17-1.28-3.27-1.9-39.53-22.47-52.73-33-85.11-68a15.72,15.72,0,0,1-1.83-3.3l-.86,1c3.65-1.67,7.48-1.76,10.68.48,30,21,59.09,43.26,86.61,67.5a12,12,0,0,1,3.87,6.27Z"/><path d="M1205.06,514.21c.64,2.68.54,5.31-1.12,7.13-12,13.15-24.85,25.41-37.83,37.58-7.7,7.23-16.82,11.06-26.64,13.81a5.16,5.16,0,0,1-3.43-.66c-2.31-1.23-1.69-2.87,1.24-5.05,6.09-4.54,12.22-9.06,18-14s11.24-10.31,16.76-15.57c8.3-7.88,16.63-15.72,26.46-21.7a10,10,0,0,1,7.32-.85Z"/><path d="M514,764.08c-12.37.8-26.19,1.51-40,2.64a167,167,0,0,1-33.9-.85,14.1,14.1,0,0,1-3.47-1.42c.78-.5,1.52-1.32,2.36-1.45a177.2,177.2,0,0,1,41.36-1.51c10,.84,20.09,1.16,30.14,1.69,1.26.07,2.6-.25,3.76.09C518.29,764.45,518.66,764.9,514,764.08Z"/><path d="M307.32,772c18.94-1.52,37.91-2.05,56.9-1.94a10.06,10.06,0,0,1,3,1c-1,.75-1.91,2.11-2.91,2.16C345.29,774.16,326.3,773.19,307.32,772Z"/><path d="M454.2,953.48c-.31-2.84.27-5.29,2.26-6.33,11.07-5.74,22.94-9.59,34.46-14.24,7-2.83,14.41-3.93,21.77-5.22L512,927c.76,6.24.34,7.86-2.78,9.26-7.81,3.51-15.14,8.3-24,9.13-6.23.59-11.7,3.74-17.66,5.08-4.77,1.07-9.72,1.37-14.58,2Z"/><path d="M429.92,960.64c1.28-3.33,3.25-5.9,7-6.73,5.74-1.28,11.51-1.07,17.29-.43l-1.15-1c-.2,7.16,5.9,6.83,10.2,8.76a4.82,4.82,0,0,1,2.06,2.7c.13.36-1.1,1.63-1.86,1.81-6.15,1.41-12.59-.63-18.7,1.5l1.27.93c-.9-3.55-3-6.18-6.55-7.09a103.22,103.22,0,0,0-10.25-1.66Z"/><path d="M772.64,426.25c2.63,13.87,1.27,27.76.37,41.64a12.59,12.59,0,0,1-1.82.13,72.23,72.23,0,0,1,1.93-40.9Z"/><path d="M1137.18,1158.76c2.27.73,4.85,1,6.74,2.28a49.61,49.61,0,0,1,8.18,7.22c5,5.41,11.1,9.45,16.91,13.85l-1-.94c-3.72.06-7.52-.18-10.74-2-6.39-3.67-12.94-7.15-18.3-12.39a11.26,11.26,0,0,1-3.4-6.3Z"/><path d="M370.66,1013.11h-9.52a6.82,6.82,0,0,1-6-3.41,14.64,14.64,0,0,1,3.19-1.69,58.69,58.69,0,0,1,18-1.15,7.08,7.08,0,0,1,5.94,3.21c-1,.64-2,1.64-3.09,1.85C375.57,1012.58,372,1012.94,370.66,1013.11Z"/><path d="M1044.82,1090.34a21.7,21.7,0,0,1-10.47-3c-7.36-4.46-14.18-9.6-19.18-16.75a14.77,14.77,0,0,1-1.27-3.45l-.93.81,16.54,0-1.23-1.07c-.18,2.56.51,4.77,2.46,6a50.9,50.9,0,0,0,6.2,2.78l-1.12-.74c4.35,1.39,7.39,4.09,8.64,8.59l-.61-1.08c0,2.9.05,5.8.07,8.7Z"/><path d="M442.54,1002a40.3,40.3,0,0,0-11.2.92c-4.91,1-10,1.36-14.94,2.05-3.08.42-5.51-.66-5.52-3.41,0-1.36,3.13-1.87,6-2.1,8.91-.7,17.58.75,26.22,2.64Z"/><path d="M764.34,1248.6a31.22,31.22,0,0,1-4.39-17.4c.14-2.68.53-5.61,2.32-6,2.72-.63,4,1.56,3.63,4.72-.74,6-1.42,12-2.12,18.07Z"/><path d="M756.6,617.83c-.9-3.62-2.08-7.2-2.63-10.87s-1-7.31,1.66-10.33c1.88-2.15,3.13.51,4,7.85a18.65,18.65,0,0,1-3.76,14Z"/><path d="M536.44,592.37c5.36-1.42,9.34,1,12.84,4.67.82.85,1.87,2,1.92,3,.19,3.69-1.39,4.22-4.34,1.72-2.74-2.32-5.69-4.41-8.33-6.84-.79-.72-.85-2.23-1.24-3.37Z"/><path d="M763.78,393.58c.9,3.61,1.73,7.24,2.72,10.82.8,2.94.5,5-1.31,5.91-.19.1-1.47-1.15-1.6-1.89a10.21,10.21,0,0,1,.23-3.68c.7-3.66,1.24-7.29-.13-10.92Z"/><path d="M568.73,553.35a23.94,23.94,0,0,1-5.54-8.73c-1.9-5.62-.24-10.47,5.57-14.88l-.86-.5c1.32,8.21-.51,16.38-.31,24.57Z"/><path d="M538.67,922.92c-3.14,4.07-7.31,6-12.42,6.32A33.72,33.72,0,0,1,512,927l.66.66c4.91-3.77,10.57-5.47,16.61-6.33,3.8-.54,7,.83,10.19,2.52Z"/><path d="M556.4,924.32c3.82-.36,7.62-.85,11.45-1.05,5.58-.29,8.5,2.26,10.25,8.72l.41.21a13.73,13.73,0,0,0-3.1-2.22c-6-2.15-12-4.13-18.06-6.17Z"/><path d="M578.1,932l29.18-1.51-1.14-1.2a36.34,36.34,0,0,0-3.19,1.91c-4.25,3.13-8.94,4.54-13.82,2.21a15.24,15.24,0,0,0-10.62-1.2Z"/><path d="M499,956.94c-1.1.28-2.23.89-3.29.77-4-.41-4.38-1.57-1-2.8a6.24,6.24,0,0,1,3.48,0C498.54,955,498.69,956.24,499,956.94Z"/><path d="M607.28,930.48c-.78-2.52-.25-4.61,1.76-6a5.78,5.78,0,0,1,3-1,4.86,4.86,0,0,1,2.94,1c1.77,1.47,1,3-2.12,3.86a55.26,55.26,0,0,1-6.71.93Z"/><polygon points="530.79 939.64 530.79 941.83 527.77 940.75 530.79 939.64"/><path d="M591.68,614.91c-.52-1.15-.95-2.35-1.57-3.44-3.74-6.65-3.77-6.65,1.75-12.76l-1-.47c-.29,5.65-1.05,11.31-.05,17Z"/><path d="M412.75,609.21c9.47,1,9.5,1,13.11,8.37l1.2-.89c-3.29-3.6-7.53-5.84-11.73-8.1-1-.54-2.36-.37-3.55-.53Z"/><path d="M444.32,622.65c-6.16-.82-11.54-3.88-17.26-6l-1.2.89A30.44,30.44,0,0,1,437,616c3.33.2,5.36,2.53,6.39,7.61Z"/><path d="M443.42,623.61a21.52,21.52,0,0,1,10.39-.7c3,.55,4.27,1.8,6.68,7.05l.65-.84c-7.42,2.57-12.85-.06-16.82-6.47Z"/><path d="M226.16,774.17q-3.82-2.64-6.37.43c.9.37,1.93,1.2,2.67,1,1.1-.3,2-1.34,3-2.06Z"/><path d="M414.19,1151.64c1,2.56.61,4.63-1.22,6a7.79,7.79,0,0,1-2.91,1.44,15.78,15.78,0,0,1-3.44,0l.78.68c-.81-2.46-.4-4.49,1.21-6.07a6.4,6.4,0,0,1,6.11-1.61Z"/><path d="M403.68,1170.9a54.47,54.47,0,0,1-1.1-7.1c-.07-2.42,1.81-3.75,4.82-4l-.78-.69a11.29,11.29,0,0,1-1.34,6.1,48.76,48.76,0,0,0-2,6Z"/><path d="M403.32,1171.24l-1.7-1.54q-1.71,2,2.06,1.2Z"/><path d="M1169,1182.11q-3.48,1.7.43,1l-1.41-1.92Z"/><polygon points="480.47 226.92 478.07 227.56 479.91 226.37 480.47 226.92"/><path d="M1121.85,276.92c.87-6.14,1.07-6.35,7.47-7.94l-.89-.83-.36,9.15,1.13-1.38-8.56,0Z"/><path d="M1114.08,284.71c.32-4.86,2.88-7.48,7.77-7.79l-1.21-1c-1.14,4-3.6,6.75-7.74,7.8Z"/><path d="M1106.28,292.36c1-6.19,1.36-6.52,7.8-7.64l-1.18-1c-.61,4.51-3.1,7.14-7.69,7.66Z"/><path d="M1098.52,300c.47-6.3,1.28-7.08,7.76-7.6l-1.07-.94c-1.27,6.37-1.5,6.6-7.64,7.68Z"/><path d="M1090.89,307.7c.06-6.23,1-7.17,7.63-7.74l-1-.86c-1.08,6.13-1.28,6.33-7.66,7.69Z"/><path d="M1083.25,315.41c.07-6.4,1.14-7.48,7.64-7.71l-1-.91c-.18,4.94-2.87,7.37-7.69,7.68Z"/><path d="M1075.6,323.09c.07-6.41,1.16-7.5,7.64-7.68l-1-.94q-.45,7.21-7.67,7.66Z"/><path d="M1067.92,330.8c.35-6.39,1.24-7.29,7.68-7.71l-1-1q-.79,6.92-7.7,7.7Z"/><path d="M1060.13,338.41c.37-6.43,1.35-7.38,7.79-7.61l-1.07-1c-.41,4.71-2.76,7.48-7.67,7.7Z"/><path d="M1052.15,345.86c.33-6.38,1.42-7.4,8-7.45l-.94-.88c-1.16,6.64-1.6,7.09-7.64,7.72Z"/><path d="M423.08,496.71c-.57-.6-1.58-1.75-1.63-1.71-2.1,1.73-1.81,2.68.79,2.72Z"/><path d="M429.45,508.11c-3.82-2.85-5.27-7-6.37-11.4l-.84,1c1.55,1.68,3.17,3.29,4.62,5a8.59,8.59,0,0,1,1.73,6.37Z"/><path d="M1211.7,505.32c3.7-1.88,4.56-1.71,2.16-.13-.63.42-2.24-.66-3.39-1.05Z"/><path d="M1205.82,514.93c-.64-2.25-.34-4.21,1.15-5.63s3.15-2.66,4.73-4l-1.23-1.18c2.87,8.07,2.64,8.5-5.41,10.07Z"/><path d="M529.75,583.39a17,17,0,0,1,3.37.78,8.54,8.54,0,0,1,2.65,2c1.57,1.66,1.73,3.8.67,6.25l.85-.81c-6.57-1.52-7.37-2.61-6.63-9Z"/><polygon points="521.58 597.61 519.51 596.4 520.67 598.46 521.58 597.61"/><path d="M411.78,608.06l2.29-.7q-3.09-2.58-1.32,1.85Z"/><path d="M530,605.1a8.24,8.24,0,0,1-4.51-3.3,53,53,0,0,0-3.9-4.19l-.91.85a44.76,44.76,0,0,0,4.49,3.57,9.14,9.14,0,0,1,3.84,4.12Z"/><path d="M529,606.15c3.19,2.06,6.83,3.68,7.69,8l1-1c-2.3.08-4.13-.68-5.13-2.46s-1.72-3.67-2.56-5.51Z"/><path d="M536.69,614.12c3.87,1.18,7.18,3.15,9.41,6.65l1-1c-6.5.27-7.1-.15-9.45-6.66Z"/><path d="M546.1,620.77A57.67,57.67,0,0,1,551,624.5c1.5,1.41,1.86,3.43,1.46,5.67l.71-.68c-6.73-.67-7.86-2.75-6-9.76Z"/><path d="M1013.9,1067.1a18.83,18.83,0,0,1-3.37-.12,5.58,5.58,0,0,1-4.6-3.92,11.81,11.81,0,0,1,0-3.36l-.41.5a10.08,10.08,0,0,1,8.44.15l-1-1a11.18,11.18,0,0,1,0,8.54Z"/><path d="M1028.62,1060c6.41.15,7.57,1.39,7.4,7.9l.94-.88-8.68-.15,1.23,1.08a16.25,16.25,0,0,1-.3-8.53Z"/><path d="M565.12,1064.43l.36,3c2.58-1.51,2.18-2.18-1.18-2Z"/><path d="M1036,1067.92c6.34.31,7.07,1,8,7.42l.64-.62a10.93,10.93,0,0,1-8.84.17l1.12.74c0-2.87,0-5.73,0-8.59Z"/><path d="M1044,1075.34c6.34.55,7.08,1.31,7.68,7.81l.74-.64a15.58,15.58,0,0,1-8.59-.11l.61,1.08c-1.33,0-1.22-4.9.2-8.76Z"/><path d="M756.8,764.88c-2,4.62-3.75,9.32-5.92,13.84a19,19,0,0,1-11.1,9.54c-3.54,1.27-7.28,2-10.87,3.09-3.82,1.22-7.58.57-11.07-.72a45.38,45.38,0,0,1-25-21.74,15.7,15.7,0,0,1-.42-14.54,17.63,17.63,0,0,1,1.66-3.34,91,91,0,0,1,7.37-8.52c7.32-7,19.75-6.84,27.32.42a60.52,60.52,0,0,1,7.44,8.41c5.83,8.25,5.78,8.52,13.87,5.62,2.49-.89,4.9-1.23,7,.62.68.6.43,2.41.36,3.66A27.3,27.3,0,0,1,756.8,764.88Z"/><path d="M675.49,822.57a9,9,0,0,1-1.41,7.82c-4.55,6.59-11.05,10.35-18.59,12-6.51,1.44-12.38-.28-16.9-5.64a6.72,6.72,0,0,1-1.48-7c2.41-7.76,7.86-12.75,14.82-16.2,5.94-2.94,11.89-3.31,17.91.49A12.51,12.51,0,0,1,675.49,822.57Z"/><path d="M598.46,530.64c-.42-3.26-.79-6.53-1.28-9.79-.47-3.1-1.47-3.93-6.61-5.93.89-6.2.95-12.45-2.06-18-3.63-6.72-4.13-14.11-5.63-21.31a9,9,0,0,0,7.43-.19l-.72.7c1.1,3.67,2,7.39,3.41,10.94.36.92,2.11,1.3,3.22,1.93l-.91-.42c2.1,4.47,4.13,9,6.31,13.38a10,10,0,0,0,5.4,4.63c-.21,4.6-.31,9.21-.66,13.8C606,525.42,602.88,528.58,598.46,530.64Z"/><path d="M702.62,686.87a10.11,10.11,0,0,1-2,2.51c-3.64,2.48-6.29,2.55-9.93.61-3.23-1.72-3.25-4.57-.2-9.32,2.06-3.21,6.2-3.37,8.62-.06A55,55,0,0,1,702.62,686.87Z"/><path d="M629,529.2c7.53,5.2,12.56,12.35,15.92,20.73a13.82,13.82,0,0,1,.42,3.79C636.82,547.62,630.87,539.78,629,529.2Z"/><path d="M613.89,506.2c3.6,5.19,7.33,10.3,8.41,16.75C616.35,519,615.08,512.59,613.89,506.2Z"/><path d="M605.68,507.22c1.47-1.45,2.9-3,4.5-4.25a20.3,20.3,0,0,1,2.23,2c.78.69,1.59,1.36,2.38,2Z"/><path d="M621.26,521.7c5,.83,7.2,4.54,8.88,8.75C625.33,529.41,623,525.9,621.26,521.7Z"/><path d="M644.18,552.39c5.72.26,8.44,3.55,9,9C648.33,560.26,645.79,556.79,644.18,552.39Z"/><path d="M651.85,560c5.53.44,7.85,4.13,9.07,8.94C655.26,568.59,653,564.86,651.85,560Z"/><path d="M659.45,567.71l9.09.35a30,30,0,0,0-2.65,1.94c-.81.73-1.64,2.4-2.19,2.29C661.36,571.83,660,570.07,659.45,567.71Z"/><path d="M724.64,679.68c1.5-.3-.17.38.14.45Z"/><path d="M645,682.71c3.46,2.33,5,6.16,7.3,9.41l.46,1.09c-1.48-1.75-2.9-3.54-4.46-5.21a9.33,9.33,0,0,1-2.61-6.09Z"/><path d="M652.3,692.12l1.47,1.76c.85-3,.52-3.19-1-.67Z"/><path d="M852.13,713.57a16.07,16.07,0,0,0,0,8.91,4.94,4.94,0,0,0,1.76-6A19.18,19.18,0,0,0,852.13,713.57Z"/><path d="M776.16,806.58l-9-.08C770.14,804.89,773.17,804.09,776.16,806.58Z"/><polygon points="712.87 843.51 713.79 841.68 711.64 842.38 712.87 843.51"/><path d="M714.62,852.92l-9.08,0a22,22,0,0,1,7.33-9.36l-1.23-1.13Q713.13,847.65,714.62,852.92Z"/><path d="M990.82,552.37q.07,4.41.17,8.82a75.2,75.2,0,0,1-7.53-.65,5.22,5.22,0,0,1-3.07-1.88c-1.26-1.75,0-3.38,3.12-4.33C985.92,553.6,988.38,553,990.82,552.37Z"/><path d="M631.13,1182.17a8.35,8.35,0,0,0-8.24,1.88l.92-.9c.33-4.74,1.91-8.79,5.94-11.72.85-.61,1.17-2,1.73-3l.94-1.09c-4.52,4.77-5.24,10.14-2.56,16.06Z"/><path d="M631.48,1168.45l.48-2.74c-3,1.12-2.88,1.67.46,1.65Z"/><path d="M622.89,1184.05l-1.59-1.2.66,1.91,1.85-1.61Z"/><path d="M603.52,1205.56a6.13,6.13,0,0,0,6,.81c2.9-1.11,5.79-2.27,8.68-3.41l.71.31-14.43,1.13Z"/><path d="M604.43,1204.4c-.09.94-.19,1.87-.28,2.8,2.92-1.31,2.71-1.85-.63-1.64Z"/><path d="M644.52,469.1c1.22.25,2.81.09,3.59.81,5.63,5.17,8.8,11.67,8.72,19.34,0,3.66-1.24,7.32,1.58,10.49,7.88,8.88,10.36,19.5,10,31-1.09-.65-2.48-1.06-3.24-2-10.53-12.81-18.59-27.23-26.6-41.66-1.86-3.35-1.55-7.37-.75-11.16l-1,.78a14.66,14.66,0,0,0,8.73-8.68Z"/><path d="M583.93,476.78a16.29,16.29,0,0,1-3.11-1.6,42.92,42.92,0,0,1-10.54-13.61c-2.76-5.26-3.07-11.15-2.61-17,1.8,1.64,4.28,3,5.3,5C577.34,458.3,582.86,466.66,583.93,476.78Z"/><path d="M628.92,444.71c4.17.18,6.73,3.09,9.49,5.64a8.81,8.81,0,0,0,6.92,2.43c-1.77,5.37-1.17,10.85-.81,16.32l1.05-1-8.89-.11,1.28,1c-1.69-4.2-4.4-7.39-8.86-8.81l1.1.86Q629.55,452.86,628.92,444.71Z"/><path d="M561,430.44a16.82,16.82,0,0,1-8.85,0c.41-2.37.7-4.77,1.29-7.09a5.68,5.68,0,0,1,1.79-3c1.57-1.19,3.15,0,4.06,3C560,425.73,560.44,428.1,561,430.44Z"/><path d="M568.68,446.13c-3.65-.8-6.31-3-7.2-6.52-.84-3.37-1-6.92-1.43-10.39C564.52,434,568.51,439.12,568.68,446.13Z"/><path d="M621.28,429.43l8.8.08c-.05,5.49,1.07,11-.05,16.48l-8.68,0A61,61,0,0,1,621.28,429.43Z"/><path d="M537.16,392.71c0-3.22.07-6.44.1-9.65C538.08,386.28,538.63,389.51,537.16,392.71Z"/><path d="M542.28,404.31l4.4,1.07a10.45,10.45,0,0,1-2.4-.25,22.39,22.39,0,0,1-2.83-1.38Z"/><path d="M613.6,445.2l9.09-.24c-1.45,1.59-2.91,3.17-4.37,4.76-.79-.74-1.6-1.48-2.39-2.24S614.38,446,613.6,445.2Z"/><path d="M629.65,467.9l-4.23-4a4.64,4.64,0,0,1,4.78-2.9l-1.11-.86q-.09,4.45-.17,8.9Z"/><polygon points="590.31 475.38 591.75 474.77 589.59 476.08 590.31 475.38"/><path d="M637.86,476c-4.55-.83-6.54-4.29-8.21-8.06l-.73,1.16,9-.09-1.28-1q.08,4.4.16,8.79Z"/><path d="M596.22,489a4.41,4.41,0,0,1-.91-.42Z"/></svg>