<svg id="Calque_1" data-name="Calque 1" xmlns="http://www.w3.org/2000/svg" viewBox="0 0 1500 1500"><path d="M618.11,592.3c6.16-2.24,8-2.39,10.36-.55a44.1,44.1,0,0,1,5.67,4.87c4.87,5.4,11,4.67,17.17,3.82,4.41-.6,6.48-3.25,5.48-7.23q-3.19-12.71-6.43-25.39l-.48.65c5.31-1.94,7.88-1.9,10.42.54,2.76,2.64,5.27,5.56,8.07,8.16a4.57,4.57,0,0,0,3.41,1.19c2-.42,2.79-2.62,2.61-5.67-.45-7.65-.85-15.31-2.73-22.78-2.19-8.71-3-17.61-3.79-26.51-.23-2.55-.93-5.1-.78-7.61.61-10.2,1.39-20.4-.15-30.55-1.34-8.8-3.08-17.53-4.53-26.31a9.41,9.41,0,0,1,.4-3.78,14.07,14.07,0,0,1,1.5-3.28c1.73-3,5.68-4.36,10.07-3.62,2.66.46,4.8,1.86,5.54,4.6,1,3.67.84,7.77,2.39,11.14,4.87,10.62,6.83,21.69,8,33.26,1.14,11.39,3.48,22.65,4.18,34.15.39,6.3,3,12.44,3.59,18.75,1.06,11.52,6.21,22.13,6.86,33.72.57,10.19,1.47,20.36,2.36,30.53a40.86,40.86,0,0,0,1.58,7.37c.16.57,1.2.9,1.84,1.35.62-1.11,1.79-2.21,1.78-3.31-.07-11.48.43-23-.73-34.42a271.57,271.57,0,0,1-.31-45.89c1.56-23,1.35-45.91-1.92-68.77a101,101,0,0,1-.49-22.92c1.39-16.52,4.42-32.94,2.58-49.63,4-29.2,2.14-58.65,3.36-88,.69-16.52.72-33.18-1.14-49.7-.26-2.36-1.87-4.63-3.16-6.76-.15-.26-2.21.5-3.3,1-2.34,1-4.62,2.11-6.94,3.14-2.59,1.16-5.07.69-6.74-1.77-.55-.82-.29-2.67.26-3.68,6.09-11.16,12.31-22.23,18.5-33.33l-1-.79c1.67,4.57,2.91,9.38,5.16,13.65,1.65,3.11,4.81,5.39,7,8.27,3.84,5.09,5.69,10.67,3.14,17-.91,2.25-2,4.44-2.73,6.74a10.41,10.41,0,0,0-.19,3.58c.11,2.46,1.57,4.18,4.24,5.14l-.78.63c.91,3.25,1.9,6.48,2.69,9.77a5.67,5.67,0,0,0,4.43,4.49l-1.11-.35c1.8,3.37,3.64,6.7,3.78,10.68.43,12.73-1.25,25.51,1,38.18a14.6,14.6,0,0,0,1.59,3.41,6.53,6.53,0,0,0,4-6c.23-6.38.38-12.76.71-19.13a38.38,38.38,0,0,1,1.07-7.55c.25-1,1.44-1.82,2.35-2.55,2.43-2,4-1,4.27,2.85.39,6.35.81,12.71.84,19.08.05,14-.28,28.1-.15,42.15a190.65,190.65,0,0,0,1.3,22.93c3.68,27.92,4.32,56,5.38,84.09,1.79,47.22,2.91,94.48,2.54,141.75,0,3.7,1.14,5.11,2.41,3.76a5.73,5.73,0,0,0,1.54-3.3c.66-8.92,1-17.85,1.79-26.75a36.24,36.24,0,0,1,2.33-11.17c6.17-14.22,7.73-29.62,11.77-44.37a29.42,29.42,0,0,0,1-7.58c.06-16.6,4.18-33,2.85-49.63-.54-6.73,1.83-12.16,5.91-17.49,4.79-6.25,6-14.08,6.4-21.75.86-16.56,1.25-33.14,1.91-49.71.05-1.09.67-2.94,1.26-3,1.1-.18,2.94.29,3.49,1.13a35.39,35.39,0,0,1,5.15,14.3c1.9,12.68,2,25.45,1.7,38.24-1.34,5.82-2.74,11.63-4,17.47a5.31,5.31,0,0,0,.48,3.5,3.75,3.75,0,0,0,2.76,1.51c.64,0,1.69-1.16,1.88-2,1.77-7.25-.1-14.27-1.6-21.3,7-.13,7.24.07,9.92-3.58,1.83-2.47,3.27-4.14,5-3.12.73.42.77,2.29.85,3.52a24.58,24.58,0,0,1-1.54,11.08c-1.44,3.48-3,6.87-3.14,10.74-.09,2.66.08,5.65,2.16,6.86,2.41,1.4,4.78-.19,6.37-2.66a7.92,7.92,0,0,1,6.42-3.54c3.26-.24,5.51,3.64,5.05,8.48a69,69,0,0,1-.64,7.5c-1,4.91-2.7,9.7-3.55,14.64-1.7,9.87-4.15,19.7-3.18,29.86a9.54,9.54,0,0,0,3.32,6.51c.86.73,2.37.72,3.59,1,5.15,1.11,6.44,3,4.5,6.74-.59,1.11-1,2.31-1.7,3.36-4,6.31-8.1,12.61-12.3,18.81-.64.95-2.08,1.35-3.16,2a31.43,31.43,0,0,0,.25-3.73,9.8,9.8,0,0,0-3-6.68c-1.56-1.51-5.22,1.21-7.91,5.76-1.36,2.3-1.83,4.68-.79,6.94s3.24,2.48,6,.65c2.06-1.38,4.18-2.67,6.28-4-.91,6.24-1.68,12.51-2.77,18.71a33.07,33.07,0,0,0,3.25,22c1.8,3.42.7,7.4-.36,11.06s-3.51,6.65-5.57,9.81a142.86,142.86,0,0,0-14,26.74c-1,2.69.24,4.56,3.25,4.8a6.48,6.48,0,0,0,3.45-1.29,10.15,10.15,0,0,0,2.8-2.5c3.76-5.06,7.74-10,11-15.35,2.72-4.43,6.35-7.6,10.36-10.74a78.16,78.16,0,0,0,19.57-22.79c8.18-14.15,17.05-27.95,28.41-39.9l-1-1c2.27,4.52,2.25,8.7-1.84,12.27,2.9,2.66.32,6,1.17,9,2-3.28-2.66-5.95-.86-9.21,4.32,2.67,8.7,4.87,13.61,1.28a182.88,182.88,0,0,0,32.45-30.69c1.54-1.85,2.25-4.4,3.34-6.62l-1.32.86a37,37,0,0,1-4.76,14.27c-11.09,18.63-24.69,35.29-39.6,50.93-3.49,3.67-7.39,6.95-10.8,10.69-2.55,2.8-4.65,6-3.1,10.2a18.13,18.13,0,0,0,6.91,8.72,6.07,6.07,0,0,0,3.58,1.14c6.29-.54,12.58-1.17,18.83-2,7.9-1.1,14.16-5.14,19-11.41l-.52-.6a19.14,19.14,0,0,1,4.18,12.85c-.07,2.3.11,4.62.17,6.93l1.13-1.18c-3.65.89-7.33,1.71-11,2.69-2.56.7-3.76,2.7-3.69,5.69l-1-.65c-4.15,2.7-7.36,6.44-6.74,11.44.81,6.6-1.54,11-6.59,14.88-1.66,1.27-2.21,4-3.27,6.06l1.08-1c-2.87,1.49-6.3,1.94-8.47,4.7,2,3.1,5.34,3.46,8.48,4.26L897.7,680c-1.07,6.17-6.54,6.88-11,9a3.85,3.85,0,0,0-1.77,2.63,2.8,2.8,0,0,0,1.4,2.32,23.32,23.32,0,0,0,7.46.55c8.72-1.38,16.66-5.58,25.49-6.93,7.45-1.13,14.7-3.52,22.06-5.26,8.58-2,17.43-3,25.68-6.36,17.36-3.17,34.22-8.68,51.78-10.91,2.46-.31,4.82-1.39,7.23-2.11l-.93-.57c-1.05,3.81-3,7.5-6.68,8.68-23.05,7.37-45.81,15.76-69.56,20.8-6.23,1.33-12.44,2.77-18.68,4.07s-12.5,2.56-18.77,3.69c-11.37,2.07-21.66,7.68-32.88,10-10,2.09-20.42,1.81-30.17,5-11.16,3.67-22.61,3.6-34.09,3.9a11,11,0,0,0-1.79-2.46c-.3-.25-1.89.5-1.88.53.56,2.18,2.09,2.49,4.47,1,1.27,5.83,5.28,8,10.85,8.43a78.56,78.56,0,0,0,26.59-2.63,94.83,94.83,0,0,1,22.66-3.51,221.56,221.56,0,0,0,41.83-5c13.79-3,27.88-3.47,41.92-4.3,11.5-.67,23-1.38,34.23-4.07a136.29,136.29,0,0,1,41.89-3.13c11.44.82,22.9,1.25,34.35,2,1,.06,1.89,1.09,2.84,1.67-1.1.66-2.16,1.81-3.3,1.9-8.9.69-17.8,1.38-26.72,1.66-12.81.41-25.49,1.23-37.92,4.84a69.87,69.87,0,0,1-15.11,2.44c-24.31,1.52-48.18,6-72.07,10.35-3.41.62-4.33,2.18-2.55,4,16.1,1.72,32.71,2.21,49.3,2.78,11.51.39,23,.57,34.41,2.47,21.52,3.61,43.26,4.12,65,4.75,24.28.7,48.58.61,72.8,2.89a31.5,31.5,0,0,0,7.63-.37c6.55-1,12.31.82,18.37,3.3,5.24,2.13,19.78.45,30.13-2.1a104.73,104.73,0,0,1,22.66-3.32c2.75-.06,5,.92,6.11,3.63a6.6,6.6,0,0,1-1.52,6.72,11.24,11.24,0,0,1-6.62,3.55,16,16,0,0,1-3.75.66c-26.84-1.28-53.68-.21-80.52.07-25.57.28-51.14.51-76.71.86-11.5.16-23,.33-34.5,1a146.68,146.68,0,0,1-23-.25,86,86,0,0,0-15.31,0c-23,1.72-46,.48-69,2.73-5,.5-10.2-.28-15.28-.71-12.73-1.08-25.45-3.22-38.18-3.25-20.65-.06-40.68-3.57-60.63-8.17-2.45-.56-4.38-3.35-3.57-5.55,1.3-3.52,3.85-6.58,5.8-9.88,2.1-3.57.85-6.95-3.3-9.15-5.2-2.76-5.18-2.71-13,2.1-1,.62-2.93,1-3.63.52-2.08-1.59-2.8-4.1-2.66-6.81.28-5.46-2.34-9.57-5.59-13.73-3.59-4.59-8.56-4.41-13.34-5.41a3.86,3.86,0,0,1-2.21-2.61c-1.6-7.69-.2-15.25,1.4-22.76,1.06-4.94,2.85-9.81,1.61-14.94-.22-.9-1.61-1.52-2.76-2.54-2.45,4.25-5.86,8.38-7.35,13.11-3.46,11-8.91,21.18-11.74,32.37-1,3.91-4.22,6.28-7.62,8.09-4.51,2.4-9.15,4.55-13.73,6.8l.2.35a46.36,46.36,0,0,0-1.61-17.58c-.8-3-2.47-4.17-3.91-3.06a4.79,4.79,0,0,0-1.77,2.9c-.64,5.89-1.06,11.8-1.56,17.7l.2-.45c-1-.71-2.38-1.2-3.07-2.16-5.88-8.12-11.94-16-19.4-22.84-2.71-2.48-4.49-6-6.69-9q.28,4.4-1.42.74l2.69.19a49.24,49.24,0,0,0-1.07,7.47c0,2.47.06,5.28,1.18,7.36,3.59,6.65,7.87,12.93,11.48,19.57,1.76,3.25,2.64,7,4.13,11.08l-26.79,2.55,1.3,1.13c-4.36-2.73-8.89-5-14-5.91a119.46,119.46,0,0,1-25.74-7.31c-3.67-1.51-7.56-1.14-11.29-.19a45.55,45.55,0,0,0-7.15,2.73c-4.9,2.19-10.19,2.87-14.81.48-9.41-4.85-19.32-6.3-29.66-6.47-5.09-.08-10.18-.56-15.24-1-.73-.08-2-1.37-1.91-1.81.28-1.07,1.06-2.64,1.92-2.84,6.19-1.48,12.66-1.82,18.51-4.7,4.86-2.39,9.93-1.9,15-1,3.69.66,7.35,2,11.11.84.72-.23,1.06-1.66,1.57-2.54-4.83-4.34-10.21-7.57-16.73-8.76-3.75-.69-7.56-1.31-10.94-3.34-12.15-7.27-25.46-11.77-38.8-16.26-2.37-.8-3.17-3.76-2.09-6.15,1.67-3.71,5.82-4.75,8.75-7.13,4.42-3.6,9.28-3.47,14.28-1.39a45.51,45.51,0,0,1,7,3.11c4.57,2.89,9.48,3.22,14.65,2.89,2.52-.17,5.38,1,7.57.24,6.94-2.56,12.4.64,18.11,3.53,1.11.56,3,1.29,3.63.79,2.54-1.92,2.26-4.19,0-6.53-2.65-2.76-5-5.83-7.63-8.57s-5.56-5.27-8.36-7.88c-5.87-5.47-8.74-12.45-10.05-20.18-.43-2.52-.59-5.08-1.13-7.57a18.53,18.53,0,0,0-5.52-9.83c-4.68-4.36-9.31-8.76-13.76-13.34-1.74-1.8-2.91-4.13-4.35-6.22-1.59-2.3-.52-8.47,2.34-10.63,2.4-1.82,4.61-.81,6.74,1.16,3.75,3.46,8.38,6.08,11.69,9.89,7.66,8.83,16.88,15.63,26.71,21.65,5.59,3.43,9.43,8.56,14.07,12.9,2.83,2.65,4.13,6.34,4.56,10.24,1.09-.53,2.26-1.64,3.25-1.5,3.67.53,7.2-.1,10.76-.71l7.9-4.66q1.27,3.87-1.17,2.17l2.1-1.18a13.22,13.22,0,0,1-3.4-1.32c-2.94-2.22-4.72-1.67-5.18,2-.14,1.15.43,2.39.67,3.59l-15.29,1.41c5-7.56,6.49-16.4,8.71-24.92a15,15,0,0,0-1.61-11c-1.82-3.3-3.68-6.58-5.53-9.87ZM800.3,511.75c-2.44-.08-4.68.61-5.95,2.57-1.59,2.44-.85,4.75,1.88,5.74a6.53,6.53,0,0,0,6.39-1.43c2-1.7,2.18-3.8.55-5.51C802.49,512.4,801.27,512.19,800.3,511.75Z"/><path d="M974.47,1064.63c-2.09-1.39-4.51-2.47-6.22-4.23-9.78-10.09-19.14-20.4-26.22-32.82-7-12.23-16.74-22.59-26.48-32.77-15.92-16.64-31.64-33.47-45.92-51.55a80.22,80.22,0,0,0-16.77-15.6A52.07,52.07,0,0,1,842,916.94c-5.48-7.05-8.11-15.85-14.72-22.33-6.33-6.21-11.61-13.49-17.49-20.18-.76-.86-2.29-1-3.47-1.55a13.91,13.91,0,0,0-1.48-3.5,6.8,6.8,0,0,0-6.51-2.35,24.11,24.11,0,0,0-3.65,1.07c.32-7.37,2.32-14.82-1.09-22-1.93-4.63-3.68-9.35-5.85-13.87a22.07,22.07,0,0,0-4.46-6c-2.12-2.06-4.49-2.19-6.06-.56a5.82,5.82,0,0,0-1.45,3.36c-.39,5.31,1.85,9.65,5.17,13.67,3.88,4.69,6,5.29,13,2.88a20.6,20.6,0,0,0,0,14.47c.81,2.34,1.24,4.8,1.85,7.2,1.84,1.06,3.75,2,5.5,3.19a8.43,8.43,0,0,0,6,1.55c-.45,3.78-.56,7.69,1.06,11.1,8.1,17,17.57,33.28,26.65,49.77,1.87,3.4.73,7.26-1.19,10.65l1.1-.72c-7.27-5-12.66-12.06-19-18.07-4.46-4.21-8.73-3.57-13.41-1-.85-3,3-5.44,1-8.56-.07.67-.42,1.47-.18,2a5.07,5.07,0,0,1-1.07,6.26c15.93,18.82,20.12,25.74,26.25,44.63a99.45,99.45,0,0,0,5.39,13.89A172.2,172.2,0,0,1,845,1009.63l1-1c-2.51-.39-5.18-.37-7.48-1.28s-4.83-2.29-6.11-4.23c-3.52-5.3-6.45-11-9.57-16.54a8.09,8.09,0,0,0-6-4.28,12,12,0,0,0-2.53,7.12c0,3.82-.08,7.67.23,11.47a35.68,35.68,0,0,0,1.58,7.49c4.88,15.85,2.42,12.8-2.21,25.55-1,2.84-2.39,4.79-4.32,4.51-.84-.12-1.65-1.88-2.09-3-3.2-8.28-8.83-15.58-10-24.68a20,20,0,0,0-1.3-3.6c-2-5.89-5.86-7.86-14.38-7.56-.85,0-2.43-.76-2.48-1.27-.79-8.83.9-17.69-.64-26.57-1.3-7.55-1.93-15.22-2.76-22.85-1.1-10.17-1.93-20.36-3.21-30.51-.8-6.32-2.15-12.58-3.34-18.86-.51-2.73-1.94-4.9-4.28-5.83-2-.79-3.31,1-3.36,4.39-.43,29.41-1,58.83-1.18,88.25-.17,23-.34,46.08-2.94,69-1.44,12.77-.93,25.54-1.72,38.29-1,16.57,2.06,33.24-1,49.79.89,16.62.27,33.23-.15,49.85s-.42,33.25-.77,49.88c-.27,12.91,2.58,25.42,4.82,38a13.12,13.12,0,0,0,6.78,8.86c4.46,2.47,9.07,4.68,13.65,7,17.87,8.88,30.5,23,39.64,40.36a155.78,155.78,0,0,1,7.68,17.56c1.33,3.54,1.81,7.41,2.59,11.15a30.32,30.32,0,0,1,.38,3.82c1.58,18.63-3.1,35.45-14.5,50.35-1.55,2-2.81,4.27-4.35,6.31a42.36,42.36,0,0,1-14.41,12.4c-10.22,5.26-20.47,10.5-30.84,15.44a37.63,37.63,0,0,1-18.65,3.73,182.86,182.86,0,0,1-52.28-11.33,46.2,46.2,0,0,1-18.77-12.89,195.34,195.34,0,0,1-18.27-24.59c-5-7.83-7.84-16-7.72-25.27.06-3.83-.48-7.67-.41-11.5.24-13,2.44-25.4,9.84-36.45,1.43-2.12,2.55-4.44,3.93-6.59,9.13-14.22,20.58-26.11,35.51-34.28,6.32-3.45,8.42-9.2,9.54-15.62.87-5,1.68-10.1,2.22-15.18a370.48,370.48,0,0,0,2.36-42.12c-.12-16.63,0-33.26-.24-49.89-.18-14.07-.63-28.11.21-42.19.53-8.91,0-17.89-.15-26.85-.29-21.74-.72-43.48-.86-65.22a247.6,247.6,0,0,1,2.19-38.25c2.44-16.48,1.35-33.2,1.84-49.81.15-5.11-1.32-10.1-3.36-14.87-1.5-3.52-2.88-7.11-3.06-11-.18-3.75-1.1-7.59,1.27-11h6.95A12.69,12.69,0,0,0,719,909.9,121.3,121.3,0,0,0,720.93,887a56.19,56.19,0,0,1,3.13-18.82,123.08,123.08,0,0,0,4.41-14.68c1.56-7.7,6.34-13.92,9-21.09,2.17-5.93,2.21-12.59,6.14-17.93,1.61-2.2,4-3.39,6.67-2.28,2.26.94,4.09,2.91,6.15,4.38,6.61,4.72,6.62,4.71,12-1.61,4.75-5.6,11.34-7.3,16.9-4.28,4.49,2.44,8.89,5,13.38,7.44,16.08,8.67,28.9,20.83,39.36,35.77,19.07,27.23,38.44,54.25,57.59,81.44a107.54,107.54,0,0,1,7.85,13.14c7,13.71,15.42,26.49,24.17,39.12,13.11,18.92,26,38,38.91,57a97.64,97.64,0,0,1,5.94,9.86,14.85,14.85,0,0,1,1.06,11.07ZM775,1379.32c-3,2.24-5.7,5-9,6.61a71.21,71.21,0,0,1-25.16,7.24,9.87,9.87,0,0,1-3.72-.52c-11.64-3.76-18.88-11.73-22-23.46-1.5-5.59,3.39-13.27,9.13-14.33,2.52-.47,4.64.89,6.21,3.25a5.94,5.94,0,0,0,6.59,2.68c4.79-.91,10.1.51,14.3-3.06a10.44,10.44,0,0,0,3.51-6.4c.6-3.64.41-7.57,4.1-9.93l1.8.45-2.66.5c1-2.34,2.11-4.66,3-7,.95-2.6,2.06-5.26,4.07-5.67,2.5-.5,4.92,1,7,2.66a42.5,42.5,0,0,1,10.31,11.2,40.39,40.39,0,0,0,4.51,6,5.07,5.07,0,0,0,3.3,1.59c6.56,0,9.07,4.66,9.85,9.69,2.69,17.18-4.79,37.21-17.4,48.62-10.82,9.79-23.32,15.52-38.06,15.77-5.1.09-10.22,0-15.32-.34a23.59,23.59,0,0,1-7.47-1.5c-15.69-6.46-29.51-15.54-37.89-30.78-3.13-5.69-6.29-11-11.34-15.11a6.45,6.45,0,0,0-2,6.64c1.8,7.44,3.81,14.82,5.6,21.66,7.9,7.44,17.07,12.58,22.53,21.56,2.22,3.65,5.86,4.83,9.62,5.24a330.83,330.83,0,0,0,42.1,1.91c5.11-.09,10.21-.5,15.29-1a32.22,32.22,0,0,0,17.38-7.4c3.94-3.23,8-6.49,11.12-10.45,4.72-6,9.53-11.92,14.8-17.46-1.06-7.65-1.39-15,2.38-22.35,2.4-4.65,1.28-10.2-1.07-14.81-5.81-11.38-12-22.54-18.82-33.36a75.17,75.17,0,0,0-24.28-24.08c-7.57-4.7-15.58-8.71-23.09-13.48a9.87,9.87,0,0,1-3.78-6.36,154.27,154.27,0,0,1-1.37-19.09c-.37-30.67-.3-61.35-.9-92-.91-46-2.25-92-3.45-138a73.52,73.52,0,0,0-1-7.68c-2.31,4.39-1.4,9.06-1.46,13.54-.37,29.39-.18,58.8-.93,88.18-1.23,48.56-2.45,97.1-1.94,145.68,0,5.1-.28,10.21-.56,15.31-.3,5.31-2.1,9.72-7.21,12.39a162.67,162.67,0,0,0-16.64,9.43c-9.53,6.52-18.2,14.09-24.55,23.92a30.53,30.53,0,0,0-3.3,6.83,7.28,7.28,0,0,0,1.4,7.11c1.53,1.87,3.61,1.56,6.35-.11,7.69-4.69,14.24-10.79,20.76-16.88,5.7-5.32,12.4-8.94,19.22-12.39a16.86,16.86,0,0,1,14.72-.35,5.87,5.87,0,0,1,3,2.38,14.91,14.91,0,0,1-.44,14.47,5.6,5.6,0,0,1-6.37,2.58c-3.67-.82-7.2-2.23-10.59-3.32-10.22,3.92-17.41,10.95-23,19.83a21.55,21.55,0,0,0-2.56,18.32c3.09,10.25,9.07,18.2,19,22.85,1.16.54,2.24,1.26,3.43,1.7a76.91,76.91,0,0,0,33.82,4.59c7.87-.68,20.66-11.58,18.72-20.86-.26-1.25-.35-2.53-.53-3.8,2.34,1,4.51.74,6.12-1.12a4.25,4.25,0,0,0,.88-3c-.11-1-1-1.85-1.51-2.76-.78.55-1.94.93-2.28,1.68A63,63,0,0,0,775,1379.32ZM760.35,837.21c-.82.7-2.3,1.35-2.34,2.09-.19,3.26,1.5,4,4.23,1.92.7-.54,1.33-2.22,1-2.79S761.36,837.59,760.35,837.21Z"/><path d="M620.68,833c-4.9.78-9.89,1.21-14.69,2.43-7.23,1.82-14.2,5.22-21.5,6.1-12.74,1.53-23.71,6.94-34.65,12.87a6.25,6.25,0,0,1-3.53.37c-3.48-.44-3.86-2.16-2.46-5.42,2.08-4.85,1.13-9.46-1.8-14-3.45-5.35-3-6.53,2.44-7.62a114.81,114.81,0,0,0,17.84-5.44q.13,6.06.28,12.12Q560,837.19,560,834l1.63,1.12c-1.24-6.81-1.22-7,1-12,4.87-3.91,11.29-3.85,16.64-6.5l12.9-6.36c3-1.5,4-3.7,4-8.84l3,.62c0-.49,2.17.56.66-.79-.38-.34-1.85.55-2.82.87-8.82.09-17.65.1-26.47.28-10.47.22-19.77-3.1-28.16-9.17A3.07,3.07,0,0,1,542,791a122.92,122.92,0,0,1,25.25-7.34c16.11-2.91,32.44-4.62,48.31-8.91a58.62,58.62,0,0,1,11.21-1.62,300.19,300.19,0,0,1,52.87.66c2.42.27,4.76,1.45,7.1,2.32,4.14,1.53,7.64,8.68,6.08,12.49a42.63,42.63,0,0,1-3.24,6.82c-3.66,5.8-3.47,11.88-1.8,18.16-1.37,2.27-3.18,2.74-5.15,1.07a2.6,2.6,0,0,1,.16-2.43c2.33-1.29,3.91-.42,4.55,2.24,2.36,1.74,3.21,4,2,6.45-4.37,8.82-8.95,17.54-13.3,26.37A15.61,15.61,0,0,0,674.8,858l1.39-1.54c-2.69.27-5,1.19-6.39,3.16-2.17,3.06-4.61,6.1-6,9.53-6.48,16.27-15.5,31.29-23.11,47-.51,1.05-1.8,1.72-2.72,2.57l1,1c-1.26-4.77-2.56-9.53-3.79-14.3-.82-3.21-6.1-5.19-8.87-3.35-9.24,6.12-18.69,12-27.62,18.48-5.94,4.35-11,9.89-16.73,14.53a10.81,10.81,0,0,1-10.33,2.11c-2.26-.67-4.87-.2-7.32-.25l.26.44c2.69.06,5.37-.44,6.84-2.4,9.85-13.16,21.34-24.69,33.64-35.58,7.5-6.64,15.12-13.38,20.52-22.08,3-4.8,2.69-9.37-.79-13.78A11.91,11.91,0,0,1,636,857.35h3.43l-2-1.18q4.27-1.26,1,2c-3.42,4.7-8,6-13.51,4.66-1.17,2.07-1.86,4.74-3.59,6.1A139.72,139.72,0,0,1,606.44,879c-2,1.17-4.58,1.21-6.9,1.76l.66.77c-2.06-5.79-2.07-6.75.18-9.65,2.91-3.76,6.18-7.28,8.68-11.29,2-3.15,1.52-6.82-.62-10-1.32-1.94-3-3.68-4.44-5.51l.41,1.19c3.39-1.1,6.82-2.1,10.16-3.34,5.53-2,6.54-4.23,5.33-10.9a8.57,8.57,0,0,0,6.44,1.71c3.22-.3,4.38-1.68,2.92-4.19-.33-.56-2.07-.61-3.07-.41A8.74,8.74,0,0,0,620.68,833Z"/><path d="M938.2,901.23c-3.7,1.3-7.5,1.65-11.08-.06-5.75-2.76-11.42-5.71-17-8.78-4.59-2.52-9.48-3.41-14.6-4.07a25.17,25.17,0,0,1-13.62-6.49c-11.4-10.23-22.84-20.42-34.21-30.69-2.84-2.57-5.92-5.06-8.09-8.14-11.76-16.7-25.64-31.86-36-49.59-2.57-4.42-4.22-9.12-3.37-14.53.47-2.93,1.47-4.78,4.5-5.43,1.21-.26,2.38-1,3.58-1,12.81-.47,25.61-.18,38,3.49,16,4.77,32.73,5.3,49,8.39,1.19.22,2.52-.33,3.79-.45,3.77-.37,7.58-1.1,11.13,1-.58,2.3-1.87,4.71-1.54,6.87a14.15,14.15,0,0,0,3.51,6.58c4.26,4.88,10.09,7.81,15.53,11,7.61,4.48,15.76,8,22.58,13.78.84.7.88,2.35,1.29,3.56l1-.76-8.81,8.81.48-.94c-6.44.25-12.66-.48-18.15-4.22s-11.72-4.68-17.6-7c-2.42-.95-4.73-1.86-7.3-1.64-2.77.23-4.82,1.46-5.34,3.73a4.69,4.69,0,0,0,1,3.55,28.43,28.43,0,0,0,5.51,5.06c6.34,4.19,12.89,8,19.2,12.27a30.09,30.09,0,0,1,5.37,5.33c1.65,1.87,1.94,4.28,1.17,7l.73-.8c-5,1.1-9.88.17-14.73-1.12s-9.09-4.29-14.27-4a6.79,6.79,0,0,0-3.36,1.26c-1.86,1.29-1.95,3.48-.42,6.17,3.74,6.58,8.88,12.06,14.3,17.18,7.25,6.84,15,13.15,22.38,19.85,1.79,1.62,3.05,3.84,4.55,5.79Z"/><path d="M666.94,733.87c.6,2.79,2.12,4.76,4.65,5.49,4.89,1.41,9.86,2.54,14.7,4.1.9.29,2.11,2.74,1.82,3.1a28.15,28.15,0,0,1-15.73,9.56A73.25,73.25,0,0,1,661,757.61c-22.92,1.81-45.85,3.53-68.77,5.29a185.27,185.27,0,0,1-30.62.27c-28.08-2.5-56.16-.95-84.23-.15-14.05.4-28.08,1.17-42.13,1.38-7.64.12-15.52.48-22.9-1.09-15.19-3.21-30.47-2.75-45.76-3-7.69-.11-15.32-.69-22.64-3.3-2.93-1-4.26-2.86-3.92-5.29a6.06,6.06,0,0,1,4.72-5.26,38.27,38.27,0,0,1,7.51-1.26c5.1-.32,10.21-.43,15.32-.54,28.09-.61,56.18-1.36,84.27-1.71,17.91-.22,35.72-1.59,53.56-2.81a70.66,70.66,0,0,0,29.28-8.07c2.14-1.16,4.88-1.26,7.37-1.7a18.74,18.74,0,0,1,3.82-.12c5.11.19,10.26.05,15.3.72,15.29,2,30.64-.68,45.93.84A336.8,336.8,0,0,0,653,733.42c5-.19,10.13,1,15.2,1.58Z"/><path d="M640.48,975.06c4.33-4.91,5.49-11.32,7.86-17.12s3.7-12.13,6.21-17.91c2.14-4.93,2-9.76,1.67-14.83a21.27,21.27,0,0,1,.46-7.48c5.1-17,10.05-34,17.44-50.13,1.52-3.32,1.42-7.38,2.07-11.1L674.8,858c2.69-.32,5.16-1.2,6.66-3.19,7.68-10.22,15.19-20.57,22.83-30.83,2.28-3.06,4.47-6.26,7.76-8.4a8.8,8.8,0,0,1,7.19-1.39c.71.19,1.08,2.13,1.38,3.33a24.63,24.63,0,0,1,0,11.36,159.63,159.63,0,0,1-4.86,18.53c-4.25,12-9,23.89-12.21,36.3-8,19.07-12.56,38.87-12.75,59.62,0,2.52-.85,5-1.25,7.55a12.73,12.73,0,0,1-3.32,6.81c-4.32,4.69-8.4,9.42-11,15.5-2.48,5.84-6.14,11.16-7.53,17.53-.24,1.09-1.49,2.7-2.38,2.78-2.17.18-3.53-1.74-4-4.7-.61-3.71-.81-7.62-3.39-10.61a3.92,3.92,0,0,0-3.59-.87c-5.41,2.79-9.62.39-13.78-2.68Z"/><path d="M568.08,242.33c-1.16.53-2.61.77-3.43,1.63-4.41,4.6-7.77,9.71-8.87,16.27-.64,3.82-4.62,5.73-8.84,5.68a30,30,0,0,1-14.62-3.67c-4.42-2.49-8.7-5.26-13.18-7.62-.62-.33-2.52.71-3.11,1.59-4.5,6.7-11.08,10.15-18.5,12.54a10.32,10.32,0,0,1-10.17-3.12c-3.37-4.05-2.95-9.7-6.16-13.71-2.37-3-5.16-5.63-7.31-8.74-2.28-3.31-2-7.13-.79-10.86,1.7-5,4.71-8.94,9.89-10.73,3.6-1.25,7.46-1.89,10.88-3.5,5.86-2.77,10.75-6.66,11.45-13.87.12-1.22.06-2.74.74-3.58,4.81-5.9,9.13-12.24,15.24-17,2.52-2,7-1.38,10,1.72,5.91,6.15,5.89,10.42-.2,15.83-1,.84-2.12,1.43-3.08,2.25-5.19,4.46-5.14,7.49.06,12.15,3.79,3.4,7.79,6.56,11.5,10,3.12,2.91,6.79,3.39,10.57,2.53,4.94-1.12,9.75-2.85,14.65-4.17,5.51-1.49,8.74,1,10.38,7.84a22.75,22.75,0,0,1,.3,3.8l.78-1a27.4,27.4,0,0,0-8.9,8.86Zm-60.1.93c-.35,2.84-1.88,3.62-4.28,1.89-.47-.33-.34-2.2.15-3a3.44,3.44,0,0,1,2.69-1.31c.9.08,1.7,1.1,2.55,1.72-3-1.12-2.83-1.57.42-1.33Z"/><path d="M1042.82,197.68c5.56-5.26,11-10.65,16.7-15.73,6.2-5.5,10.76-6.77,12.74-3.93,2.42,3.49,1.72,7.14.23,10.78-.49,1.17-.81,2.41-1.27,3.6-2,5.09-1.11,10.07.87,14.86,1.46,3.53,2.64,7.59,5.2,10.16,8.18,8.2,8.16,18.29,7.79,28.59a112.15,112.15,0,0,1-1.18,11.39,8,8,0,0,1-1.47,3.49,77.75,77.75,0,0,1-18.85,18.63,21.76,21.76,0,0,1-10.87,3.26c-3.82.26-6.59-3.24-5.6-7.45,1.85-7.87,1.89-8-5-9.89-2.82-.77-4.88-1.9-5.39-4.65-.69-3.73-.88-7.57-1.77-11.25a16.17,16.17,0,0,0-3.12-6.84c-4.21-4.77-8.74-9.28-13.37-13.66-5.38-5.09-5.1-11.37-3.79-17.67a10.82,10.82,0,0,1,4-6.13c7.51-5.17,16.16-7.39,25.13-8.48a31.67,31.67,0,0,0,9.06,15.94c2.59,2.6,4.23,2.68,5.49-.53a7.62,7.62,0,0,0,.88-3.6c-.54-3.77-2-7.14-5.64-9A16.31,16.31,0,0,0,1042.82,197.68Z"/><path d="M764.29,244.85c-.69,9.62-.74,9.63-6.57,17a35.36,35.36,0,0,0-5.86,9.76,49.08,49.08,0,0,1-3.37,6.82,22.38,22.38,0,0,1-2.41,3l.87.66c-3.53-9.42-3.9-19.73-8.39-28.93-1.72-3.51-.58-7.37,1.08-10.89a28.33,28.33,0,0,0,2.57-14.69c-.31-3.84.87-7.44,2.39-10.93,2.3-5.26,1-9.61-3-13.66a28.56,28.56,0,0,1-6.06-9.46c-.88-2.21,1.09-9.16,3.45-10.16a86.86,86.86,0,0,1,10.62-3.74c4.34-1.2,8,1,9,4.51a62.44,62.44,0,0,1,1.88,18.73c-.36,11.32-1.19,22.63-1.82,34-.18,3.19.91,4.81,6,9Z"/><path d="M764.66,245.7A17.13,17.13,0,0,0,775.24,243c5.14-3.45,10.11-7.13,15.13-10.75,2.83-2,4.78-1.51,5.81,1.77.36,1.13.93,2.45.66,3.5-1.19,4.75-2.76,9.4-3.91,14.16-.21.87.68,2.32,1.48,3.06,1.69,1.58,4.22,1.59,6.16-.51,2.5-2.71,4.29-6.06,6.63-8.93a11.43,11.43,0,0,1,9.67-4.28c7.28.15,14.75,2.93,21.73-1.84,2.15-1.47,4.7-.76,6.76.61s4.15,2.64,6.23,3.95l1.39-1.6a7.37,7.37,0,0,0-6.81,2.15,8.64,8.64,0,0,0-2.33,6.89l.83-1.35c-2.2,1-4.67,1.75-6.54,3.21a90.87,90.87,0,0,0-8.15,7.68,11.26,11.26,0,0,1-6.52,3.25c-13.71,2.12-27.3.08-40.92-1.09a8.85,8.85,0,0,1-6.2-3.65c-3.94-4.83-8-9.56-12.05-14.33Zm52.71,10,1.21-1.75-1.8-.29Z"/><path d="M575.51,235.61c6.25-2.87,11.61-2.72,16.46,3.2,3.55,4.34,8.84,4.38,13.71,2.24,4.59-2,8.91-4.69,14.17-4.27a9.89,9.89,0,0,1,3.41,1c2.59,1.24,2.39,3-.2,5.49-1.8,1.72-3.22,3.83-5,5.57-3.58,3.5-7.74,6.5-10.82,10.38C603.67,263.73,599,264.6,594,265a32.47,32.47,0,0,1-7.46-.66c-3.8-.62-7-2.24-9-5.79-3.08-5.43-6.28-10.79-9.43-16.18l-.68,1.1c3.9-2,6.35-5.49,8.89-8.86Z"/><path d="M896.73,235.16a7.14,7.14,0,0,1-1.11,7c-3.13,3.77-6.39,7.42-9.41,10.91-.66,3.45,2.76,7.25-1.05,9.74-1.88,1.23-4.58,1.44-6.95,1.6a25.25,25.25,0,0,1-7.25-.57c-11.52-2.66-11.52-2.77-16.79-1.44-4.25,1.08-5.63,0-7.35-5.64q-1.07-3.48-2.15-7l-.83,1.35c5.52-.78,6.71-1.48,8.4-5.41a17.84,17.84,0,0,0,.74-3.63l-1.39,1.6a29,29,0,0,0,9.79-4.81c3-2.14,6.62-3,10.35-3.54a84.92,84.92,0,0,1,25.76.2Z"/><path d="M639.61,251.34c-.31-2.63-.1-5.12,1.31-7,3.78-5,7.92-9.6,15.22-8.29,4.91.89,9.81.36,14.75.1,6.25-.32,11.26,5.82,10.69,12.34a16.29,16.29,0,0,1-10.47,14.16c-4.5,1.85-9.86.89-14.26-1.81a16.93,16.93,0,0,1-5.21-5.11c-3.36-5.17-7.92-4.87-12.91-3.49Zm27.88-2.26a9.94,9.94,0,0,0,3-.21c.49-.19.65-1.25,1-1.92q-2.84-1.23-3,3Z"/><path d="M937,243c8.92-1.93,14.42-10.07,23-12.58.88-.26,2.42.59,3.15,1.39a3.54,3.54,0,0,1,.42,3c-1.67,5-5.82,8.08-9.35,11.66a28,28,0,0,0-7.5,12.89c-1,3.63-5.94,4.94-9.31,3a6,6,0,0,1-3.29-6.11c.29-2.44,1.31-4.78,2-7.17s1.31-4.83,2-7.24Z"/><path d="M512.51,707.17a1.56,1.56,0,0,1-.85.68c-21.7,5.68-21.7,5.74-44,5.51-2.36,0-4.77-1.05-7-1.94a5.07,5.07,0,0,1-2.69-2.48c-.6-1.53.77-3.43,3.38-5a11.88,11.88,0,0,1,3.6-.87,54.32,54.32,0,0,1,18.56-.4C493.33,704.16,503.14,705.73,512.51,707.17Z"/><path d="M1087.66,248.82c.37-3.52.46-6.06.94-8.53a6.84,6.84,0,0,1,4.29-5.46c2.56-.89,5-.11,7.06,1.74,1.87,1.68,3.83,3.27,5.58,5.07,2.91,3,3.62,7,1.65,10.37a79.46,79.46,0,0,1-6.07,9.51c-1.68,2.12-4.33,2.48-6.89,2.13a5.64,5.64,0,0,1-5.15-4.58C1088.29,255.39,1088,251.59,1087.66,248.82Z"/><path d="M636.11,514.09c2.57.69,5,1.78,6.18,3.91a163.74,163.74,0,0,1,8.38,17,33.62,33.62,0,0,1,2.13,18.62c-.87,5-1.94,9.93-2.92,14.89l.48-.65c-1.37-4.86-2.89-9.68-4.07-14.58s-2.42-9.88-4.93-14.31c-4.59-8.11-4.57-17-4.64-25.83Z"/><path d="M1186.82,693.74c5.44,7,13.39,10.73,20.3,15.82l1-.81c-3.66.9-7.33,2.56-11,2.52-6.3-.07-12.57-1.44-18.88-1.8-3.27-.18-5.16-1.14-4.88-4.26.09-1,1.46-2,2.28-3,3.33-3.91,9.37-4,12.17-8.71Z"/><path d="M977.31,783c-15.71,3.86-22.29,7.51-29.69,7.85a5.51,5.51,0,0,1-5.57-4c-.74-2.65,1-4.21,4.15-4.47a73,73,0,0,1,7.33-.62C958.43,781.85,963.33,782.24,977.31,783Z"/><path d="M1040.86,305.62c-2.22-.44-6-.64-9.4-2-5-2-7.53-6.24-7.72-11.71-.09-2.83.84-5,3-5.65a4.72,4.72,0,0,1,3.59.74c5,3.49,8.83,8.79,15.37,10.11,2.74.55,4.43,2.86,3.24,5.26C1047.83,304.56,1044.92,305.23,1040.86,305.62Z"/><path d="M564.34,937c.47,2.38,1,4.74,1.4,7.13a10.52,10.52,0,0,1-1.11,7c-2.89,5.35-6,10.46-11,14.26-2.89,2.19-5.4,4.86-8.08,7.32l.85.9a21.87,21.87,0,0,1,6.54-17.22,102.67,102.67,0,0,0,7.72-8.44c2.42-3,3.45-6.72,3.94-10.54Z"/><path d="M951.63,826.63c2.28.49,4.53,1.13,6.83,1.45,2.76.38,4.84,1.12,5,2.74.08.74-1.42,1.69-2.25,2.49s-1.77,1.52-2.58,2.34c-4.79,4.83-10.37,4.3-14.39-1.91l-.48.94,8.81-8.81Z"/><path d="M909.64,239.14c5,7.05,2.88,13.41-2.12,19.3-1.67,1.95-4,1.8-5.64-.17a4.47,4.47,0,0,1-.6-3.45,31,31,0,0,1,9.17-15Z"/><path d="M953.86,658.68c0-1.22-.54-2.71,0-3.61a26.59,26.59,0,0,1,13.33-11.5,6.83,6.83,0,0,1,6.79.74c2,1.47,1.62,3.34-1.09,5.29-1,.71-2.1,1.26-3,2a28.59,28.59,0,0,1-16.82,6.2Z"/><path d="M615.26,571.68c-1.19.12-2.59.7-3.51.26-4.58-2.17-6.55-6.45-8-11a3.24,3.24,0,0,1,1.18-2.68,4.49,4.49,0,0,1,3.11-.68,6.48,6.48,0,0,1,5,4.38,20.47,20.47,0,0,1,1.32,10.47Z"/><path d="M977.85,592.21c-5.67,1.62-10,5.55-14.7,8.74a11.72,11.72,0,0,1-12.91.73l1,.93c2.28-4.49,6.55-7,10.27-10,4.13-3.3,8.74-3.54,13.46-1.19,1.08.54,2.11,1.19,3.16,1.78Z"/><path d="M1012.79,244.73c3.59-1.16,6.17,1,7.57,6,.74,2.7.19,5.14-2.39,6.44-2,1-4.35.07-6.63-1.26-2.51-1.47-3.66-3.48-3.08-6.33A6.35,6.35,0,0,1,1012.79,244.73Z"/><path d="M1018,792.4c-2.21.13-4.42.31-6.64.31-.29,0-.58-.92-.87-1.42,2.23-.19,4.46-.44,6.7-.5C1017.41,790.78,1017.69,791.83,1018,792.4Z"/><path d="M889.68,479.92c2.36,5.19.87,9.74-2.47,13.87-1.76,2.18-4.14,3.4-6.35,2.68s-2.39-3.08-.62-5.82c2-3.14,3.38-6.81,6.57-9,1-.66,2.42-.6,3.66-.88Z"/><path d="M975.19,250.44c5,.56,8.67,4.09,13.08,5.94,2.6,1.1,4.25,2.42,4.42,4.92.18,2.7-3.21,4.31-8.22,3.95-6.07-.44-9.2-3.29-9.44-8.66a17.36,17.36,0,0,1,.14-3.53,31.33,31.33,0,0,1,1-3.49Z"/><path d="M607.61,537.75c-.83.91-1.5,2.18-2.54,2.67-2.84,1.36-5.07-.35-8.93-5.31-2.08-2.67-2.31-4.9.89-6.07,2.38-.87,5,.47,6.88,2.3a13.24,13.24,0,0,1,2.29,3A26.81,26.81,0,0,1,607.61,537.75Z"/><path d="M1026.08,663c4.74-.73,8.91-4,13.92-3.26.69.1,1.59,1.5,1.62,2.33,0,.52-1.32,1.48-2.14,1.6-4.85.73-9.61-.13-14.33-1.24Z"/><path d="M928.78,634.2c2.42.27,4.84.61,7.26.8,2.84.22,4.67,1.22,5.47,3.2-1.61,2-3.73,2.63-6.44,2.34s-4.65-1.36-5.42-3.9c-.33-1.08.15-2.4.26-3.62Z"/><path d="M920.26,672.12c-2.62,5.1-4.18,6.56-7.57,7.27a53.42,53.42,0,0,1-15,.64l1.09,1.05c0-3,0-6,0-9l-1.08,1c7.81.3,15.61-1.4,23.41,0Z"/><path d="M1112.78,707.74a9.59,9.59,0,0,1-7.16.1c.35-.69.63-1.89,1.09-2a8.74,8.74,0,0,1,3.73.25A9,9,0,0,1,1112.78,707.74Z"/><path d="M681.48,998.25c-.2,1.1-.59,2.56-1.4,3-1.91,1.18-3.17-.18-3.64-3.37-.4-2.74.39-4.84,2.88-5.9.26-.12,1.62,1.64,2,2.7A7.09,7.09,0,0,1,681.48,998.25Z"/><path d="M910.45,239.78c6.16-1.55,12.1-4.05,18.66-3.69,3.23.18,5.66,2.1,7.88,6.87l1-1.14c-9.73,1.93-19.24,1.56-28.39-2.68Z"/><path d="M438.86,707c-.88,2.92-2.88,4.42-5.83,3.7-.88-.22-2-2-1.92-3.11.13-3.37,2.22-4.71,5.35-3.48C437.48,704.46,438.07,706,438.86,707Z"/><path d="M492.69,629.88c1.36-2.44,3.27-3,5.8-1.86,2.37,1.07,3.92,2.59,3.21,4.13-1.1,2.38-3.37,3-5.84,2S492.47,631.78,492.69,629.88Z"/><polygon points="670.28 426.91 671.69 424.11 672.64 427.24 670.28 426.91"/><path d="M636.72,513.1c-.47-1.05-.93-2.11-1.4-3.16a1.78,1.78,0,0,1,.19.48c.21,1.22.4,2.44.6,3.67Z"/><path d="M918,530.23c-.06-2.21,0-4.43-.22-6.61-.63-6.23-.34-6.73,6.11-9l-.82-.94c-1.62,3.15-3.27,6.29-4.86,9.46a9.66,9.66,0,0,0-.58,6.91Z"/><path d="M1005.69,825.91a6.56,6.56,0,0,1-6.3-2.36c-.07-.09,1.39-2,1.88-1.87,2.37.53,3.46,2.47,3.41,5.28Z"/><path d="M857.34,539.11c.88-.68,2.17-1.17,2.57-2.06,1.15-2.62,2.28-4,3.84-3.59,4,1,1.73,3.1-5.44,5Z"/><path d="M1004.68,827c7.33,1,8.36,1.6,6.78,3.55a2.83,2.83,0,0,1-2.6.66c-1.94-.95-2.9-2.88-3.17-5.26Z"/><path d="M902.39,531.75c1.77,4.72,2.55,9.47,1.11,14.48a68.35,68.35,0,0,0-1.29,7.3l.29.34c-3.16-11.07-3.17-11.1.85-21.4Z"/><path d="M858.31,538.49c-1.95,1.51-2.4,3.44-1,5.55a2.76,2.76,0,0,0,2.4,0c.94-2.08,0-3.78-2.37-4.89Z"/><path d="M614.38,572.46c2.94,1.6,5.6,3.52,6.08,7.15.43,3.27.89,6.58-1,9.67a28.6,28.6,0,0,0-1.4,3l.37-.42c-.93-3.34-1.79-6.71-2.82-10a17.34,17.34,0,0,1-.4-10.18Z"/><path d="M846.5,574.17a6,6,0,0,0-4.39,3.84c.57-.13,1.31-.08,1.67-.42a17.36,17.36,0,0,0,1.83-2.39Z"/><path d="M925,615c7.47-.89,14.89-3.52,22.44-.51l-1.18-1.18c-2,1-3.94,2.15-6,3-5.58,2.32-10.9,1.91-15.77-1.91Z"/><polygon points="469.38 660.16 469.44 662.64 466.1 661.41 469.38 660.16"/><path d="M939.07,667.15c1.5-5.62,5.38-8.25,11-8.66a30.64,30.64,0,0,1,3.82.19l-.86-.86a8.58,8.58,0,0,1-4.85,4.82c-3.29,1.26-6.61,2.47-9.91,3.69Z"/><path d="M499.82,668.17c-.35.78-.66,2.19-1.07,2.22a10.83,10.83,0,0,1-3.26-.72c.32-.87.68-2.5,1-2.48A13.18,13.18,0,0,1,499.82,668.17Z"/><path d="M921.11,673.09a9.84,9.84,0,0,1,7.42-6.76,19.25,19.25,0,0,1,10.54.82l-.83-.82a15.24,15.24,0,0,1-11.37,5.89c-2.19.15-4.4-.06-6.61-.1Z"/><path d="M976.31,243.71c-.12-7.11.82-8.45,6.35-8.53,2.22,0,4.44-.16,6.66-.25l-.93-.4a7.23,7.23,0,0,1-3.38,5.58,17.06,17.06,0,0,1-9.63,2.78Z"/><path d="M1002.45,1112.62c-.64-3.13-1.25-6.28-1.94-9.4a20.43,20.43,0,0,1,.06-9.49l-1.1,1c3.25,3.32,4.46,7.08,2.95,11.68a42,42,0,0,0-1.08,6.37Z"/><path d="M985.12,1070.07c3.06,6.4,5.08,12.91,2.06,19.94l1.27-1c-4.8-6.21-4.36-13-2.17-20Z"/><polygon points="656.7 1014.95 657.57 1018.2 655.17 1017.87 656.7 1014.95"/><path d="M640.54,974.67c.84,2.2,1.79,4.37,2.49,6.62.33,1.08.67,3,.19,3.35-2.76,1.82-3.47.69-1.9-2.93a6.59,6.59,0,0,0-.84-6.65Z"/><path d="M536.69,979.37c1.36,2.33,1.33,4.72-.69,6.46-2.2,1.88-4,.93-3.76-2.08.25-2.58,2.45-3.73,5.21-3.56Z"/><path d="M625.06,950.57l-.51-3.76c1.07.27.05.67,0,1-.12,1.23-.36,2.45-.56,3.67Z"/><path d="M478.45,899c-.91-.57-1.91-1.68-2.7-1.55s-1.89,1.93-1.66,2.43c1.34,2.83,3.06,2.73,4.7-.08Z"/><path d="M580.76,887.46a31.91,31.91,0,0,0,9.34-5.33c3.11-2.33,6.63-2,10.1-.57l-.66-.77a9.63,9.63,0,0,1-7.78,5.32c-3.32.3-6.67.24-10,.34Z"/><path d="M488.75,877a8.29,8.29,0,0,0,6.71-.72c3.05-1.69,6.15-3.32,9.23-5l-1.05-.8c-2.17,4.49-3.79,6.33-6.51,5.25-3.29-1.32-6-1.4-8.87.32Z"/><path d="M504.69,871.3c3.94-2.86,8.06-4.36,13.06-2.7,2.14.71,4.62.41,6.94.56l.27-.64c-2.38.15-4.89-.13-7.11.54a33.13,33.13,0,0,1-14.21,1.44Z"/><path d="M597.94,857.74l-2.25,2,3.2-1Z"/><path d="M712.46,219.08c.78-.44,1.66-1.33,2.3-1.18s-.65.81-3.32.39Z"/><polygon points="897.49 235.54 898.83 234.3 896.73 235.16 897.49 235.54"/><polygon points="989.32 234.93 990.62 234.34 988.39 234.53 989.32 234.93"/><path d="M976.16,249.57c-2.41.77-4.25.23-5.28-1.74-1.3-2.48,1-4.21,5.43-4.12l-.93-.82a73.13,73.13,0,0,1-.19,7.55Z"/><path d="M638.73,252.24,637.06,251c-.08,2.1.78,2.23,2.55.39Z"/><polygon points="728.03 272.67 729.78 271.92 727.26 273.3 728.03 272.67"/><path d="M734.38,287.56,747,282l-.87-.66c-3.7,3.2-8.32,4.39-12.81,5.86Z"/><path d="M890.47,480.74c-.52-3.05.66-5.1,3.63-5.53.48-.07,2,2.22,1.78,2.92-1.13,3-3.42,3.51-6.2,1.79Z"/><path d="M923.87,514.58q-1.77-3.21-.69-5.28c.19.44.59.91.54,1.32a24.33,24.33,0,0,1-.67,3Z"/><path d="M903.35,532.47c4.55-2.86,9.34-4.2,14.63-2.24l-.37-.22a43.64,43.64,0,0,0-6.06,1.79c-3.13,1.4-6.12.77-9.16,0Z"/><path d="M936.2,531.66c0,.77,0,1.55,0,2.33q3.33-2.44-1.31-1.47Z"/><path d="M510.76,551.41l1.87-2c-2.35-2-3.22-1.53-2.6,1.37Z"/><path d="M510,550.78a6.38,6.38,0,0,0,5.53,3.17,8.33,8.33,0,0,1,6.16,2.32l.33-.81c-1.77-1.33-3.52-2.67-5.31-4s-3.69-1.24-6-.08Z"/><path d="M889.32,556.65c5.58-5.88,5.6-5.91,13.18-2.78l-.29-.34c-2.31.81-4.65,1.54-6.92,2.44a8.16,8.16,0,0,1-7-.31Z"/><path d="M530,568.48a14.91,14.91,0,0,0-4.08-8.11,41,41,0,0,1-3.82-4.91l-.33.81a25.44,25.44,0,0,0-.56,3.33c-.23,5.93.4,6.62,7.57,8Z"/><path d="M528.73,567.62h2.84q-2.64-4.11-1.62.86Z"/><path d="M845.61,575.2c1.58-2.25,1.26-3-1-2.22l1.85,1.19Z"/><polygon points="984.07 580.35 984.96 578.59 983.1 579.4 984.07 580.35"/><path d="M983.1,579.4c-2.62,3.91-5.11,7.87-5.25,12.81l.26,1c0-5.19,1.22-9.87,6-12.89Z"/><path d="M950.24,601.68c1.29,2.25,1.49,4.44.22,6.31s-2.82,3.57-4.25,5.34l1.18,1.18c-2.44-6.43-2.09-7.52,3.83-11.9Z"/><path d="M915.26,641.4a5.23,5.23,0,0,1-1-.65Z"/><polygon points="1187.83 693.54 1189.43 695 1186.82 693.74 1187.83 693.54"/><path d="M1207.12,709.56a14.94,14.94,0,0,1,1.09,3.06c.06.42-.79,1-1.22,1.44-1.2-1.65-.82-3.41,1.13-5.31Z"/><path d="M714.35,719.07l-8.45-.14-.2.45,8.85,0Z"/><path d="M1028.68,1138.87a27.51,27.51,0,0,0-1.3,2.62c2.95,1.86,3.6,1.31,1.86-1.49Z"/><path d="M1029.24,1140l-1.83-1.73q-.73,4.92,1.27.6Z"/><polygon points="1013.89 1119.51 1015.49 1120.25 1014.8 1118.59 1013.89 1119.51"/><path d="M1014.8,1118.59c-3.68-2.88-7.43-5.64-12.35-6l-1.11.12c4.54,1.59,9.34,2.71,12.56,6.77Z"/><path d="M1000.57,1093.73c-4.91.63-8.58-1.91-12.12-4.75l-1.27,1c5.32-1.65,9.24.36,12.29,4.68Z"/><path d="M973.54,1065.56a7.11,7.11,0,0,1,6.16.85c1.81,1.21,3.61,2.44,5.42,3.66l1.16-1a8.06,8.06,0,0,1-7.07.88,7.27,7.27,0,0,1-4.74-5.27Z"/><path d="M845,1009.63c3,3,3.11,4,.75,2.61-.47-.28.14-2.35.25-3.59Z"/><path d="M537.45,980.19c1-7,2.67-8.33,8.95-6.56l-.85-.9a14.14,14.14,0,0,1-.75,3.31c-1.68,3.39-3.16,3.93-8.11,3.33Z"/><path d="M844.66,950.7l1.19,1.79,1.64-1.6-1.81-1.2Z"/><path d="M624,951.44l-1.52-1.8c-.76,2,.09,2.29,2.57.93Z"/><path d="M833.72,943.48c5.41-.26,8.58,2.86,10.94,7.22l1-1-10.86-6.93Z"/><path d="M950.09,921.44a19.08,19.08,0,0,0,1.79,1.56c2-1.86,1.64-2.74-1-2.52Z"/><path d="M638,918.74q-2,4.29-4.2,2.56c.59-.59,1.11-1.53,1.79-1.68a12.38,12.38,0,0,1,3.42.15Z"/><path d="M944.18,911.59a11.24,11.24,0,0,1,3.37.78,6.25,6.25,0,0,1,2.87,5.62,28.75,28.75,0,0,1-.33,3.45l.78-1c-1.42-1.42-2.87-2.82-4.24-4.29a6.3,6.3,0,0,1-1.5-5.53Z"/><path d="M945.13,910.66c-6.61-1.63-7.35-2.64-6.93-9.43l-.85.9c4,1.87,6.79,4.69,6.83,9.46Z"/><path d="M581.76,886.45l-.87,2.58,2.29-.84-2.42-.73Z"/><path d="M478.79,899.77c0-2.3-.16-4.6-.1-6.9a6.49,6.49,0,0,1,3.54-5.49l-1.11-.86a10.78,10.78,0,0,1,.16,3.23c-.82,3.11-1.87,6.15-2.83,9.22Z"/><path d="M482.23,887.38c2.59-3.2,5.87-6,6.52-10.38l-.49-.93a27.45,27.45,0,0,1,.24,3.83,6.7,6.7,0,0,1-3.62,5.91,14.32,14.32,0,0,1-3.76.71Z"/><path d="M952.05,869.64c-2.46,1.65-2.5,3.29.07,4.47.53.24,1.62-.77,2.45-1.21L953,870.65Z"/><path d="M953,870.65l-2.68-.79q1.23,4.89,1.69-.22Z"/><path d="M928.17,857.84c3.2-1,4.78-.18,4.56,2.46,0,.1-2.08.43-2.44,0A11.2,11.2,0,0,1,928.9,857Z"/><path d="M524.69,869.16c.19-.17-.42-.67.27-.64Z"/><path d="M598.89,858.75c2-4.09,4.73-7.82,5.52-12.43l-.41-1.19c-.37,5-1.65,9.56-6.06,12.61Z"/></svg>