<svg xmlns="http://www.w3.org/2000/svg" data-name="Calque 1" viewBox="0 0 1500 1500"><g data-name="Text cours vector"><path d="M320 290a29 29 0 0 0 5 2c3-3 7-3 9-6l2-4 1-1 3-6c2-1 5-1 7-3 1-1 1-4 3-5 4 5 9 6 14 7l1 1c2-2 0-3-1-5-1-3-1-9 2-12a27 27 0 0 1 10-6h2c4-2 5-6 3-9 2-1 2-3 3-5l3-4c0-2 1-4 3-4v4c0 6-2 13 5 20 0 2 0 3 2 5a17 17 0 0 0 1 3c4 3 4 9 8 13l3 2 5 6 3 1 5 6c2-3-2-7 2-8 2 1 2 3 2 4 4 5 1 10 2 15l2 12c-2 2-3 1-5 1-2-4-5-4-8-6-3 0-6-2-8-6-2 2-1 5-3 7l-1 8-2 4v7l-2 2c-1 2 0 4-2 5h-3v-7c-2-1-3 2-5 3-3 1-6 0-8 2-1 2 0 4-4 6l3 4-2 3a9 9 0 0 0 7 0l6 3c3-3 8-6 8-10 5 0 8-5 9-10 1-3 1-6 4-8 2 2 0 5-1 7a99 99 0 0 1-10 22l-1 3-9 3-7-2c-2-1-5 0-8-2l-6 2 1-6-1-6-2-4 1-7 4-5 2-7 1-2c2-1 1-3 4-4a4 4 0 0 1 3-1c3-3 8-5 12-4a15 15 0 0 1 4-4c-1-3-4-3-6-5-2-1-2-3-3-5l-5-6c-3-4-2-9-7-10l-6-10c4-1 6 5 7 7l4 3c2 2 2 6 4 9l4 3 3 7c3 2 6 2 7 6l3-3c-2-3-4-3-6-3 0-3-3-5-5-8l-4-8-7-8-3-4h-3c-2-1-4-3-6-2s-2 4-2 7c2 2 4 3 5 6l1 4 4 2c2 3 3 8 7 11-4 3-6 7-6 10l-6 6c-2 2-3 6-5 7-3 3-7 0-11-2a6 6 0 0 0-2-4l-1-8c-2-1-2-2-1-4 4 0 3 6 5 8s4 0 7 0a9 9 0 0 0 2-6 15 15 0 0 0 2-3c-3-4-5-10-8-12-2-1-4 1-6-1l-4 2-2 3c-1 2-2 2-4 2v4h-3l-4 3c-3 1-9 0-12-2l-3-5-4-1a21 21 0 0 1-5-5l1-1c1-1 2 1 3 2Zm43-4-2 1c1 1 2 0 2-1Zm5-17v1-1Zm5 71 2-1a2 2 0 0 0-2 1Zm2 3c0 1 0 3 2 2-1-1-2-2-1-3l1-2h-1c-1 1-3 2-2 3h1Zm1-14c-1-1-3 0-2 1l2-1Zm0 3-1-1a2 2 0 0 0-1 1h2Zm1 17-2-1 4 2-1 1a3 3 0 0 1 1 0l1-2v1l2-1-1-1a3 3 0 0 1-3 1l1-2c-2-2-3 0-4 0 1 1 2-1 3 1a2 2 0 0 0-1 1Zm0-11-2 1c1 1 3 0 2-1Zm0-9-2 1 3 1-1-2Zm-1 5c1 1 1-1 2-1l-1 2c2 1 0 2 1 3a3 3 0 0 0 2-5l1-2c-1 0-1 3-2 2 1-1 0-2 2-2 0-1-1-2-2-1 1 3-3 2-3 4Zm1-6c1 1 3 1 3-1l-3 1Zm3-8-1-1a2 2 0 0 0-1 1h2Zm3 30-2 1a1 1 0 0 0 1 1l1-2Zm0-25h-2c1 0 0 3 1 2l1-2Zm-1-11v2a1 1 0 0 0 0-2Zm3-47-2 1c1-1 0 1 1 1l1-1c-2-1 1-1 2-1l1-1 2-2c-1 1 0-1-1-1l-1 2-2-1c1 2-1 2-1 2v1Zm0-24h2v-1 1a2 2 0 0 0 1-3l-3 1h-1l2 2h-1Zm2 106-1-2-2 3a4 4 0 0 1 3-1Zm-1-32-1 1v1c1 0 2-1 1-2Zm-1 5a1 1 0 0 0 2-2l-2 2Zm2-84-1 2c1-1 2-1 1-2Zm1 112-1 1h-1 1c1 0 2 0 1-1Zm-1-38c1 0 0 2 1 1l1-1 1 1a2 2 0 0 0-3-1Zm2-66-1-2v1s0 2 1 1Zm0 73h-1v1Zm1 10-2 1c1-1 2 1 2-1Zm0-13h-1 1Zm0 34h1-1Zm1-76c1 0 3-1 3 1 0-2-3-2-3-1Zm2-6a10 10 0 0 0-2 3l2-3Zm-1-2c2 0 0 1 1 2a10 10 0 0 1 4 2 3 3 0 0 0 0-2 2 2 0 0 1-2 0v-1l-1-1c0-1 2 0 1-1s-1 2-1 1l1-1c-1-1-2 1-3 1Zm4 55a3 3 0 0 0-1 1 2 2 0 0 0 2 1l-1-2Zm0-54c1 0 3 0 2-1-1 1-1-1-2 1Zm2 4c-1-1-2 1-2 1Zm0 49c-1-1-2 0-2 1l2-1Zm1 31-1-1-1 1h2Zm-1-31c1 0 0 2 2 2-1-1-1-3-2-2Zm1 6c0 1 1-1 1 1l1-2h-2a1 1 0 0 1 0 1Zm1-18v-1l-1 1h1Zm3 37c-1 0-3 0-2 1 1 0 3 0 2-1Zm0-38v2-2Zm10-2h3l-2-2-1 2Z"/><path d="m427 240 5-2h5c3-1 3-4 7-5v6c5 4 4 11 10 17l5 4-2 12c-3 3-2 7-4 10h-2c-1 1 0 3-2 4 0 4 2 8-1 11l-6-6-7-3-7-2c-2-2-1-5-2-7l-6-8c-1-1-2 1-3 1l-4-4c5-6 4-13 6-20l1-2c2-2 1-5 1-8l2-1a31 31 0 0 0 4 3Zm9 30c6-1 7 12 13 8 2-1 2-6 2-7-1-2-4-2-5-5-4 1-8-6-9-10l-5-4-7 2a111 111 0 0 0 7 13 7 7 0 0 1 4 3Zm-8 14c0 2 5 3 5 0-2 1-3-2-5 0Zm7-2 1-1c-1-1-2 0-2 1h1Zm2-28h-1l2 1a1 1 0 0 0-1-1Zm4 29c0-1-3 0-2 1l2-1Zm0 3-1-1-1 1h2Zm5-2c-2 3-4 2-5 4 1 2 1 0 2 0a3 3 0 0 1 0 1 2 2 0 0 1-1 0c1 3 3 4 6 4l-1-2 1-1c-1 0-3 0-3-2h3l-2-2s-1 3-2 2l1-3 2 1-1-2Zm-3 1v-2c-1 0-2 0-2 2h2Zm0-3c1 1 2 2 3 0h-3Zm2-1s2 0 1-1l-1 1Zm4-1h-2v2h1l1-2Zm4-5a2 2 0 0 1-1 0c0 1-1 2 1 2a2 2 0 0 0 0-2Zm0-3v1-1ZM469 217l4-2c2-1 1-5 4-6 2 4 0 6 1 9a55 55 0 0 0-3 13c0 1 2 3 1 4-2 1-3-2-5-3l-3-1c3 6 6 12 10 12 3 4 4 9 7 9 5-1 5-4 7-7-1-2-1-4 1-4 3 4 1 7 2 11-1 7-7 12-8 18 0 2 1 3-1 4s-3-3-5-4l-4 1-1-4-4 1c-2-1-4-5-4-7a26 26 0 0 1-3-5c-1-2-2-1-3-2v-4a56 56 0 0 1-3-7c-3 1-5 2-7 1-2-3 3-5 4-8 3-3 4-6 5-11s3-8 2-11l2-6 1-1c3 4 1 6 3 10Zm-8 23v2l1-1v-1h5c0-2 1-3 2-2v-2l-2 2c-1-1-1-2-2-1l-1 2-1-1v1c-2 1-4 0-4 2l2-1Zm3 6c-1 0-3 0-2 1l2-1Zm3 4h-2 2Zm5 1 1-1 1-1c-2 2-4-2-5 0h2l1 1a2 2 0 0 0 0 1Zm-2-6s0 2 1 1c-1-1 1-2 1-2l-2 1Zm1 3h1-1Zm1-6 2 2-2-2Zm2 9-1 1 1 1a6 6 0 0 1 0-2Zm1-5-1 1c1 0 2 0 1-1Zm1 0 1-1-3-2v1c1 1 2 0 2 2Zm0 3 1-2h-2Zm1-1-1 2c1 0 2-1 1-2Zm7 20 1 2s1-2-1-2Z"/><path d="M505 200c1 1 3 3 3 5a10 10 0 0 0-5 4c0 3 1 3 2 4l1 4c1 3 5 3 6 5 1 1-1 2-1 4a49 49 0 0 0 4 9c2 2 4 0 6 0l2-4c1-2 0-4 2-5 3 5-2 7 2 11-2 4-5 8-5 13l-1 3a7 7 0 0 1-1 5c-1 1-1-1-2-1a21 21 0 0 1-12 2 6 6 0 0 1-6 0v-10a25 25 0 0 1-2-7l-1-6c-1-3-7-5-4-8a51 51 0 0 1-5-12c-2 1-4 4-6 4l-2-6a18 18 0 0 0 4-4c1-3 1-6-2-8 0-2 0-5 3-6 2-4 2-9 2-13 4-4 4 1 5 4 1 4 3 11 6 15 2 1 5 0 7-2Zm-18 2-2-2v3l2-1Zm4 8c0-2-2-1-2 0h2Zm-1-22a1 1 0 0 0-1 1l1-1Zm2 16c3 0 2-2 1-3a8 8 0 0 1-3 1 17 17 0 0 0 2 2Zm12 44h2v-1l-2-2 2-1c-2-1-2 0-3 1 2 1 1 2 1 3Zm4-5 2-1-2 1Zm6-1c-2 1-1 2-1 2a3 3 0 0 1 2-1v-1c2 0 5-2 4 0l2-1a2 2 0 0 1 0 1c2-1 1-4 3-3l1-2c-2 0-2 1-3 2l-2-1-2 2-2-1v2l-5 1h3Zm2 5c-1 0-2-1-2 1a1 1 0 0 0 2-1Zm0 4 2-1-1-1h-2v1l1 1Zm2-9h-1v1a1 1 0 0 0 1-1Zm1 11c-1 0-2 2 0 2v-2Z"/><path d="M536 182c2 2 4 4 7 4a9 9 0 0 0 5 4c0 3 3 4 4 6s-3 6-4 9l-1 6a14 14 0 0 1-2 3l-4 5c1 2 3 1 4 2l1 4c2 3 6 1 8-2 2-2 2-4 4-4 2 3-1 6-2 8a22 22 0 0 1-2 4l-3 3c-1 2-1 4-3 5l-1 5c-2 0-4-5-7-3l-2-3-9-6-3-8c-1-2 1-5-2-7h-7c-2-4 2-5 2-8 4-3 5-8 7-12l-2-2c4-3 7-6 6-10 4-1 1-7 6-8v5Zm-8 17h1-1Zm5 1v3l7 14 2-3c-3-4 0-7-1-10-4-3-4-9-9-9a5 5 0 0 1-1 3c1 1 2 0 2 2Zm4-7a3 3 0 0 1 1-3c-1-1-1 1-3 2h1l1 1Zm0-4h-1 1Zm0 7h1-1Zm2-8-1 2s2-1 1-2Zm2 3 1-1v2c1 0 3 0 2 1v1l2-1c-2-1 1-1 0-2l-3-1h1c-1-2-5-4-4-1l1 2Zm2 4a2 2 0 0 1 0-2c-1 1-2 0-2 2h2Zm3 1a13 13 0 0 0-2-2l-1 2c0 2 2 0 3 0Zm-1 1-2 1a5 5 0 0 0 1 2l1-3Zm4-2-2 1v1l2-2Zm-1 4h1-1ZM628 138c4 2 10 0 12-4 0-2-1-5 2-5l2 9c0 2-5 5-4 8-6 4-9 9-13 14l2 10c2 0 6-4 8-2 1-1 3-3 5-3 1-2 3-6 6-3l-1 3c1 2 3 4 5 4v3l2 1v3l1 2c0 6 3 11 1 16-1 3-5 5-4 9l-8 7-1 1c-2 1-3 3-7 4v-2c-6 0-13 3-15 7l-5 1c-1-3 1-3 1-5-1-3-4-3-6-4l-3-5-8-3-3 4 2 1c1 3-3 5-3 7 0 6 5 10 9 11 4 2 9 0 13 0 2 0 4 2 7 1a17 17 0 0 0 7-5c1-1 2-5 5-3 0 3-4 6-7 8-4 3-6 5-13 6-7 2-14-2-20-3-1-1-2-3-4-2 0-3-3-4-3-6-2-5 1-9 0-14 1 0 2-2 1-3 3-1 3-5 6-6l1-2c2-1 4-4 7-4h6a34 34 0 0 0 9-3c1-1 2-3 4-2 2 3-2 5-1 9 1 2 4 2 6 3 2 3 3 7 6 7 0-11-5-23-8-34-2 2-5 6-10 6v6c-3-1-5-4-7-6-5-1-7-4-11-6l-2-4c-1-2-5 0-7-2 0-4 5-7 7-10l1-2c2-1 3-2 3-4l4-3c4-1 7-3 8-5l2-1c3-4 9-7 10-13 1-1 2-2 3-1 2 3-1 5 0 9Zm-35 78-2 1a19 19 0 0 1 3 4l-1-3c1-1 2-1 2-3-1 1-4-1-4 1h2Zm0 7h3v-1l-2-1c1 1-1 1-1 1v1Zm3 1h-1c0 1-2 2-1 3a2 2 0 0 0 2-3Zm1-1c-1 1 0 2 1 2l-1-2Zm2 6 2-1-1-2h-3v2l2 1Zm9 2c-1 0-1-3-2-2v3a1 1 0 0 0 2-1Zm0-54c0 2 2 1 2 2 1-1 2-2 3-1v-1l-2 1-1-2-2 2v-1Zm0 55 2-1v-1c-1 1-1-1-2-1l1 2-1 1Zm9-82a31 31 0 0 0-6 0c-3 4 1 7 2 11l-1 4c3 2 7 3 11 3 1 1 1 2 2 1a51 51 0 0 0-5-17c-2 0-2-2-3-2Zm-5 80a12 12 0 0 1 0 2v-2Zm4-47v-3l-2 2a2 2 0 0 0 2 1Zm4 46-1 1c-1 0-3-2-4 0a14 14 0 0 0 5 0l2 1 3-2h-2a19 19 0 0 1-3 0Zm1-10v-2l-3 1 3 1Zm1-15-1-1-1 1h2Zm3-31h-1v1l1-1Zm3 37-1-2-1 1 2 1Zm-2-5 3 2a4 4 0 0 0-3-2Zm3-31c0 4 2 7 4 11 2 8 2 17 5 23l2-4c1-4-1-8-1-12l1-6-2-4h-3v-9h-6v1Zm6 36h-1a2 2 0 0 1-1 1l2-1Zm1-34 6-1-6 1Zm4 34h-2 2Zm7-34-2 1v2a3 3 0 0 1 3-1c-1-4 3-1 5-2l-1-1c-2 0 0-2-2-2v2h-8l5 1Zm-1 8 2-1c-1 0-2 1-2-1l-1 1 1 1Zm0 4h3a2 2 0 0 0 0-2c-2 1-3 0-4-1v2a1 1 0 0 1 1 1Zm3 7h-2a1 1 0 0 0 0 1l2-1Zm0-18v2-2Zm3 17a2 2 0 0 0-3-1c0 3 3 1 5 2a2 2 0 0 0-2-1Zm-2 1c-1 0-2 2 0 2v-2Zm1-18-1 2c1 0 3-2 1-2Z"/><path d="M701 146v14l-2 6a38 38 0 0 0 3 14l2 3c0 2-3 7-2 10 1 2 5 2 8 2-1 6-7 8-9 13l-2 4-3 2-3 5a16 16 0 0 1-2 2l-3 3-6 4v3l-4-1c-2 0-3 2-5 3a10 10 0 0 1-4-2c1-4-2-9-4-11-2 1-3 5-6 2 0-3 2-4 4-5 0-3 2-5 3-7h5a19 19 0 0 0 6 7c1 3 4 5 3 9 5-1 5-6 9-8-1-2 0-3 1-4l1-15c-1-1-2-3-1-5l-6 4c-2 1-5 2-6 4s0 6-4 6l-1-2h-2c-2-3-2-7-5-8a18 18 0 0 1 0-5l1-5c0-2 1-2 2-3 2-5 0-8-4-12v-9c-3 2-6 5-10 2 6-4 12-9 14-16l1-1a6 6 0 0 1 0-2h3c1 5 3 9 7 10l-1 8c-3 3 0 8 4 9 1 6-2 10 0 16l3 1 2 1c2 0 3-7 2-10l-2-4v-5l-2-10v-4c0-2-3-2-3-4l1-3c2 1 3-1 5-2h3c3-1 3-4 6-6 0-2 0-4 3-4v6Zm-37 16 4 2v1c1 1 0-1 1-1a2 2 0 0 1 0 1l2-1-3-1s-3-3-4-1Zm3-1c1 0 1 2 2 1 0-1-1-2-2-1Zm4-4c0-2-3 0-3 1l3-1Zm-2 12v-2l1-1-2 1c0 1 1 5 1 2Zm3-14a2 2 0 0 0-2 0c1 2 2 1 2 0Zm0 9-1-1 1 2a1 1 0 0 1 0-1Zm3-6-1 1c2 0 1 2 2 2h1l-2-4h1l-3-4c1 2-1 2-1 3l3 2Zm-2 4a1 1 0 0 0 1-1h-1v1Zm2 2c0 2-1 0-1 1l-1 2c1 0 3-2 2-3Zm2 18a2 2 0 0 0-2 1l1 1h1a1 1 0 0 1 1-2c1 1 3 2 3 0l-1-2v2c-3 0-5-2-7-1l4 1Zm-3-18a6 6 0 0 1 2 0l-1-2a1 1 0 0 1-1 1 2 2 0 0 0 0 1Zm4 27v-1c-2 0-2 1-3-1v2h3Zm-1-4h-2v2l2-2Zm0 9 3 1c-1 0-2-2-3-1Zm4-13h-2l1 2 1-2Zm6-27h-2 2Zm4 11-1-1-2 1c0 1 1 2 3 0Zm4 19-3 1c0 2-2 5-1 6v-1 2c2 1 1 2 2 3a19 19 0 0 0 2-3c-2 0-4-1-3-2h1v-1c2 0 3 3 5 2 0-1-3-1-2-2h-2a4 4 0 0 1-2-2h2v-1h-2 3v-2Zm-4-34 1 2s1-2-1-2Zm2 34v-1a2 2 0 0 1-1-1l1 2Zm-1 11 1 2-1-2Zm0-40a1 1 0 0 0 2 0l-1-1v1a1 1 0 0 0-1 0Zm1 1c1 1-1 1-1 2 1 1 3-2 1-2Zm0 26a1 1 0 0 0 2 1l-2-1Zm3 19-2-1 2 1Zm0-3v-1l-2 1h2Zm2-16h-1v2c0-2 2-1 1-2Zm0-6h-1l2 2a3 3 0 0 1-1-2Zm0-2 2 2-2-2Zm2 23c-1 0-2-1-2 1a1 1 0 0 0 2-1Zm1-10c-2 0-2 2 0 2a3 3 0 0 0 0-2Zm1 11-1-1v1a1 1 0 0 0 1 0ZM756 144c1 2 0 6 2 7v6l-2 5v2l-2 7v15c1 0 3-2 4-1 1 0 1-3 4-3 0 5-3 6-4 9-3 2-4 5-6 8l-2 2c-2 3-2 6-6 7 0-8-1-14-3-20l-2-6a36 36 0 0 1 1-10l2-6c0-4-3-8-3-13a9 9 0 0 0-7 6v3l-1 3a57 57 0 0 0 0 8l1 2c0 4-4 9 0 12 1-1 3-2 4 0 0 4-4 7-6 10a25 25 0 0 1 0 3l-4 4-2 4c-2 0-2-2-3-2-1-3-3-4-3-8l-4-2v-5l3-6c1-3-1-4-2-6l2-11-2-5 1-2c-2-3-8 3-10-1 2-4 6-6 9-9v-2c3-1 7-7 8-2 2 3 6 4 7 8l5-5 5-2h3l4-4a17 17 0 0 0 4-6c2-1 5-4 7-1l-2 7Zm-35 5c-1 1 0 1 1 1l-1-1Zm21 6h4a16 16 0 0 0-5 0h1Zm2 24a1 1 0 0 0 0-1l-1 1h1Zm9-19v-1l-2-1h5l1-2c-2 1-3 0-2-1h-1v2c-3-1-5-3-8-1l4 1-2 1v1h2c1 0 0 0 0 0a7 7 0 0 1 1 0v1h2Zm-4 14h-2l2 2v-2Zm1-8h-2c-2 2 1 2 3 2a2 2 0 0 0-1-2Zm0-3c-1 1-1-1-2-1v2l2-1Zm1 10h-2l1 2h3l-2-2Zm4-14a2 2 0 0 0-1 0l-1 1c1 1 2 0 2-1ZM784 133l5 4a5 5 0 0 1 0 3c3 3 6 6 12 6 3 5 6-1 9 0 1 3-2 5-3 9v27h4c0 3-3 4-5 6-5 4-11 9-19 11l-3 2c-1 3-2 5-5 5a8 8 0 0 1 0-3c0-2-2-1-2-2 1-5-3-6-4-10l-7-2c0-4 2-6 4-8l-2-6c-1-3 4-6 3-10 0-2-4-1-6-4 0-2 3-2 4-3 5-2 10-4 13-8 0-2-2-3-3-4h-5l-7 2c0-11 7-14 11-20a16 16 0 0 0 3-2c0-3 3-4 3-7l1-1h2c-1 5-4 8-3 15Zm-16 55h1v-1h-1a1 1 0 0 1 0 1Zm2-47c0 2 1 3 2 2l-2-2Zm2 41 1-2 1 1-2-2v1l-1-1v1l1 2Zm2-5-1-3h-2v1c2 0 2 2 3 2Zm0-37c1-1-1-1-1-2a3 3 0 0 0-2 0c0 2 1 2 3 2Zm-1 32h-1v1l1-1Zm-1-2h2l1-2c1 0 3 1 2 2 2 0 3 2 5-1l-2-1h-3v-1c-1-1 0 1-1 1l-3-1a1 1 0 0 1 1 1c-2 0-1 1-2 2Zm3 17c-1 0-2-1-2 1l2-1Zm-2-51 1 1c1-1 0-1-1-1Zm0 38c2-1 2 2 2 1s-1-3-2-1Zm2 14h2-2Zm2-26c0-2-1-1-2 0a2 2 0 0 0 2 0Zm2 22h3c-3 0-4-1-5-4a2 2 0 0 0-2 0c0 2 5 2 2 4h2Zm-2-14h-1 1Zm5-31h-1l-2 1h-1v-2c-1-1-2 0-2 1l5 2 1-2Zm-4 36c-1-1-2 0-1 1l1-1Zm0 12c0-2 3-1 2-2l-2 1v1Zm2-54c0-1-2-1-2 1l2-1Zm0 49c0-1-1-2-2-1a2 2 0 0 0 2 1Zm-2-52h3c-1 0-2-2-3 0Zm2 49c0-2 1-1 2-1h-3c1-1 0 1 1 1Zm3-36-2-2a7 7 0 0 0-1 3 24 24 0 0 1 3-1Zm0-11-1-1c0 2-1 0-1 1h2Zm0 60s-2 0-2 2l2-2Zm-2-57a2 2 0 0 0 2 0v-2h-2a3 3 0 0 0 0 2Zm1 54 1-3 1 1a3 3 0 0 0-1-2c-1 0-1 2-2 1a15 15 0 0 0 1 3Zm1 2-1-1h-1c0 1 2 2 3 1Zm0-10 2 4 4 3h1l3-8v-4l-3-6 2-2v-7a29 29 0 0 1-6-9h-1c1 4-2 9-2 13v16Zm4-36v-2a8 8 0 0 0-4 0c1 1 2 3 4 2Zm1-6c0-2-2-2-3-2l1 3c-1-1 0-1 2-1Zm4 53h-1 1Zm0-3v-1a1 1 0 0 0-1 0l1 1Zm2-17c-1 2 1 1 1 0Zm0 17c2 2 3-2 0-1v1Zm6-7c0 1-2 0-1 2l1-2Zm0-3a2 2 0 0 1 0-2 1 1 0 0 0-1 0v2Zm1 2-1-1-1 1h2ZM838 172c-3 6-3 14-1 20 2 0 3-2 5 0 0 2-2 2-3 5l-2 1-6 4-7 2c-2 2-3 5-6 5-3-2 0-5 0-8v-3l2-8-2-4c3-4 1-8 2-12 0-4 5-7 5-12-2 0-7 2-10 0 2-5 7-6 9-10h3l1-4c6-2 9 3 14 5-2 5-7 12-4 19Zm-4 18c1 2-2 0-2-2h-1c0 1 2 1 0 2l-3-1c-2 0-3-3-4-1l2 1c-2 1 1 1 1 3a24 24 0 0 0-4-1c0 2 2 1 2 1a1 1 0 0 1-1 1 1 1 0 0 0-1-1l1 2c-2 1-4-1-4 1h2l1 3a2 2 0 0 0 0 1l4 2c0-2-5-2-2-4v1l1-1c2 0 2 3 4 3l1-2-3-2a1 1 0 0 1-1 1l-1-1a3 3 0 0 0 1-1c-1 1-1 0-1-1h1l1 1 1-3-2-1c2 1 0 0 0 0l1-1c1 1 1 2 5 3a1 1 0 0 1 0-1l-1-1c2 0 3 2 4 1l-2-2Zm-11 11h-1l1-1c-1-1-5 3-1 3a7 7 0 0 0 1-2Zm-2-11a2 2 0 0 0 2 0l-1-2h2l-1-1h-3c1 2 2 1 1 3Zm4-6c-1 0-4-1-4 1a4 4 0 0 0 4-1Zm-4 21 2-2h-2v2Zm4-14c1-1-1-3-2-2l2 1Zm-1-33h-1v1h1l2-1-1 1c1 0 3 1 3-1-3 1-4-3-1-2 0-2-2-1-1-2h-1a8 8 0 0 0 0 2l-2-1 1 3Zm4 35a5 5 0 0 1-2 0l2-1v1Zm1-38v-2h-2c1 1 0 2 2 2Zm-2 2c0 1 2 3 3 2l-3-2Zm15-25c0 3 2 6 1 8s-3 3-3 5c-4 0-6 2-10 1-2-1-1-3-2-4v-2c-2-4 0-12 5-11l3-4c3 2 2 6 6 7Zm-13 64v-2 2Zm0-58 4-1 2-1c-1-1-3 1-4-1v1h-1l-1-2a2 2 0 0 0 2 0l-1-1c-2 1-2 4-1 5Zm1 24c1 1 1 0 2-1 0 2 0 3 1 2v-3h-3a3 3 0 0 1 0 2Zm0-29 1 1c1-1 0-1-1-1Zm3 22c-1 1-2-1-3 1 1 2 3 0 3-1Zm-2 5h3l-1-3c0 2-1 1-2 1v2Zm0-22 2 1-1-2-1 1Zm3 17 1 2h1c-1-3 3 0 3-3l-4-1c2 1 2-3 0-2v1a2 2 0 0 0 0-1c-1-1-2-2-3-1l1 1 1 1-1 1-1-1 3 3h-1Zm1 42h-2v2a3 3 0 0 0 2-2Zm-1-3a2 2 0 0 0 1-2 2 2 0 0 0-2 0l1 2Zm1-59v-1h-1l-1 1h2Zm-1 8h2a1 1 0 0 1 0-1c-2 0-2-1-2-2a1 1 0 0 1-1 1l1 2Zm1 26v-1a1 1 0 0 0-1 1Zm1-25c-1 0-3 0-2 1l2-1Zm0 20h-1c-1 1 0 2 1 2v-2Zm2-24h-2a2 2 0 0 0-1 1l3-1Zm-2 22 1-1a2 2 0 0 0-1 0v1Zm1-25-1-1v1h1Zm1 7v-2h-2l2 2Zm-1 49c-1 1 1 1 1 1l-1-1Zm2-54c1-2-1-3-2-2l2 2ZM876 136c-3 3-4 7-5 13v1l-2 12c7 0 11-4 15-8 2 0 2 1 3 2a12 12 0 0 0-1 3l2 9c1 4 2 8-3 8-2 7-10 6-15 8h5c6 3 11-3 15 1l-5 12c-2 3-4 6-2 8h5c1 3-2 3-3 5l-9 3-2 2-3 2-1 4a5 5 0 0 1-4 0c-1-2 2-6 0-8 2-4 0-8 1-11l2-4c1-3 0-6 2-9a27 27 0 0 1-7-4c0 3-2 5-3 7s2 4 1 7h2c1 4-3 5-5 8-1 3 0 5-3 9l-2-3c-3-4-3-9-10-11-1-2 0-2 1-5s1-6 3-8c1-2-1-1-1-2l1-4c0-2-1-1-2-2v-7c1-2 5-4 6-8v-4c1-2 3-4 3-7l3-2-2-7c-3-1-7-7-1-8v-2c2-1 3 1 5-1l2 1c5-1 11-1 15-5 3 1 4-2 7-1 0 4-5 4-8 6Zm-22 64c-1 1 0 1 1 1l-1-1Zm2-59h-1c-1 1 0 3 1 2-2-1 0-1 0-2Zm1-2-1 1 3-1c-1-1-2-2-3-1l1 1Zm2 3c1-2-2-2-2-1l2 1Zm-2 58 1 1 2 1v-5l-1 3a3 3 0 0 0-2 0Zm6-61a3 3 0 0 0-3-2l-1 2c1 0 5 2 6 1l-1-3-1 1v1Zm-3 6c-1 1 0 1 1 1l-1-1Zm1-2 2-1v2c1-1-1-2 1-3h-3c1 1-1 0 0 0v2Zm4 6 1-1-2 1Zm1-2c1-2-1-3-1-2l1 2Zm1-10c1 0 3 2 4 0-3 0-4-1-6 1l2-1Zm1 5h-2v1c1 0 2 1 2-1Zm4 34a6 6 0 0 1 2-7c-1-1-3-4-5-3 0 4-4 11-2 15l5-5Zm-4-17v-1a3 3 0 0 0-1 0l1 1Zm2-8a2 2 0 0 0-2-2h-1l3 2Zm0 64a2 2 0 0 0 1-2c-2 0-2 0-3-2v3l2 1Zm1-5c-2 0 0-2-2-2v2h2Zm2-7a3 3 0 0 0-2 0 2 2 0 0 1-1 2 3 3 0 0 1 3 0l2-2 4 4h-1 2v1c3 1 3-1 3-1h1c-2 0-3-1-3-3a2 2 0 0 0-2 0v-2h-2l1 1c-3 0-5-2-7-3h-2l4 3Zm1 4 1-2a1 1 0 0 0-2 1l1 1Zm4-1a3 3 0 0 0-1-1l-2 2a2 2 0 0 0 3-1Zm-2-35c1-3 2-3 4-4h-3l-1 4Zm1-10 1 3h-2a1 1 0 0 1 1 1l2-1-1 1c2 1 3 0 3-1 0 2 2 2 2 1-2-1-4 0-5-2v-1l-1-1Zm1-28 1 27a1 1 0 0 0 1 2l-1-2Zm4 9 2-1v2h1v-3h-3c2 28 0 29 1 29Zm1-7a1 1 0 0 0 1 2c2 26 2 25 0 25Zm1-3v-2h-1l2 28Zm0 6a1 1 0 0 0 0 2c2 26 2 25 0 24ZM929 172v4l2 1v3c2 0 2 2 4 3 1 1 5 0 5 2-1 2-2 2-4 2-3 2-7 10-4 13-2 3-4 8-4 12l2 2c2-1 2-4 6-3-1 4-3 7-6 8l-2 4c-5-2-7 5-11 7-3-4-2-10-4-15-5 3-13 2-15 10-1 1-2-1-3-1l-2 3c-2-1-1-4-2-6v-7c0-3 3-7 3-11v-5l3-6-1-4-4-3c1-3 5-2 7-3a41 41 0 0 0 6-3c4-1 7-2 9-5l11-4c3 1 4-2 7-1 0 2-2 1-3 3Zm-36 44 1 1c1-1 0-1-1-1Zm4-3-1-1-1 1h2Zm2-5-3-1v2l2-1Zm-3-3c1 0 1 2 2 1l-2-1Zm0-19 3 2c-1 0-1-3-3-2Zm7 31-2-1c0-1-2-1-1-3-2 1-2-2-2 0 0 0 4 3 2 3 0 2 2 1 3 1Zm-4-13h1v-1l3 1c-1 2 0 1 1 2a10 10 0 0 1 1-3c-2 0-3 1-3-1v1l-4-2c0 1 2 1 1 2l-1 1Zm2 14c-2 1-1-2-2-1l1 2 1-1Zm2-27-1 2h2v1s2 0 1-1c-3 0-2-6-5-4 1 1 1 2 3 2Zm-1 6a5 5 0 0 1 3-2h-3v2Zm2 15h-2 2Zm0-23a2 2 0 0 0 1 2l-1-2Zm1 27-1-1v1h1Zm0-27c1-2 2-3 3-2 1-2-2-1-3-1v3Zm3 26c-2 1-1-1-2-1v2l2-1Zm11-28c-1-2-1-5-3-7l-6 2 2 3c1 5-3 11-4 17-4 3-1 7-2 11l7-1c3-5 1-11 4-15a17 17 0 0 1 2-10Zm-12 10 1-1-1-1v2Zm3-5h-2 2Zm0-7a3 3 0 0 0-1 0c-1 1 1 2 1 0Zm1 1v2a3 3 0 0 0 0-2Zm3-7 1-1h-2 1v1Zm4 27-1-1-1 1v4l2-1-1-1c1 0 2 1 1 2h4l1 1 2-2h-4v-2h-3v-1Zm-2 17h2l1 1c0-2-3-1-3-3l1 2h-1Zm1-2c0-1 2-1 1-2h-2l1 2Zm3-8v-2l-3 1 3 1Zm-1-13-1-1-1 1h2Zm0 18h1l-3-1c2 1 0 1 1 2a1 1 0 0 1 1 0v-1Zm-1-3c0 2 1 0 2 2v-2h-2Zm3-32h-1v1a1 1 0 0 0 1-1Zm-1 39a1 1 0 0 1 1 1v-1l-1-1v1Zm2-31a2 2 0 0 0 0-1 2 2 0 0 0-2-1c0 2 0 2 2 2Zm-1 34 1-2h-2l1 2Zm2-19-1-1h1v-2h-3v1c3 0 2 3 3 3v-1Zm-3-22 2 2a2 2 0 0 0-2-2Zm4 32-2 1 1 3v3l1-2-1-2h2l2 2v-2h-2a9 9 0 0 0 0-2l1 1 1-1-2-1 2-1h-4c0 1 2 0 1 1Zm0-24h-2 2Zm0-12v-2a2 2 0 0 0-2 0l2 2Zm1 14h-1 1Zm-1-18a3 3 0 0 0 1 2 3 3 0 0 0-1-2Zm12 9c-3-1-6-1-7-3h-2l-1 3-2-1c0 2 3 5 4 2 1 0 2 1 2-1-2 1-2 1-2-1 2-1 6 2 8 1Zm-10 13c1-1-1-1-1-1a2 2 0 0 0 1 1Zm0 16-1-1 1 2v-1Zm1-21h-2l2 2v-2Zm2 4-2 1h2v-3h-1c-1 1 1 1 1 2Zm-1-19-1 1 1-1Zm0 39h1Zm1-24a2 2 0 0 0 1-2 2 2 0 0 0-2 0l1 2Z"/><path d="M969 189c1 2 1 4-1 6a10 10 0 0 0-7 0l-1 4c-1 2-2 1-2 3-1 3 2 5 1 7 0 2-2 2-4 3a50 50 0 0 0-3 10c0 2 3 2 4 3l5-1c1 0 2-3 4-1-1 4-6 3-6 8-5 2-10 2-13 6l-3 1a7 7 0 0 1-4 3l-1-2a21 21 0 0 1-9-8 6 6 0 0 1-5-3l8-8a25 25 0 0 1 3-6c1-2 3-3 3-5 2-3-1-8 4-9a52 52 0 0 1 5-11l-8-1 3-7a18 18 0 0 0 6 1c2-2 5-4 4-7 2-2 4-4 7-2l11-8c4 0 2 3 0 6-2 4-6 10-7 15 1 2 4 3 6 3Zm-34 33 1 1h1v-2h2c-1-2-1-1-3-1 1 2 0 1-1 2Zm7 15c-1-1-2 0-2 1l2-1Zm-1-4 2 1a2 2 0 0 0 1-2h-2v-1l-1 1v1Zm1-11 1 1-1-1Zm2 8c-1 0-1-2-2 0a1 1 0 0 0 2 0Zm2-4c-2-1-1 0-2 1a3 3 0 0 1 2 0l1-1c1 1 4 2 2 3h2a2 2 0 0 1 0 1c2 1 3-2 4 1 0-1 2 0 2-2h-3v-2h-4v-2l-1 1c-2-1-3-3-5-2l2 2Zm3 3-1-1-1 1a1 1 0 0 0 2 0Zm4-42c1-2-1-3-2-2l2 2Zm3-9v-2c-1 1-2 0-2 2a2 2 0 0 0 2 0Zm2 5c2 2 3 0 3-1a8 8 0 0 1-4-1 18 18 0 0 0 1 2Zm10-12a1 1 0 0 0-2-1c0 2 1 2 2 1Z"/><path d="M1004 199c0 3 0 6 2 8a9 9 0 0 0 1 6c-2 2 0 5-2 7s-6 2-9 4l-4 3a14 14 0 0 1-4 1l-7 1c-1 1 2 2 1 4l-2 3c0 4 4 5 8 5 2 0 4-2 5-1 0 4-4 4-7 5a22 22 0 0 1-4 1h-4c-2 1-4 3-6 2-2 0-2 3-4 2s1-5-3-6l1-4-2-11 3-8c2-2 5-3 4-6l-5-5c2-4 5-2 7-4 5 1 9-2 14-4v-2c4 0 8 0 11-3 4 2 6-4 10-1l-4 3Zm-15 11-2 2-5 14h4c1-5 4-5 6-8-1-4 4-10 0-13a5 5 0 0 1-2 2c-1 1 1 1-1 3Zm-2-5v1-1Zm8 4 1 2c1-1 0-3-1-2Zm2-1a3 3 0 0 1 3-1c0-2-2-1-3-2v3Zm3 8-2-1a5 5 0 0 0-1 2l3-1Zm0-11s0-2-1-1l1 1Zm1 11a12 12 0 0 0 0-2h-2c-1 1 2 1 2 2Zm-1-3a2 2 0 0 1 1-1h-2l1 1Zm0 6c0 1 1 2 2 1l-2-1Zm2-13h-2 2Zm2 12-1-1-1 1h2Zm-2-9h1l-1 2v2l1 1c0-2 2 0 2-2l-2-2h2c0-2-1-6-3-3v2ZM1005 250a30 30 0 0 0 7 12 1 1 0 0 0 0 1c-4 5-9 4-13 9-3-1-1-5-5-7 1-2-1-3-2-4l3-8 5-1 1-3 4-1h1l-1 2Z"/><path d="M1053 198a29 29 0 0 0 0 5c3 2 5 6 8 7l4 1h2l6 2 5 5 6 1c-4 6-3 11-2 16l-1 1c2 1 3-1 4-2 3-2 9-4 13-2a27 27 0 0 1 8 7l1 3c3 2 7 2 10 0h5l5 2c2 0 4 0 5 2l-4 1c-6 2-13 3-17 11-2 1-4 1-4 4a17 17 0 0 0-4 1c-1 5-7 7-9 12l-1 4c-1 2-4 3-5 6l1 3-4 7c3 2 5-4 8 0 0 2-2 2-4 2-3 6-8 5-13 7-4 1-7 3-11 6-2-1-2-3-2-4 3-4 2-7 3-10-1-3 0-7 3-10-2-1-5 1-7-1l-8 2h-5l-7 1h-2c-3-1-4 1-5-1l-1-3c2-2 4-1 6-1 0-3-3-3-4-5l-4-7c-3 0-5 1-8-2l-3 4-3-1a9 9 0 0 0 2 7l-1 6c4 3 9 6 12 5 2 5 8 6 12 6s7-1 9 1c0 3-4 2-6 2a99 99 0 0 1-24-4l-3 1-6-8v-7c0-3-2-5-1-8l-3-5c1-2 3-2 5-1 2-3 4-2 6-4l2-2c1 0 6-3 8-2l6 3 7-1 2 1c2 1 3 0 5 2a4 4 0 0 1 2 3c4 1 7 6 8 10a15 15 0 0 1 5 2c2-2 1-5 3-7 0-2 2-3 3-4l5-7c2-4 8-5 7-10l8-8c1 3-3 7-6 8v5l-8 7-2 4-5 6c-1 2-1 6-4 8l4 2c3-3 2-5 1-6 3-2 4-5 6-8l7-6 5-9 3-4-1-3c0-3 2-5 0-6-2-2-5-1-8-1-1 3-1 5-4 7-1 1-3 1-3 3l-1 3c-2 4-6 6-8 11-5-3-8-4-12-3l-7-4c-2-1-6 0-8-2-4-2-2-7-2-11a6 6 0 0 0 3-3l7-4c1-2 2-2 4-2 1 4-5 4-6 8-1 2 2 3 2 6a9 9 0 0 0 6 0 15 15 0 0 0 5 1c2-4 7-8 8-12 0-2-2-3-1-5l-3-4h-4l-3-4c-1-1-2 2-3 1l-2-3-3-2c-2-3-4-9-2-12 0-2 2-3 3-4v-4a21 21 0 0 1 3-7h2c1 1-1 3-1 4Zm-37 78-3-1a1 1 0 0 0 0 2l3-1Zm-1-5v-2 4h-2 3l-2 1 2 1 1-1a3 3 0 0 1-2-2h2c2-3-1-3-1-4v3a2 2 0 0 0-1 0Zm2 10h-1v-1l-1 1c1 0 1 2 2 0Zm0-1 2-1c-1-1-2-2-3-1a4 4 0 0 1 1 2Zm0 3 1 2-1-2Zm2-16c-1 0-2 1-1 2l3-2c0 2 1 1 2 1v-1c-2-1-3-2-4-1v1Zm0 25 1-1h-1v1Zm3-28 1 2a2 2 0 0 0-1-2Zm3 3-2-1c-1 1 2 2 2 1Zm2 27c-1-1-2-2-3-1 1 0 1 2 3 1Zm1-29 1 1h-1c0 2-2 0-3 2a3 3 0 0 0 5 1h3c-1-1-3 0-3-2 1 1 2 0 3 2v-2c-2 1-2-3-5-2Zm2-1 1-1a2 2 0 0 0-1 0v1Zm3-1c1 0-1-2-2-1l2 1Zm1 2-2-2v3l2-1Zm0 0s0 2 2 2c-1-1 0-2-2-2Zm3 12c1-1 0-2-1-2l1 2Zm1-8v-2c0 1-3 1-1 2h2Zm5-4 1-2a2 2 0 0 0-2 0l1 2Zm-1 5a1 1 0 0 0 3 1c-1-1-1-2-2-1h-1Zm1 14v2h2v-2l-2 1v-1Zm4-4a3 3 0 0 0-2-1 2 2 0 0 0 1 3l1-2Zm-1-7v-2l-1 1Zm1-4-1-1v1h1Zm2-4h-2a1 1 0 0 0 2 0Zm0 17s-3 0-1 2l1-2Zm0-1-2-1c1 1 1 2 2 1Zm1-8c1 0 0-3-1-1l1 1Zm3-4h-1l1 1v2a2 2 0 0 0 0-3Zm8 11 1-1h-2l1 1Zm1 2-2 1c1 1 2 0 2-1Zm6 9v3c1-1 0-2 2-2l-2-1Zm2-54h-2 2Zm18 0c-1 1-2 0-1 1 0 0 2 0 0-1Zm2 23c0 2 2 3 1 4 1-1 0-3-1-3Zm5-8-2-1c1 1-1 0-1 1l1 1c1-2 3 1 2 2 1-1 0 0 1 1 2-2 2 0 3 0h1l-2-1v-2c-2 1-2-1-2-1h-1Zm1 8a10 10 0 0 0-3 0h3Zm-1 6c1-1-1-2-2-1Zm3-7c0 2-1 1-2 2a10 10 0 0 1 0 4 3 3 0 0 0 2 0 2 2 0 0 1-1-3h2v-1h1s-2 0-1-1l1 1c1-1-2-1-2-2Zm1 4c-1 1 0 3 1 2l-1-2Zm17-13 2-1h-2v1Zm2-5v2l1-1-1 1a2 2 0 0 0 3 0c-1 0-3-2-1-2l-1-1-1 2v-1Zm5 1-2-1c1 1 1 2 2 1Z"/><path d="M1134 284c0 2 2 3 3 4 1 2 0 4 2 5 2 2 4 2 6 5-2 2-3 1-5 2-3 6-10 7-13 15l-2 5c-4 2-9 1-13 3-4-2-7 0-10-1l-1-2h-4c-4 1-7 4-11 2l4-8v-15c1-2 4-2 6-3 0-3 3-7 6-9l-2-3 3-4c7 3 14 0 21-1l1 1 9-2 1 1a33 33 0 0 0-1 5Zm-37 32c-3-1-3-3-5-4-1 1 1 1 1 2a3 3 0 0 1-1 0 2 2 0 0 1-1-1c-2 3-2 5-1 7l1-1 1 1 1-4 1 1v2l2-2c0-1-3-1-2-2l2 1v1l1-1Zm-4-17c-2 1-2 5 0 4v-4Zm2 13v-1l-1-1c-1 1-1 2 1 2Zm1 2 2-1-3-2 1 3Zm1-3c1-1-1-3-2-2l2 2Zm-1-6s1-1 2 1c0-2-1-2-3-2l1 1Zm3 7v3-2Zm3 5v-1h-2c1 0 0 2 1 1h1Zm-2-3 1 1c1 0 0-2-1-1Zm8-12c2 5-9 11-4 15 2 1 6 1 8-1 1-1 0-4 3-6-2-3 3-9 6-12l3-5-5-6a113 113 0 0 0-9 11 7 7 0 0 1-2 4Zm1 18-1-1-2 1a2 2 0 0 0 3 0Zm3-1h-2 2Zm12-21h-1v1a1 1 0 0 0 1-1ZM1168 318c1 1 4 1 3 3 2 0 6-2 7 1-2 3-5 2-7 4a55 55 0 0 0-14 1c-1 1-2 3-3 2-2-2 1-3 1-5v-3c-5 4-10 9-9 13-2 3-7 6-6 10 3 3 6 3 9 3 2 0 3-2 5 0-4 5-7 3-11 6-6 0-13-4-19-2h-4c-1-2 1-4 2-6l-2-3 3-3-2-3c0-2 3-6 5-6a25 25 0 0 1 4-5c2-1 0-2 1-3l4-1a54 54 0 0 1 6-6c-2-2-4-4-3-5 2-3 5 1 8 0 4 3 8 2 12 2s9 0 11-2h7l1 1c-3 4-6 3-9 7Zm-43 30-2 1 2-1Zm12-23c0-1 0-2-1-1l1 1Zm1 7-1-1c0 1-2 1-1 2l2-1Zm-1-2 2 1-1 1h2c-3-2 0-5-2-5v3a2 2 0 0 0-1 0Zm3-9s-1-2-2-1c0 0 1 2 2 1Zm1 13h-2 2Zm-2-6 1 2-1-2Zm2 6h2v-1h-1Zm1-7-1 1c1-2 3 0 3 0l-2-1Zm1 5-1-1c0 1 0 2 1 1Zm1-16-2 1 1 1 1-1c1 1 2 2 1 3l1 2c2 0 3 0 3 2 0-2 1 0 1-1l-2-2 1-2h-3l1-2-2 1c0-1-1-4-2-3l1 2Zm-1 17h2v-3h-1c0 1 1 2-1 3Zm3-5-1 2 1-2Z"/><path d="m1196 345-4 5a10 10 0 0 0-6-3l-3 3-3 2c-2 2-1 5-2 7l-5 1a50 50 0 0 0-8 7l3 5 4 1c2 0 4-2 5 1-3 3-7-1-9 4-5 0-10-2-15 0h-3a7 7 0 0 1-4 1v-3a21 21 0 0 1-6-11 6 6 0 0 1-2-5c4-2 7-4 10-4a25 25 0 0 1 6-4l5-2c3-3 3-8 7-7a52 52 0 0 1 10-8l-7-4 6-5a18 18 0 0 0 5 3c3 0 6-1 7-4 2-1 5-2 7 1l13-2c4 2 0 4-3 6s-9 6-12 10c0 2 1 4 4 5Zm-46 31h-2 2Zm0-16 1 1h1l1-2 1 1c1-1-1-1-2-2 0 2-1 1-2 2Zm1 12 2 2v-1l-1-2h-1v1Zm4-1c-1-1 0-2-2-2a1 1 0 0 0 2 2Zm1-9 1 2-1-2Zm3 6c-1-2-2 0-3 0a3 3 0 0 1 2 1h2c0 1 2 4 0 3l2 1a2 2 0 0 1-1 1c1 2 4 0 4 2h2l-3-2 1-2-3-2v-1h-1l-3-4 1 3Zm1 4v-1h-2a1 1 0 0 0 2 1Zm22-36c2-1 0-3-1-3l1 3Zm6-7c1-1 2-1 1-2l-2 1 1 1Zm0 6c1 2 3 1 3 0a8 8 0 0 1-2-3 18 18 0 0 0-1 3Zm15-7a1 1 0 0 0-2-1c0 1 1 2 2 1Z"/><path d="M1222 369c-1 3-2 6-1 9a9 9 0 0 0-2 6c-3 0-3 4-5 5s-7-1-10-1l-5 1a14 14 0 0 1-4-1c-3 0-4 0-6-2-2 1 0 3-1 4l-4 2c-1 4 2 7 5 8 2 1 4 0 5 2-2 3-5 1-8 1a21 21 0 0 1-4-1l-4-2c-2 0-5 1-6-1h-5c-1-2 3-4 1-7l2-2 3-12 7-5c2-1 5-1 6-3l-2-8c3-2 5 1 8 0 4 3 9 2 13 3l2-2c3 2 7 4 11 2 3 4 7-1 9 3-2 2-3 1-5 1Zm-18 4-2 1-12 10 5 2c2-5 6-3 9-5 1-4 7-7 5-11a5 5 0 0 1-3 0c-1 1 0 2-2 3Zm0-6v2-2Zm7 16-1-1a5 5 0 0 0-2 0l3 1Zm-1 3c-1 1 0 2 1 2l-1-2Zm0-12v2-2Zm3 9a13 13 0 0 0 0-2c-1 0-1 1-1-1-2 2 0 3 1 3Zm-1-9a3 3 0 0 1 3 1c1-2-1-2-2-3v1l-1 1Zm2 12-1-1h-1c1 1 1 2 2 1Zm-1-6a2 2 0 0 1 1 0c-1-1-1-2-2-1l1 1Zm3-3 1 1-2 1c1 1 1 2-1 2 1 0 0 0 0 0l1 1h2v-3l1 1c1-2 2-6-1-5l-1 2Zm0-4v-1 1Zm2 2c-1-1-1-2-2-1 0 0 1 2 2 1ZM1293 443c-1 5 3 10 7 10 3 0 5-2 6 1-4 2-5 4-8 4s-6-3-9-1c-5-4-11-6-17-8l-9 5c1 1 5 4 5 7l4 4c2 0 7 1 5 4-2 1-3 2-4 1l-2 6-3 1v2l-3 1-1 2c-6 1-10 6-15 5-4 0-7-2-10 0l-9-6h-1c-2-2-4-2-6-6l2-1c-2-5-7-11-11-11l-3-5c2-2 3 0 5-1 2-2 2-4 2-7l4-4c-1-2 1-6-1-8-1-2-2-1-4-2v2c-3 2-6-1-8 0-6 1-7 7-8 11 0 5 3 9 4 13 1 2 0 4 2 7a17 17 0 0 0 6 5c2 0 6 0 5 3-2 2-6-1-9-3-4-3-8-5-11-11-3-7-2-14-3-20 1-1 2-3 1-4 3-1 2-4 4-6 4-3 9-1 14-3h3c2 2 6 0 8 3h2l6 6 2 5a34 34 0 0 0 5 8c2 1 4 1 4 3-3 4-6 0-9 2-2 1-1 4-2 7s-5 5-4 8c11-4 20-12 29-19-1-1-7-2-8-7-2 1-4 2-5 1 0-3 1-5 3-8-1-4 1-8 2-12l3-3c2-2-1-5-1-8 5-1 9 3 13 4a19 19 0 0 1 2 1c1 1 3 2 5 1l4 3c2 3 4 6 7 6l1 1c5 2 10 7 16 5l2 3c-2 3-5 1-9 3Zm-94 10c-1-1 2-1 1-2l-3 1a1 1 0 0 0 2 1Zm-2-9c2 1 1 2 3 2v-4h-2l-1 2Zm1 10 1 1h1v-2l-1 1h-1Zm4-14-1-1c-1 0-2-2-3 0a2 2 0 0 0 4 1Zm-1 17a14 14 0 0 1-2 0h2Zm1-20-1-1c1 1 0 3 2 4-1-1 0-1 1-1v-2c-1 1-2 0-2-1Zm0 3v2a2 2 0 0 0 0-2Zm2 24-1-1s1-3-1-3a14 14 0 0 0 1 5v2l3 2-1-1a21 21 0 0 1-1-4Zm4-29c-1 0 0-2-2-2a18 18 0 0 1-2 4c1-1 1-2 3-2 1 0 1 2 3 1-2-1-1-4-3-3 1 0 2 1 1 2Zm6 27 2-1-1-2-1 3Zm11 4 2-1-1-2c-1 1-2 2-1 3Zm2 7v-2a2 2 0 0 1-1 0c-1 1 0 2 1 2Zm1 4v-1 1Zm1-14-1 3a4 4 0 0 0 1-3Zm-1-5 1-1h-1l1 1Zm32-3-10 8c-7 4-15 7-20 12 2-1 3 0 5 1l10-5 6-1 3-4v-2c2-2 5-1 8-3 0-2 0-4-2-6Zm-14 27c0-1-3-1-2 1l2-1Zm0-1-1-2a1 1 0 0 0-1 1l2 1Zm1 2a2 2 0 0 0 0-3c-2 2 1 4 0 6a2 2 0 0 0 0-3Zm0-37 3-1-3-1a2 2 0 0 0 0 2Zm3-9c-2 0 0 2-1 2 1 1 2 1 1 2h2l-2-1 1-2-1-1v-1Zm1 39 2 3a2 2 0 0 0 1-1v-3h-2a1 1 0 0 1-1 1Zm4-1 2 1v-1l-1-2-1 2Zm4-24v-1l-2 1h2Zm4 22-2-2-1 1a3 3 0 0 1 1 3c4-2 3 2 4 4l1-1c-1-2 1-1 1-3-1 0-1 2-2 1-1-3-1-6-3-8 0 2 2 4 1 5Zm-3-10 2 5-2-5Zm3 13c-1-1-3-1-2 1l2-1Zm1 2-3-1 3 1Zm14-42a30 30 0 0 0-2-5c-4-1-6 3-9 5l-4 1c-2 3-1 7 0 11 0 1-2 1-1 2a51 51 0 0 0 16-10v-4Z"/><path d="M1308 515c-4 1-8 4-13 4l-6 1a38 38 0 0 0-12 6l-3 3c-2 1-7 0-9 2-3 2-2 5-1 8-5 1-9-4-14-5h-5l-3-2-6-1-2-2-4-2-6-5s-1 2-2 1v-4c-1-2-3-2-5-3a10 10 0 0 1 0-5c5-1 8-4 10-7-1-1-6-1-4-5 3-1 4 1 6 2 3-1 5 0 8 1l2 5a19 19 0 0 0-5 8c-3 1-4 4-8 5 3 4 7 3 11 6h3l15-3c0-2 2-4 4-4l-5-4-5-4c-3-1-6 1-8-2l2-1-1-3c3-2 6-4 6-7a18 18 0 0 1 5-1l5-1 4 1c5 0 7-3 9-7l9-4c-3-2-7-4-5-8 6 4 12 8 19 8l2 1a5 5 0 0 1 2-1l1 3c-5 2-8 5-8 9-3 2-4 1-7 2-4-2-8 3-8 7-5 3-10 1-15 5v3l-1 2c1 2 8 1 11-1l3-3 4-2 10-5 3-1 3-4h3c0 2 2 2 3 4l2 3c2 2 5 1 7 3 2 0 4 0 5 2l-6 2Zm-55 13v-2 2Zm1-20c-2 0 0 3 0 3v-3Zm1 19h2c-1-1-1-2-2-1v1Zm2-5-1 2 1-2Zm1 9-1-2a1 1 0 0 0 1 2Zm-1 2 2-1h-2a1 1 0 0 0 0 1Zm1-26h2c-1-2-2-2-1-3h-1c-1 1 0 1 1 3Zm10 15-1-3c-2 2-5-1-6 1h1l-2 1c0 2-2 1-2 2a18 18 0 0 0 3 1c-1-1 0-3 1-3v1h1c1 2-2 3 0 5 1-1 0-3 2-3l-1-1a4 4 0 0 1 1-3l1 1-1 1c1 0 2 1 2-1l-1-1c1 1 2 1 1 2Zm-6-17v-2l-2 1 2 1Zm4-2a2 2 0 0 0 0-1l-2 1 1 1a1 1 0 0 1 2 1c0 1 0 3 2 3-1-2 0-1 1-2h-2c-1-2 0-5-2-6v3Zm1 4-1-1-1 1h2Zm0 21c0-2-2 0-2 1a3 3 0 0 0 2-1Zm1-8 1-1a2 2 0 0 1 0-1l-1 2Zm2 0a1 1 0 0 0 0 2v-2Zm2 4-1-1h-1c1 0 1 2 2 1Zm5-1v-1l-2 2a3 3 0 0 1 2-1Zm0-31 1-1 2 1-1-1-2 1Zm2 30-1 2 1-2Zm3-37-1 5h-1l1 1a2 2 0 0 1-1 0c1 1 1 2 2 1v-3s2-4 0-4Zm1 11-1-1h-2c1 1 2 2 3 1Zm-1-2 1-2-1 1a1 1 0 0 1 0 1Zm1 1 1 2 1-2a1 1 0 0 1-1-1 2 2 0 0 0-1 1Zm0-7v2-2Zm2 24 1-1-1-2c-1 1-2 2 0 3Zm-1-18a1 1 0 0 0 2 0v-1h-1l-1 1Zm5 0-1-1c0 2-2 2-2 3l1 1 3-3v1l3-4h-3l-1 3Zm0-4c1-1-1-3-2-3 0 2 2 1 2 3Zm2 0a2 2 0 0 0-1-1c-1 1 0 2 1 1Zm4 21h-2c-1 1 2 2 2 0Zm0-6-1-2 1 2Zm1 5a1 1 0 0 0 0 2v-2s0 1 0 0Zm4-2c-1-1-2 1-2 1l2-1ZM1328 566c-2 3-6 3-6 5l-6 2-5-1-2 1-7 1-14 4c-1 1 2 2 1 3 1 2 4 0 4 3-4 2-6-1-10 0l-9-4-2-1c-3-1-7 0-8-3l17-10 6-4a36 36 0 0 1 9-2l6 1c4-2 7-6 12-8a9 9 0 0 0-8-5l-3 1h-3a56 56 0 0 0-7 3l-2 1c-4 2-10 0-11 4 1 1 2 3 1 4-4 2-8-1-12-2a25 25 0 0 1-3 0l-4-2-5-1v-3l8-6 1-4 4-2c2 0 4 2 6 1l6-3c3-2 7-2 11-2l3-3h3c2-3-5-6-2-9 5 0 8 3 11 5l2-1c2 3 9 5 4 8-2 2-1 6-5 8 1 2 5 2 7 3 0 2 2 4 3 5l1 3 4 3a17 17 0 0 0 7 1c2 2 6 3 4 6h-7Zm-38 1a1 1 0 0 0 1-1l-1-1v2Zm7 2-1-1-1 2Zm2 2-1-2-1 1v4l1-3Zm6-3v-2c-3-1-2 1-1 3a2 2 0 0 0 1-1Zm3-1v-2h-2l2 2Zm3 2 2-1v-2c2 2 1 3 1 5h2c-1-1-1-2 1-2l-1-1h-1c-1-2 1-5-1-7v4l-2-1h-1l1 2h-1a7 7 0 0 1 1 1h-1v2Zm1-34-1 1 1-1Zm1 35a2 2 0 0 0 0-1h-1c-1 1 0 2 1 1Zm0-13 1 3a17 17 0 0 0-1-4v1ZM1347 590c-2 1-2 4-2 6a5 5 0 0 1-3 1c-2 4-4 7-2 13-4 4 3 5 2 9-2 2-5-1-8 0-9 1-20 6-27 8l2 4c-3 1-5-1-7-3-6-4-12-8-17-14l-3-3c-3 0-5 0-6-3a8 8 0 0 1 3-1l1-3c5 0 5-4 8-6v-8c4-1 6 1 9 1 2 0 2-3 5-3 3-2 7 2 10 0 3-1 1-4 2-7 2 0 4 2 5 3 3 3 7 8 11 10 2-1 2-3 3-5-2-1-1-3-2-5l-4-6c10-3 15 3 23 4a16 16 0 0 0 3 3c3-1 4 2 8 0l1 1v2c-5 1-9-1-15 2Zm-56 18c0-1-1-3-2-2l2 2Zm-2-16c1 0 0 2 1 1h1l-1-2a1 1 0 0 1-1 1Zm3 15v-2c-2 0-1 3 0 2Zm1-9c0-1 0-3-2-2 0 1 1 3 2 2Zm-1 1v1-1Zm1 17v-1 1Zm0-10 3-1v1a3 3 0 0 0 1-1l-1-1a15 15 0 0 0-3 2Zm1-4c1-2 2 1 2 0l-1-1c-1 0-2 0-1 1Zm2 13h1a1 1 0 0 0-1-1v1Zm5-11-4 3-1 5h1l8 1c1 0 2-2 4-1l5-5 2 2 7-3a29 29 0 0 1 6-8v-1c-3 2-9 1-13 2l-15 5Zm-4-3v1l1 2c-1-3 0-5 2-6a2 2 0 0 0-1-1c-2 0 0 5-3 3l1 1Zm0 16c-1 3 3 2 0 0Zm0-24 1 1 1 2v-3h-1l1-1c0 1-2 0-2 2Zm2 8c1 0 2-1 1-2a2 2 0 0 0-1 2Zm3-7 2-1v-2h-1l-1 3Zm0 6 2 2-1-3-1 1Zm3 20c-1 1 0-2-2-1 0 2 2 2 2 1Zm0-28c1 2-2 2 0 3v-2Zm0 5c1-1-1-2-1 0h1Zm1-5v-2l-1 1 1 1Zm0 29 1-1-1-1v2Zm2-2a2 2 0 0 1 2 0 1 1 0 0 0-1-2l-1 2Zm0-29 1 2h1v3c0 2-1 3 2 4-1-1 1-1 1-2 0-2-1-1-2-3h1c1-1-1 0-1-1v-3a1 1 0 0 1-1 1l-1-1Zm2 5c0-1 0-2-1-1l1 1Zm3 17c-2-1-1 1 0 1Zm4-20c2 0 1-1 0-1a2 2 0 0 0 0 1Zm18-12c-2-1-2 1-1 2l1-2Zm2 17 2-1a8 8 0 0 0-2-3c-1 1-3 2 0 4Zm0-5 1-2a7 7 0 0 0-2 0 23 23 0 0 1 1 2Zm0-10c1 1 1-1 2-1a3 3 0 0 0-1-2l-1 3Zm3 8v-1l-1-1v-1l2-1c-1-2-1-2-3-2 1 2-1 4 1 6Zm1-9c-1-1-2 1-1 1a1 1 0 0 0 1-1Zm1 14c2 0 2-2 2-3l-3 2c1-1 1 0 1 1Zm2-7a2 2 0 0 0 1 1h1v-2l-2 1Zm2-2c1-1 0-2-2-2 0 2 1 3 2 2Zm2 2 1-1h-2l1 1Zm0-5v3c0-1 2-3 0-3ZM1327 653c-7 0-15 2-20 5 1 2 3 3 2 5-3 1-3-1-6-1l-1-2-7-4-3-6c-3-2-6-2-7-5 1-3 5-1 8-1l3-2 8-1 3-2c4 2 8-2 12-3 4 0 8 4 13 2-1-2-4-6-3-9 5 0 7 4 12 5l2 3h3c4 4 0 9 0 14-6 0-14-2-19 2Zm-37-5 2 1v-2l-2 1Zm4 0v-1l2 1c0-2-5-4-4-1a7 7 0 0 0 2 1Zm15 7c-2 1-1-2 0-2v-1l-1 1v-4c0-2 1-4-1-3v1c-1-1-1 2-3 2a25 25 0 0 0 0-4c-2 0-1 2-1 2a1 1 0 0 1-1-1l-1 1c-1-1 0-4-2-4v2c-1 1-2 1-2 3a2 2 0 0 0-1 0l-1 4c2-1 1-5 3-3l1 1c0 2-2 2-2 5l3-1v-3a5 5 0 0 1 0-1h1l1-1v1l-1 1h4v-2c0 2 0 0 0 0h1l-1 6a1 1 0 0 1 1 0c-1-1 0-1 1-1v3l2-2Zm-7 3v-1h-2a3 3 0 0 0 2 1Zm-1-5 2-1h-2v1Zm2-3a5 5 0 0 1 0-2l1 2h-1Zm1-7a2 2 0 0 0 0 1h3v1l1-1c-2 0 0-2-1-3-2 1-1 2-3 2Zm1 14a2 2 0 0 0 1-1 2 2 0 0 0 0-1l-1 2Zm0-11c1 1 2-1 0-2v2Zm1 13v2a3 3 0 0 0 0-2Zm6-14c-1-1-1-4-3-4a4 4 0 0 0 3 4Zm17 5h1l-1-2v2Zm4-1v-1c-1 0-2 0-1 1Zm0-6 2 2c-1 0-3 0-1 1l2-1v-2l-1-1a3 3 0 0 1-2 1Zm3-7v-1h-1v2h1-1c0 1 0 3 2 2-2-2 1-4 2-2h1v-2a8 8 0 0 0-2 1v-2c-2 0-1 2-2 2Zm-1 13h2a2 2 0 0 0-1-1l-1 1Zm3-10c-1 0-3 2-1 2l1-2Zm-2 4v3c2 0 3-1 3-2-1 1-1-1-1-2l-2 1Zm5 1c-1-1 1-3-2-3-1 2 1 2 2 3Zm0 1-1 1v1c2-2 2 3 4 2v-4c-1 2 3 0 1 0l-1-1a2 2 0 0 0 2 0v-3l-1 1-1 1h-1l1-2c-1 2-1 4-3 5v-1Zm-1-6h2l-1-2-1 2Zm26 6c-3 1-5 3-8 3-2 0-3-2-5-1-2-3-4-5-4-9 0-2 2-2 3-4h2c3-3 11-3 12 2l5 1c-2 3-5 4-5 8Zm-14-2c0-1 0-3-1-2l1 2Zm1-2 1 1 2-2-1-1-2 2Zm0 3 2 1c0-1 1-3-1-3 1 1-1 1-1 2Zm4 0v-3a2 2 0 0 0-2 0l2 2Zm-1-9c2 0 2 2 2 3l2 2c1-2-2-3 0-4l-2-1v-1h2a2 2 0 0 0 0 1l1-2c-2 0-4 0-5 2Zm1 2v1l1-1-1-1Zm2 7c1 1 2-1 1-2l-1 2Zm1-2v-1h-1l1 1Zm1-3 1-1v-1h-2l1 2Zm1-5h-1v1l1-1ZM1372 679c-3-2-7-3-14-2 0 0 0 2-1 1l-12 2c2 6 8 9 13 12 1 1 0 2-1 3a12 12 0 0 0-4 0l-7 4c-4 3-7 5-8 0-8 0-9-7-13-11l2 4c-1 7 6 9 3 15l-13-1c-3-1-6-2-8 1 0 2 2 2 1 4-2 2-3-1-5-1-2-3-3-6-6-8l-2-1-2-2h-5a5 5 0 0 1-1-3c1-2 6-1 8-3 4 1 7-3 10-3l5 1c2 0 5-2 9-1a26 26 0 0 1 2-8h-8l-6 2v3c-4 1-6-2-9-3-3 0-5 2-9 0 0-1 0-2 2-2 3-4 7-7 7-13 1-2 2-2 5-1h9l2-2 3 1 2-3 6-2 9 3 4-1c3 0 5 2 8 1l3 1a20 20 0 0 0 6-3c0-4 5-9 7-4l2-1c2 2 0 4 2 5v3c3 4 5 9 10 12 0 3 3 3 3 6-4 2-6-3-9-5Zm-76 18a2 2 0 0 0 2 0v-3l-2 1v2Zm5 0c-1-2 1-1 1-3l-2 1 1 2Zm4-20-1 2 1-2Zm-1 22h2a1 1 0 0 0-1-1l-1 1Zm3 3a3 3 0 0 0 0-2h-2a2 2 0 0 0 2 2Zm-1-21h-1v3h1l3-2h-2l-1-1Zm2 16a3 3 0 0 0-1-3 2 2 0 0 1-2 1 3 3 0 0 1 1 2l2 1c-1 2 0 4-2 6v-2c-1 2 0 2 1 3h-2c0 3 2 2 2 2l1 1c-1-2 0-3 2-4a3 3 0 0 0-1-2l2-1v-1h-1l-1 1c-1-3 1-5 1-8-1 1 0-1-1-1l-1 5Zm25-10a6 6 0 0 1 7 0c2-1 3-4 2-6-4 2-12 0-15 3l6 3Zm6 3c3-1 4 0 6 2l-2-3-4 1Zm4 5 2 2h-2v1l3-1v-2h-3Zm6-8c-2 0-1 1-2 2l-1-1a1 1 0 0 1-1 0l2 2h-2l2 2v2-5h1l1-2Zm-1 8a1 1 0 0 0-2 2l2-2Zm1-17h1a3 3 0 0 0-1-2l-1 2Zm2 11a1 1 0 0 0-2 1l2-1Zm0 5a1 1 0 0 0-2 1c1 1 2 0 2-1Zm3 0 2-1h-1l-1 1Zm2-17a2 2 0 0 0 2-2v-1l-2 3Zm1-5h1l-1-1v1Zm2-6-1 1 1-1Zm1 6v-2 2Zm1-11v-1c-1 0-2 0-1 1h1Zm0 5 2 2-2 1c1 1 2-2 3-1l-1-2v-1c-1 2-2 0-2 1Zm1-2v-2 2Zm2 9a2 2 0 0 0 0-2h-1l1 2Zm0-12h-1l2 2v-3l-1 1Zm2 6a3 3 0 0 0 0-3l-1-1c-1 2-1 6 1 6-1-1 2 0 2-1l-1-1h-1Zm3 4c0 1-1 3 1 3 0-3 0-5-3-5l2 1ZM1355 739c-2 0-2 2-4 1v3l-3 2-1 3c-1 2 1 5-1 6-2 0-3-1-3-3-3-2-12-4-14 1-3-1-8-2-12 0l-1 2c1 1 4 1 4 4-5 1-8 0-10-3h-4c1-6-7-5-10-9 3-4 9-5 13-7-5-5-6-13-14-12v-3l-4-1c0-3 4-3 6-4l6-2h11l5-2c2-1 5 1 6 1l4-3 2-4c3 0 4 3 5 5a43 43 0 0 0 5 5c2 3 4 6 7 7 3 3 4 7 8 9 0 3 3 3 3 7-3 0-2-2-4-3Zm-52-12c-2-1 1-1 0-2l-2 2h2Zm-1-8-1 2 1-2Zm0 25 1 1-1 1c2 0 0-3 2-3l-2 1Zm0 4 2 1-1-1h-1Zm2-19v-2c2 0 1-2 2-2-1-1 2-3 0-2 0 0-1 5-3 3-1 1 1 3 1 3Zm0 18a1 1 0 0 1 0 1h1v-1Zm0-3c2-1 2 2 3 0l-1-2-2 2Zm7 5-1-2c-2 0-2 1-3 2l-2 1c0-1 0-1 0 0l2 1c-1-1 0-2 1-2-1 1 1 1 1 2s-2 1-2 3c1 0 1-2 2-1v-2a9 9 0 0 0 1-1v1h2v-1l1 1v-3c-2-1 0 1-2 1Zm-5-18v-1h-1l1 1Zm0-9 1-1-2-1 1 2Zm1 11v-2l-1 1c1 0 0 2 1 1Zm1 11 1 2-1-3-2 1a1 1 0 0 1 1 1l1-1Zm1-16-1-2 1 2Zm28 7c2-2 5-2 6-5v-1c-2 0-2-3-4-4-1 1 0 2-2 3-4 3-11 1-17 1-4-3-7 1-11 2l3 6c6 1 10-2 16-1a17 17 0 0 1 9-1Zm-27 8v2h1l-1-1v-1Zm1-21v-3l-1 1 1 2Zm1 31c-2-1-1 1 0 1v-1Zm1-34c0 1-2 1 0 2v-2Zm-1 25c1 0 2 1 3-1-2 0-1-2-2-2l-1 3Zm2 6v-1l-1 1Zm1-29v1h1v3c-2 0-1 1-2 2a10 10 0 0 1 3-1v-2h-1c1-2 2-3 1-5l-1 2h-1Zm4 19v-1l-1-1c-1 1-1 2-3 1l1 2 1-1c0 1 0 2-2 1 1 1 2 2 0 1 0 2 2 2 2 3s-2 1-1 2c1-2 1 1 2 1v-1l-1-3 2-1-1-3h1Zm2 5 1-1 1-1v-2l-2 1c1 2-2 2-1 4 0-1 0-2 1-1Zm1-23a5 5 0 0 1 3 2v-3l-3 1Zm2 5 2 1v-2l-2 1Zm1 12 1-1h-2l1 1Zm4-18h-3l1 2h-1l1 1c-1-3 6-4 3-6-1 1-2 2-1 3Zm1 7c1-1 0-2-1-2l1 2Zm-1 17v-1a2 2 0 0 0 0 1Zm2-24a2 2 0 0 0-2 2l2-2Zm0 26-2-1 1 2 3-1v-1l-2 1Zm0-34-1 4c0-2 3-3 1-4Zm0 10c2-1 4 0 3 2 2-1 0-2 0-3 0 1-2-1-3 1Zm2 20v-1h-1l1 1Zm1 1-1-1-1 2c2 1 1-1 2-1Zm0-3v-1 1Zm0-2a2 2 0 0 0 2 0 2 2 0 0 0-1-2l-1 2Zm2-12h-2a3 3 0 0 0 2 0Zm0-1a3 3 0 0 0 0-1v1Zm-1 21a2 2 0 0 0 2 0 2 2 0 0 0-1-2c1 1 0 1-1 2Zm5-11v2a2 2 0 0 0 0-3Zm5 15v-10h-3v-2c-2 0-4 4 0 5-1 0-1 2 1 1-1-1-2-2 0-3 2 3 0 7 2 9Zm-3-15v-1l-1-1a1 1 0 0 0 1 2Zm1-9 1 1v-1l-1 1Zm3 10h1a2 2 0 0 0 0-1l-1 1Zm3 4-2-1 2 1Zm1-5a3 3 0 0 0-2 2 3 3 0 0 0 2-2Z"/><path d="m1351 784-6 1a10 10 0 0 0-1-7h-5l-4-1c-3 0-4 3-6 3s-3-2-4-3a50 50 0 0 0-10 0c-2 1-1 4-2 5l2 4c1 1 4 2 3 4-5 0-5-5-10-3-3-4-5-9-10-11l-2-2a7 7 0 0 1-4-3l2-2a21 21 0 0 1 4-11 6 6 0 0 1 3-5c3 1 7 2 9 4a25 25 0 0 1 7 1l6 2c3 0 7-3 9 0a51 51 0 0 1 12 2l-1-8 7 1a18 18 0 0 0 1 6c3 2 5 4 8 2 3 1 5 2 5 6l10 7c2 5-2 3-6 2s-11-2-16-1c-1 1-2 4-1 7Zm-54-12-1-1 1 1Zm3-2 1 3a2 2 0 0 0 1 0v-3h-2Zm4 2c0-1 2-1 0-2a1 1 0 0 0 0 2Zm5 1c1-2-1-1-1-2a3 3 0 0 1 0 2l1 1c0 2-1 5-2 3v2a2 2 0 0 1-1 0c0 2 3 2 1 4l2 2-1-4 2-1-1-3 2-1-2-1c1-1 3-4 1-5l-1 3Zm-2 4 1-1-1-1a1 1 0 0 0 0 2Zm2-16-1 2h3l1 2c1-1 0-2-1-3-1 1-1-1-2-1Zm3 6-1 2 1-2Zm36 0c2 1 2-1 2-2-2 0-2 1-2 2Zm5 4c-1 2 1 3 3 2a8 8 0 0 1 0-3 17 17 0 0 0-3 1Zm4-4 2-1-2-1a2 2 0 0 0 0 2Zm11 9a1 1 0 0 0 0-1v1Z"/><path d="M1353 819c-3 2-6 3-7 5a9 9 0 0 0-6 3h-7l-7-7-4-3a13 13 0 0 1-2-4c-1-2-3-3-3-6-2 0-1 2-3 3l-4-1c-4 1-4 5-2 9l2 4c-4 1-5-3-6-5a21 21 0 0 1-3-3l-1-4c-1-2-4-3-3-6-2-1-4-1-4-3s5-1 5-4h4c3-3 7-4 10-6l8 1c2 0 4 3 7 1 2-1 2-4 4-6 3 0 3 4 6 5 1 6 4 8 7 12h3c1 4 2 8 5 9 0 5 7 4 5 9-2 0-3-2-4-3Zm-15-10-3-1-15-1 2 4c4-1 6 2 9 3 4-2 10 1 12-4a5 5 0 0 1-2-2c-1 0-1 2-3 1Zm-6 13v2-2Zm3-1 1-2a5 5 0 0 0-2 0l1 2Zm0 4v-1l-1-1 1 2Zm1-3a14 14 0 0 0 2-1l-1-1c-2-1-1 1-1 2Zm2-2a2 2 0 0 1 2 1l-1-2-1 1Zm5 1v1l-2-1c0 1-1 2-2 1h-1v1c2 0 1 2 2 2 1-1 1-3 3-3l-1 1c2 0 6-2 3-3l-2 1Zm-3-7-1 2c1 0 2-1 1-2Zm2-9-1 1 1-1Zm0 10a3 3 0 0 1 2 3c2 0 0-2 0-3-1-1 0 1-1 1l-1-1Zm4 5-1-2s-1 2 1 2Zm0-2v-2 2ZM1304 837a30 30 0 0 0-8 10 1 1 0 0 0-1 0c-6-2-7-7-14-9 1-4 5-3 6-7 2 0 2-2 4-3l8-1 2 5h3l2 4v1h-2Z"/><path d="M1369 866a31 31 0 0 0-5 1c-1 4-4 7-4 10l1 4v8c0 3-3 4-3 7v6c-6-2-11 0-15 3l-1-1c-1 3 2 2 3 4 3 2 6 6 6 11a27 27 0 0 1-5 10l-1 2c-2 3-1 7 3 9-1 2 0 3 1 5v11c-2 0-3-2-3-4-4-4-7-12-16-13-1-1-2-3-5-3a16 16 0 0 0-2-2c-5 0-8-5-14-5h-4l-7-3c-2 0-2 2-3 2l-8-2c-1 4 5 4 3 8-2 0-3-1-4-3-6-1-7-7-10-11l-9-8c0-2 2-3 3-3 4 2 7 0 10 0 3-2 6-2 10-1 1-2-2-4-1-7 0-2-4-4-5-7l-1-4-3-6v-3l-2-4 3-3c2 2 2 5 4 6 3-1 2-4 3-6l5-5c0-3-2-4-1-8l-4-2v-3a9 9 0 0 0-6 4l-6 1c-2 4-3 10-1 13-5 3-3 9-2 13 1 3 3 6 2 9-3 0-3-4-4-6a100 100 0 0 1-4-24c0-1-2-1-1-2 1-4 2-7 5-8l7-2c2-2 4-4 7-4l4-5c2 1 2 3 3 6 2 0 3 3 5 4l3 1 4 7-1 6 3 7v8a4 4 0 0 1-3 2c0 5-3 9-7 11a15 15 0 0 1 0 5c2 2 5 0 8 1l4 2 9 2c4 1 6 6 11 4l11 5c-3 2-8-1-10-3l-5 1c-3-1-5-4-9-5l-5-1-6-2c-4-1-6 1-9-1l-1 4c3 1 4 0 6-1 2 2 6 1 9 3l8 4 10 2 5 2 3-2c2 0 5 0 6-2s-1-5-3-7c-2 0-5 0-7-2l-4-2h-4c-4-1-7-4-12-4 1-5 1-9-1-12l1-9v-8c1-4 6-4 10-5a6 6 0 0 0 4 2c1 2 4 3 5 6 2 0 3 1 3 2-3 3-5-3-9-3-2 0-3 3-5 4a8 8 0 0 0 2 6 15 15 0 0 0 0 4c5 1 10 5 14 4l5-2 2-4v-4l2-4-2-2 2-3 2-4c1-2 7-6 10-6l5 2 4-1a21 21 0 0 1 8 0v2l-4 1Zm-99 5v-3c0 1-2 2 0 3Zm-1-8h2l-1-1-1 1Zm8-5-1 1 1-1Zm2-1v-1h1-1c-1 0-2 1 0 1Zm1 0 1 1c1-1 2-2 0-3a4 4 0 0 1-1 3Zm3-2 1-3a1 1 0 0 0-2 1l1 2Zm1 28c-1-1 0 1-1 1v2l2-1-1-1v-1Zm1 26s-2-1-2 1l2 1v-2Zm3-57h2c-2-1-3 0-4 1v-2a3 3 0 0 1-1 1c-1 1 1 0 1 2l-1-1-1 2h2a3 3 0 0 1 1-2l1 2c3 1 2-2 3-3-1 0-1 2-3 1a2 2 0 0 0 0-1Zm0 36c0 1-1-2-2-1l2 1Zm1-2a3 3 0 0 0 1-2 2 2 0 0 0-3 1l2 1Zm-1 2 1-2-1 2Zm1-12c1 0 2-2 1-3 0 2-2 1-1 3Zm3 25c0-2-1-1-2-2l2 2Zm1-46c-1-1-2-2-3 0 1 0 3 0 3 2v2h1v-5l-1 1Zm5 8-1 2-1-2c-1 1 0-2-2-2a3 3 0 0 0 1 5v2c1 0-1-2 1-3v4l1-1c-1-1 2-3 1-5Zm-5 36h1v-1l-1 1Zm2-38v-2c-1-1-2 2 0 2Zm2-4-2 1 2-1Zm-1 26 1-1-1-1Zm1-5a1 1 0 0 0 0 2l1-2Zm0-4 2-1c-1 1-2-2-2-1v2Zm0 12c1 1 2 0 1-1l-1 1Zm3-18v-2l-2 1 2 1Zm0 1c-1 0-3 1-1 2l1-2Zm-1-4h1a2 2 0 0 0 0-1l-1 1Zm1 18v-2h-1l1 2Zm2 4h-1l-1 1-1 1a2 2 0 0 0 3-1Zm-1-20c1 1 2-2 1-2l-1 2Zm1 10h2a2 2 0 0 0 0-1l-2 1Zm3 6-1-2a1 1 0 0 0 1 2Zm12 44c2 0 2-2 1-2v2Zm4-7c-1 1-1 3-3 2 1 1 4 0 3-1Zm4 8-2-2a10 10 0 0 1-4 1 3 3 0 0 0 1 2l2-2v2l1-1v2c1 0 0-2 1-1v1l1-2Zm-3 1c-1 0-3 1-2 2 0-1 2 0 2-2Zm1-3a10 10 0 0 0 0-3c-1 1 0 2 1 3Zm8-4 1-2c-1 2-1-1-2 0v1c2 0-1 2-1 3l-1 1v2l1 1v-2l2-1v-2s-1 0 0 0Zm6-28v-2 2Zm3 48 1 1v-2l-1 1Zm3-32h-1l1 1Zm1 32c-1-1-1 0-1 1l1 1-1-1a2 2 0 0 0 0 3c1-2 2-4 2-2l1-1h-2v-1Zm2 5-1-2c0 1-1 2 1 2Z"/><path d="M1313 970c-2 0-2 2-3 4-2 1-4 1-5 3s0 5-2 7c-2 0-2-2-4-4-6 0-10-7-18-8h-6c-2-3-3-8-6-11 1-4-3-6-2-10l1-1-1-5c-2-3-6-5-5-9l8 1 8-2 7-2c2 0 3 3 5 4 3 0 7 1 10 3l2-2 5 1c-1 8 5 13 7 19v2l4 8v1a31 31 0 0 0-5 1Zm-42-25 2-6c-2-1-1 1-2 1a3 3 0 0 1 0-1 2 2 0 0 1 0-1c-3-1-5 0-7 1l2 1v1h3v1l-2 1 2 1c1-1 0-3 2-3v3h-1a2 2 0 0 0 1 1Zm-1 12a2 2 0 0 1 1-1l-1-2v3Zm1-7 1-1v-1h-1v2Zm1 10v-2 2Zm15-10c-4 4-13-5-15 2-1 2 2 6 3 6 2 2 5 0 7 1 3-3 9 1 13 3l6 1 4-6a112 112 0 0 0-13-6 7 7 0 0 1-5-1Zm-12-5-3 1c1 1 2 0 3-1Zm-3-2 2 1c1-1 2-2 1-3l-3 2Zm2 4-1 1 1-1Zm0-6h1v-2c-1 1-2 1-1 2Zm2 2c1 1 2-2 1-2l-1 2Zm5-3v2c2 0 1-2 1-3l-1 1Zm5-5c-2-2-6 0-4 2 0-2 3 0 4-2Zm10 29v-1l-1 1a1 1 0 0 0 1 0ZM1292 1013l-2 4c0 2 3 4 1 6-4-1-4-4-7-6a55 55 0 0 0-5-12l-3-2c1-3 4-1 6-1l2-1c-5-3-11-6-15-4-4-1-8-5-11-3-3 4-1 7-1 10 2 1 3 2 2 4-5-2-5-6-9-8-2-6-1-14-4-20l-2-3c2-2 5 0 7 0l3-3 3 3 3-4c2 0 6 2 7 4a25 25 0 0 1 6 2h2c2 0 2 2 3 3a54 54 0 0 1 7 4c2-2 3-5 5-5 3 1 0 6 2 8-1 5 0 8 2 12s2 8 5 10l2 7v1c-5-1-5-5-9-6Zm-42-32c-2 0-1-2-2-2 0 1 0 2 2 2Zm17 11v-2 2Zm1-4 1-1h-2l1 1Zm0 4v1h1v-1Zm1 2v1h3v-1h-3Zm1-7v2h-1v1c1-3 4-1 4-4l-1 2h-2a2 2 0 0 0 0-1Zm0 6v-1 1Zm2-5c0 1-2 1-1 2 1-1 2-1 1-2Zm3 7-3-1 3 1Zm0-5h-2c2 1 1 3 1 2l1-2Zm0-5v-1 1Zm4 2 1-2c-1-1-2 2-1 2Zm6 2s0-2-1-1l-1 1 1 1-2 2-1 1-1 3 1 1 1-2h2v-3h1l-1-1c1-1 3-2 2-3l-1 1Z"/><path d="m1274 1047-6-1a10 10 0 0 0 2-7c-2-2-3-1-5-2l-3-3h-7l-2-4a49 49 0 0 0-9-5c-2 0-3 3-4 4v5c1 1 3 3 1 5-4-2-2-7-7-8-1-5-1-10-5-14v-3a7 7 0 0 1-2-4l2-1a21 21 0 0 1 9-8 6 6 0 0 1 4-4l7 9a25 25 0 0 1 5 4l4 4c3 1 9 0 9 4a51 51 0 0 1 10 7c2-2 1-5 3-7l6 4a18 18 0 0 0-2 5c1 3 3 6 6 5 2 3 3 5 2 8 1 4 4 7 6 11-1 5-4 2-7 0-3-3-8-7-13-9-2 0-4 3-4 5Zm-43-34s0-2-1-1l1 1Zm3 0-1 2 2 1v-2h1v-1h-2Zm7 6c1-1 0-1-1-2a3 3 0 0 1-1 2l1 1c-1 1-3 4-3 2v2a2 2 0 0 1-1-1c-2 2 1 4-1 4l1 3 1-4h1c2-1 1-2 1-3h2l-1-2c1-1 4-2 3-4l-2 2Zm-4-3s2 0 1-2a1 1 0 0 0-1 2Zm1 6v-2a1 1 0 0 0 0 2Zm8-7c-1-1-2 1-2 2l2-2Zm0-6-1 1v1h2v2l1-3-2-1Zm32 23c2 1 3-1 3-2-2 0-2 1-3 2Zm3 5c-2 1 0 3 1 3a8 8 0 0 1 2-3 16 16 0 0 0-3 0Zm6-2 2 1c-1-1 0-2-2-2a2 2 0 0 0 0 1Zm5 13a1 1 0 0 0 1-1l-1 2Z"/><path d="m1259 1080-8 1a9 9 0 0 0-7 1c-1-3-4-2-6-4s-1-6-3-9l-2-5a13 13 0 0 1-1-4l1-7c-2-1-3 2-4 1l-4-3c-3 0-5 4-5 8v5c-4-1-4-5-4-8a22 22 0 0 1-1-4l1-4c0-3-2-4 0-6-1-2-3-3-2-5s5 2 6-1l4 1 11-1 7 5c2 1 3 4 6 5l6-5c3 2 1 6 3 8-2 5 0 9 1 14h3c-1 5-2 8 1 12-3 3 3 6 0 9l-3-4Zm-9-16-1-2-14-7v4c5 1 5 5 7 7 4 0 9 5 13 2a5 5 0 0 1-1-3c-2-1-2 1-4-1Zm-10 10c-1-1-3 0-2 1l2-1Zm1 3 1-1-1-1v2Zm2-3 1-2a6 6 0 0 0-2-1l1 3Zm0 1a14 14 0 0 0 2 1v-2c-1-2-2 1-2 1Zm7 2v1l-2-1c-1 0-2 1-2-1h-1l-1 1c2 1 0 2 2 3 1-1 1-2 3-2l-1 1c2 1 6 1 4-2h-2Zm-4-2a2 2 0 0 1 1 1v-2l-1 1Zm4-5-1 1c0 1 2 0 1-1Zm1 2a3 3 0 0 1 1 3l2-3c-1-1-1 1-2 1l-1-1Zm2 5v-1 1Zm1-1c0-1 2-1 1-2-1 1-2 1-1 2Zm2-14-2 1c1 1 1 0 2-1ZM1211 1171c-5 0-8 5-7 9 1 3 3 4 1 6l-7-6c-1-2 1-7-1-9 2-7 2-13 1-19l-6-7c-2 2-3 7-6 7 0 2 0 4-2 5 0 2 1 6-3 6l-2-3-6-1-2-2-1 1c-2-1-2-2-2-3h-2c-4-5-9-8-11-13-1-3 1-7-2-10 2-3 2-6 3-10l-1-1c2-2 1-5 4-7l1 1c5-3 9-10 8-14l3-4c3 1 1 3 2 4 3 2 6 1 8 0l5 3c2-2 7-2 8-3v-5h-2c-2-2-1-5-2-7-3-5-10-5-13-4-5 1-8 5-11 8-2 1-4 1-6 4a17 17 0 0 0-3 7c0 2 1 5-2 6-2-2 0-7 1-10 1-5 2-9 6-13 6-6 13-7 19-10h4c2 2 4 1 6 2 5 3 5 8 8 12-1 1 0 2 1 3-1 3 1 5-1 8l1 3c-1 2-1 5-3 7l-5 3a34 34 0 0 0-6 8c-1 2 0 3-2 4-4-1-2-5-4-7s-5 0-7 0c-3 0-7-4-10-2 8 9 19 15 27 23 1-3 1-8 5-11-2-1-4-3-3-4h9c4-2 8-1 12-2l3 2c3 1 5-3 8-3 2 4 0 9 0 13a19 19 0 0 1 0 2v6l-1 4c-3 3-4 6-3 9l-1 1c0 6-4 12 0 17l-3 3c-3-2-2-5-5-7Zm-52-32a2 2 0 0 0 2-1c-1-2-3 2-5 2a2 2 0 0 0 3-1Zm0-1c2-1 0-3-1-2 1 1 2 1 1 2Zm0-19c0 1 2 0 1-1l-1 1Zm4-27 1-1s3 0 2-2a14 14 0 0 0-4 3h-2l-1 4c0-2 1-1 2-2a21 21 0 0 1 2-2Zm-2 45 1-1a1 1 0 0 0-1-1v2Zm28 5c-3-3-6-4-10-6-6-6-12-13-18-15l1 4c2 4 6 5 8 8 1 2 1 5 3 6 1 1 3 0 4 2l2-1c3 1 3 4 6 6l5-3Zm-26-25 1-1a2 2 0 0 1-1-1v2Zm4 24-2 2a2 2 0 0 0 1 1l3-1-1-2a1 1 0 0 1-1 0Zm2 12v-2 2Zm-1-41 2 2 1-2h-3Zm2-25a13 13 0 0 1-2-2c0 1 1 3 2 2Zm3 64 1-2-1-1-2 2c3 2-1 3-3 4l2 2c1-2 1 0 2 0 1-2-1-1-1-2 2-2 6-3 6-5l-4 2Zm-4-7v2h1l1-2h-2Zm0-43 1 2 1-2h-2Zm1 51c1-1 0-3-1-2l1 2Zm3-37-4 1a4 4 0 0 0 4-1Zm-2-32-1 1 1 2 2-1-2-1v-1Zm1 1h3c-2 0-1-1-2-2a1 1 0 0 0-1 2Zm5 30h1v-1l-1 1Zm5 31-4 4 4-4Zm-2-65-1 3h2c0-2 1-1 2-1l-1-3-2 1Zm5 3h-1a2 2 0 0 0 1 0Zm1-1h1c-1-1 0-3-2-3a2 2 0 0 0 1 3Zm3 0v-1c-1 1-3 1-3 3h1l2-1v-1Zm4 5c-1-1 1-1 1-2a19 19 0 0 1-5-1l3 2v3c1-1 4-2 3-3l-2 1Zm0 53h1l-1-1v1Zm1-13 2 3v-3a2 2 0 0 0-2 0Zm19 27a31 31 0 0 0 5-4c0-4-6-4-8-7l-3-4c-3 0-7 2-10 4h-2a51 51 0 0 0 14 12l4-1Zm-9-27h-3l-1 2v2l1-2h2v-2h1ZM1148 1207l-9-11-2-6a38 38 0 0 0-10-9l-4-2-4-8c-3-2-5 0-8 2-3-5 0-10 0-15l-1-5 1-3-1-6a16 16 0 0 1 1-3l1-4 2-7c1-1-2-1-1-2 1-2 2-1 3-1 2-2 2-4 2-6a10 10 0 0 1 5-1c2 4 6 6 10 7 0-2-2-6 3-5v6c2 2 1 5 1 7s-2 3-4 4a19 19 0 0 0-8-2c-3-3-6-3-8-6-3 4-1 8-2 12v3c4 4 6 9 9 13 1 0 4 1 4 3l3-6 2-7c-1-3-4-5-1-7 1-1 1 0 2 1s2-2 2-1c3 1 6 3 9 2a17 17 0 0 1 3 5l2 5v3c2 5 5 7 10 7 3 2 3 6 6 7 2-3 2-7 6-7-1 7-4 14-1 21l-1 2a5 5 0 0 1 2 2l-2 1c-4-3-8-5-12-5l-4-5c1-5-5-7-9-6-4-4-4-9-9-13l-3 1a9 9 0 0 1-3 0c-1 2 2 8 5 10l4 2 3 4c2 2 5 3 8 7l2 3c1 1 3 0 5 2l1 2-3 4-3 3c-1 2 1 5-1 8 1 2 2 4 0 5l-3-5Zm-34-42h2l-1-1a1 1 0 0 0-1 1Zm3-1c1 0 2 0 1-1a1 1 0 0 0-1 1Zm1-6h1-1Zm2 3v1l1-2-1 1Zm2 11c2-1 0-2-1-1a3 3 0 0 0 1 1Zm3-11-3-1 3 1Zm4 10 2-2c-2-1-1-5-3-5v1l-1-2c-2 1-2-1-3-1a18 18 0 0 0 0 3h3-1l1 2c-2 1-4-1-5 1 1 1 3-1 3 1l1-2a4 4 0 0 1 3 1l-2 1 2 1 1-2-2 2Zm-1 4v-2c0 1-2 2 0 2Zm3 5v-1h-2a3 3 0 0 1 2 1Zm0-8a1 1 0 0 0-2 1l2-1Zm1 9h-2 2Zm-2-11 1 2 1-1h-2Zm7-17c-1-1-3 1-3 1 1 0 3 1 3-1Zm3 4v1l3-1-1-1-3 1Zm2 8h1c-1-1-1-2-2-1l1 1Zm4-1a2 2 0 0 0 0-2h-1l-1 1a1 1 0 0 1 0 2c-1 0-3 0-2 2 1-1 1 0 2 1v-2c1-1 4-1 5-3l-3 1Zm-3-4c0-2 1 0 1-1l-1-1-1 2Zm0 24 2 1 1-2c-1 0-3-1-3 1Zm4 9v-2c-2 0-2 3 0 2Zm2 0-3 1h2a1 1 0 0 0 1 0Zm3 4-2-2c0 1 1 3 2 2Zm1-6 1-1-1 1Zm5-14v-3c-1 1-2 3 0 3Zm0 0-1 1 2 1a1 1 0 0 1 1-1 2 2 0 0 0-2-1Zm4 5v-1c-2 1-3-1-4-1v1l4 2h-1l4 2v-3h-3Zm-2-12 1 1-1 2 1-2-1-1Zm0 6h1l-1-1a1 1 0 0 1 0 1Zm0 2a1 1 0 0 0 0 2l2-1-1-1h-1Zm7-5-4 1v-2l-1 2a2 2 0 0 1 0-1l-1 2 3-1s4 1 3-1Zm-1 2-3 1c1 1 3 0 3-1Zm-1 8a2 2 0 0 0 1-1v1Zm0-2c1 1 3-2 2-3-1 1 0 2-2 3ZM1105 1242c-3-1-4-5-6-4l-4-5-1-5-1-2-3-7-9-12c-1 0-1 3-2 2-1 2 1 4-2 6-3-4 0-7-2-10v-13c0-3-2-6 1-8 5 5 9 10 14 13l6 4a36 36 0 0 1 5 8l1 6c3 4 8 6 11 9a9 9 0 0 0 2-9l-2-3v-2a56 56 0 0 0-5-6l-2-2c-3-3-3-9-7-9-1 1-2 3-4 3-3-4-1-8-2-12a25 25 0 0 1-1-3l1-5v-5h3c2 2 5 1 7 5l5-1 2 4 1 6 5 4c3 3 5 6 6 10l4 3 1 2c3 1 4-7 8-5 1 5-1 9-2 13l2 2c-2 2-2 9-6 5-3-1-7 1-10-2l-1 7-3 5-2 2-2 5a17 17 0 0 0 1 7c-1 2-1 6-5 6-2-3-1-5-2-7Zm-13-27 1-1-2-1c0 2-1 2-3 2h4Zm1-2 1-1h-2Zm0-7a1 1 0 0 0 1 1v-2l-1 1Zm4 15c-1-1 0-2 1-2 0-2-2-1-3 0a2 2 0 0 0 2 2Zm1 6c1-1 0 0 1 1h2c-1 2-3 1-5 2l1 2h3c0-1-2-1-1-2 2-1 5-1 7-3l-5 1 2-2c-1 0-2 0-1-1l-1 1h-1a6 6 0 0 1 0 1l-2-1v1Zm-1 2a2 2 0 0 0 1 0l-1-2-1 2Zm1-6c1-2 1 0 2-1l-1-1-1 2Zm11 2-3 2a16 16 0 0 0 4-3l-1 1Zm21-8h-2 2ZM1089 1267h-7a5 5 0 0 1-2-2c-4-1-8-2-13 1-5-1-4 5-7 6-3-2-1-5-3-8-4-8-12-17-16-23l-3 3c-2-2-1-5 0-8 2-6 4-14 9-20l1-4c-1-2-1-5 1-6a8 8 0 0 1 2 2h3c2 5 6 3 9 6l7-3c2 4 1 6 2 9l5 4c2 2 0 7 3 10 2 2 4-1 7 0 1 1-1 3-1 4-3 5-6 10-6 15l5 1 4-4 4-5c7 8 3 15 4 23a16 16 0 0 0-2 3c2 3 0 5 2 8v1l-2 1c-2-4-1-9-6-14Zm-42-39c-3 0 0 3 1 1Zm0 9v-2 2Zm0 1h1-1Zm0-14h1l-1 1Zm2 3v1a1 1 0 0 0 1-1h-1Zm0 13a2 2 0 0 1 0 1 1 1 0 0 0 1-1h-1Zm12-12c-2 0-3 0-4-2h-5l-1 1 2 7c1 2 3 2 3 4l6 3-1 3c1 2 4 3 5 6a29 29 0 0 1 10 3l-6-12c-2-5-6-8-9-13Zm-7-9a2 2 0 0 0 1-2l-1 2Zm1 1 1 1c-1-1 0-1 1-1-1-2-3-1-2 0Zm2 22c0-2-2 0-1 0Zm-1-21 2 3h-1a3 3 0 0 0 2 1c0-1-1-2 1-2a15 15 0 0 0-4-2Zm6 3-1-1c1 1-1 1-1 2h6a2 2 0 0 0 1-1c-1-1-5 1-4-2l-1 2Zm-1-4v3c-1-1 1-1 1-2 0 0 0-2-1-1Zm2-2c-1-1-2 0-1 1l1-1Zm0 7c0 1 2 2 2 0a2 2 0 0 0-2 0Zm0-6c1-1 3-1 2-3l-2 3Zm2 9-1 2 2-2h-1Zm4-15-1 1v1l1-1a1 1 0 0 1 0-1Zm0 8 1 1-2 1h3l-1-1 1 1v-1s-1-2-2-1Zm0 9a1 1 0 1 0 0-1v1Zm7 1-1 1v1c-1 1-3 2-3 0-2 2-3 1-3 4h2c2 0 1-2 2-2l1 1v-1c1-1 4-1 3-2a1 1 0 0 1-1 0v-2Zm-5-5 2 2c0-1 0-2 1-1v-1h-3Zm2 2c-1 1-3-1-2 1 1-1 2 1 2-1Zm-1 6 1-2-1 2Zm2-5h1v-1l-1 1Zm3 11c1 1 2 0 1-1a2 2 0 0 0-1 1Zm2 20 1 1a8 8 0 0 0 3-2c-1 0-3-2-4 1Zm3 5h4l-3-3c1 1 0 2-1 3Zm2-6h2a6 6 0 0 0-1-3 21 21 0 0 1-1 3Zm3 2s0-1 0 0l1-2h1l1 1c2-1 2-2 1-3-2 2-4 0-5 2Zm2 3a2 2 0 0 0-1 1l2 1 1-1-2-1Zm1 3 1 1v-2l-1 1Zm2-2c1 1 2-1 1-2-1 1-2 1-1 2Zm2-13h-2 2Zm1 14-2 2c0-1 3 0 2-2Zm-2-10 1 1a3 3 0 0 0 2-1c-1-2-2-1-3 0Zm3 3-2-1a1 1 0 0 0 2 1ZM1022 1268c-2-7-6-14-11-17-1 1-2 3-4 3l-1-5 2-2 2-8 4-5c1-3 0-6 2-8 4 0 3 4 4 7l3 2 3 7 3 3c0 5 5 7 7 10 1 4-1 9 3 13 1-1 4-5 7-5 2 4-2 8-1 13l-2 2 1 3c-3 5-9 3-13 5-3-6-3-14-9-18Zm-12-18-1 1 1-1Zm-1-4 2-1s0-2-1-1a3 3 0 0 0-1 2Zm5 6c-1-2 3-2 3-1h1c0-1-2 0-1-1l3-1c2 0 4 0 3-2h-2c1-2-1 0-2-2a25 25 0 0 0 3-1c0-2-1 0-2 0a1 1 0 0 1 1-2 1 1 0 0 0 1 1l-2-1c1-2 4-2 3-4l-2 2-3-2a2 2 0 0 0 0-1l-5 1c1 1 5-1 5 2l-1-1v2h-5v2h3a1 1 0 0 1 1-1 4 4 0 0 1 1 0 3 3 0 0 0 0 1h1v1l-2-1c2 2 0 3 2 4 0-1 0-2 1-1h1v1l-6 1a1 1 0 0 1 0 1h1l-3 1 2 2Zm-2-4a2 2 0 0 0 1 2 2 2 0 0 0 1-1l-2-1Zm3-4 1 1-1-2v1Zm1-12-1 2c1-1 1-2 2-1l-1-1Zm1 4 1-1-1 2c2 0 3-5 0-4a7 7 0 0 0 0 2Zm1 9 1-1-1 2v-1Zm4 0h2-2Zm3-2a2 2 0 0 0-1 1l1 2-1 1h1l2-2c-1-1-2 0-2-2Zm0 8c1-1 4-2 3-4a4 4 0 0 0-2 4Zm1 18v1a1 1 0 0 0 1-2Zm2 4 1-1-2-1Zm1 2v1a2 2 0 0 0 1-1h-1Zm6 4-2-1v1c2 1-3 2-2 4 1-1 3-2 4-1-2-1 1 3 1 1v-1a2 2 0 0 0 1 1c1 0 3 1 3-1-1 1-1 0-1-1l-2 1v-2l2 1-5-1 1-1Zm-1-8-1 2-2-1 2 2 2-1a3 3 0 0 1-1-2Zm0 3-2 1c1 1 1 2 3 2-1-1 0-1 1-2l-1-1Zm2 5c1-1 2-1 1-3l-1 3Zm6 23c-1-2-4-3-5-6l-1-5c3-3 4-5 8-7l4 2 1 2c4 2 7 9 2 12v5c-3-1-5-4-9-3Zm-3-28c0-1-2-2-2 0h3Zm2-3h1v-1h-2v2-1c-1 0-2 1-1 2 1-2 4 0 2 1 0 2 1 0 1 1h1a7 7 0 0 0-1-1l2-1c-1-2-2-1-3-2Zm-2 19v2c1 0 3 0 2-1l-2-1Zm0-13 1 1 2-1c-1-1-1-2-2 0Zm1 12c1 0 2-1 1-2l-1 2Zm1 7h2-2Zm0-3h2a2 2 0 0 0-1-2l-1 2Zm1-4-1 1a1 1 0 0 1 1 1h2v-1l-2-1Zm1 7h2l-1-1-1 1Zm6-6c0 2-1 3-3 3v3c1 0 1-3 3-2v-1l1-1 1 1a2 2 0 0 0-1 1h2l-3-4Zm-2 1-1 1h2l-1-1Zm-1 5c1-1 1 0 1 1l1-1v-1s-2 0-1 1Zm5-1v-1l-1 1h1ZM1012 1319c1-4 0-8-3-13l-1-1-5-11c-6 4-6 10-7 16h-4a12 12 0 0 0-1-4l-7-5c-4-3-6-5-2-8-3-7 4-11 7-16l-4 3c-7 2-7 9-13 8l-3-13c0-3 0-6-3-7-3 0-2 3-4 3-2-2 0-4-1-6l6-8v-3l2-2-2-5a5 5 0 0 1 3-2c2 1 3 6 5 7 1 4 5 6 6 9v4c1 3 4 5 5 9a27 27 0 0 1 7-1l-2-7-4-5c-1-1-1 1-2 1-3-4 0-6-1-9 0-4-3-5-3-9 2-1 3-1 3 1 5 1 9 5 15 2 2 1 2 2 2 5l3 9h2l1 4 3 1 4 5v10l2 3c1 3 0 5 2 8l-1 3 6 5c3-1 10 1 6 5l1 2c-1 2-4 1-4 4h-3c-3 4-7 8-8 13-3 1-2 4-5 5-3-3 1-6 2-10Zm-37-55a3 3 0 0 0 2-2 2 2 0 0 1-1-2 3 3 0 0 1-2 2v2l-6 1 1-2c-2 0-1 1-2 2v-1c-4 1-2 2-2 2l-1 1c2-1 4-1 4 1a3 3 0 0 0 2-2l2 2v-1l-1-1 8-1c-1-1 1-1 1-1h-5Zm-6 0a3 3 0 0 0 2 0v-2a2 2 0 0 0-2 2Zm1-11a2 2 0 0 0 1 2c1-2 2-2 3-1l-1-2-3 1Zm2 8v2a1 1 0 0 0 1-2h-1Zm1-4h2c1-1 0-1-1-2l-1 2Zm14 40-1 2v-2l-1 1c0 1 2 1 1 2l2-1 1-1-2-1Zm3-40-1-1-3 1c1 0 1 0 0 0l3 4c1-1 0-2-1-3a3 3 0 0 0 2-1Zm-1 45a1 1 0 0 0-2-2l2 2Zm2 2a1 1 0 0 0-2-2l2 2Zm6-4-2-2v-1l-1 1-1-1-1 3c-1-2-3-1-2 0 2 0 3-2 5-1v1h2Zm-5-9c1 3 0 4-1 6l3-2-2-4Zm1-36h-2 2Zm-1 30a6 6 0 0 1 3 6c1 1 4 2 6 0-3-3-4-11-8-14l-1 8Zm0 22 1 1h1c0-1-1-2-2-1Zm4-5a1 1 0 0 0-2-1l2 1Zm9-6 1 2a3 3 0 0 0 1-1l-2-1Zm4 7a2 2 0 0 0 3 2v-1l-3-1Zm4 20v-21l1 1 1-1Zm0 3c1 1 3 1 3-1 0-20-1-21-2-20Zm1 4 2-1v-1c0-20-1-19-1-18Zm4 4c-1 0-3 0-3 2 3-1 5-2 4-4v-19Zm2-9-1 2c0-1-1-2-2-1 0 1 3 1 2 2l2-1v-22Zm0-2h-2c1-20 2-20 3-20Zm1 7a3 3 0 0 0 3-1v-2c-1 1-6 1-6 3 1-1 1 2 3 2v-1c2-21-1-21 0-22Zm1-5c0 2 2 0 2-1l-1-20Zm4 1v-1l-2 2h3c1-22 0-21-1-22Zm-1-2 1-1c0-1-1-2-2-1l2-19ZM949 1322c0-2-2-1-2-3h-3l-2-2h-4c-2 0-4 3-6 1l2-4c2-3 0-13-5-13l-3-12h-3c-1 1 1 5-3 5-2-4-1-7 0-10l-1-4c6-1 3-8 5-12 5 1 8 7 12 10 2-6 9-9 6-17l3-1v-4c2 0 3 2 5 4l4 5 4 11c1 2 3 2 3 4l1 6 4 4h5c0 3-3 4-4 6a41 41 0 0 0-3 6c-2 3-4 5-4 9l-7 10c-3 1-2 4-5 5-1-2 1-2 1-4Zm-23-39c2 0 1-1 2-2l-2-1-2-2v-1l-1 3h2l-1 2c-1 0-2-2-3-1l1 2 2-1a9 9 0 0 0 1 1h-1v2c1-1 1-2 2-1l-1 2c1-2 1-1 3-2 0-1-2 1-2-1Zm-3 2c0-1-2 0-1 1Zm1-11v2l1-1-1-1Zm2 2a1 1 0 0 1-1 0v2l1-1v-1Zm0 11 1-1h-1v1Zm2-14-1 1h-1 4l-2-1s1 0 0 0Zm2 6-1 1 2-1-1-2a1 1 0 0 1-1 1l1 1Zm-1-4c1 1-1 2 1 3l1-2-2-1Zm8 13h2v-1c-1-1-2-1-2-3l-1 1 1 1-2-1c-1 1-1 2-1 0-2 0-1 2-2 3l-2-1c2 1 0 2 0 3l1-1 2-2 1 2 2-2 1 1Zm-5-8h-2v2l1-1c1 1 1 0 1-1Zm0 3 1 2c0-1 2-1 1-3l-2 1Zm1 9h1c1-1 1 0 1 1l3-1-2-1c-2 2-3-2-4-1 1 1 2 1 1 2Zm1 10 1-2c-1-1-1 0-2 1l2 3 1-1-2-1Zm1 14c3-1 6-3 8-2l1-1c1-2-1-2-1-3h2c0-3-5-3-4 1-1-1-2 0-1 1 1-2 2-2 3 0-2 2-7 2-8 4Zm0-17h2a2 2 0 0 0-2 0Zm1 7a2 2 0 0 0 1 1l1-1h-2Zm2-2 1-1-2-1 1 2Zm10 0c2 1 4 4 6 4h1c0-2 3-3 3-5l-4-1c-4-4-4-11-6-17 2-4-3-6-5-9-3 1-4 3-5 5 1 5 5 8 6 14a17 17 0 0 1 4 9Zm-9-2 1-1h-1v1Zm1-28h2l-1-1-1 1Zm0 19 1 1v-2l-1 1Zm1 10 1-1c0-1-2 0-1 1Zm1-30 1-1v-1l-1 1Zm1-2 2-1 3 1c0-1 2 1 1-1 0 0-4 0-3-1-2-1-3 1-3 1Zm0 31a2 2 0 0 0 0 1 2 2 0 0 0 2 0c0-2-1-2-2-1Zm1-34h2l-2-2v2Zm1 7 2-1c-1-1-1 0-2 1Zm1 42v-2 2Zm2-10h-2a2 2 0 0 0 2 0Zm2 9a3 3 0 0 0-2-1 3 3 0 0 0 2 1Zm-2-8h1v-1a1 1 0 0 0-1 1Zm0 5 1 1a2 2 0 0 0 1-1s-1-2-2-1Zm6-35-1 1v1h-2l-3-1a11 11 0 0 1 2 3c1-1 1-2 2-1v-1h4l-2-1v-1Zm-2-13h-2 2Zm-1 5h-1l2 1v-2l-2 1h1Zm0 18v3l1-1-1-2Zm1-13 3-1-2-1-1 2Zm0 20 2-2c-1 0-2 0-2 2Zm3-19c-1 0-1-2-2 0h2Zm0 24c1-1 0-1-1-1a2 2 0 0 0 1 1Zm1-15a5 5 0 0 1-1 4l2-1-1-3Zm3 6c-1-1-2-1-1-2l-2 1v-1l-1 2c2-2 5 4 7 0h-3Zm-3 9a3 3 0 0 0 1-1c0-1-2 0-1 1Zm1 7v1l1-1-1 1v-1Zm1-13c1 2 0 4-1 4l3-1c-2-1-1-3-2-3Zm1-1a2 2 0 0 0-2-1l2 1Zm7-2h-3c1 0 3 2 3 0Z"/><path d="M906 1332c-1-1-3-3-3-5a10 10 0 0 0 6-4l-2-4v-4c0-3-4-3-5-5l2-5a50 50 0 0 0-3-10h-6l-3 4c0 1 0 4-3 4-1-5 4-7 1-11 2-4 6-7 6-13l2-2a7 7 0 0 1 1-5c2 0 2 1 3 2a21 21 0 0 1 12 0 6 6 0 0 1 5 0l-1 11a25 25 0 0 1 1 7v6c1 3 6 5 3 9a51 51 0 0 1 2 12l7-4 2 8a18 18 0 0 0-5 2c-1 3-3 6 0 8 0 3-1 6-4 6l-4 13c-4 3-4-2-4-5 0-4-1-11-3-16-2-1-5 0-7 1Zm-3-43c2-1 1-2 1-2a3 3 0 0 1-2 0v2c-2 0-5 1-4-1l-1 1a2 2 0 0 1 0-1c-3 0-2 3-4 2 0 1-2 1-1 3 1-1 1-2 3-2l1 1c2 0 2-1 3-2l1 1 1-1c1-1 4 1 5-1h-3Zm-4-1h1v-1a1 1 0 0 0-1 1Zm1-11 1-1-1 1Zm3 3-3 1 1 1 2-1v1l1-1-1-1Zm-1 4c1-1 2 1 2-1a1 1 0 0 0-2 1Zm7 5-2 1 2-1Zm5-4h-2l1 2-1 1c1 1 1 0 2-1v-2Zm5 45c-3 0-3 2-2 3a8 8 0 0 1 4-1 17 17 0 0 0-2-2Zm-1 16a1 1 0 0 0 2-1c-1-1-2 0-2 1Zm2-22c1 2 3 2 3 1l-3-1Zm4 9c0 1 0 2 1 1v-2l-1 1Z"/><path d="M872 1345c-2-2-3-5-6-6a9 9 0 0 0-5-4c1-3-2-4-2-7s4-5 5-8l1-5a14 14 0 0 1 3-4c2-1 2-3 5-4 0-2-3-1-3-2l-1-5c-2-3-6-1-9 1-1 2-2 4-4 4-2-4 2-6 3-8a21 21 0 0 1 3-3l3-3 4-5c1-1 0-3 2-4 2 0 3 5 6 4l1 3 9 8 2 8c0 2-2 5 0 7l7 2c1 3-3 4-3 7-5 2-6 7-9 11l1 2c-3 2-7 4-7 9-4 0-2 7-7 6l1-4Zm-9-19h-2 2Zm-1 3 1 1v-2l-1 1Zm6 6-1 1v-2c-1 0-2-1-1-2h-2c1 2-1 1-1 3 2 0 3-1 3 1h-1c1 2 4 4 4 1l-1-2Zm-3-5a13 13 0 0 0 1 1l1-1c0-2-2 0-2 0Zm1-1 1-1a5 5 0 0 0 0-2c-1 1-2 1-2 3Zm1 2a2 2 0 0 1 0 2c1-1 2 0 2-2h-2Zm3 7 1-1s-2 0-1 1Zm7-11c0-1 2-1 1-3l-4-14c-2 0-3 1-3 3 2 4-1 6-1 10 4 2 3 9 8 10a5 5 0 0 1 1-3c0-1-2-1-2-3Zm-4 6a3 3 0 0 1-2 3c1 1 2 0 3-1h-1v-2Zm-1 5h1-1Zm2-7-2-1c0 2 1 2 2 1Zm9-1-2-1 2 1ZM841 1304a30 30 0 0 0-12-5 1 1 0 0 0-1-1c0-6 5-9 5-15 3-1 4 3 8 2 0 3 2 2 4 3 1 3 3 4 3 8l-4 4 1 3c-1 0-3 1-2 3h-1l-1-2Z"/><path d="M833 1374a30 30 0 0 0-3-4c-3 1-7-2-10-1-2 0-3 2-4 3h-2l-5 3-8-2c-2 0-3 3-5 3 0-7-4-11-8-14-1-1 0-1 1-2-3 1-2 3-3 5-1 3-4 8-9 9a27 27 0 0 1-11-1l-2-1c-4-1-7 2-8 5-2 0-3 2-4 3l-5 1c-1 0-4 3-5 2s1-3 2-3c3-6 9-11 8-20 0-2 2-2 1-5a16 16 0 0 0 1-3c-2-5 2-10 1-16l-2-3v-8l-2-2-1-8c-3 1-2 6-6 5-1-2 0-3 1-4 0-7 4-9 7-13s4-7 5-11c2-1 4 0 5 1-1 5 2 7 2 11 3 1 4 5 4 9 3 0 4-3 7-4l5-6 4-3 4-5 3-1 4-2c2 0 2 1 3 2l-5 5c2 2 5 0 7 1 2 0 4 3 7 3 2-1 3-4 7-3v-5l3-1a9 9 0 0 0-5-4l-4-6c-4 0-10 0-12 3-4-3-9 0-13 3l-8 5c-1-3 3-5 5-6a98 98 0 0 1 21-12l2-2c4 1 7 1 9 3 2 1 3 4 4 6 2 2 5 3 6 6l6 2-4 4c0 3-2 4-3 6v4l-5 6-7 1c-2 1-3 4-5 4l-2 1-6 2a4 4 0 0 1-3-2c-4 2-9 0-12-3a15 15 0 0 1-5 1c-1 3 1 5 2 8l-1 5 1 9c0 4-4 8 0 12-2 3-1 7-2 11-3-2-2-8-1-10l-1-4c-1-3 1-6 1-10l-1-5 1-7c0-3-3-6-2-9l-4 1c0 3 2 4 3 5v10l-2 9 1 9v6l3 2c1 2 1 5 3 5 3 0 5-3 7-5-1-2-2-4-1-7l1-4-1-4v-13c5-1 9-2 11-5l8-1c2 0 5-3 8-3 4 0 6 4 8 8a6 6 0 0 0 0 4l-4 7-2 4c-3-2 1-6 0-10 0-2-3-2-5-3a9 9 0 0 0-5 4 15 15 0 0 0-4 1v14c1 2 4 2 4 5h4l4-2 5 1c1 0 0-2 2-2l3 1h4c3 1 8 5 9 8l-1 6 3 3a21 21 0 0 1 2 7l-2 1-2-4Zm-85 4 3-1c-2 0-2-1-3 1Zm5-3c1-1 0-1-1-1l-1 1v-1a2 2 0 0 0-2 1c2 0 4 0 3 1l1 1-1-2h1Zm-1-5-1 2 2-1c-1 1 0-1-1-1Zm6-21-2-1c1 0 1 2 2 1Zm3 3v-3a10 10 0 0 1-2-3 3 3 0 0 0-1 1 2 2 0 0 1 2 2c-1-1-1 0-2 1l1 1h-1 1-1c0 2 2 0 3 1Zm-2-8c0 2 2 1 2 0Zm8 12h3c-2 0 0-1 0-2h-1c0 2-3 1-3 0h-2l-2 1-1 1 3-1 1 2c0-2 2-1 2-1Zm-5-6a10 10 0 0 0 2-1c-1-1-2 0-2 1Zm4-4-2-2c-1 1 2 3 2 2Zm0-38-1-2-1 3 2-1Zm10 4 1-2-1 2Zm3 1-1 1 2-1h-1Zm4 51v-2c-1 0-2 2 0 2Zm4-59c-1 0 2-2 0-3v3Zm1 0h1-2Zm2-6c1-1-1 0-1-1l-1 1 1 1 1-1Zm-1 6a3 3 0 0 0 2 0 2 2 0 0 0-1-2l-1 2Zm3 12v-1h-2v-1l2 2Zm-1-4s2 2 2 0h-2Zm3-3 1 1 1-1Zm2 4h1v-1s-2 0-1 1Zm1 39h1c0-2-1-1-1 0Zm2-43a1 1 0 0 0-2 1h2v-1Zm-2 9c1-1 2-1 1-2a1 1 0 0 0-1 2Zm1-37s2 1 2-1c-1 0-2-1-2 1Zm1 19c0 2 2 2 3 1l-3-1Zm3 13v3a2 2 0 0 0 2-1l-2-2Zm1-5 2 1c-1-1 1-2-1-2l-1 1Zm2-30v1h1l-1-1Zm4 31-2-1 2 1Zm5-4-2-1h1c-1-2 2-2 1-4a3 3 0 0 0-4 3l-2 1h3l-4 1 1 1c2-2 4 1 6-1Zm-4 3 2 1-2-3-1 2Zm2-24-1-1c-1 1 0 1 1 1Zm-1 25h2-3Zm1-2v1a2 2 0 0 0 2 0c0-1-1-2-2-1Zm2-21-1 2 3-1a4 4 0 0 1-3-1Zm-1-1h2v-1c-1 0-2-1-2 1Zm2 17 2-1c0-1-3-1-2 1Zm5-4c0-1 1-2-1-3l-1 4h-2l1 1 4-1-2-1Zm-3-10h3a1 1 0 0 0-1-1l-2 1Zm4 4 1 2-2-4h1v-1c-2 0-1 2-2 2v-2l-2 1v1a3 3 0 0 1 3 1l-1 1c0 3 2 1 3 2 0-1-2-1-2-3a2 2 0 0 0 1 0Zm-1 10-2-1 2 1Z"/><path d="m717 1353-4-1c-2-1-3-3-5-3h-8c0-3 2-3 3-5-1-6 3-12 2-20l-2-5 9-10c4-1 5-4 9-5l1 1 4-3c2-2 3-7 7-7l2 8 4 6c1 2 4 4 4 6l-2 7v10l3 1 1 5c-8 2-11 9-16 13l-2 1c-3 1-4 4-6 6h-2a32 32 0 0 0-2-5Zm-3-41 2-1-2 1Zm13 11c-5-2 2-14-6-14-2 0-5 3-5 5s2 4 1 7c4 1 3 9 2 13l1 7 7 1a111 111 0 0 0 1-14 7 7 0 0 1-1-5Zm-11-14a2 2 0 0 1 1 0c1 0 2 0 1-1l-2 1Zm1 27h1l-1-2a1 1 0 0 0 0 2Zm6-28 1 1 1-2h-1c1 1-1 0-1 1Zm4 1h-2 2Zm2 0c-1 0-1-2-2-1l2 1Zm-1-3h6c0-2-1-1-2-1a3 3 0 0 1 1-1 2 2 0 0 1 1 0c0-3-1-5-3-6v2h-1c0 1 2 2 1 3h-2l-1-1v2c1 1 3-1 3 1h-2l-1-1a2 2 0 0 0 0 2Zm2 1-1 1 3 1-2-2Zm1 3h2-2Zm1-3v2l2-1-2-1Zm4 7h-2c0 2 1 1 2 0Zm6 3c1-2-3-6-4-3 2 0 1 3 4 3ZM670 1347l-5-1c-2 1-3 4-6 3l4-8a55 55 0 0 0 10-8l1-4c3 0 2 3 3 5l2 2c1-6 2-12-1-15-1-5 2-9-1-12-5-1-7 1-9 2-1 2-2 4-4 3 0-5 4-7 5-11 5-4 13-5 17-9 1-2 1-3 3-3 2 1 1 4 1 6l4 2-1 4 4 1c1 2 1 7-1 8a25 25 0 0 1 0 6c-1 2 1 1 1 3s-2 2-2 3a54 54 0 0 1-2 8c3 1 6 1 6 3 0 4-5 2-7 5-5 0-7 3-11 6s-7 4-8 8c-2 0-3 2-5 3h-2c0-4 4-5 4-10Zm10-27h-1l2 3v-1l-1-2Zm2-2h-2l1 1h1v-1Zm-1 7v-2 2Zm9 8 1-1h-1l-1 1-3-2-1-1c-1 1-3 2-3 0l-1 2h3v2l3-1v1l1-1c1 0 3 2 4 1l-2-1Zm-9-13h2-2Zm0-3c2 1 2 0 2-1l-2 1Zm5 7-1-2c0 2-2 1-1 2h2Zm1-6-1 1-1-1s-1 0 0 0c2 0 2 4 4 3l-2-1-1-1a2 2 0 0 0 1-1Zm0 3c-1 0-1-2-2 0h2Zm-1-4h1v-2l-1 2Zm1-20c-1-1 1-2 1-3-1 1-2 2-1 3Zm3 30h3-3Zm1-5h1-1Z"/><path d="M631 1341v-6a10 10 0 0 0 7-1v-4l2-4c1-3-3-5-2-7 0-2 2-2 3-3a49 49 0 0 0 2-10c-1-2-4-2-5-3l-5 2c-1 1-2 3-4 2 1-5 6-4 5-9 4-3 9-4 12-9l2-1a7 7 0 0 1 4-4l1 3a21 21 0 0 1 11 5 6 6 0 0 1 5 3l-6 9a25 25 0 0 1-2 6l-3 6c-1 3 3 7-1 9a51 51 0 0 1-3 12h7l-2 7a18 18 0 0 0-5 0c-3 2-5 5-3 8-2 2-3 4-7 3l-9 10c-5 1-3-3-1-6 1-4 4-11 3-16 0-2-3-3-6-2Zm17-40 1-2a3 3 0 0 1-2 0l-1 2c-1-1-4-2-2-3h-2a2 2 0 0 1 0-1c-2-1-3 2-4 0l-2 2h4v2l4-1v2l1-1c2 0 4 2 5 1l-2-1Zm-12 58a1 1 0 0 0 1 0h-1Zm8-15c-3-1-4 1-3 3a8 8 0 0 1 3 0 17 17 0 0 0 0-3Zm0-45h1l1-1a1 1 0 0 0-2 1Zm3 50v2l1-2a2 2 0 0 0-1 0Zm0-9c0 2 2 2 3 2l-3-2Zm4-48h-2a2 2 0 0 0 0 2h3l-1-2Zm-2 4c1 0 1 2 2 0a1 1 0 0 0-2 0Zm1-7c1 0 2 0 1-1l-1 1Zm3 15-2-1 2 1Zm6-2-1-1-1 1v2h-1c0 2 1 1 2 1l1-3Z"/><path d="M595 1337c0-2-1-5-3-7a9 9 0 0 0-3-6c2-3 0-5 1-8s6-3 9-5l3-4a14 14 0 0 1 4-2l7-1-2-4 1-4c-1-4-5-4-8-3-2 1-4 2-5 1-1-4 3-4 6-5a21 21 0 0 1 3-2l5-1c2-1 3-3 5-2 2-1 2-4 4-3 2 0 0 5 4 5l-1 4 5 11c-2 3-1 6-2 8s-4 3-3 6c1 2 3 4 6 5-1 4-5 3-6 5-6 0-9 4-13 6v3c-5 0-8 0-11 4-4-1-5 6-9 3l3-4Zm1-10h-1v-2s-2-1 0-2l-1-1c0 2-2 1-2 2 1 1 2 1 2 3-1 1 0 0-1-1 0 2 1 6 3 3v-2Zm-4-8 2 1v-2l-2 1Zm3-2c1-2-1-2-1-1l1 1Zm0 3a13 13 0 0 0 0 2h2c1-2-1-1-2-2Zm1 3a2 2 0 0 1 0 1h2l-2-1Zm0 7h2-2Zm0-10h2a5 5 0 0 0 1-2l-3 2Zm5 7a3 3 0 0 1-3 2l3 1c1-1-1-1-1-1l1-2Zm-3 4h1-1Zm4-5-1-2 1 2Zm6-2c0-2 1-1 2-3l2-14c-2-1-3 0-4 1 0 5-3 6-5 9 2 4-1 10 3 12a5 5 0 0 1 2-2v-3Zm3 4v-1 1ZM494 1320c-1-4-8-6-11-4-2 1-3 5-5 3 2-4 2-7 4-9s6-1 8-4c7 0 12-2 18-4l4-8c-1-1-6-1-8-4h-5c-2 1-6 3-6-1l2-3c0-2 0-4-2-6l2-2-1-1 1-3v-2c4-5 5-11 9-14 3-2 7-2 9-5l10-1 1-1 8 1-1 2c5 3 12 5 16 3l5 2c0 3-2 2-4 3 0 4 2 5 3 8l-1 5c2 1 3 6 6 7l4-2c1-1-1 0-1-1 1-3 5-3 7-5 3-4 1-10-1-14-2-3-7-5-11-8-2-1-2-3-5-4a17 17 0 0 0-8 0c-2 1-5 3-6 0 1-3 6-3 10-3 5 0 9-1 14 2 7 4 11 10 15 15 0 1 0 3 2 4-2 2 0 4-1 7-1 4-6 6-8 11-2-1-3 0-3 1-3 0-5 3-8 2a23 23 0 0 0-2 1h-8l-5-4a34 34 0 0 0-9-3c-2 0-3 2-5 0 0-4 5-4 6-7 1-2-2-4-3-6 0-3 2-7-1-10-6 10-8 22-13 33 3 0 8-2 11 1 1-2 2-4 4-4 2 2 2 5 3 8 3 3 3 8 5 11l-1 4c0 3 4 4 5 6-3 4-8 3-12 4l-2 1c-2 1-4 0-5 2h-4c-4-2-8-2-10 0l-1-1c-6 2-13 0-17 6l-3-2c1-3 4-3 5-7Zm8-42h2v-2a3 3 0 0 1-3 0c-1 3-3-1-4-2l-1 2c2 1 0 1 1 2 1 0-1-1 1-1 2 1 4 4 7 4-1-1-4-2-3-3Zm-4-3 2-1c-1-1-3-1-2 1Zm2 0c1 1 2-1 1-1l-1 1Zm7-3h-3c1 1 2 0 1 1h2v-1Zm2 12-4-2 4 2Zm0-16-3-1a2 2 0 0 0-1 2c2 0 2 1 3 2l1-1a1 1 0 0 1 0-2Zm-1-7a2 2 0 0 0 2 2c1-3-3-3-4-4l2 1Zm3 56a31 31 0 0 0 5 3c4-2 3-7 4-10l3-3c-1-4-4-7-7-9 0-1 1-2-1-2a51 51 0 0 0-6 17l2 4Zm-2-56c2 0 3-2 2-2l-2 2Zm6 29c2-3 2-7 3-11 3-8 8-16 8-22l-4 2c-3 3-3 7-5 10l-5 5v4l2 2c0 3-4 4-4 7 1 2 1 3 4 4Zm-5-28h2a1 1 0 0 0 0-1c-1-1-1 0-2 1Zm7 31 1 1c0-1 2-1 1-2l-2 1Zm10-39c-1 1 1 2 1 1l-1-1Zm3 36-1 3 2-1a2 2 0 0 0-1-2Zm3 10c1-2-1-2-1-3l-2-1-1 1h2v2h2Zm-3-43 2 1a2 2 0 0 1 0-1h-2Zm5 9c-1-1 0-2-2-3a4 4 0 0 0 2 3Zm1-5-1 2a3 3 0 0 0 2 1l-1-3Zm2 9v1h1l-1-1Zm9-12-1 1 2 1c1-1 0-1-1-2Zm7-8h1c0 1 2 3 3 2a14 14 0 0 0-4-3l-1-2h-4l2 1a21 21 0 0 1 3 2Zm7 5 1-2c0-1-2 1-1 2Zm4 0-1-1-1 1 1 2v-2h1Zm0 1v2c0-2 1-1 2-2a1 1 0 0 0-2 0Zm3 20c1-1 1 1 3 1a19 19 0 0 1-1-5l-1 3-3 1c2 0 3 3 4 2l-2-2Zm3-14h-3v2c2 0 2 1 2 2l2-2-1-2Zm-2 6v-2a2 2 0 0 0 0 2Zm3 3c0-1-1-3-3-2v1l1 2c0-2 2-1 2 0v-1Zm-2-3 1 1c1-1 3 0 2-2a2 2 0 0 0-3 1ZM440 1271c3-4 4-8 8-11l5-5a38 38 0 0 0 5-12l1-4c1-2 6-4 7-7 0-3-2-4-5-6 3-4 10-3 14-5l5-3h3l5-2a17 17 0 0 1 3 0l5-1h7l1-2 3 3h5a10 10 0 0 1 3 4c-3 3-4 8-3 12 2 0 5-3 6 1-2 2-4 2-6 2-2 3-5 3-7 4-2 0-3-2-4-3a19 19 0 0 0-1-9c2-3 0-6 3-9-5-2-8 2-12 2l-3 1-10 12c1 2 1 4-1 5l6 1h7c3-2 4-5 7-3v2l2 2c-1 3-2 6-1 9a18 18 0 0 1-3 4l-4 4-3 1c-4 3-4 6-3 11-2 3-5 5-5 8 3 1 8-1 9 4-7 1-15 1-21 5h-2a6 6 0 0 1-1 2l-2-1c2-5 3-10 1-13l4-6c5 0 5-7 2-9 3-6 8-8 10-14l-2-2-1-2c-2-1-7 4-8 7l-1 4-2 4-4 10-3 3v5l-2 2c-1-2-3-1-5-2l-3-1c-3-1-5 2-7 1-2 2-4 3-6 2l4-5Zm11 1 1-3c-1 1-2 2-1 3Zm2-4c1-1 0-2-1-2v2l1-1a1 1 0 0 0 0 1Zm0-2 2-1c0-1-3 0-2 1Zm4 5c-1 1 0 1 1 1l-1-1Zm2-23v-2 2Zm1 12v1l3 1c-1-1-1-3-3-2Zm0-14 1 1v-2a3 3 0 0 1-1 1Zm4-4h1s2 0 1-1l-2 1Zm1-6c2 1 2-1 1-2a3 3 0 0 0-1 2Zm3 40h1v-3h-1l-1 4-1-1v5c1-1 2 0 3-2l-1-2Zm0-32a1 1 0 0 0-1-1l1 2Zm0-2 3 1 4-4h-1l2-2c-2-1 0-1-1-3a19 19 0 0 0-3 1c2 1 3 3 1 4v-1h-1c-2 0 0-3-3-3 0 1 2 2 0 2l2 1a4 4 0 0 1 1 3h-1l-1-2v2s2 0 1 1l-2-1-1 1Zm0 38a2 2 0 0 0 2 1c1-1-1-1-2-1Zm1-37-1 1 1 1v-2Zm1-17v2l1-1a1 1 0 0 0-1-1Zm2 46a6 6 0 0 1-2-1v2a1 1 0 0 1 2 0 2 2 0 0 0 0-1Zm0 2a1 1 0 0 0-2 0l1 1h1v-1Zm-1 6c-1 1 2 1 3 1-1-2-3 0-3-1Zm0-52c0 1 1 2 2 1a1 1 0 0 0-2-1Zm1 43h1l1-1c-1 0-3 0-2 1Zm1 2 1 1v-1a1 1 0 0 1-1 0Zm6 6-2-4 1-1h-2a2 2 0 0 1 1 0h-3c2 0 3 2 2 2 1 0 1 5 3 3Zm-4-49-1 1h2l-1-1Zm1 48-1-2c-1 1 0 3 1 2Zm3-7-1 1c-1 0-3 0-2 1h2l1-2Zm2-15a2 2 0 0 0 1 0v-2h-1a1 1 0 0 1-2 1c-1-1-1-3-3-2v2c1 1 1-1 2-1l4 4-1-2Zm-4-21-1-3 1 3Zm0-8c-1 1 0 2 1 2l-1-2Zm1 25 1 1v-2l-1 1Zm5-1c2 0 0 1 1 2l1-2h-2Zm2-3-1 1 2 1h1c0-2-1-1-2-2Zm3-4c1-1-2-2-2-3l2 3ZM394 1241c0-3 3-5 2-7l3-5 5-3 1-2 5-4 9-12c0-1-3 0-3-2-2 0-3 2-5 0 2-4 6-2 8-5 4 0 7-2 10-3h2c3-1 6-5 9-2l-9 18-1 6a36 36 0 0 1-7 7l-5 4c-3 3-3 8-5 12a9 9 0 0 0 9-1l2-2 2-1a56 56 0 0 0 5-7v-2c3-4 8-6 7-10l-4-3c3-3 8-3 11-5l2-2h6l4-2 1 2c-1 3 0 6-2 9l2 4-3 4-6 3-2 6-8 8-1 5-2 1c0 4 8 2 7 6-4 3-8 2-12 3l-2 2c-2-1-9 1-7-4 0-3-3-6-1-10l-7 2-5-3-2-1h-6a17 17 0 0 0-7 3c-2 0-6 1-6-2 1-3 4-3 6-5Zm12-11-1 1 1 2c-3-1-3-3-4-4l-2 1c2 1 2 2 1 2v1h1s0-2 1-1c2 1 3 5 5 5l-2-4 2 1 1-1-2-1v-1a7 7 0 0 1-1 1l1-2h-1Zm-3-1a2 2 0 0 0 1 1l1-1h-2Zm8 11-3-2a16 16 0 0 0 4 3l-1-1Zm-1-11 1 1 1-1h-2Zm1-2c1-1 2 0 2 1 2-1 0-2-1-3a2 2 0 0 0-1 2Zm4-7 1 1v-2l-2-2c-1 1 2 2 1 3Zm2 0 1 1v-2l-1 1Zm7-1a1 1 0 0 0 0 1h1l-1-1Zm1 38v-1 1ZM365 1233l-2-5a5 5 0 0 1 1-3c-1-4-1-8-6-12 1-5-5-3-7-5 1-3 4-3 7-6 6-6 12-16 17-22-2-1-3 0-4-2 1-3 5-2 7-2 7 0 14-1 22 2h4c2-1 4-3 7-1a8 8 0 0 1-2 3c-1 1 1 1 1 2-4 4-1 7-3 10 2 3 2 4 5 6l-8 5c-2 2 0 4-2 6-2 3-7 2-9 5-1 3 3 4 3 7-1 2-4 1-5 1-5-1-11-3-15-2v6c2 0 3 2 5 3s4 0 6 2c-6 9-13 7-20 10a16 16 0 0 0-4 0c-2 2-5 1-7 4h-1l-2-1c4-4 8-4 12-11Zm0 2-1 2c1-2 1 0 3-1l-2-1Zm0-9c-1 2 0 3 1 4l1-3-2-1Zm2 13-2-2c1 1 1 4 2 2Zm1-6a2 2 0 0 0-2 0v1l1 1 1-2Zm-1 3c0 1 2 2 3 0-1-1-2-2-3 0Zm2-14-1 2a8 8 0 0 0 3 1c0-1 0-3-2-3Zm1 8h2l1 1-1 2h3c-2-1-2-4-4-4Zm1-4c-1 1 0 2 1 2a6 6 0 0 0 2-1 22 22 0 0 1-3-1Zm22-31 1-4-1-5h-2c-1 0-5 2-6 4-1 1-1 3-3 3l-1 7h-3c-1 2-2 5-4 6a28 28 0 0 1 0 11l10-9c3-4 5-9 9-13Zm-18 43c1 0 1-2-1-2a1 1 0 0 0 1 2Zm2-4c-2 0 0 1-1 2a3 3 0 0 0 2 1c1-1 0-2-1-3Zm1-47a2 2 0 0 1-1 1 1 1 0 0 0 1 1v-2Zm1 9c1-1-1-2-1-1Zm0-11v1h1c1-1 0-2-1-1Zm1 50c2-1 1-3 0-3v2Zm0-50c1-2 1 0 2-1h-2Zm7 29c-1 1 0 2 1 1a2 2 0 0 0-1-1Zm2-32c-1-3-4 0-1 1Zm6 29-1-2-2 1-1-3c-1-1-1-3-4-1v1c1 2 2 1 3 2v1h1l2 2a1 1 0 0 1 0-1c1 1 1 0 2-1Zm-5-28v1a1 1 0 0 0 1 0l-1-1Zm1 25h2-2Zm1-28c-1 1 0 2 1 2l-1-2Zm3 19c-2 1-2 0-3-1l3 2v-1Zm-2 4a1 1 0 1 0 1 0h-1Zm5-14-2 2v-1a3 3 0 0 0-1 2h2a15 15 0 0 0 1-3Zm-1 17c-2 0 0-2-2-1 1 0 0 2 2 1Zm1-11v-1c-1 1-2-1-2-1 1 2 2 4 1 6a2 2 0 0 0 2 1c1-2-3-5 0-4l-1-1Zm-2 1 1 2a2 2 0 0 0-1-2Zm0 12 1 1v-1h-1Zm2-5-1 3c0 1 2 0 1 1h1l-1-4Zm2-11c0 2-2 0-2 2h2v-2Zm-2-5 1 1v1c2-1 0-3-1-2Zm1-1a2 2 0 0 0 3 0h-3Zm3 15-1 1-1-2 1 3 1-1-1 1h1v-2Zm2-8h-2l2 1Zm-1 1c0 1 1 3 2 1l-2-1Zm6 4-1-1-1 1 2 1a1 1 0 0 1 0-1ZM317 1201l4-8c1-1 4 0 5-2 3 2 6 2 9 5l-1 5-2 1c0 5-7 10-10 6-2 0-3 2-5 1-1-3 2-5 0-8Zm6-4c-2 1-1 2 0 2v-2Zm0 2 1 2v-1l-1-1Zm1 3v2l1-1-1-1Zm6 1c-1 1-2 0-3-2h-3c1 2 3 1 3 3h1l1 1-1 1a2 2 0 0 0-1 0v1c2 0 4-3 4-4Zm-5-7 1 2a2 2 0 0 0 1-1l-2-1Zm2-2h-2c1 1 1 3 2 2v-2Zm-1 13 1-1-1-1v2Zm3-5-1-2v2h1Zm0-6-1-1a1 1 0 0 1-1 1l1 2a1 1 0 0 1 1 1v-3Zm0-2 1 1-1-1Zm14-23c6-4 11-10 13-16-2-1-4-1-5-3 2-2 4-1 5-3l3 1h8l6 2c3 0 5-2 8 0 1 3-3 4-5 6l-2 3-5 5-2 4c-4 1-5 7-8 9-3 3-8 2-11 7 2 1 6 2 8 6-5 2-9 1-13 2l-3-1-3 2c-6-1-5-7-8-11 4-4 12-7 14-13Zm-7 15 1-2h-1c-1 3-3-2-4 0l2 3c0-1-3 2-1 2l1-1a2 2 0 0 0-1 1l2 3v-3h1v1-4Zm1 1c1 0 1 2 3 1 0-2-2-2-3-1Zm2-8-2 1a2 2 0 0 0 2 1v-2Zm2 5-2-2-1 3c1-1 2 1 3 1v-2Zm-1 6-1 1c0 1 1 2 2 1 0-1 1-1-1-2Zm0-12 1 1v-2Zm4 5-2-1v-2l-1 3 1 1h1a3 3 0 0 1 1-1Zm-1 6c0-1 1-3-1-3l1 3Zm3 1 1 1v-2h-2l1-1h-3c3 0 2 4 0 2l-1 2 1 1a8 8 0 0 0 1-2l1 2c2-1 0-2 1-3Zm-3-15a1 1 0 0 0 2 1Zm13-21c1-1 0-2-1-2l1 2Zm0 4c1-2 2 2 1 3h1c1 0 0-2 1-1-1 1 1 1 2 2s1 4 3 3l-2-2c2 1 1-1 2-3a25 25 0 0 0 2 3v-2a1 1 0 0 1 1 0 1 1 0 0 0 0 1v-1c2 0 3 2 4 1l-1-1v-3a2 2 0 0 0 1-1l-2-4c-1 1 3 4-1 4l1-1-2 1-1-5-2 2 1 2a1 1 0 0 1 1 0 4 4 0 0 1 0 2 3 3 0 0 0-1 0c1 0 2 0 1 1h-1v-2c-1 2-3 1-3 3 0 0 2 0 1 1-1-1 0 0 0 0l-1 1-2-6a1 1 0 0 1-1 1v1l-2-3-1 3Zm3-3a2 2 0 0 0-1 1 2 2 0 0 0 1 1v-2Zm1-3 1 1s2-1 1-2a3 3 0 0 0-2 1Zm0 16c2 1 3 3 5 2a4 4 0 0 0-5-2Zm4-12-1 2 2-2h-1Zm0 3 1 1h-2l1-1Zm4 6a2 2 0 0 0-2-1l-1 2h-2l1 1c1-1 1 1 2 1 1-1-1-2 2-3Zm-3-2c-2 0-1 2 0 2v-2Zm7-7h1-2c1 2 6 1 3-1a7 7 0 0 0-2 1Zm4-3h-3c1 1 2 0 2 2l1-2ZM291 1177c5 0 8-2 12-7v-1l9-9c-5-4-11-2-17-2l-1-3a12 12 0 0 0 3-2l3-8c2-5 3-8 7-5 6-5 11 1 17 2l-4-2c-3-7-11-4-12-10l12-7c2-2 6-3 5-6-1-2-3-1-3-3s3-1 5-2l9 3 3-1 3 1 4-3a5 5 0 0 1 2 2c0 2-4 4-4 7-4 2-4 6-7 8l-4 2-7 7a27 27 0 0 1 3 7l7-4c1-2 1-5 3-6l-2-2c3-4 6-2 9-3 3-2 4-5 7-6 2 1 2 2 0 4 1 4-2 9 2 14 1 2-1 3-3 4l-8 5v2c-1 2-2 1-3 2s1 2 0 3l-3 6c-3 1-7 1-10 3l-2 3-7 4-3 1a21 21 0 0 0-3 6c2 3 2 10-3 7l-2 2c-2 0-2-3-4-3l-1-2c-5-1-10-5-15-4-2-3-5 0-7-3 2-3 7-1 10-1Zm-3 2 9-25c0 1-2 1-1 2h1v-2Zm2 27c-1-1-2-3-3-2 2 2 2 4 5 3l7-25Zm0-30a1 1 0 0 0 1-2c8-24 7-23 8-22Zm2-2a1 1 0 0 0 0-2c8-25 8-23 9-22Zm3-3h-2l1-1v-1c-1 1 0 2-2 2 1 0 1 2 2 1-1-1 0 1 0 0 9-25 11-24 10-25Zm6 6 1 2 1-1c0-1-1-2-2-1Zm3 6a3 3 0 0 0 1 3l2-1c-1-1-3-5-5-4v3c1 0 0-2 2-1Zm1-27 1-2h1a1 1 0 0 1 0-1h-2l1-1-3-1c2 0 0-2-1-1l3 4v2Zm-2 0a1 1 0 0 0 0-2v2Zm5 25-2-1v-1c-1-1 0 2-2 2l2 1h1l1-1Zm-3-12a2 2 0 0 0 0 3v-3Zm0 6 1 2-1-2Zm6-26c-2 2-3 2-6 1l4 2 2-3Zm-2 37c0 1 0 0 0 0h-2l1 2 1-2Zm-1-13-1 1h2Zm1 10c-2 0 0 2 1 1l-1-1Zm1-3v-2c-2 1-1 1 0 2Zm1-16h-1a3 3 0 0 0 1 1v-1Zm0 21v1l1-2c1 1-1 0-1 1Zm6-38a6 6 0 0 1-5 5c0 1 0 4 3 5 1-3 9-7 10-11l-8 1Zm15-22a3 3 0 0 0 3 1l1-1a3 3 0 0 1-2-2h-3l-2-5h2l-2-1c-1-1 0-1 1-1-2-2-3 0-3 0s0-2-1-1c1 2 2 3 0 5a2 2 0 0 0 2 0c1 1 1 2-1 2l1 1h1v-1c2 1 3 4 4 6l1 1-2-4Zm-2-6a3 3 0 0 0 1 2l2-1a2 2 0 0 0-3-1Zm4 2h-2a1 1 0 0 0 2 1v-1Zm4-1c2 1 0 2 1 3l1-2-2-1Zm6 16v-1l-1-2h-1l-2 4c1 1 1-1 2-1a3 3 0 0 0 2 0Zm-3-19a2 2 0 0 0-1 1c1 1 2 1 1 3l2-2-2-2Zm5 22v-2 2ZM269 1118l2-3-1-2c1-1 0-2 2-3-2-1-1-3-1-4-1-2-4-3-3-5 1-1 2-1 4 1 4 0 12-5 11-9l10-7c0-1-2-2-1-3-2 0-4 2-6-1 4-3 7-4 10-3 0-2 2-2 3-2 3 5 9 0 13 1 1 4-3 9-5 13 6 1 11 7 18 1l1 3c2-1 3-3 4-1s-1 3-2 5l-3 6-10 7-2 4-6 4-2 4c0 1 2 3 1 5-2 1-5-1-7-2a43 43 0 0 0-7-1c-3-1-6-2-10-1-3-1-7-3-11-3-2-3-4-1-6-4h4Zm2-15 4 7c1-1 1 1 1 1 2 0 1-2 2-2l1 2c3-2 1-6-2-4l-1-1c1 1 2 1 1 3-3-1-4-6-6-6Zm2 10h2-2Zm2 4a3 3 0 0 0 0-2 3 3 0 0 0 0 2Zm3-3-1 1a2 2 0 0 0 1 2v-3Zm3-13a1 1 0 1 0 0 1l-1-1Zm1 12v1h1a1 1 0 0 0-1-1Zm2-16 2 1-2-2-2 3c1-1 1 0 1 1l1-3Zm-1 16c1-1 0-3-1-2a2 2 0 0 0 1 2Zm0-11h1v-2c-2 0 0 1-1 2Zm3 9c-1 3-3 5-2 8 2 0 4 2 6 1v-3c2-5 9-7 14-11 4 0 5-6 7-9l-6-3c-5 3-7 9-12 10a17 17 0 0 1-7 7Zm0 10h-2l2 1-1-1h1Zm-1-17 1 1-1-1Zm0-2 1 1v-1h-1Zm1 4a2 2 0 0 0-1 1 2 2 0 0 0 1 2v-3Zm0-8c-1 0 0 2 1 1a2 2 0 0 0-1-1Zm6 19 1-2a2 2 0 0 0-1 2Zm0 1a3 3 0 0 0 1 1c1-1 0-2-1-1Zm1-24v1-1c1 1 0 1-1 2l2 2 1-2c-3-1 0-3-1-4l-1 2Zm0 7v1l2-1h-2Zm5-5v2h2c0-2-1-3 1-4h-1v1c-1-1-2-2 0-2l-1-1-3-1v-2c0 2-2 0-2 0v2l3 1-1 1 2 2-1 1Zm0 22h-3c-2 1 1 1 1 2l2-2Zm-2-36c1-1 0-2-1-1Zm-1 3 1 1v-2Zm4-1c0 2 1 0 2 1l1-3 1-2c0 1 1 0 0 0h-2v2l-1-1-1-3c-1 1 1 2-1 2l1 1a9 9 0 0 0 0 2c-1 1-2-1-1-1l-1 1 1 1-2-1 2 3c1 0-1-1 1-2Zm-3 29h2s-1-2-2 0Zm4 5a2 2 0 0 0 0-2v2Zm1-29-2 2h3l-1-2Zm1 21h-3l1 1 2-1Zm-1 8 2-2-2-1 1-1h-2c3 2-2 6 2 6l-1-2Zm2-29-1-2-1 1h1l1 1Zm3 24a5 5 0 0 1-4 0c1 1 2 0 2 2l2-2Zm-2-27-1-1c-1 1 1 2 2 3-1-2 1-1 1-2a1 1 0 0 1-1-1l-1 1Zm0 39-1-3c0 1-1 3 1 3Zm1-43a1 1 0 0 1 0-1l-1 1c1-1 0 0 1 1Zm1-2h-1l1 1v-1Zm1 4c0 2-2 0-2 2l2 1v-3Zm2-1-1-1-1-1c-1 1 3 3 1 4l1-2Zm3 26-1-1-1 1-1-3v-2a10 10 0 0 1-2 2c1 1 3 1 2 2h1c0 1 0 3 2 4 0-1-2-2-1-3h1Zm-1-14c2 0 0 2 2 2v-2h-2Zm1 5 2 1-2-1Zm2-4v1l1-1h-1Zm1 13c-1 0 1-2-1-1l1 2Zm0-3c1 0 1 3 2 2v-1c-1-1-1-2-2-1Zm1-10 2 2c-2 1 0 2-1 3 1 0 0 3 1 1 0 0-1-4 1-4l-3-2Zm3 7h-1l1 1h2l-2-1Zm0-6v2l1-3c0 1-2 0-1 1Zm5 6v-2 2Z"/><path d="m246 1080 4-4a10 10 0 0 0 6 5c2-1 1-3 3-3l4-2c2-1 1-5 3-6h5a50 50 0 0 0 8-6c1-2-1-4-2-6l-4-1c-1 0-4 1-4-2 3-3 7 1 10-3 4 1 9 4 14 2l3 1a7 7 0 0 1 5 0l-1 3a21 21 0 0 1 4 11 6 6 0 0 1 1 6l-10 2a25 25 0 0 1-7 3l-5 2c-3 2-4 7-8 5a52 52 0 0 1-11 7l6 5-7 3a18 18 0 0 0-4-3c-3-1-6-1-7 3-3 0-5 1-7-2h-13c-4-3 0-4 3-5 4-2 10-5 14-9l-3-6Zm-9 16a1 1 0 0 0 0 1v-1Zm15-4c-1-3-3-2-4-1a8 8 0 0 1 3 3 16 16 0 0 0 1-2Zm-1 5-2 2h3l-1-2Zm7-5c-2 0-1 2 0 2v-2Zm28-28c1 2 2 0 2 0a3 3 0 0 1-1-1h-2c0-2-2-4 0-4l-1-1a2 2 0 0 1 1 0c-1-3-4-1-3-3h-3l3 2-1 1 3 3-1 1h1c1 2 1 5 3 5 0-1-2-2-1-3Zm-1-4 1 1h1a1 1 0 0 0-2-1Zm2 10v-2 2Zm6 3v-2h-1c-1 1 0 2-2 2l-1-1c0 2 1 1 2 2l2-1Zm-3-12c1 1 0 3 2 2a1 1 0 0 0-2-2Zm5 0-2-2-1 1 1 1v1h1l1-1Zm1-4 2 1-2-1Z"/><path d="M223 1052c2-2 3-5 3-8a9 9 0 0 0 3-6c3 0 3-3 6-4s6 2 9 2h6a13 13 0 0 1 4 2l5 3c2-1 0-3 1-4l4-2c3-3 0-6-3-8l-5-2c3-3 6-1 8 0a22 22 0 0 1 4 1l4 3c2 1 5 0 6 2h4c1 2-3 4-1 7l-3 2-5 11-7 4c-2 1-5 0-6 3v7c-3 2-5-1-7 0-4-4-9-4-14-5l-1 1c-4-3-7-5-11-4-2-4-7 1-8-4l4-1Zm8-7h-1l2-1c0-1 0-3 1-2v-1h-3v3l-1-1c-1 1-3 5 1 4l1-2Zm-2 3 1 1c1-1 0-2-1-1Zm1 2v1-2Zm4-1a3 3 0 0 1-3-1c-1 1 1 2 2 3v-1l1-1Zm0-6a2 2 0 0 1-1 0l2 2-1-2Zm1-3a14 14 0 0 0-1 2l2 1c1-1-1-2-1-3Zm-1-3 1 2 1-1-2-1Zm2 12 1-2-1 2Zm6 3 3-1 12-8c-1-2-2-2-4-2-3 3-6 2-9 3-2 4-9 5-8 10a5 5 0 0 1 3 0c2 0 1-2 3-2Zm-6-11 1 1a5 5 0 0 0 2 0c-1-1-1-2-3-1Zm2-3v-2 2Zm3 20v-2 2ZM252 1010a30 30 0 0 0 1-14 1 1 0 0 0 1 0c6-2 10 1 16-1 1 4-2 5 0 9-2 1-1 3-2 5l-6 5c-2-1-3-3-5-3l-2 2c-1-1-2-2-4-1v-1c-1-1 0-1 1-1Z"/><path d="M183 1024a30 30 0 0 0 3-4c-2-3-1-7-2-10l-4-3-1-1c-1-2-3-2-4-5l-1-7c-1-2-4-3-4-5 6-2 9-7 10-12l2 1c-1-3-3-1-5-1-3-1-9-2-11-6a27 27 0 0 1-3-11l1-2c-1-4-4-6-8-6 0-2-2-2-4-3l-3-5c-1-1-3-2-3-4 1-1 3 0 4 1 6 2 12 6 20 2 2 0 4 1 6-1a16 16 0 0 0 4 0c3-3 9-1 14-4l3-2c2-1 5-1 7-3l2-3 7-3c-2-3-7 0-7-4 2-2 3-1 5-1 6-2 9 2 15 3l11 2v4c-5 1-5 4-9 6 0 3-3 5-7 7 0 2 4 2 5 4s6 2 8 3l3 3 7 3 1 2c2 2 4 1 4 3l-1 4-6-3c-2 2 1 4 1 6 1 3-2 6-1 8 2 2 5 2 6 6l4-1 2 2a9 9 0 0 0 2-6l5-5c-2-4-4-10-7-11 2-5-3-9-7-12-2-1-6-3-7-6 3-2 5 1 7 3a99 99 0 0 1 18 16c0 2 2 1 2 2 1 4 2 7 1 9l-4 6-4 7-1 7c-2 0-4-1-5-3h-10c-1 0-6-1-7-3-2-1-2-4-3-5-2-2-5-2-6-4l-2-2-3-5a4 4 0 0 1 1-3c-3-3-3-9-1-12a15 15 0 0 1-3-5c-3 0-4 3-7 4l-5 1c-2 1-5 3-8 3-4 1-9-1-11 4l-11 2c0-3 6-4 9-4l3-3 11-1 4-3 7-1c3-2 4-5 8-5l-2-3c-4 0-4 2-5 4-3-1-5 2-9 3l-9 1-9 4-5 2-1 3c-2 2-4 3-4 5s4 4 6 5c3-2 4-4 7-4h5l3-2c3-2 8-1 13-4 1 5 4 8 7 9l4 7c1 2 5 4 5 7 2 4-2 7-5 10a6 6 0 0 0-4 1l-8-2h-4c1-4 6-1 9-3 2-1 1-4 2-6a8 8 0 0 0-5-4 15 15 0 0 0-3-3c-4 2-10 2-13 5-2 1-1 4-3 4v5l3 3 1 5h3v4l1 4c0 3-2 9-5 11l-5 1-3 4a21 21 0 0 1-6 4l-1-2 3-3Zm-30-79 2 2c-1-2 0-2-2-2Zm4 4 1-2h-1l1-1a2 2 0 0 0-2-1c1 1 1 3-1 3l1 1 1-1v1Zm4-3h-2l1 1c0-1 2 0 1-1Zm16 27h2-2Zm3-17 1 2h1v-1c-2 1-2-3-1-3v-1c-2 0-1-2-2-2l-1-1 1 3-1 1c2 0 1 2 1 2h1Zm1-7c1-2 2 0 3-1a10 10 0 0 1 3-2 3 3 0 0 0-2-1 2 2 0 0 1-1 2l-1-1-1 1c0-1 1-2-1-1l1 1-1-1v3Zm2-4c1 0 2-2 0-2v2Zm1 4a9 9 0 0 0 2 2l-2-2Zm4-4c-1 0 0 2 1 1Zm1 7 1-3-1 3Zm3 31 1 2c1-1 0-2-1-2Zm32-30h-1c0 1 0 2 1 1v-1Zm1-13s2-1 1-2h-3l2 2Zm-1 27h1l-1-1c1-1 2 0 1-1a2 2 0 0 0-1 2Zm0-16h2-2Zm1 22h1a1 1 0 0 0-1 0Zm3-8v2-2Zm2 11-2 1 1 1 1-2Zm-2-6 1 1h1c0-1-1-2-2-1Zm4-2c-1 0-2 0-1 1h1Zm1 4a1 1 0 0 0-1-2v2Zm2-13c-2 0-1 2 0 2v-2Zm0 0c0-1 2 1 2-1-1 0-3 0-2 1Zm0 16v2c0-1 3 1 2-1l-2-1Zm0-14a3 3 0 0 0 1 2 2 2 0 0 0 1-2h-2Zm2 22v2-2Zm-1-2c1 0 2-2 0-2v2Zm1 1 1 2 1-3-2 1Zm3 2h-2a2 2 0 0 0 1 1l1-1Zm2 1v-2l1 1c1-2 1 1 3 0a3 3 0 0 0-4-4l-1-1c-1 1 2 1 1 3l-2-3c-1 0-2 0-1 1 2 0 0 4 3 5Zm-2-25 2-1-2-2-1 2 2 1c-1 0-1 0 0 0Zm1 9v3c0-1 2-2 0-3Zm4 16 1 1c2 0 1-2-1-1Zm1 4v-2a2 2 0 0 0 0 2Zm4-1c1 0 3 0 2-1h-3c1-1 0-2-1-2l-1 1 3 3v-1Zm6-1-1 2 2-3 1 1a3 3 0 0 1 1-1l-2-1h1l-1-2-1 1a3 3 0 0 1 0 2l-1-1c-3 1-1 3-2 4 2 0 0-2 2-2a2 2 0 0 0 1 0Zm3-9h-2l2 3a4 4 0 0 1 0-2Zm-1 5c1 1 2 1 1 2a1 1 0 0 0 1-2h-2Zm2-21c-1 1-1 2 1 2 0-1 1-3-1-2Zm0 16 1 1c-1 0-1 0 0 0-1 0 0 0 0 0v-1Zm1-2 1-2-1 2Zm4-8h-2l1 1 1-1Z"/><path d="m167 908-1-5 2-6c0-2-2-3-2-7 2-1 3 1 5 1 6-3 12 0 19-4l5-4c4 2 7 5 12 6 2 3 6 3 8 7l-1 1 4 3c3 1 7 1 9 4l-7 5-5 5c-1 2-2 6-4 6h-7c-2 2-6 4-10 4v3c-1 1-2 2-5 2-4-7-11-8-17-11l-1-2c-2-2-5-2-8-3v-2a33 33 0 0 0 4-3Zm31 0c1-6 14-3 12-10-1-2-5-4-6-4-3 1-4 3-7 3 0 5-7 6-12 6-1 2-4 2-5 3v8a113 113 0 0 0 14-4 7 7 0 0 1 4-2Zm-15-6v1l1-1a1 1 0 0 0-1 0Zm22-10 1 1c0-1 0-2-1-1Zm5 21-1-2c-2 1-1 2 0 3l1-1Zm-2-20a2 2 0 0 1 0 1h2l-2-1Zm1 26c2 1 4-3 2-4 0 2-3 2-2 4Zm2-16v-2 2Zm0-4v1l2 1v-1c-1 1-1-1-2-1Zm1 8c-1 0-1 3 1 2l-1-2Zm0-2c0-1 2-2 1-3l-1 3Zm3 0h-2c0 1-1 3 1 3l1-3Zm0 3h-1l1 2v-2Zm0-5c2 2 1 4 2 6 2 0 0-2 0-2a3 3 0 0 1 1 0 2 2 0 0 1 0 1c3-1 5-2 5-4h-2v-1c-1 0-1 2-3 2v-1l1-2-2 1c-1 0 2 2 0 3l-1-2v-1a2 2 0 0 0-1 0ZM158 860c0-1-2-3-1-4-1-2-5-2-4-5 3-1 5 2 8 1a55 55 0 0 0 11 8c2-1 4-2 5-1 0 3-3 3-5 4l-1 3c6-1 13-2 14-6 4-2 9-1 11-4 0-5-3-6-5-9-2 0-4 0-4-2 5-2 8 1 12 1 6 4 9 11 15 14 1-1 3 0 3 1 0 2-3 2-5 4l-1 4h-4v4c-1 2-6 3-8 2a25 25 0 0 1-6 1l-2 2c-2 1-3-1-4-1a54 54 0 0 1-8 1c0 3 1 6-1 7-3 1-4-5-6-6-2-4-5-5-9-8s-7-5-10-5l-6-4v-2c4-1 6 2 11 0Zm19 15 2 1v-1h-2l1-4v-1c-1-1-2-2-1-3h-2l2 2-2 1 2 2-1 1h1v4-2Zm5-10c1 1 2-1 2-1l-2 1Zm1 9c0 1 0 3 1 2 1 0 0-3-1-2Zm2-6h1c-2 0-2-2-2-2-1 1 0 2 1 3Zm2-6-1-1-2 3h1l2-2Zm0 1 1 2-1-2Zm1 6v-2 2Zm0 4v1-1Zm3-5-1-1v-1h-1c1 2-2 3-1 5l1-2 1-2a2 2 0 0 0 1 1Zm-1-5-1-1-1 1v1Zm0-1 1 2-1-2Zm1 4 1 1h1l-2-1Zm20-5h2-2Z"/><path d="M152 822c1-1 3-3 5-2a10 10 0 0 0 3 6c2 1 3-1 4-1l5 1c3-1 3-4 5-5l4 2a49 49 0 0 0 11-1l1-6-3-3c-1-1-4-1-4-3 5-1 6 4 11 1 3 3 6 8 11 9 1 0 1 2 3 2a7 7 0 0 1 4 2l-2 2a21 21 0 0 1-2 12 6 6 0 0 1-1 5l-10-2a25 25 0 0 1-7 0c-2 0-4-2-6-1-3 0-7 5-9 1a51 51 0 0 1-13 1l3 7-8 1a18 18 0 0 0-2-6c-2-1-5-3-8 0-2-1-5-2-5-5l-12-6c-2-4 2-3 6-3l16-1v-7Zm-16 10a1 1 0 0 0 0 2c2-1 1-2 0-2Zm12 7-1 1c1 0 1 2 2 1a2 2 0 0 0-1-2Zm4-4c0-3-1-3-3-2a8 8 0 0 1 1 4 17 17 0 0 0 2-2Zm5 2-1 3c2 0 2-2 1-3Zm38-12c0 2 1 1 2 2a3 3 0 0 1-1-3h-1c0-2 0-5 2-3l-1-2a2 2 0 0 1 1 0c0-2-4-2-2-4-1 0-1-2-2-1l1 3-1 1 1 3c0 1-2 0-1 1l1 1v5l1-3Zm-2 6 1-2-1 2Zm4 6 1-2-1-1c-1 1-1 2-2 1l-1-1c-1 1 0 1 1 2 1-1 1 1 2 1Zm-1-16v1l1 1a1 1 0 0 0-1-2Zm4 4v2a1 1 0 0 0 0-2Zm4 1-1-2h-1v2l1 1 1-1Zm3-2 1 1-1-1Z"/><path d="M144 787c2-2 5-3 6-6a9 9 0 0 0 5-4c3 1 5-2 7-1l8 6 5 2a14 14 0 0 1 3 3l3 6c2 0 1-3 3-3h4c3-2 2-6 0-9-1-2-3-2-2-4 3-2 5 2 7 4a22 22 0 0 1 3 2l2 4c1 2 4 3 4 5l4 2c0 3-5 2-4 6l-4 1c-2 3-6 4-9 7l-8 1c-3-1-5-3-7-1s-2 4-3 7c-4 0-4-4-6-4-2-5-6-7-10-10h-2c-2-4-4-7-8-8 0-5-7-3-6-8 3 0 3 1 5 2Zm7 0v2-2Zm3-3-1-1h2c0-1 1-2 2-1h1v-2c-2 1-1-1-3-1l-1 3-1-1c-2 0-4 3-1 4l2-1Zm-3 1 1 2-1-2Zm4 4a3 3 0 0 1-2-3c-2 1 0 2 0 4l1-1h1Zm6 5c1 0 1 2 2 1l15-2c0-2-1-2-2-3-5 2-7-2-10-2-3 3-10 1-11 6a5 5 0 0 1 2 2l4-2Zm-3-11a2 2 0 0 1-1 0c0 1-1 2 1 2v-2Zm-1 7 1-2-1 2Zm0 9 1-1-1 1Zm3-18a14 14 0 0 0-2 1l1 2c2 0 1-2 1-3Zm0-3v2h2l-1-2Zm1 4v2a5 5 0 0 0 2 0l-2-2Zm2-2c2 1 2-1 1-1l-1 1ZM129 685c3-2 3-9 0-12-2-1-5-1-4-4 4 1 7 0 9 2s3 5 6 6c2 6 6 11 10 16l9 1c1-1-1-6 1-8 0-2-2-4-1-6-1-1-5-4-1-6l3 1c2 0 4-1 5-3l3 1 1-2 3 1 2-1c6 2 12 1 16 4 3 2 4 6 7 7l4 10h1l2 8h-2c-2 6-1 13 2 16v6c-3 0-3-2-5-3-3 0-4 3-6 5l-5 1c-1 2-5 5-5 7s2 2 3 4l1-2c3 0 4 4 6 5 6 2 11-2 14-5 2-3 2-9 4-13l2-6a17 17 0 0 0-2-8c-1-1-4-3-2-5 3 0 4 4 5 8 2 5 4 8 3 14-1 8-6 14-9 19-1 1-3 1-3 3-3-1-5 1-7 2-5 0-8-4-13-5 0-2-2-2-3-2 0-3-4-4-4-7l-2-2-2-8 2-5a34 34 0 0 0 0-10c0-1-2-2-1-5 4-1 5 4 8 4s3-3 5-4c3-2 8-1 9-5-11-2-23-1-35-1 1 2 4 6 3 10l5 2-7 6-9 8h-4c-3 1-2 6-4 7-5-1-6-6-8-10l-1-2-4-4-1-4c0-4-1-7-3-9v-2c-3-4-4-11-10-14v-3c4-1 5 3 9 2Zm8 15a31 31 0 0 0-1 6c2 3 7 0 10 1l4 2c3-2 5-6 6-10 1 0 3 0 2-1a51 51 0 0 0-18-1c0 2-2 2-3 3Zm23 16c2 1 2-1 3-2v-2l-2-1 1 2-2 1 1 2h-1Zm2-17-1 1h2l-1-1Zm1-4h12c9 0 18 2 24 1-2 0-3-2-4-3-3-2-7-1-11-2-2 0-3-3-6-3-1 0-2 2-4 1l-1 3c-3 0-5-3-8-2-1 1-3 2-3 5Zm5 15h-3l2 2a2 2 0 0 0 1-2Zm-1-21c1-1 2-4 1-6l-1 6Zm4-10v2h2a3 3 0 0 1 0-3c-4 0 0-3 0-5h-2c0 2-1 1-2 2h2c-1 3-3 6-2 8l2-4Zm2-4 2 1s-1-3-2-1Zm0 2c0 1 2 2 2 0h-2Zm5 5-1-2v3l1-1Zm4 1 1-3a2 2 0 0 0-2 0c0 2-1 2-2 3 2-1 1 0 2 1a1 1 0 0 1 1-1Zm7-3a2 2 0 0 0-1 2c3 1 2-3 3-4l-2 2Zm0 3v1a1 1 0 0 0 1 0c1-1 0-1-1-1Zm1 28h-1l1 2v-2Zm0-30c0 2 2 3 2 1l-2-1Zm3 61c2 0 0 1 1 3a19 19 0 0 1 4-2h-3c-1-1 0-3-2-3 0 1-2 3 0 4v-2Zm0-35 2-2a4 4 0 0 0-2 2Zm5 0h-2a3 3 0 0 0 0 2l2-2Zm2 37c0-1 2-2 1-3h-1l-1 2v1Zm0-44-1 2a2 2 0 0 1 1 0v-2Zm1-4v1-1Zm1 46-1 1c1 0 1 2 3 1a2 2 0 0 0-2-2Zm-1-1 2-1a2 2 0 0 0-2 0Zm3-25h-1l-1 2 2-2Zm4 25-1-4-2 1c1 2 0 2-1 3 2-1 1 1 2 1l2-1Zm4-9c0 1-3 0-3 2h3a1 1 0 0 0 0-2Zm1 0v-1l-1-1-1 1 1 1h1Zm-1-4a13 13 0 0 1 2 1l-2-1Zm2-8v1c0 1-2 3-1 4a13 13 0 0 0 2-5l2-2-2-3v2a21 21 0 0 1-1 3Z"/><path d="M158 619c5 1 10 1 13 3l6 4a38 38 0 0 0 14 1h3c3 0 6 4 9 4s4-4 5-7c5 2 6 9 9 12l4 4 1 3 4 4a16 16 0 0 1 0 3l3 4 2 7h2c0 3-1 2-2 4l2 5a10 10 0 0 1-3 4c-4-2-9-1-12 0 1 2 5 5 0 6l-4-4c-3-1-3-4-5-6l1-5a19 19 0 0 0 9-3c3 0 6-2 9 0 1-5-4-7-5-11-2 0-2-1-3-3l-14-5c-1 1-3 2-5 0l1 7c1 2 1 5 3 6 2 2 5 2 5 6h-3l-1 2c-3 1-6 1-8 3a17 17 0 0 1-5-2l-5-2-2-3c-5-3-8-2-12 0l-9-2c0 4 3 7-1 10-3-7-5-14-11-18l-1-2a6 6 0 0 1-2 0v-3c6 1 10 0 13-3l7 2c2 5 8 3 10-1 6 1 9 5 15 5l2-2 2-2c0-2-6-5-10-5l-4 1-4-2h-12l-3-2-5 2-2-2v-8c0-3-3-4-3-7-2-1-4-2-4-5l6 3Zm4 28 1 1c0-2 2-1 3-2h-5l1-1-5 2 2 1 3-1Zm-4 2a2 2 0 0 0 0 1c2 0 1-1 0-1Zm2 1c-2 0-1 3 0 4v-4Zm1-21h2-2Zm2 29c1-1 1-3 3-3l1 1-1-2a2 2 0 0 1 1 0l-1-2c1 1-1 3-1 3s-5 2-2 3Zm0-3 1-2c-1 0-2 1-1 2Zm1-20c-1-1-2 1-1 1l1-1Zm1 15-1-2v2h1Zm0-20c2 0 2-1 2-2l-2 1h1a1 1 0 0 0-1 1Zm3 19a6 6 0 0 1 0-2l-2 1a1 1 0 0 1 0 1 2 2 0 0 0 2 0Zm-1 2-1 1h1a1 1 0 0 1 0-1Zm0-22 1 2c2-1 0-3-1-2Zm1 20v1l2 1c0-1-1-3-2-2Zm3 7-2-1-1-2v3h3Zm4-22-1 1v2c1 0 3-1 1-3Zm11 18a2 2 0 0 0 0 2h1v-2a1 1 0 0 1-1-1c1-1 2-3 1-4-1 2-2 1-2 1l1 1c-1 2-3 4-2 6l2-3Zm0-22 2-1-2 1Zm2 19-1 1h2c-1-1 0-2-1-1Zm0-19v1c1 1 2 0 2-1a3 3 0 0 1-2 0Zm3 24-1 1h1v-1Zm1-17a1 1 0 0 0 2-2l-2 2Zm2 1-1-1-1 1c1 1 3 0 2-1v1Zm0 16-1-1-1 3c1-1 1 0 1 1l1-3Zm-1-22v1c1 0 1 2 2 1-2 0 0-2-2-2Zm2 4-1 3c3 0 4 4 6 2h-1l2 1c1-2 2-1 3-1a18 18 0 0 0-2-3c0 2-2 3-3 2l1-1h-1c0-2 3-2 3-4-1 0-2 2-3 1v2a4 4 0 0 1-2 1v-1c-1-1 0 0 1-1h-2l-1 2 1-3Zm4 20 2-3c-1 1-3 1-2 3Zm0-25c0 2 2 2 2 1a3 3 0 0 0-2-1Zm5 11 2-1-2 1Zm5-3h-2l1 1 1-1Zm-1-5c0 1-1 2 1 3a1 1 0 0 0-1-3Zm2-1h-1l1 1a1 1 0 0 0 0-1Zm1 7-1 1 1-1ZM172 565c3-1 6 2 8 0l5 2c2 0 3 2 4 3l2 1c3 1 4 3 7 3l14 5v-3c0-2-3-3-1-5 4 1 4 4 7 6l6 8 1 3c2 2 6 3 5 7l-20-3-7 1a36 36 0 0 1-9-4l-4-4c-5-2-9 0-14-1a9 9 0 0 0 4 9l3 1 2 1a56 56 0 0 0 7 2 24 24 0 0 1 3 1c4 1 7 5 11 3l1-5c5 2 6 6 9 9a23 23 0 0 1 2 2l2 4 4 4c0 2-2 1-2 2-4 0-5 2-9 0l-4 4c-1-2-2-1-4-2l-5-4-6-1c-4 0-7-2-11-4h-4c-2 0-1-1-3-2-3 2 2 8-3 9-3-3-4-7-6-11l-2-1c0-2-5-8 1-7 3-1 5-5 9-5 0-2-3-4-4-6l1-6v-2l-2-5a17 17 0 0 0-4-6c-1-2-3-5 0-7l6 4Zm-5 35c1 1 1 0 1-1l-1 1Zm12-19 1-3a17 17 0 0 0-2 4c0 2 1-1 1-1Zm8-8h-1l-2 1c-1-2 2-3 2-5l-2-1c1 1 0 2-1 1v1h-1l2 1c-1 2-4 4-3 7l2-4v2l2 1v-2h1a7 7 0 0 1-1-1h2v-1Zm-1-3a2 2 0 0 0 0 2h1l-1-2Zm3 7-1 1 1 1v-2Zm2 0v2c2 2 2 0 2-2a2 2 0 0 0-2 0Zm8 2-1 1h2l1-3-2 2Zm0 2v2l1-2Zm4 6a1 1 0 0 0-1 0v1l1-1ZM170 535c2 0 4-2 5-3a5 5 0 0 1 3 0c4-2 8-4 10-9 5-1 0-6 3-9 3 0 3 3 7 5 7 4 19 7 26 9l1-4c3 0 3 4 4 6 3 6 5 13 5 21l1 5c2 1 4 2 3 5a9 9 0 0 1-3-1l-2 2c-5-2-7 1-10 1l-4 6c-4-1-5-4-7-6h-6c-4-1-5-6-9-6-3-1-2 3-5 4-2-1-2-3-2-5l-4-14-5 2-1 5v7c-11-3-11-11-17-16a16 16 0 0 0-1-4c-2-2-2-4-6-5v-1l1-2c4 2 6 6 13 7Zm-5 5 2-3c-1 1-3 2-2 3Zm4-4h-2c2 0 0 1 2 2v-2Zm0 2c-1 1-2 3 0 3v-3Zm0 8c1 1 3 0 2-1a1 1 0 0 0-2 1Zm2-8a2 2 0 0 0 1-1l-2-1v2a3 3 0 0 0 1 0Zm3 9h-2a3 3 0 0 0-1 2c2 0 2-1 3-2Zm1-8v1l1 2h-3c-1 1-1 2 1 3 0-3 3-3 3-5Zm2-6c-2 0-2 1-3 2l3 1v-3Zm-3 17c1 1 2 0 2-1l-2 1Zm5-11-2 1a6 6 0 0 0 2 2 21 21 0 0 1 0-3Zm4-4h-3a8 8 0 0 0 0 3c1 0 3 0 3-3Zm33 15h4l4-3v-1c0-2-4-5-6-5-2-1-3 0-4-2l-7 1-1-2c-2-1-5-1-7-3a28 28 0 0 1-10 4l12 6c4 3 9 3 15 5Zm-20 0c-2-1-2 1-1 2a2 2 0 0 0 1-2Zm6 7v-2l-1-1c1-1 2-3 3-2 0-2 2-2 0-4l-2 1-1 3v1c0 1-2 2-1 3a1 1 0 0 1 1-1c-1 2 0 1 1 2Zm1-5v2-2Zm2 5-1 1h1v-1Zm4 1-2-1-1 2h-1l2 1c0-2 1-1 2-2Zm-3-1c0-1 3 0 1-2 0 1-2 1-1 2Zm2-4c-1 0 0 2 1 1l-1-1Zm5 8-1-1 1-2-2 2 1 1h-2 3Zm-2-24v-1Zm2 16c-2-1-1-2-1-3l-1 3h2Zm4 1h1v-2c-1 2-2 4-5 4a2 2 0 0 0 0 1c2 1 3-4 4-1v-1Zm-1 0c-1-1-3 0-2 1a2 2 0 0 0 2-1Zm2-20a2 2 0 0 1-1-1 1 1 0 0 0 0 1h1Zm0 33v-2h-1v2a1 1 0 0 1 1 0Zm1-8c-1 1-2 2 0 3v-3Zm1-3c-2 0 0-2-2-2l1 2c0 1 1 2 1 0Zm3-3-2-1v-1a3 3 0 0 0-2 1s2 0 0 1a15 15 0 0 0 4 0Zm-3 7 1-2-1 2Zm1-27-1 1v1c1 1 2-1 1-2Zm1 2c1 0-1 1 1 1 1-1-1-3-1-1Zm3 18h-1v1c1 1 2-1 1-1Zm1-9-1-1a1 1 0 0 0 0 2l1-1Zm1-2c2-1-2-3-1 0Zm-1 11a2 2 0 0 0 1 3c1-1 0-2-1-3Zm3-8c-1-1-1 1-1 1l1-1ZM187 480c2 0 5-1 8 1 1 1 1 3 4 4l-3 10-5 1-1-1c-4 1-11-4-9-9l-3-3 9-3Zm-3 11 1-1c-1-1-1 0-1 1Zm5 2c-2-1-1-3 0-4l-1-2c-1 1 0 3-2 3l1 1v1h-2a2 2 0 0 0 0-1l-1 1c1 1 3 2 5 1Zm-2-6h-1v1l1 1v-2Zm2 4 1-1c-1-1-1 0-2 1h1Zm0-6c1 1 0 0-1 1l2 1v-2Zm3-1c-1-1-2 0-2 1l2-1Zm1 2-1 2a2 2 0 0 0 1 1v-3Zm2 4v-2a1 1 0 0 1-1 0l-2 1a1 1 0 0 1 0 1h3Zm1-3-1-1s-2 1-1 2l2-1Zm0 2v2-2Zm27 6c6 4 13 7 19 7l1-5c3 1 2 3 5 4v2l2 8v7c1 2 3 4 3 7-3 2-5-2-8-3h-3l-7-4h-4c-2-4-8-3-11-5-4-2-5-7-10-8-1 2 0 6-3 9-4-3-3-8-6-12v-3c-2 0-2-1-3-2 0-6 5-7 8-11 5 3 10 10 17 9Zm-17-1 2-1v-1c-2 1 1-3-1-4l-2 4c1-1-3-2-2-1l1 1a2 2 0 0 0-2-1l-2 3h2l1-1 1 1-2 1 5-2-1 1Zm-2 4-1-1c-1 1-2 2-1 3 1-1 2 0 2-2Zm2 6-1 1h1l1-1-1-1h1v-2c0 2-4 3-3 0h-1l-1 1a9 9 0 0 0 2 0l-1 2h3Zm0-10c0 2-2 2 0 4 2-1 1-3 0-4Zm0 7c1 0 3-1 2-2l-2 2Zm4-3 1-3h-3v3h2Zm2 2v-3h2-3l-1 1v1a3 3 0 0 1 2 1Zm2-6-2-1a2 2 0 0 0 0 1h2Zm2 1-1 1c1 1 2 0 2-1Zm4 2-1-1a1 1 0 0 0 0 2l1-1Zm11 14c0 1-2 3 0 4a4 4 0 0 0 0-4Zm5 6a2 2 0 0 0 0-2h-2v-2l-1 1v2c1 0 1-1 3 1Zm3-13c3 0-1 2-2 2 1 1 2-1 2 1-2-1-2 1-2 2s-4 3-2 4l1-2c0 2 2 0 3 1a26 26 0 0 0-1 3c1 1 1-1 1-1a1 1 0 0 1 0 1h1c1 2-2 3 0 4l1-2h3a2 2 0 0 0 1 1l3-4c-2 0-3 4-4 1a1 1 0 0 0 1 0l-1-1 4-3-2-1-2 2a1 1 0 0 1 0 1 4 4 0 0 1-1 0 3 3 0 0 0-1-1c0 1 0 2-1 1v-1h1c-2-1-1-2-3-2v1h-1l-1-1 5-3a1 1 0 0 1-1-1h-1l2-3-3 1Zm-2 9-2 2 2-2Zm4-2a5 5 0 0 1-1 2v-2h1Zm2-6a2 2 0 0 0-1-1 2 2 0 0 0-1 2l2-1Zm1 5h-3c1 0 2 2 3 1v-1Zm-1-7 1-2-1 2Zm4 15-1 1v-1c-2 1 1 5 2 2a7 7 0 0 0-1-2Zm0-13-1 2 1 1a3 3 0 0 0 0-3Zm3 16-1-2c0 1 1 1-1 2h2ZM201 448c2 4 5 6 10 9h2l11 6c2-7-2-12-4-18l2-2a12 12 0 0 0 4 3h8c5 0 8 0 7 5 6 4 3 11 3 17 2-2 1-3 1-5 5-5 1-11 6-14l11 9c2 2 4 5 7 4 1-2-1-4 1-5 3 0 2 3 4 4v10l2 2v3l4 3a5 5 0 0 1-1 3c-2 1-6-3-8-2-3-3-8-2-10-3l-4-4-8-4a27 27 0 0 1-6 5l7 5 6 1 1-2c4 1 4 5 6 7l8 5c-1 2-2 2-4 1-4 2-9 1-13 7-2 1-2 0-5-2l-7-6c-1-1-1 1-2 1l-3-3c-2-1-1 2-3 2l-6-2c-2-2-3-6-6-8l-4-2-5-5-2-3a20 20 0 0 0-7 0c-2 3-9 5-8-1l-2-1c0-2 2-3 1-5l2-2c0-5 1-11-1-15 2-3-1-5 1-7 4 0 3 5 4 9Zm-3 19v1-3l-2 3 2-1Zm2-6a3 3 0 0 0-3 3l1 1c1-1 4-4 3-5h-3c0 2 2 0 2 1Zm-1-4c0-1 2-3 1-4-1 2-3 4-1 6v-2Zm-1-12 1 24v1h2c-1 1-1-1-2-1Zm2-3c-1-1-2 1-1 2 1 23 2 23 2 22Zm2-1-1-2h2l-2-1-1 2v1c2 23 2 25 3 23Zm1-7-1 1 1 1 1 21Zm1 32h1-1Zm4-6c-1 0-3 1-2 2l2-2Zm2 2h-1v1Zm3-3a2 2 0 0 0-3 0v1l3-1Zm7 3h-1a3 3 0 0 0-1 1c1 1 1 0 2-1Zm4-16h-1 1Zm0 6a1 1 0 0 0 3 0 2 2 0 0 0-3 0Zm1 2h2l1 2v-2h1v-3c1 1 2-1 1-1-2 1-1 4-3 4h-2Zm13 9a6 6 0 0 1-6-3c-2 0-5 1-5 4 4 0 10 7 14 6-2-2-2-4-3-7Zm-11-15a1 1 0 0 0 3 0c-1-1-2-2-3 0Zm3 0a1 1 0 0 0 2 0h-2Zm4 10c-3-1-3-3-3-5l-1 3 4 2Zm0-7v-2l1 1 1-1-3-1-1 2v1h2Zm22 34h1l2-2-1-1c-1 1-2-1-4-1l2 2a4 4 0 0 0 0 2Zm-1 3c1 1 1 0 1-1l-1 1Zm9-17a3 3 0 0 0-1 2 2 2 0 0 1 2 1 3 3 0 0 1 1-3l-2-2c2-1 3-3 5-3v1l1-2h1c2-2-1-3 0-2v-2c-1 2-3 3-5 2a3 3 0 0 0 0 2h-2v1h1c-1 3-3 4-5 6v2c1-1 2-3 4-3Zm4 0-1-2a1 1 0 0 0 0 2h1Zm0-4a3 3 0 0 0-1 1l1 2a2 2 0 0 0 0-3Zm1 8-1 1 1 1v-2Zm5 2a2 2 0 0 0-2-1c0 1 0 2-2 2l3 1 1-2ZM250 408l4 2c0-2 1-1 2-3l3 1 3-2c2-2 2-5 4-4l1 4c0 4 7 10 11 7 3 3 6 7 10 8l2-1c1-2-3-4 0-7 4 3 5 5 6 8l3 3c-4 5 3 8 3 13-5 2-10-1-15-1 1 6-2 13 5 18l-2 2c1 1 3 2 2 3-1 2-4 0-6 0l-7-2c-3-2-5-5-9-6l-5-1-5-5-4-1-4 3c-2-2-1-5-1-7a41 41 0 0 0-1-7c0-4 0-7-2-10l-1-11c2-3-1-5 1-8 3 1 1 3 2 4Zm3 17-1-1v1h1Zm0-11a3 3 0 0 0 2-1 3 3 0 0 0-2 1Zm9 8c-3 0-5-1-8 1 1 2-1 4 1 6l3-1c5 1 9 6 15 9 1 5 6 4 10 5l1-7c-5-4-10-4-14-8a17 17 0 0 1-8-5Zm-6-6-1-1a2 2 0 0 0-1 1h2Zm-2 27 3-2-3 2Zm2-32 1 1-1-1Zm4 25c-2-1-3-3-2-4l-2 3 4 1Zm-2-6a3 3 0 0 0-1 2l1-2Zm0 0h2a3 3 0 0 0-2 0Zm3 9 2 1v-2l1 1c1-1 1-2-1-2 0 3-6 0-5 4l3-2Zm-2-20h-1l1 2a1 1 0 0 0 0-2Zm0 19a2 2 0 0 0 3-1c-1-1-2 0-3 1Zm6-33-5 6c1 1-1 1-1 2 1 2 3 0 3 1l-2 2c2 1 6-1 3-3 1 0 2-2 0-2 0 2 0 2-2 2 1-3 5-6 4-8Zm-5 15c1 0 2 0 1-1a2 2 0 0 0-1 1Zm4 12c-1 1-2 1-1 2 1 0 2-1 1-2Zm3 10a5 5 0 0 1-2-4l-1 3c1 0 5 3 3 1Zm0-21a2 2 0 0 0-1-1 2 2 0 0 0-2 2l3-1Zm1 16-1-2-1 1 2 1Zm0-18-1 1c1 1 2-1 1-1Zm2-5a1 1 0 1 0-1 1c0-2 1-1 1-1Zm0 4v1-1Zm2 29v-2l2-2c1 1 1 0 2-1a10 10 0 0 1-3-1l-1 2v1l-3 3 2-2 1 2Zm-2-30v1l2-1h-2Zm4-1 1 2 1-2c-2-1-3-2-4-1v1h2Zm-2 33c1-1 3 0 2-1l-2 1Zm2-23h-1l1 2v-2Zm1-8c-1-1-2 1-1 1a2 2 0 0 0 1-1Zm1 30-2 2h2v-2Zm5-24h-1v-1c-1 2-1 1-2 0 0 1-2 2-1 3h2c0-3 3-1 3-2h-1Zm-1 27v-1l-2 1 1 2 1-2Zm0-23-1 2v1c2 0 2-1 4 1l-1-2h-1 2c1-1 0-2 1-1l1-3 1-1-1-2s-2 0-1 1v2h-2l-1 3-1-1Zm6 18-2 2h-2c0 2-3 2-1 2 0 0 3-3 3-1 2 0 2-2 2-3Zm-5-2-1 2 1-2Zm1 12 1-1-1 1Zm4-15-2 2h2v-2Zm0 8-2 1h3c-1 0 0-2-1-1Zm-1-5-1 1h1v-1Zm2-15-2-1c1 1-1 3 1 3l1-2Zm2 3 1-2-1-1v3Zm1-9-1 1h2Zm1 3c-1 1 1 2 1 2h2l3 1c-1 0 0 0 0 0l-1-2-2 1v-2c1-1 3 0 3-2h-2v2a9 9 0 0 0-2 0v-2h-1v1l-1-2-1 3h1Zm0 5 1-1-2 3c1-2 1 1 2 0a1 1 0 0 1 0-1l-1-1Zm3 3c-2 0-1-2-2-1v2l2-1Zm-1-11c1 1 2-1 1-1Zm3 12v-1l1-1c-1 0-2 3-3 2h2Zm0-3a1 1 0 0 1 1-1l-1-1-1 1Zm2 0-1-2v2h1Z"/><path d="M279 375c2 0 4 0 5 2a10 10 0 0 0-2 7c1 2 2 1 3 2l3 4h7c2 1 1 3 2 5a50 50 0 0 0 8 6c2 1 3-2 4-3l1-5c-1-1-2-3 0-5 4 3 1 7 6 9 0 5-1 10 2 14v3a7 7 0 0 1 2 5h-3a21 21 0 0 1-10 7 6 6 0 0 1-5 3l-5-9a25 25 0 0 1-5-5l-3-5c-3-2-8-1-8-5a52 52 0 0 1-9-9l-4 7-5-5a18 18 0 0 0 3-5c-1-3-2-6-6-6-1-2-2-5 0-7l-4-13c1-4 4-1 6 2 3 3 7 8 12 10 2 0 4-2 5-4Zm-18-4a1 1 0 0 0-1 1c1 1 1-1 1-1Zm3 13h-2l1 2 1-2Zm6 0c2-1 1-3-1-3a8 8 0 0 1-2 2 18 18 0 0 0 3 1Zm2 5c-1-1-3 1-3 2l3-2Zm28 28 2-1-2-1v-2l-1 2 1 2Zm2-6 1-1-1 1Zm5-3v2a3 3 0 0 1 2-2l-1-1c1-1 3-4 3-1l1-2a2 2 0 0 1 1 1c1-2-1-4 1-4v-3l-2 3h-1c-2 1-1 2-2 3h-1v2c-1 1-4 1-4 3 1 0 2-2 3-1Zm4 3-2 2a1 1 0 0 0 2-2Zm0-6-1 1v2a1 1 0 0 0 1-3Zm2 10 1-2-1-1-2 2s0-1 0 0v1h2Zm3 0 1 2-1-2Z"/><path d="M298 344c3 1 6 2 9 1a9 9 0 0 0 6 0c1 3 4 3 6 5s0 6 1 10l2 5a14 14 0 0 1 0 4c-1 2 0 4-2 6h4l3 3c4 1 6-2 7-6 0-2-1-4 1-5 4 2 2 5 2 8a21 21 0 0 1 0 4l-1 4c0 3 1 5-1 7 1 1 2 3 1 4-1 2-5-2-6 1l-3-2c-4 0-8-2-12-1l-6-6c-2-2-2-5-5-5l-7 3c-2-3 0-6-1-8 2-5 1-9 0-14l-2-1c2-4 3-8 1-11 3-4-3-7 2-10l1 4Zm1 19h1-1Zm6-1 1 2 12 10 1-5c-5-2-4-5-6-8-4 0-8-6-12-4a5 5 0 0 1 0 3l4 2Zm-2-12c-1 0-2 0-1 1 0 0 2 0 1-1Zm2 4a3 3 0 0 1 0-4c-2 0-2 2-3 3h2l1 1Zm-1-6v2-2Zm3 1v-1l2 2h2l1 1v-4c-1 1-3 2-4 1l1-1c-2-1-6-1-4 2h2Zm-2 7h2-2Zm6-4a2 2 0 0 1-1-1l-1 2 2-1Zm2 0a13 13 0 0 0-2-1v2c1 2 2-1 2-1Zm0 1-1 2a5 5 0 0 0 1 1v-3Zm3-3-1 1 1 1v-2Zm1 4c0 1 2 0 1-1l-1 1ZM348 358a30 30 0 0 0 13-2 1 1 0 0 0 1 0c3 5 1 10 5 15-3 2-5 0-8 2-2-1-3 0-5 1-2-2-5-2-7-5l1-5-3-2c1-1 2-3 0-4l1-1 2 1Z"/></g></svg>